<?xml version="1.0" encoding="utf-8"?>
<!-- Generator: Adobe Illustrator 23.0.4, SVG Export Plug-In . SVG Version: 6.00 Build 0)  -->
<svg version="1.1" id="Calque_1" xmlns="http://www.w3.org/2000/svg" xmlns:xlink="http://www.w3.org/1999/xlink" x="0px" y="0px"
	 viewBox="0 0 128 128" style="enable-background:new 0 0 128 128;" xml:space="preserve">
<style type="text/css">
	.st0{fill:#FFFFFF;}
</style>
<g>
	<g>
		<path class="st0" d="M76.4,64l-48.1,47.9c-1.3,1.3-2.1,3.1-2.1,4.9c0,1.9,0.7,3.6,2.1,5l4.2,4.2c1.3,1.3,3.1,2,5,2s3.6-0.7,5-2
			l57.2-57c1.3-1.3,2.1-3.1,2-5c0-1.9-0.7-3.6-2-5L42.5,2c-1.3-1.3-3.1-2-5-2c-1.9,0-3.6,0.7-5,2l-4.2,4.2c-2.7,2.7-2.7,7.2,0,9.9
			L76.4,64z"/>
	</g>
</g>
</svg>
