<?xml version="1.0" encoding="utf-8"?>
<!-- Generator: Adobe Illustrator 23.0.4, SVG Export Plug-In . SVG Version: 6.00 Build 0)  -->
<svg version="1.1" id="Calque_1" xmlns="http://www.w3.org/2000/svg" xmlns:xlink="http://www.w3.org/1999/xlink" x="0px" y="0px"
	 viewBox="0 0 128 128" style="enable-background:new 0 0 128 128;" xml:space="preserve">
<style type="text/css">
	.st0{fill:#E9B966;}
</style>
<path class="st0" d="M64,0C28.6,0,0,28.6,0,64s28.6,64,64,64s64-28.6,64-64S99.4,0,64,0z M119.7,64c0,30.6-24.8,55.7-55.7,55.7
	C33.4,119.7,8.3,94.9,8.3,64C8.3,33.4,33.1,8.3,64,8.3C94.6,8.3,119.7,33.1,119.7,64z M81.3,86.8l-21-15.2c-0.8-0.6-1.3-1.5-1.3-2.5
	V27.9c0-1.7,1.4-3.1,3.1-3.1h3.6c1.7,0,3.1,1.4,3.1,3.1v37.8l18.2,13.2c1.4,1,1.7,2.9,0.7,4.3l-2.1,2.9
	C84.6,87.5,82.7,87.8,81.3,86.8L81.3,86.8z"/>
</svg>
