<?xml version="1.0" encoding="utf-8"?>
<!-- Generator: Adobe Illustrator 23.0.4, SVG Export Plug-In . SVG Version: 6.00 Build 0)  -->
<svg version="1.1" id="Calque_1" xmlns="http://www.w3.org/2000/svg" xmlns:xlink="http://www.w3.org/1999/xlink" x="0px" y="0px"
	 viewBox="0 0 128 128" style="enable-background:new 0 0 128 128;" xml:space="preserve">
<style type="text/css">
	.st0{fill:#FFFFFF;}
</style>
<path class="st0" d="M107.1,117.8c-0.4-1.9-2.3-3-4.2-2.5c-2.9,0.7-7.4,1.5-12.6,1.5c-23.2,0-40.7-13.3-46.2-34.4h44.6
	c1.7,0,3.1-1.2,3.4-2.8l0.4-2.3c0.4-2.1-1.2-4.1-3.4-4.1h-47c-0.5-6-0.5-12.5,0.2-18.3h51.4c1.7,0,3.1-1.2,3.4-2.8l0.4-2.3
	c0.4-2.1-1.2-4.1-3.4-4.1H44.2c6-20.1,23-34.4,45.9-34.4c4.2,0,8.2,0.6,10.8,1.2c1.8,0.4,3.6-0.7,4-2.5l1.1-4.4
	c0.5-1.9-0.7-3.8-2.7-4.2c-3-0.6-7.7-1.3-13.1-1.3C61.1,0,38,19.5,31.1,45.7h-7.9c-1.9,0-3.4,1.5-3.4,3.4v2.3c0,1.9,1.5,3.4,3.4,3.4
	h6.3C28.8,60,29,69.1,29.4,73.1h-6.1c-1.9,0-3.4,1.5-3.4,3.4v2.3c0,1.9,1.5,3.4,3.4,3.4h7.5C37,109.9,60,128,90.3,128
	c6.5,0,12-1,15.3-1.7c1.9-0.4,3-2.3,2.6-4.1L107.1,117.8z"/>
</svg>
