<?xml version="1.0" encoding="utf-8"?>
<!-- Generator: Adobe Illustrator 23.0.4, SVG Export Plug-In . SVG Version: 6.00 Build 0)  -->
<svg version="1.1" id="Calque_1" xmlns="http://www.w3.org/2000/svg" xmlns:xlink="http://www.w3.org/1999/xlink" x="0px" y="0px"
	 viewBox="0 0 128 128" style="enable-background:new 0 0 128 128;" xml:space="preserve">
<style type="text/css">
	.st0{fill:#10434B;}
</style>
<path class="st0" d="M64,31.2c-18.2,0-32.8,14.7-32.8,32.8S45.9,96.8,64,96.8S96.8,82.2,96.8,64S82.2,31.2,64,31.2z M64,85.3
	c-11.7,0-21.3-9.6-21.3-21.3S52.2,42.6,64,42.6S85.3,52.2,85.3,64S75.8,85.3,64,85.3L64,85.3z M105.8,29.8c0,4.3-3.4,7.7-7.7,7.7
	c-4.3,0-7.7-3.4-7.7-7.7s3.4-7.7,7.7-7.7C102.4,22.2,105.8,25.6,105.8,29.8z M127.6,37.6c-0.5-10.3-2.8-19.3-10.3-26.8
	c-7.5-7.5-16.6-9.8-26.8-10.3c-10.6-0.6-42.2-0.6-52.8,0C27.4,0.9,18.3,3.2,10.8,10.7S1,27.3,0.4,37.6c-0.6,10.6-0.6,42.3,0,52.8
	c0.5,10.3,2.8,19.3,10.3,26.8c7.5,7.5,16.6,9.8,26.8,10.3c10.6,0.6,42.2,0.6,52.8,0c10.3-0.5,19.3-2.8,26.8-10.3
	c7.5-7.5,9.8-16.6,10.3-26.8C128.1,79.8,128.1,48.2,127.6,37.6L127.6,37.6z M113.9,101.7c-2.2,5.6-6.5,9.9-12.2,12.2
	c-8.4,3.3-28.4,2.6-37.7,2.6s-29.3,0.7-37.7-2.6c-5.6-2.2-9.9-6.5-12.2-12.2c-3.3-8.4-2.6-28.4-2.6-37.7s-0.7-29.3,2.6-37.7
	c2.2-5.6,6.5-9.9,12.2-12.2c8.4-3.3,28.4-2.6,37.7-2.6s29.3-0.7,37.7,2.6c5.6,2.2,9.9,6.5,12.2,12.2c3.3,8.4,2.6,28.4,2.6,37.7
	S117.2,93.3,113.9,101.7z"/>
</svg>
