<?xml version="1.0" encoding="utf-8"?>
<!-- Generator: Adobe Illustrator 23.0.4, SVG Export Plug-In . SVG Version: 6.00 Build 0)  -->
<svg version="1.1" id="Calque_1" xmlns="http://www.w3.org/2000/svg" xmlns:xlink="http://www.w3.org/1999/xlink" x="0px" y="0px"
	 viewBox="0 0 128 128" style="enable-background:new 0 0 128 128;" xml:space="preserve">
<style type="text/css">
	.st0{fill:#E9B966;}
</style>
<path class="st0" d="M116,16H12C5.4,16,0,21.4,0,28v72c0,6.6,5.4,12,12,12h104c6.6,0,12-5.4,12-12V28C128,21.4,122.6,16,116,16z
	 M12,24h104c2.2,0,4,1.8,4,4v10.3c-5.5,4.6-13.3,11-37.7,30.3C78.1,72,69.8,80.1,64,80c-5.8,0.1-14.2-8-18.3-11.3
	C21.3,49.3,13.5,43,8,38.3V28C8,25.8,9.8,24,12,24z M116,104H12c-2.2,0-4-1.8-4-4V48.8c5.7,4.7,14.7,11.9,32.7,26.2
	C45.8,79,54.8,88.1,64,88c9.1,0.1,18.1-8.9,23.3-13.1c18-14.3,27-21.5,32.7-26.2V100C120,102.2,118.2,104,116,104z"/>
</svg>
