<?xml version="1.0" encoding="utf-8"?>
<!-- Generator: Adobe Illustrator 23.0.4, SVG Export Plug-In . SVG Version: 6.00 Build 0)  -->
<svg version="1.1" id="Calque_1" xmlns="http://www.w3.org/2000/svg" xmlns:xlink="http://www.w3.org/1999/xlink" x="0px" y="0px"
	 viewBox="0 0 128 128" style="enable-background:new 0 0 128 128;" xml:space="preserve">
<style type="text/css">
	.st0{fill:#10434B;}
</style>
<path class="st0" d="M125.3,49.8h-17.1L77.3,15.4c-1.3-1.5-3.6-1.6-5-0.3s-1.6,3.6-0.3,5l26.7,29.6H29.3L56,20.2
	c1.3-1.5,1.2-3.7-0.3-5c-1.5-1.3-3.7-1.2-5,0.3L19.8,49.8H2.7C1.2,49.8,0,51,0,52.4v1.8c0,1.5,1.2,2.7,2.7,2.7h3.7l6.6,47.7
	c0.7,5.3,5.2,9.2,10.6,9.2h81c5.3,0,9.8-3.9,10.6-9.2l6.6-47.7h3.7c1.5,0,2.7-1.2,2.7-2.7v-1.8C128,51,126.8,49.8,125.3,49.8z
	 M108,103.6c-0.2,1.7-1.8,3.1-3.5,3.1h-81c-1.8,0-3.3-1.3-3.5-3.1l-6.5-46.7h101L108,103.6z M67.6,69.3v24.9c0,2-1.6,3.6-3.6,3.6
	c-2,0-3.6-1.6-3.6-3.6V69.3c0-2,1.6-3.6,3.6-3.6C66,65.8,67.6,67.4,67.6,69.3z M92.4,69.3v24.9c0,2-1.6,3.6-3.6,3.6
	c-2,0-3.6-1.6-3.6-3.6V69.3c0-2,1.6-3.6,3.6-3.6C90.9,65.8,92.4,67.4,92.4,69.3z M42.7,69.3v24.9c0,2-1.6,3.6-3.6,3.6
	s-3.6-1.6-3.6-3.6V69.3c0-2,1.6-3.6,3.6-3.6S42.7,67.4,42.7,69.3z"/>
</svg>
