<?xml version="1.0" encoding="utf-8"?>
<!-- Generator: Adobe Illustrator 23.0.4, SVG Export Plug-In . SVG Version: 6.00 Build 0)  -->
<svg version="1.1" id="Calque_1" xmlns="http://www.w3.org/2000/svg" xmlns:xlink="http://www.w3.org/1999/xlink" x="0px" y="0px"
	 viewBox="0 0 128 128" style="enable-background:new 0 0 128 128;" xml:space="preserve">
<style type="text/css">
	.st0{fill:#E9B966;}
</style>
<path class="st0" d="M123.3,87.8L96.2,76.2c-3.2-1.4-6.9-0.5-9.1,2.2L76,91.9C58.7,83.4,44.7,69.3,36.1,52l13.5-11
	c2.7-2.2,3.6-5.9,2.2-9.1L40.2,4.7c-1.5-3.5-5.3-5.4-9-4.5L6.1,6C2.5,6.8,0,10,0,13.6C0,76.9,51.3,128,114.4,128
	c3.6,0,6.8-2.5,7.6-6.1l5.8-25.2C128.6,93.1,126.7,89.3,123.3,87.8z M114.2,120C55.6,119.9,8.1,72.4,8,13.8l24.9-5.8l11.5,26.8
	L26.2,49.8c12.1,25.8,26.1,39.9,52,52l14.9-18.2L120,95.1L114.2,120z"/>
</svg>
