<?xml version="1.0" encoding="utf-8"?>
<!-- Generator: Adobe Illustrator 23.0.4, SVG Export Plug-In . SVG Version: 6.00 Build 0)  -->
<svg version="1.1" id="Calque_1" xmlns="http://www.w3.org/2000/svg" xmlns:xlink="http://www.w3.org/1999/xlink" x="0px" y="0px"
	 viewBox="0 0 128 128" style="enable-background:new 0 0 128 128;" xml:space="preserve">
<style type="text/css">
	.st0{fill:#E9B966;}
</style>
<path class="st0" d="M115.5,0c-1.4,0-2.9,0.3-4.3,0.9L7.2,48.9C-4.8,54.5-0.8,72,12,72h44v44c0,7.5,6.1,12,12.2,12
	c4.3,0,8.7-2.2,11-7.2l48-103.9C130.5,8.7,123.5,0,115.5,0z M119.9,13.5l-48,103.9c-0.8,1.7-2.1,2.6-3.8,2.6c-1.5,0-4.2-0.8-4.2-4
	V64H12c-2.9,0-3.7-2.2-3.9-3.2c-0.3-1.2-0.3-3.5,2.4-4.8L114.2,8.3c0.4-0.2,0.8-0.3,1.3-0.3c1.4,0,2.9,0.9,3.8,2.3
	C119.8,11.1,120.3,12.4,119.9,13.5z"/>
</svg>
