<?xml version="1.0" encoding="utf-8"?>
<!-- Generator: Adobe Illustrator 23.0.4, SVG Export Plug-In . SVG Version: 6.00 Build 0)  -->
<svg version="1.1" id="Calque_1" xmlns="http://www.w3.org/2000/svg" xmlns:xlink="http://www.w3.org/1999/xlink" x="0px" y="0px"
	 viewBox="0 0 128 128" style="enable-background:new 0 0 128 128;" xml:space="preserve">
<style type="text/css">
	.st0{fill:#FFFFFF;}
</style>
<g>
	<g>
		<path class="st0" d="M64,51.6l47.9,48.1c1.3,1.3,3.1,2.1,4.9,2.1c1.9,0,3.6-0.7,5-2.1l4.2-4.2c1.3-1.3,2-3.1,2-5
			c0-1.9-0.7-3.6-2-5l-57-57.2c-1.3-1.3-3.1-2.1-5-2c-1.9,0-3.6,0.7-5,2L2,85.5c-1.3,1.3-2,3.1-2,5c0,1.9,0.7,3.6,2,5l4.2,4.2
			c2.7,2.7,7.2,2.7,9.9,0L64,51.6z"/>
	</g>
</g>
</svg>
