<?xml version="1.0" encoding="utf-8"?>
<!-- Generator: Adobe Illustrator 23.0.4, SVG Export Plug-In . SVG Version: 6.00 Build 0)  -->
<svg version="1.1" id="Calque_1" xmlns="http://www.w3.org/2000/svg" xmlns:xlink="http://www.w3.org/1999/xlink" x="0px" y="0px"
	 viewBox="0 0 128 128" style="enable-background:new 0 0 128 128;" xml:space="preserve">
<style type="text/css">
	.st0{fill:#FFFFFF;}
</style>
<path class="st0" d="M37,69.5c0,3-2.4,5.3-5.3,5.3s-5.3-2.4-5.3-5.3s2.4-5.3,5.3-5.3S37,66.5,37,69.5z M95.9,64.1
	c-2.9,0-5.3,2.4-5.3,5.3c0,3,2.4,5.3,5.3,5.3c2.9,0,5.3-2.4,5.3-5.3C101.2,66.5,98.8,64.1,95.9,64.1z M115.7,95.2
	c-13.9,11-34.1,8.5-45-5.5l-6.9,10.3L57,89.9c-10.7,13.5-30.1,16-44,5.8C-1.2,85.1-4.2,65,6.3,50.7C4.9,46.2,2.8,41.8,0,38l20.1,0
	c13.1-8.2,28.3-12.4,43.8-12.1c15.1-0.3,29.9,3.9,42.7,11.9l21.4,0c-2.8,3.9-5,8.2-6.3,12.9C132,64.7,129.4,84.5,115.7,95.2z
	 M57.6,69.7c0-14.2-11.5-25.7-25.6-25.7c-14.1,0-25.6,11.5-25.6,25.7c0,14.2,11.5,25.7,25.6,25.7C46.2,95.4,57.6,83.9,57.6,69.7
	L57.6,69.7z M64,67.4C65.2,51,78.5,38.2,94.9,37.7c-9.8-4.3-20.4-6.4-31.1-6.2c-10.7-0.1-21.3,2-31.1,6.1C49.2,38,62.8,50.9,64,67.4
	L64,67.4z M119.9,61c-4.9-13.3-19.6-20.1-32.8-15.2c-13.3,4.9-20,19.7-15.1,33v0c4.9,13.3,19.6,20.1,32.9,15.2
	C118,89.1,124.8,74.3,119.9,61L119.9,61z M47.5,69.5L47.5,69.5c0,8.8-7.1,15.9-15.8,15.9s-15.8-7.1-15.8-15.9s7.1-15.9,15.8-15.9
	C40.4,53.6,47.5,60.7,47.5,69.5L47.5,69.5z M42,69.5L42,69.5c0-5.8-4.7-10.4-10.4-10.4c-5.7,0-10.4,4.7-10.4,10.4
	c0,5.8,4.7,10.4,10.4,10.4C37.4,79.9,42,75.2,42,69.5z M111.7,69.5L111.7,69.5c0,8.8-7.1,15.9-15.8,15.9S80,78.2,80,69.5
	c0-8.8,7.1-15.9,15.8-15.9C104.6,53.6,111.7,60.7,111.7,69.5z M106.2,69.5c0-5.8-4.6-10.4-10.4-10.4c-5.7,0-10.4,4.7-10.4,10.4
	c0,5.8,4.6,10.4,10.4,10.4C101.6,79.9,106.2,75.2,106.2,69.5L106.2,69.5L106.2,69.5z"/>
</svg>
