<?xml version="1.0" encoding="utf-8"?>
<!-- Generator: Adobe Illustrator 23.0.4, SVG Export Plug-In . SVG Version: 6.00 Build 0)  -->
<svg version="1.1" id="Calque_1" xmlns="http://www.w3.org/2000/svg" xmlns:xlink="http://www.w3.org/1999/xlink" x="0px" y="0px"
	 viewBox="0 0 200 200" style="enable-background:new 0 0 200 200;" xml:space="preserve">
<style type="text/css">
	.st0{fill-rule:evenodd;clip-rule:evenodd;fill:#FFFFFF;}
	.st1{fill-rule:evenodd;clip-rule:evenodd;fill:#0077A6;}
</style>
<g>
	<path class="st0" d="M0,0h200v200H0V0z"/>
	<path class="st1" d="M8.8,184.4H8.2c0-0.3-0.1-0.7-0.1-0.9c0-0.1,0-0.4-0.4-0.4H6.8v1.3H6.4v-3h1.3c0.6,0,1,0.1,1,0.7
		c0,0.4-0.1,0.6-0.3,0.7c0.1,0.1,0.3,0.3,0.3,0.6v0.6c0,0.1,0,0.1,0.1,0.1L8.8,184.4L8.8,184.4z M8.2,182.2c0-0.4-0.3-0.4-0.4-0.4
		h-1v0.9h0.9C7.9,182.7,8.2,182.5,8.2,182.2z M10.7,182.8c0-1.7-1.4-3.1-3.3-3.1c-1.7,0-3.1,1.4-3.1,3.1c0,1.9,1.4,3.3,3.1,3.3
		C9.2,186.1,10.7,184.7,10.7,182.8z M10.2,182.8c0,1.6-1.3,2.7-2.9,2.7s-2.7-1.1-2.7-2.7c0-1.4,1.1-2.7,2.7-2.7
		S10.2,181.4,10.2,182.8z M186.6,125c0,4.3-2.7,6.3-7.6,6.3h-9.3V127h9.3c0.9,0,1.6-0.1,1.9-0.4c0.3-0.3,0.6-0.7,0.6-1.3
		c0-0.6-0.3-1.1-0.6-1.4c-0.3-0.3-0.9-0.4-1.7-0.4c-4.4-0.1-10,0.1-10-6.2c0-2.9,1.9-6,6.9-6h9.6v4.3h-8.9c-0.9,0-1.4,0-1.9,0.3
		c-0.4,0.4-0.7,0.9-0.7,1.6s0.4,1.1,1,1.4c0.6,0.1,1.1,0.3,1.9,0.3h2.6c2.7,0,4.4,0.6,5.6,1.6C186,121.7,186.6,123,186.6,125z
		 M166.4,120.7c-1.1-1-2.9-1.6-5.6-1.6h-2.6c-0.7,0-1.3-0.1-1.9-0.3c-0.6-0.3-1-0.7-1-1.4s0.1-1.1,0.7-1.6c0.4-0.3,1-0.3,1.9-0.3
		h8.9v-4.3h-9.6c-5.2,0-6.9,3.1-6.9,6c0,6.3,5.6,6,10,6.2c0.9,0,1.4,0.1,1.7,0.4c0.3,0.3,0.6,0.9,0.6,1.4c0,0.6-0.3,1-0.6,1.3
		c-0.4,0.3-1,0.4-1.9,0.4h-9.3v4.3h9.3c4.9,0,7.6-2,7.6-6.3C167.8,123,167.3,121.7,166.4,120.7L166.4,120.7z M148.1,127.1h-11.3v-4
		h11v-4h-11v-3.7h11.3v-4.2h-16v20h16L148.1,127.1L148.1,127.1z M126.9,112.2c-1.6-0.9-3.4-1-5.9-1h-11v20h4.9V124h5.2
		c1.7,0,2.7,0.1,3.4,0.9c0.9,1,0.9,2.7,0.9,4v2.4h4.7v-3.9c0-1.9-0.1-2.7-0.7-3.7c-0.4-0.6-1.3-1.3-2.4-1.7c1.3-0.4,3.4-2.1,3.4-5.3
		C129.3,114.4,128.5,113.1,126.9,112.2z M99.7,111.2H84.4l-6.2,6.6l-5.9-6.6H53v20h19l6.2-6.6l5.9,6.6h9.3v-6.7h6
		c4.2,0,8.3-1.1,8.3-6.7C107.7,112.4,103.4,111.2,99.7,111.2L99.7,111.2z M123,119.5c-0.7,0.3-1.4,0.3-2.3,0.3l-5.9,0.1v-4.6h5.9
		c0.9,0,1.7,0,2.3,0.4c0.6,0.3,1,0.9,1,1.7C124,118.4,123.6,119.1,123,119.5z M99.7,120.5h-6.3v-5.2h6.3c1.7,0,2.9,0.7,2.9,2.4
		C102.6,119.5,101.4,120.5,99.7,120.5z M81.2,121.3l7.4-7.9v16.2L81.2,121.3z M69.6,127.1H57.8v-4h10.6v-4H57.8v-3.7h12l5.3,5.9
		L69.6,127.1L69.6,127.1z M173.3,96.8h-6.9l-9-15v15h-9.7l-1.9-4.4h-10l-1.9,4.4h-5.6c-2.3,0-5.3-0.6-7-2.3c-1.6-1.7-2.4-4-2.4-7.6
		c0-3,0.4-5.7,2.6-7.9c1.4-1.6,4-2.3,7.3-2.3h4.6V81h-4.6c-1.7,0-2.7,0.3-3.7,1.1c-0.9,0.9-1.3,2.4-1.3,4.6c0,2.1,0.4,3.7,1.3,4.7
		c0.7,0.7,2,1,3.3,1h2.1l6.9-15.7h7.2l8,18.9V76.7h7.4l8.4,13.9V76.7h4.9L173.3,96.8L173.3,96.8L173.3,96.8z M116.4,76.7h-4.9v20
		h4.9V76.7L116.4,76.7z M106.3,77.6c-1.6-0.9-3.3-0.9-5.7-0.9h-11v20h4.7v-7.3h5.2c1.7,0,2.9,0.1,3.6,0.9c0.9,1,0.7,2.7,0.7,3.9v2.6
		h4.9v-4c0-1.7-0.1-2.6-0.9-3.6c-0.4-0.6-1.3-1.3-2.3-1.7c1.3-0.6,3.4-2.1,3.4-5.3C108.9,79.9,107.9,78.6,106.3,77.6L106.3,77.6z
		 M86.1,92.6H74.9v-4h11v-4.2h-11v-3.6h11.2v-4.2h-16v20h16L86.1,92.6L86.1,92.6z M66.5,76.7h-7.9l-5.9,13.6l-6.3-13.6h-7.7v18.9
		l-8.2-18.9h-7.2l-8.6,20H20l1.9-4.4h10l1.9,4.4h9.7V81l7,15.7h4.2l7-15.7v15.7h4.9L66.5,76.7L66.5,76.7L66.5,76.7z M144.1,88
		l-3.3-7.9l-3.3,7.9H144.1z M102.6,84.9c-0.7,0.4-1.4,0.4-2.4,0.4h-5.9v-4.4h5.9c0.9,0,1.9,0,2.4,0.3c0.6,0.4,0.9,1,0.9,1.9
		C103.4,83.9,103.1,84.6,102.6,84.9z M23.5,88l3.3-7.9l3.3,7.9H23.5z M185.4,13.9H14.7V86l5.9-13.3H33l1.7,3.3v-3.3h14.6l3.3,7.2
		l3.1-7.2h46.5c2.1,0,4,0.4,5.4,1.6v-1.6h12.7v1.6c2.1-1.1,4.9-1.6,8-1.6h18.5l1.7,3.3v-3.3h13.6l2,3.3v-3.3h13.3v28.1h-13.5
		l-2.6-4.3v4.3h-16.7l-1.9-4.6h-4.2l-1.9,4.6h-8.7c-3.4,0-6-0.9-7.7-1.7v1.7H99.7v-6.4c0-0.9-0.1-1-0.7-1h-0.7v7.4H58.2v-3.6
		l-1.4,3.6h-8.4l-1.4-3.4v3.4H30.7L29,96.2h-4.2l-1.9,4.6h-8.3v84.6h170.8V134c-1.9,0.9-4.4,1.3-7,1.3H166v-1.7
		c-1.4,1.1-4,1.7-6.4,1.7h-39.2v-6.4c0-0.9-0.1-0.9-0.9-0.9h-0.7v7.3h-12.9v-7.6c-2.1,1-4.6,1-6.7,1h-1.4v6.6H81.9l-3.7-4.3
		l-4.2,4.3H48.7v-28.1h25.8l3.7,4.3l4-4.3h17.3c2,0,5.3,0.3,6.7,1.7v-1.7h15.5c1.6,0,4.6,0.3,6.6,1.7v-1.7h23.3v1.7
		c1.3-1.1,3.7-1.7,5.9-1.7h13v1.7c1.4-1,3.4-1.7,6-1.7h8.9V13.9L185.4,13.9z"/>
</g>
</svg>
