<?xml version="1.0" encoding="utf-8"?>
<!-- Generator: Adobe Illustrator 23.0.4, SVG Export Plug-In . SVG Version: 6.00 Build 0)  -->
<svg version="1.1" id="Calque_1" xmlns="http://www.w3.org/2000/svg" xmlns:xlink="http://www.w3.org/1999/xlink" x="0px" y="0px"
	 viewBox="0 0 424.2 294.8" style="enable-background:new 0 0 424.2 294.8;" xml:space="preserve">
<style type="text/css">
	.st0{opacity:0.34;}
	.st1{fill:#10434B;}
</style>
<title>bike</title>
<g class="st0">
	<g id="Calque_1-2">
		<path class="st1" d="M4.9,152.8c-1.6-0.3-3,1.5-4.5-0.1c1.7-8.5,5.3-16.2,9.9-23.6c-0.5-0.7-0.9-1.3-1.4-1.8
			c-3.7-3.7-5.6-8.4-6.8-13.4c-0.7-2.6-0.5-5.4,0.4-8c1.2-3.8,4.7-6.3,8.6-6.1c1.1,0,2.3,0,3.5,0c-1.1-1.6-2.9-2.7-4.9-2.7
			c-2.6-0.4-5.1-0.9-7.7-1.6c-1.6-0.4-2.1-1-2-2.7c0.1-1.3,0.3-2.5,0.7-3.7c1-3.1,1.3-3.2,4.6-3.4c2.2-0.2,4.4-0.7,6.5-1.4
			c-1.8-0.4-3.7-0.8-5.5-1.2c-0.9-0.2-1.7-0.5-2.6-0.8c-1.8-0.9-1.8-2.1-0.1-3.2c0.7-0.4,1.4-0.8,2.2-0.9c3.1-0.6,6.2-1.2,9.3-1.6
			c3.1-0.3,6.1,0,9.1,0.8c4.9,1.2,9.9,2,14.9,2.8c6.8,1.2,13.5,2.3,20.3,3.5c2,0.4,4,0.9,6,1.4c0.7-3.3,1.4-4.2,4.7-4.5
			c3.9-0.4,7.8-0.5,11.6-0.3c7.9,0.3,15.7-0.6,23.5-1.3c2.5-0.1,5,0,7.5,0.3c1.1,0.2,2.1,0.5,3,1.1c2.4,1.4,2.4,2.9,0,4.3
			c-2.3,1.3-4.8,2.2-7.4,2.4c-1.3,0-2.5,0.7-3.3,1.8c-1.4,2.1-3.8,3-6.6,3.6c2,0.8,3.1,1.7,2.5,3.7c-0.2,0.9,0.2,1.9,1.1,2.2
			c1.3,0.6,1.7,1.4,0.8,2.8c-0.4,0.8-0.4,1.7-0.2,2.5c0.6,2.4,1.3,4.7,2.1,7c0.1,0.4,0.3,1.1,0.6,1.2c2.2,0.7,2.2,2.7,2.6,4.4
			c1.9,7.6,4.5,15,5.9,22.8c0.6,3.3,1.9,6.4,2.8,9.6c4.2,14.1,8.4,28.2,12.5,42.3c0.5,2.2,1.7,4.2,3.4,5.7c0.9,0.6,1.4,1.6,2.2,2.4
			c0.7,0.6,1.4,1.1,2.2,1.6c3.5-6.4,6.2-12.8,7.2-19.7c0.4-2.5,0.7-5,0.9-7.5c0.3-2.2,1.6-4.2,3.4-5.5c2.4-1.9,5-2.2,7.8-2.2
			c0.4,0,0.9,0.1,1.4,0.1c2.2-0.3,4.3-0.4,6.5-0.4c2.1,0.2,4.2,0.5,6.2,1c0.1-0.6,0.1-1.2,0.1-1.9c-1.9-24.9-5.9-49.6-9.5-74.6
			c-0.5,0.4-1.1,0.8-1.7,1.1c-0.3,0.1-0.7,0.2-1,0.2c-0.7-1.7-3.3-1.8-3.4-4c-0.1-1.4-0.2-2.7-0.2-4.1c0.1-2.2,1.4-3.1,3.4-2.3
			c0.6,0.3,1.2,0.6,1.7,1c0.1-0.4,0.2-0.8,0.2-1.2c0-0.4-0.1-0.9-0.2-1.3c0.8-0.3,1.7-0.5,2.5-0.6c4.2-0.2,8.5-0.3,12.7-0.6
			c9-0.5,18-1.1,27-1.6c1,0.1,1.9-0.6,2-1.6l0,0c0.8-4,2.8-7.6,4.9-11.1c0.5-0.6,0.9-1.4,1-2.2c-0.1-3-0.3-5.9-0.7-8.9
			c-0.1-0.9-1.2-1.7-2-2.7l0.6-1.4l-1.4-1.6c3-3.5,3.1-3.5,2.3-8.1c-0.5-3.3-1-6.6-1.6-9.9c-0.4-2.3-1.6-3.3-3.8-3.3
			c-7.1,0-14-2.5-19.5-7c-1.2-1.1-2.8-1.5-4.4-1.2c-3.8,0.4-7.5,0.7-11.3,0.6c-2.5,0-4.9,0.3-6.8,2c-0.4,0.3-0.9,0.6-1.4,0.9
			c-2.9,1.8-3.2,1.8-5.6-0.6c-3.4,0.7-7,0.7-10.4,0c-1.2-0.2-2.5-0.2-3.8,0.1c-3.5,0.8-7,1.7-10.5,2.6c-1.6,0.3-3.1,1.2-4,2.6
			c-0.3,0.4-0.6,0.8-1,1.2c-0.7,0.5-1.5,0.6-1.8-0.2c-0.2-0.6,0-1.2,0.4-1.6c3.5-2.9,7.3-5.3,11.9-5.9c2.8-0.4,5.7-0.6,8.9-0.9
			c0.1-0.4,0.4-1.1,0.7-2l2.8,0.8c1.4-2.8,1.4-3,0.7-5.3c-0.6,0.3-1.2,0.5-1.8,0.6c-6.7,0.2-13.3,0.3-20,0.4c-2.1,0-2.7-0.6-2.9-2.4
			s0.9-4,2.4-4.1c6.4-0.3,12.8-1.2,19.2-0.2c0.1,0,0.1,0.1,0.4,0.5c-1.6,0.6-3.2,0.2-4.7,0.3s-3.2,0.1-4.9,0.1s-3.1,0-4.6,0.1
			c-1.6,0.1-3.1,0.3-4.7,0.7L147.3,7c1.5,1.8,1.7,1.8,3.7,0.4c0.5-0.3,1.1-0.5,1.7-0.5c1,0,2,0,3,0.1c-0.9-0.8-1.4-1.1-1.9-1.5
			c-1.1-1.1-1-2.8,0.1-3.9l0,0c0.5-0.5,1.3-0.6,1.9-0.1c1.5,0.9,2.2,0.8,4.6-0.2l-4.1-0.7c2.3-1.1,3.5-0.9,5.2,0.9
			c-1,2.2-3.5,1.5-5.5,2.8h5.6L159.5,7c4.9-0.5,9.4,0.4,13.8,1.2c4.1,0.6,8,2.3,11.3,4.9c1.6,1.4,3.7,1.9,5.8,1.5
			c4.7-0.7,9.4-0.5,14,0.7c3.6,1,7,2.2,10.4,3.7c1.3,0.7,2.8,0.7,4.1,0c1-0.6,2.1-1.1,3-1.7c4-2.6,8-5.2,11.9-7.8
			c-1-0.2-2.3-0.3-3.5-0.6c-1.6-0.4-2-1.6-0.8-2.8c0.5-0.5,1.1-0.8,1.8-1.1c1-0.5,2-1.2,3-1.8c0.6-0.5,1.1-1.2,1.8-0.6
			c0.4,0.4,0.3,1.3,0.4,2.3c1.3,0.1,1.9,1.2,2,2.8c0.3,2.8,0.8,5.6,3.2,7.7c1.5,1.4,2.9,3,4.2,4.6c0.4,0.5,0.8,1,1,1.6
			c0.1,0.4,0,1.1-0.1,1.2c-0.5,0.2-1,0.1-1.4-0.1c-0.7-0.6-1.3-1.3-1.9-2l-1.4,1.2c-0.4-0.7-0.6-1.4-0.7-2.2
			c0.2-2.2-1.3-3.4-2.7-4.9l-0.8,1.7l-4.4-1.5l-12.6,8.5c0.8,1.5,1.6,3.1,2.2,4.8c2,5.9,1.9,12.3-0.2,18.1c-0.8,2.4-1.9,4.7-3.1,6.9
			c-0.7,1.2-1,2.5-0.9,3.8c0.1,2.1,0.4,4.1,0.4,6.2c0,2.2-0.1,4.5-0.2,6.8c-0.1,1.8-0.6,3.6,0.3,5.4c1.1,0,2.1,0.1,3.2,0
			c15.4-1.2,30.8-2.4,46.2-2.5c3.5,0,7,0.4,10.5,0.7c7.5,0.6,14.9,1.3,22.4,2c9.4,0.8,18.9,1.7,28.3,2.6c8.8,0.8,17.6,1.5,26.4,2.3
			c6.9,0.6,13.8,1.3,20.8,2s13.8,1.2,20.8,1.8c5,0.4,9.9,0.8,14.8,1.3c1.9,0.2,3.8,0.6,6,1c0.2,0.4,0.3,0.9,0.3,1.3
			c0.1,6.8,0.1,13.5,0.1,20.3c0,2.9-0.2,5.8-0.2,8.7c0,2.4,0.5,2.7,2.7,2c1.9-0.6,2.5-0.2,2.6,1.8c0.1,3.4,0,6.8,0,10.3
			c-0.6,0.1-1.2,0.2-1.7,0.5c-1.9,1.1-1.9,1.2-3.8-0.2c-0.2,0.6-0.3,1.2-0.4,1.8c-0.9,12.4-0.9,24.9-0.2,37.4
			c0.3,4.7,0.2,9.4,0.3,14.1c0.1,3.5,0.2,7,0.2,10.6c0,3.1-0.2,6.1-0.1,9.2c0,1.6,0.2,3.2,0.6,4.8c0.6,2,0.8,4.1,0.8,6.1
			c0,3.6,0.1,7.2,0.4,10.8c0.2,3.1-2.1,6.2-5.1,6.6c-3.5,0.4-7,0.8-10.5,1.1c-1.7,0.3-3.5-0.4-4.5-1.8c-0.5-0.8-1.5-1.1-2.4-0.7
			c-2.5,3.1-2.6,6.8-3.3,10.3c-2.3,10.6-6.5,20.3-14.5,28c-4.3,4.3-9.7,7.4-15.6,8.7c-7,1.5-14.4,0.6-20.9-2.5
			c-8.2-3.9-14.6-9.9-19.9-17.1c-3-4.2-5.6-8.7-7.6-13.4c-0.3-0.7-0.7-1.5-1-2.2h-5.2c-2.2,1.6-4,3-5.8,4.2c-3.4,2.5-6.9,5-10.3,7.4
			c-0.7,0.5-1.4,1-1.4,2.1c0.1,1.9-1.3,2.6-2.7,2.9c-3.9,0.8-8,0.1-11.4-2c-1.6-1-2.1-2.4-2.3-4.2l-17.2-4.5
			c-0.2,1.9-0.4,3.5-0.5,5.2c-0.4,8.5-3.3,16.8-8.2,23.8c-5.5,8.2-13.8,14.1-23.4,16.6c-2.7,0.8-5.5,0.9-8.3,0.4
			c-6.8-1.4-13.3-3.3-18.6-8.1c-3.1-2.8-5.7-6-7.9-9.5c-5.9-9.5-10-19.8-13.1-30.5c-1.4-4.4-2.2-9-2.3-13.6c0-2.3-1.6-4.3-3.9-4.8
			c-9.6-2.2-19.3-4.4-29-6.6c-2.4-0.6-4.7-1.1-7.2-1.7c-4.9,8.3-12,9.9-20.7,6.7c-0.3,0.8-0.6,1.5-0.9,2.2c-1.5,4.8-3,9.6-4.3,14.5
			c-1.5,5.4-1.5,5.2-6.7,6.8s-10.9,1.1-15.8-1.4c-0.7-0.3-1.4-0.8-2.2-1.2c-9,6.6-19.4,6.6-30,5.8c-4-0.4-8-1.4-11.8-2.8
			c-3-1-5.7-2.7-8-4.9c-4.4-4.3-8.9-8.5-13.1-12.9c-2.1-2.1-3.9-4.5-5.5-7c-3.8-5.9-6.7-12.5-8.4-19.3c-1.4-5.7-2.8-11.4-4.4-17
			c-1.8-6.7-1.9-13.6-1.5-20.4c0.3-4.8,1.3-9.6,1.9-14.5C4.8,153.7,4.8,153.3,4.9,152.8z M159,19.1l2.8-2.1c-1.9-0.3-2-0.4-2.2,0.2
			C159.4,17.8,159.2,18.4,159,19.1l-2-1.2l-0.2,0.2l1.5,2.4L159,19.1z M206.1,236.4l-1.3-1.2c-0.5-0.9-1.7-2,0.4-2.5l1.3,2.3
			l0.4-0.1v-5.3c-0.4,0.1-0.9,0.3-1.3,0.4c-0.6,0.3-1.1,0.5-1.7,0.7c-0.4,0.2-0.9,0-1.1-0.5c-0.2-0.4,0-0.9,0.4-1.1
			c0.7-0.3,1.4-0.6,2.1-0.8c-3.8-1.5-3.8-1.5-5.9,1c0.4,0.9,0.9,1.7,1.3,2.6l-0.4,0.2l-2.3-1.9c-1.1,1-2.3,1.9-3.5,2.7
			c-1.8,0.9-2.6,2.9-1.9,4.8c0.3,1.1-0.2,2.6,1.3,3.2l0.4,0.4c-0.2,0.6-0.7,1.2-0.6,1.7c0.2,2.2,0.9,4.2,2,6.1
			c0.8-0.4,1.4-0.8,2-1.2c4.1-2.5,4.1-2.5,4.5-7.4c0.2-1.8,0.4-3.7,0.6-5.5c1.2,3.1-0.1,6.1,0.3,9.4l5.6-3.2
			c0.9-0.5,0.8-1.1,0.1-1.7l-0.8-0.9V236L206.1,236.4z M225.7,226.1l-5.4-1.1l-0.1,0.6L225.7,226.1c3.2,1.3,6.5,2.2,9.9,2.5
			C232.5,227.3,229.1,226.4,225.7,226.1L225.7,226.1z M215.9,228.3c-4.6-1.5-9.4-2.2-14.2-2.2L215.9,228.3
			c6.5,2.5,13.4,3.4,20.2,4.5c-5.2-1.5-10.4-2.7-15.7-3.9C219,228.6,217.4,228.5,215.9,228.3L215.9,228.3z M211.1,244
			c-1.1,0.1-1.8-1.7-3.2-0.8s-2.9,1.8-4.3,2.8c-0.5,0.4-0.8,0.9-0.9,1.5c-0.2,1.9-0.2,3.9-0.4,6.4l9.5-7.9
			C211.5,245.2,211.3,244.6,211.1,244l1.9,0.4c0.6-1.7,1.2-3.4,1.9-5.1l-2.3-0.6C213.1,240.6,212.5,242.7,211.1,244z M224.1,200.1
			c0.4,0.8,0.9,1.6,1.4,2.6c2.3-2.4,4.4-4.7,6.6-7c-2.2-2.8-4.1-5.4-7-7.2c-0.6,1.8-1.1,3.1-1.6,4.6c0.1-1.3,0.2-2.6,0.4-3.9
			c0.2-1.9,0-2.1-2.5-2.8c0.8,2.4,1.5,4.5,2.2,6.7L224.1,200.1c-0.3-0.4-0.6-0.9-1.1-1.5c-0.6,3-1.2,5.8-1.9,9
			c3.1-2.9,3.1-2.9,2.9-6.7C223.9,200.6,224,200.4,224.1,200.1L224.1,200.1z M220.8,220.6c0.2,0.9,0.6,1.7,0.9,2.5
			c0.2,0.3,0.8,0.5,1.2,0.7l0.4-0.6C222.5,222.3,221.7,221.5,220.8,220.6c-0.6-1.3-0.3-1.8,0.7-1.6c0.9,0.2,1.7,0.6,2.4,1.1
			c1.9,1,3.3,2.6,4.2,4.6c-0.4-4.2-2.5-6.5-6.6-7.4c-2.2-0.5-4.1-0.3-5.5,1.7c-0.2,0.3-0.9,0.3-1.5,0.5c0.2-0.8,0.3-1.7,0.3-2.5
			c-0.4-3.9-0.9-7.7-1.4-11.6c-0.2-1.3-0.9-2.5-2-3.4c-1.4,2.7-1.1,6.7,1.7,19.7c2.7,1,2.7,1,4.9,0.5l-2.1-1.2
			c0.4-1,1.5-1.6,2.6-1.2C219.3,220.1,220.1,220.4,220.8,220.6L220.8,220.6z M214.8,233.1L214.8,233.1l-2.7-3.6
			c0.6,2.2-0.7,3.7-1.8,5.2c-0.8,1.2-1.5,2.3-0.9,3.7c0.5,1.2,1.2,2.3,1.8,3.4c0.3-0.5,0.4-1,0.4-1.6c-0.1-1.1-0.1-2.2,0-3.2
			c0-1,0.8-1.8,1.8-1.8c0.3,0,0.5,0.1,0.7,0.2l-1.6,1.8l0.3,0.6c1.1-0.3,2.3-0.4,3.5-0.4c3.5,0.5,6.7-0.1,9.1-2.4
			c0.8,0.4,1.4,0.9,1.9,0.8c1.2-0.3,1.4-1.4,1.5-2.8l-4.1-0.9c-2.5,3-3.3,3.4-4.9,2.2l2.9-2.7c-2.8-0.5-5.1-1.7-7.9-1.7
			c0.7,1,1.1,1.6,1.7,2.5L214.8,233.1z M211,27.7c0.5,1,0.8,2,1.1,3c0.6,4.1,1.1,8.2,1.7,12.3c0.1,0.5,0.3,1,0.6,1.5
			c2,2.6,2.2,6.1,0.7,9l1.5,1.7c0.4-0.5,0.7-0.8,0.7-1.1c0.3-2.4,0.4-4.8,0.4-7.3c-0.6-7-0.2-14,1.2-20.8c0.1-0.8,0.2-1.6,0.3-2.4
			l-6.6,1.4l-1.5,2.8l-2.5,0.9c0.1,1.1,0.2,1.9,0.4,2.8c0.6,3.6,1.1,7.1,1.7,10.7c0.2,1.1,0.4,2,2.1,1.5c-0.2-1.2-0.3-2.5-0.5-3.7
			C211.5,36,210.5,31.9,211,27.7z M324.3,232.1c2.6-0.2,2.3,2.3,3.4,3.6h2.2l-0.8-1.4c1.4-0.3,2.5-0.6,3.7-0.7
			c4.7-0.6,9.5-1.1,14.2-1.6c3.3-0.4,6.6-0.8,9.9-1.1c4.9-0.5,9.9-0.9,14.8-1.4c5.7-0.6,11.3-1.2,17-1.9c4.4-0.5,8.7-1,13.2-1.5
			c-1-2.1-1.1-2.1-3.4-1.9c-11.2,1.2-22.4,2.4-33.6,3.6c-11.5,1.2-23,2.3-34.5,3.4C328.4,231.4,326.4,231.8,324.3,232.1l-10.9,0.8
			c-1.7,0.1-2.6,1.2-3.8,2.9l15.2-1.7L324.3,232.1z M299.3,243l4-2v-4.5l-4.3-0.7c-2.8-0.5-5.7-1-8.5-1.5c-1.3-0.2-2.4-1-2.9-2.2
			c-0.3-0.4-0.6-0.8-1-1.2c-0.1,1-0.3,1.6-0.3,2.3c-0.1,1-0.6,1.6-1.6,1.4c-3.6-0.6-7.3-0.6-10.7-2.3c-0.6-0.2-1.3-0.1-1.9,0.1
			c-0.5,0.2-1,0.5-1.4,0.9c-0.3-0.6-0.5-1.2-0.7-1.9c0-1.1,0-2.2,0.1-3.3c-1.5-0.4-1.8,0.4-1.7,1.2c0.1,2.5,0.2,5,0.3,7.4
			c0.4,0.2,0.6,0.5,0.9,0.5c4.4,0.3,7.5,3,10.7,5.6c0.6,0.4,1.2,0.7,1.9,0.9c2.8,0.7,4.9,3,5.4,5.8c0.2,0.6,0.3,1.2,0.5,1.8
			C292.5,249.3,295.8,245.9,299.3,243L299.3,243z M197.6,190.7l-0.9,0.9l-2.1,3.4c1.8,0.7,1.6,1.9,0.7,3s-1.2,2.9-3.2,4l0.7-3.1
			l-0.4-0.2l-1.7,3.2l-0.5-0.3c1.6-4.5,4-8.7,7.1-12.4c1.3-1.5,3.3-2.6,4-4.3s0.2-4.1,0.2-6.2c0-0.4,0-0.9,0-1.3l-1.7-0.4
			c0.7-0.8,1.5-1.5,1.6-2.2c0.1-1.8,0.2-3.5,0.1-5.3c-11.3,4.5-24.9,31.1-23,44.8c2.4,1,10.4,2.4,12.3,2.2c0-0.1,0.1-0.2,0.1-0.2
			c0.3-8.9,3.9-17.3,10.1-23.6c0.4-0.4,0.6-0.8,0.7-1.4c0-1.3-0.1-2.6-0.2-4.6L197.6,190.7z M225.5,183.5c-2.9-1.4-5.8-2.9-8.8-4
			c-2.7-1.1-5.7-1.3-8.6-0.7v3c6.8-1.4,12.2,1.3,17.2,5.1c5.5,4.2,9.8,9.7,12.8,15.9c3.3,6.8,4.7,14,5.2,21.4
			c0.1,1.3,0.1,2.7,0.2,4.1l4.3,1c0.3-0.7,0.4-1.5,0.5-2.2c0.2-3.2,0.3-6.5,0.1-9.7c-1.3-14.2-7.1-27.7-16.7-38.3
			c-4-4.5-8.7-8.2-14.6-9.9c-2.4-0.5-4.8-0.8-7.2-0.9c-0.9-0.2-1.7,0.4-1.9,1.3c0,0.2,0,0.3,0,0.5c0,2.3,0,4.6,0,7.2
			c6.7,0.2,12.7,1.9,17.9,5.9L225.5,183.5z M19.6,139.9L19.6,139.9c-1.5-2.4-3.4-4.5-5.6-6.2c-0.4,0.7-0.7,1.2-0.9,1.7
			c-3.2,8-6.6,15.9-7.7,24.4S3.3,177,5.3,185.6c1.5,6.8,3.3,13.5,5,20.2c1.8,6.7,4.6,13.1,8.3,19c1.3,2.2,2.9,4.2,4.6,6
			c4.4,4.5,9,8.9,13.5,13.3c2.2,2.1,4.9,3.8,7.8,4.9c4.8,1.8,9.9,2.7,15.1,2.6c7.8,0.2,15.1-1,21.7-5.4c1.2-0.8,2.3-1.3,3.6-0.2
			c2.3-2.3,4.8-4.3,7.6-6c-0.7-1.2-0.3-2.1,0.6-3.1c0.9-0.9,1.7-1.9,2.4-2.9c1.9-2.6,3.5-5.4,4.7-8.4c-2.8,0-5.3,0.1-7.7,0
			c-1.8-0.1-2.7,0.6-3.8,2c-2.2,3-4.6,5.8-7.2,8.4c-5.4,5.2-12.7,8-20.2,8c-6.6,0-13.1-2-18.6-5.7c-0.3-0.3-0.5-0.6-0.7-0.9l0.2-0.5
			c8,4.9,16.4,7.5,25.7,5.3c8.6-2.1,19.3-10.9,20.3-16.6c-2.7-0.4-2.6-0.4-4.3,1.6c-2,2.3-4.1,4.5-6.4,6.5c-4.9,4.1-11.2,6.2-17.6,6
			c-5.4-0.1-10.8-1.7-15.4-4.6c-6.4-3.9-11.8-9.1-15.9-15.3c-9.5-13.7-13.8-29.1-14.1-45.6c-0.4-10.6,1.7-21.1,6.2-30.8
			C21.6,141.6,21.6,141.6,19.6,139.9z M312,231.4l94.9-9.7c0.2-2.1,0.4-3.8,0.5-5.4c0.2-3.8,2.3-6.4,5.5-8.1c1.2-0.7,2.4-1.3,3.7-2
			c-0.3-12.8-0.3-25.7-0.9-38.4s-0.9-25.5-0.4-38.3l-1.7-0.3c-2.8-0.5-3.9-2.5-2.5-4.9c0.8-1.1,1.8-2,2.9-2.6
			c0.7-0.3,1.4-0.6,2.2-0.7c0.9-4,1.1-29.1,0.2-32.1l-5.9,0.5c1,3.1-2.2,3-3.4,4.7c0.8,0.2,1.5,0.5,2.2,0.8c0.7,0.6,1,1.5,0.6,2.4
			c-0.2,1-1,1.2-1.9,1.1c-2.5-0.3-3.3-1.2-3.2-3.7c0.1-1,0.3-1.9,0.6-2.9c0.1-0.6,0.2-1.1,0.3-2l-16.4,0.9l-1,2.1
			c-0.9,0.8-3-0.2-2.8,2.1c0.4,0.2,0.8,0.4,1.1,0.6c0.4,0.2,0.9,0.2,1.3,0.4c1,0.4,1.2,1.6,0.3,1.8c-1.4,0.3-2.8,0.4-4.2,0.2
			c-1.1-0.2-1-1.5-1.1-2.5c-0.1-1.4-0.2-2.8-0.3-4.3c-13.7-0.1-27,0.4-40.2,1.2c-0.8,2.3-0.8,2.3-3.2,2.7c-1.1,0.2-1.4,0.6-1,1.8
			c0.6,0,1.2,0.1,1.8,0.2c1.1,0.3,1.8,1.4,1.5,2.5c-0.2,1.1-0.9,1.4-1.9,1.5c-3.2,0.1-4-0.6-3.9-3.9c0.1-1.4,0.1-2.8,0.2-4.5
			c-6.2,0.3-12.1,0-18.2,0.8c0,2.6-1,4.2-3.6,4.7c0.5,0.4,1.1,0.7,1.8,0.9c1,0.2,1.8,0.6,1.6,1.8c-0.1,1-1,1.8-2,1.9
			c-2.6,0.4-3.9-0.6-3.9-3.3c0-1.9,0-3.7,0-5.7c-2.4-0.1-4.5-0.4-6.8,0.5c-0.1,9.9-0.2,19.7-0.3,29.5c0.1,0.7,0.2,1.4,0.6,2
			c0.4,0.9,0.9,1.7,1.3,2.7c0.7,0.2,1.5,0.3,2.2,0.6c2.9,1,3.4,3.7,1.1,5.6c-1.1,0.8-2.3,1.4-3.6,2c-0.2,1.1-0.1,2.5-0.8,3.1
			c-1.1,1.1-1.1,2.2-1.1,3.4c0,9.9,0,19.7,0,29.5c0.1,14.7,0.2,29.4,0.4,44.2c0,0.8,0.1,1.6,0.2,2.3c0.4,0.1,0.6,0.3,0.7,0.2
			c5.8-0.9,5.3,0.9,6,5.1c0.1,0.8,0.2,1.6,0.2,2.4C312,227.9,312,229.5,312,231.4z M177.8,194.7c0.6-2.1,1.1-4.1,1.9-6
			c3.2-7.9,8.3-14.9,14.9-20.3c2.1-1.7,4.6-2.8,6.9-4.1c0.6-0.3,1.1-0.8,1.5-1.4c3.4-6.4,8.8-9.6,15.9-10.1c0.8,0,1.5-0.4,2.1-0.9
			c1.1-1.4,2.9-1.9,4.6-1.4c2.3,0.5,4.6,0.9,6.9,1.4c0.9,0.2,1.7,0.6,2.5,1c1.6,0.8,1.9,1.5,1.5,3.3c-0.6,2.6-2.1,3.6-4.8,3.1
			c-3.9-0.6-7.9-0.8-11.9-0.3c-1.3,0.1-2.6,0.5-3.8,1.2c0.9,0.2,1.8,0.2,2.8,0.2s2,0.2,3,0.3c10.2,1.8,19.6,7,26.5,14.8
			c7.8,8.5,13.1,19,15.2,30.4c0.7,4.4,1.2,8.9,1.3,13.4c0.1,2.1-0.6,2.6-2.6,2.3c-0.9-0.1-1.7-0.4-2.7-0.6c-0.5,0.4-0.9,0.8-1.4,1.2
			c-2.3,1.6-3.3,1.2-3.7-1.7c-0.1-1.1-0.3-2.1-0.5-3.2c-0.7-2.5-1.4-5-2.1-7.6c-1-3.5-1.9-7-2.9-10.4c-0.9-3-2.5-5.7-4.6-7.9
			c-1.4-1.4-2.6-3-3.6-4.7c-2-3.6-3.9-7.3-5.6-11.1c-0.5-1.3-1.6-2.4-2.8-3.1c-2.2-1-4.4-2.1-6.5-3.4c-2.6-1.8-5.8-3.1-5.9-7.3
			c-2.1-0.1-4.1-0.2-6.1-0.1c-3.2,0-4.8,1.7-4.8,5.2c0.5,0,1.1,0,1.6,0c3.3-0.3,6.5,0.4,9.4,1.9c2.7,1.3,5.2,2.9,7.5,4.7
			c16.1,14.4,23.4,32.5,22.2,54c0,0.5,0,1,0,1.5l16.9-0.6c0-0.4,0-0.7,0-1.1c0.1-0.3,0.1-0.6,0.2-0.9c7.1,0.1,8.6-1.5,8.1-5.9
			c-1.6,0.3-3.2,0.6-4.8,0.7c-3.3,0.1-3.8,0.5-3.7,4c0,0.1-0.3,0.2-0.6,0.3c-1.2-1-1-2.2-0.5-3.3s1.3-2.5,2.7-2.3
			c2.2,0.2,4.5,0,6.7-0.6c1.1-0.3,1.7,0.4,1.6,1.5c0,0.9-0.2,1.7-0.4,2.8c4,0.6,8,0,11.5,2.2l-11.9-1c0.1,1.3,0.1,2.2,0.2,3.1
			l11.6,1.1c1-1.8,1.9-3.6,2.9-5.3c2.1-3.7,5.2-5.7,9.6-5.4c0.6,0.1,1.2,0,1.7,0V140c-0.6-0.5-1.6-0.9-1.7-1.5
			c-0.4-1.7-1.8-2.3-3-3.1c-0.6-0.4-1.1-0.9-1.6-1.5c-1.2-1.2-1.3-3.2,0-4.4c0.4-0.4,0.8-0.7,1.4-0.8c0.8-0.3,1.7-0.5,2.5-0.8
			c0.4-1,0.6-2.3,1.2-2.8c1.7-1.2,1.5-2.7,1.5-4.3s0-2.9,0.1-4.3c0.1-6.7,0.3-13.4,0.4-20c0-2.5-0.3-2.7-2.8-2.9
			c-4.7-0.4-9.3-0.8-14-1.3l-27.3-2.6c-8.7-0.8-17.4-1.6-26.2-2.4c-10.4-1-20.8-2-31.2-3L168,81.1c-0.9-0.1-1.8-0.1-2.7-0.2
			s-1.5-0.1-2.3-0.2l-0.2,0.6c2-0.4,3.9,0.9,4.3,2.9c0,0,0,0,0,0.1c0.7,2.7-1.4,4-3.2,5.4c0.1,1.3,0.2,2.6,0.4,3.8
			c1.6,10.5,3.2,21,4.7,31.6c1,7.2,1.7,14.5,2.6,21.8c0.6,5.4,1.5,10.7,2,16.1c0.6,6,0.9,12.1,1.4,18.1c0.3,3.9,0.6,7.7,1,11.6
			C176.1,193.6,175.9,194.8,177.8,194.7z M23.2,143.2l-1,0.2c-1,2.6-2.1,5.1-2.9,7.8c-4.2,13.7-4.1,27.6-0.8,41.5
			c2.5,10.8,6.7,20.8,13.7,29.5c4.4,5.5,9.5,10.2,15.9,13.2c10.6,4.9,20.5,3.7,29.6-3.8c1.5-1.4,3-2.9,4.4-4.4
			c0.5-0.6,0.9-1.3,1.3-2c-6.7-0.6-13.1-1.1-19.5-1.7c-1.3-0.1-2.5,0.3-3.5,1c-2.7,1.8-4,1.1-4.4-2.2c-0.1-1-0.1-2-0.1-3
			c0.1-3.9,0.2-7.8,0.2-11.6c0-0.8,0-1.6-0.1-2.4c-0.1-1-0.5-1.7-1.7-1.6c-1.2,0.2-2.4-0.5-2.8-1.6c-0.5-1.4-1.7-1.3-2.7-1.4
			c-1.9-0.3-3.9-0.4-5.8-0.8c-1.4-0.4-3-0.2-4.2,0.7c-3.9,2.4-6.5,1.5-8.8-1s-3.9-5.4-4.8-8.7c-1.8-6.4,1-10.9,7.5-12.1
			c1-0.1,2-0.1,3,0.1c0.8,0,1.5,0.1,2.4,0.2c0-0.8,0.1-1.6,0.3-2.4c0.3-0.7,0.6-1.3,1.1-1.9c0.5-0.6,0.4-1.5-0.2-2
			c-0.1,0-0.1-0.1-0.2-0.1c-0.4-0.4-0.8-0.8-1.1-1.2c1.2-1.2,2.3-2.2,3.5-3.2c1.5-1.3,0.3-3,1-4.2c-1.2-0.9-2.3-1.8-3.4-2.8
			c-4.7-5.1-9.3-10.3-13.9-15.5C24.4,144.8,23.8,144,23.2,143.2z M177.5,79.4L177.5,79.4c2.1,0.3,4.2,0.6,6.4,0.8
			c6.8,0.6,13.7,1.2,20.5,1.8l21.3,2c6.7,0.6,13.5,1.2,20.2,1.8l26.7,2.5c7.3,0.7,14.5,1.4,21.8,2c4.2,0.3,8.5,0.9,12.7,0.6
			c4-0.4,8-0.5,12-0.5s8.3-0.3,12.4-0.5c0.5,0.1,0.9,0,1.3-0.2c2.4-1.5,4.9-0.7,7.4-0.6c0.9,0.1,1.8,0.2,2.7,0.2
			c5-0.2,10.1-0.4,15.2-0.6l38.1-1.5c0.9,0,1.8,0,2.6,0c-3-0.7-6.1-1.1-9.1-1.4c-6.9-0.6-13.9-1-20.8-1.6c-8.4-0.7-16.7-1.4-25-2.2
			c-10.7-1-21.3-2.1-32-3.2c-8.6-0.9-17.2-2.1-25.8-2.9c-6.6-0.6-13.2-1.6-19.9-1c-7.9,0.7-15.9,0.9-23.8,1.3
			c-12.4,0.7-24.7,1.3-37,2C196.1,78.6,186.8,79,177.5,79.4z M177.9,222.7c-0.1,0.3-0.3,0.6-0.4,0.9c-0.6,8,0.3,16.1,2.5,23.8
			c3.2,10.4,7.1,20.5,13,29.6c5.1,7.9,11.7,13.7,21.5,14.9c6,0.7,11.8,0.1,17.1-2.9c6.1-3.4,11.1-8.6,14.2-14.9
			c1.4-2.7,2.5-5.6,3.4-8.5c1.5-5,2.6-10.1,3.8-15.2c0.6-1.9-0.3-3.9-2.1-4.7c-2.5-1.4-3.5-3.8-3.3-6.6c0-0.7,0-1.4,0-2
			c-2.3-0.6-2.9-0.4-3.5,1.3c-0.2,0.6-0.3,1.2-0.2,1.9c-0.3,7.7-1.6,15.3-4,22.6c-1.4,4.7-3.8,9.1-7,12.7c-5.6,6.2-12,8.9-20.6,5.4
			c-7.4-3.1-13.6-8.6-17.4-15.6c-7-12.2-11.2-25.2-10.3-39.5c0-0.6-0.1-1.2-0.2-1.8L177.9,222.7z M172.7,207.5l-0.1,0.9
			c-0.9-0.1-1.9-0.2-2.8-0.4c-10.1-2.7-20.4-4.3-30.8-6.1c-0.6,0-1.2,0-1.7,0v14.6c2.3,0.4,4.7,0.9,7,1.4c6.2,1.4,12.5,2.8,18.7,4.5
			c1.4,0.4,2.6,2.3,3.9,2.4c1.6,0.1,3.3-0.6,5,0.1c0.7,0.2,1.4,0.3,2.1,0.4c0.2-1.2,0.3-2.3,0.4-3.4c-2.2-0.7-4.2-1.3-6.1-2
			c-1-0.3-1.9-0.9-2.5-1.8c-0.8-1.9-0.7-4,0.4-5.7c1-1.6,2.9-2.3,4.7-2c1,0.1,1.9,0.2,2.9,0.4c0.1-0.4,0.2-0.8,0.2-1.2
			c-0.3-4-0.6-7.9-0.8-11.9c-0.1-1.1-0.3-2.3,0.1-3.1c0.4-0.7,0.5-1.5,0.2-2.2c-0.6-4.5-1.2-8.9-1.8-13.4c-0.3-2.2-0.5-4.4-0.8-6.9
			c-6,1.5-11.7,2.6-17.6,0.6c-1.9,10-6.2,19.1-8.7,29C154.2,203.2,163.6,204.8,172.7,207.5L172.7,207.5z M115.7,224.4
			c7,4.1,16.8,1.3,19.1-8.2c0.4-1.9,0.5-3.8,0.3-5.6c-0.4-5.8-3.7-11-8.7-13.9c-1.9-1.2-3.9-2.3-5.9-3.3c-2.8-1.5-5.6-2.9-8.5-4.2
			c-13.7-5.5-28-9.2-42.6-11c-3.5-0.4-7.1-0.5-10.9-0.8c0.2,1.7-0.1,3,1.2,4.1c0.8,0.8,1.5,1.7,2.1,2.7c0.3,0.4,0.5,0.9,0.6,1.4
			c-0.1,1-0.2,2-0.5,3c-1.5,0.8-2.6,0.2-3.8-0.2c-1.7-0.6-3.5-1-5.1-1.7c-0.9-0.4-1.8-1-2.6-1.8c-0.4-0.3-0.5-1-0.9-1.3
			c-0.4-0.4-1-0.6-1.6-0.5c-0.6,0.2-1.4,1-1.4,1.4c0,1.5,0.4,3,1.1,4.3c1,1.9,2.7,3.3,4.7,4c0.6-0.4,1.2-0.9,1.9-1.4
			c1.3-0.8,2.8-1.2,4.1-0.4c1.5,1,3,0.9,4.7,0.9c0.8,0,1.6,0,2.4,0.1c1,0.1,1.9,0.2,2.3,1.5c0.1,0.5,1,1,1.6,1.2c11,3,22.1,6,33.2,9
			c0.5,0.1,1.1,0.2,1.7,0.2c1.3-1.1,0.7-3.6,3.5-3.8c-3.7,7.7-2.4,14.3,2.8,20.8c1.1-2.1,1.7-3.6,0.5-5.5c-1.5-2.5-1.9-5.4-1.2-8.2
			c0.8-5.2,5.7-8.8,10.9-8c1.5,0.2,2.9,0.8,4.1,1.7c5.1,3.6,6.7,10.4,3.8,15.9c-1.6,3.4-5.2,5.3-8.9,4.8c-1-0.1-1.9-0.3-3-0.4
			C116.2,222.2,115.9,223.4,115.7,224.4L115.7,224.4z M38.5,180.5l-3.6-0.7c-5-0.9-9.7,3.3-9,8.1c0.5,4,2.5,7.6,5.5,10.3
			c1.8,1.7,3.2,1.7,5.6,0.4c-1.4-1-2.1-2.3-1.2-4s2.5-0.9,3.8-0.7c1.9,0.2,3.8,0.4,6,0.6c-0.3-1.1-0.5-1.7-0.7-2.4
			c-0.3-1-0.6-2-1.8-2.1s-2.4,0.2-2.8,1.5s-1.7,1.2-2.7,1.1c-0.5-0.2-0.9-0.7-1.1-1.2c0.1-1.2-0.6-2.9,0.9-3.4
			c2.3-0.7,4.6-2,7.4-1.2c-1.5-3.3,0.3-4.9,2.7-6.2c-0.7-0.9-1.4-1.9-1.9-2.9c-1.6-3.7,1.7-8.7,6-9.1c2.6-0.2,3.9,0.7,4.7,2.6
			c1.7,1,3,1.7,4.2,2.4c0.4,0.2,0.8,0.4,1.2,0.5c4.7,0.6,9.5,1.2,14.3,1.8l0.5-2.5l-3.6,1.3c-1.7-1.8-1.4-3.7-0.3-5.5
			c-2.3-2-2.3-2-2.8-3.7c0.8-0.1,1.6-0.1,2.3,0c1,0.2,1.9,0.5,2.9,0.8c0.9,0.3,1.8,0.1,2.5-0.5c1.4-1.3,1.9-1.2,3.1,0.2
			c0.6,0.7,1.1,1.4,1.6,2.2c0.6,0.8,0.5,1.9-0.3,2.5c-0.3,0.2-0.6,0.4-0.9,0.4c-1.6,0.4-2.7-0.3-3.8-2.6H75
			c-0.6,1.3,0.2,1.9,0.8,2.7c1.2,1.5,2.9,2.8,2.4,5.2l2.6,0.4c-0.6-1.6-1-3,0.8-3.4c1.4-0.3,2.1-1.2,2.7-2.6
			c3.1,2.9,5.3,6.2,8.7,8.4c-1-11.2-4.5-22.1-10.2-31.8c-0.8,1.1-1.4,1.7-2,2.4c-3,4.2-6.1,8.5-9.2,12.8c-0.6,0.8-1,2-2.8,1.8
			c0.1-1.3,0.2-2.6,0.3-3.9c-2.5-2.2-4.4-5.1-7.6-7.1c-5.7,6-11.3,11.7-16.7,17.6c-2.2,2.5-1.9,6.2,0.2,8.8c0.1,0.1,0.1,0.3,0.1,0.6
			c-0.1,0.3-0.3,0.6-0.5,0.8c-0.3,0.3-0.6,0.6-1,0.9C40.8,184,39.8,183.7,38.5,180.5L38.5,180.5z M316.5,242.1
			c1.4,2.9,2.5,5.4,3.8,7.9c4.3,8.1,9.8,15.1,17.3,20.5c5.3,3.8,11,5.9,17.7,5.5c10-0.6,18-4.8,23.9-12.9c4.7-6.4,7.5-13.8,9.8-21.3
			c1-3.3,2.2-6.9-0.7-10.3l-4.9,0.7c-0.2,0.4-0.3,0.4-0.3,0.5c-0.2,1.1-0.4,2.3-0.6,3.5c-1.6,7.9-4.7,15.2-10.2,21.2
			c-5.8,6.4-13,9.9-21.9,9c-5.9-0.6-10.8-3.2-15.3-6.9c-5.2-4.4-9.4-9.8-12.4-15.9c-0.4-0.7-0.7-1.4-1.2-2.2L316.5,242.1z
			 M92.7,202.3c-1.3-0.4-2.3-0.7-3.3-1c-6.8-1.9-13.7-3.8-20.5-5.9c-2.3-0.9-4.7-1.3-7.1-1.2c-1.3,0.2-2.7-0.1-3.8-0.9
			c-0.9-0.7-2-0.8-2.6,0.2c1.1,1.5,2.3,2.6,2.9,4.1c1.7,3.9,2.8,8,1.9,12.4c-0.3,1.3,0.2,2.6,1.3,3.3c1.9,1.5,3.2,3.8,3.4,6.2
			c0.1,0.7,0.2,1.4,0.4,2.2l3.9,0.4c4.6,0.4,9.2,0.9,13.7,1.4c1.2,0.2,2.4-0.4,2.9-1.5C89.1,215.8,91.5,209.2,92.7,202.3z
			 M65.7,126.8c1.7-1.9,2.4-4.4,2.1-6.9c-0.1-1.7-1.2-3.1-2.8-3.6c-8.2-3.2-16.5-4.4-25.2-2.4c-7.7,1.9-14.7,5.9-20.2,11.5
			c-1.8,1.7-3.2,3.7-4.2,6c1.3,1.3,2.6,2.6,3.8,3.9s2.3,2.6,3.5,4C33.6,122.2,50.5,117.9,65.7,126.8L65.7,126.8z M38.8,126.3
			c-5,1.7-12.7,8.9-14.4,13.4c-0.2,0.7-0.1,1.4,0.3,1.9c1.9,2.3,3.6,4.8,7.2,4.4c0.5,0,0.9,0.1,1.3,0.2c1.1,0.2,1.9,1.2,1.7,2.4
			c-0.1,0.5-0.3,1-0.7,1.3c-0.5,0.4-1.1,0.7-1.6,1c1.9,1.8,3.6,3.3,5.3,4.9l12.9-14L38.8,126.3z M77.8,137.5
			c10,12.4,15,26.8,17,42.2l7.6,1.9c0.1-0.9,0.2-1.4,0.2-1.9c0-1,0-2-0.1-3c-1.6-14.1-6.8-27.5-15.1-39c-0.4-0.6-0.9-1.1-1.4-1.6
			c-1.9-1.7-1.9-1.7-2.2-4.3L77.8,137.5z M225.9,153l0.1,0.7c-0.7,0.2-1.5,0.3-2.2,0.4c-1.4,0.1-2.7,0-4.1,0.1
			c-5.3,0.2-9.9,1.9-13.4,6c-1.2,1.2-2,2.7-2.4,4.4c-0.6,3.5-0.9,7-0.9,10.5c-0.1,7.7,0,15.3,0,23c0,2.7-0.3,5.4-0.3,8.1
			c0,2,0,3.9,0,5.9c0,2.7-0.1,5.4-0.1,8.1c0,1.2,0.6,1.8,1.8,2c2.8,0.6,5.6,1.3,8.4,1.9c0.8,0.2,1.7,0.2,2.6,0.3
			c-1.7-0.7-3.5-1.2-5.2-1.5c-2-0.5-2.2-0.6-2.4-2.7c-0.1-1.2-0.1-2.3-0.1-3.5c-0.1-4.9-0.2-9.7-0.3-14.6c-0.1-4.5-0.2-9-0.3-13.5
			c-0.1-6.4-0.4-12.8-0.3-19.2c0.1-4.4,2-7.9,6.4-9.8c3.2-1.5,6.7-2.3,10.2-2.4c2.5,0,5,0.2,7.5,0.4c3.1,0.3,3.8-0.1,4.2-2.9
			c-2-1.5-7.4-3.2-10.7-3.1c-0.6,0.1-1.2,0.3-1.8,0.5l0.1,0.5L225.9,153z M11.8,127c4.5-6.1,10-11.3,16.5-15.3
			c-0.6-2.4-1-4.5-1.6-6.9c-4.6-0.8-9.6-2-14.5-2.5c-5.5-0.6-8.1,3.3-8,7.7C4.1,116.5,6.8,122.1,11.8,127L11.8,127z M214.7,273.6
			l-0.6-0.2c0-0.8,0.1-1.5,0.3-2.3c0.8-2.6,1.5-5.2,2.4-7.8c0.9-2.7,2.1-5.4,3-8.1c0.3-0.8,0.4-2,0-2.5c-1.6-1.8-3.4-3.3-5.1-4.9
			c-0.3,0.2-0.4,0.3-0.4,0.4c-1.5,7.4-3,14.8-4.4,22.3c-0.1,0.6,0.1,1.2,0.5,1.7c2.5,1.6,4.9,3.6,7.6,4.5c3.6,1.2,7.1,0.1,10.1-2.5
			c-0.4-1.3-0.9-2.6-1.2-3.9c-1.3-4.5-2.5-9-3.7-13.6c-0.2-0.9-0.4-1.9-1.8-2.3C218.6,260.8,216.4,267.2,214.7,273.6z M234.2,271.3
			c-2.6,3.5-7.1,4.4-9.9,7.8c-1.3,1.6-8.7,0.8-9.6-1.1c-0.7-1.5-2-2-3-2.8c-2.3-1.6-4.4-3.4-6.4-5.4c-8.6-9.5-14-21.5-15.5-34.2
			c-0.4-3.4-0.4-6.8-0.6-10.5l-3-0.3c-0.2,1.1-0.3,2.3-0.4,3.5c0.1,2.7,0.1,5.4,0.4,8.1c1,10.2,4.3,20,9.7,28.7
			c2.1,3.3,4.5,6.3,7.3,9c2.9,2.8,6.4,5,10.3,6.3C221.7,283.2,230.8,279.2,234.2,271.3L234.2,271.3z M73.2,102.6c2.5,0,4.4,0,6.3,0
			c0.9,0,2,0,2.6,0.5c1,0.8,2.1,1.3,3.4,1.5c2.1,0.6,4,1.9,5.3,3.6c1.4,1.9,2.6,4,3.9,6.1l3.7-2.8c-0.5-2.8-0.8-5.6-1.9-8.3l-5,0.4
			c-0.5-2.6-0.4-2.8,1.6-3.3l2.3-0.6c0-0.8,0-1.5,0.1-2.1c0-0.2,0.3-0.3,0.6-0.6l1.6,2l2.3-1c-0.6-1.7-0.9-3.3-2.8-3.7
			c-2.5-0.4-4.3,0.7-5.6,2.6l1.2,1.7c-1.6,0.9-2.6,0.3-3-0.9c-0.2-1.1-1-2.1-2-2.6c-1-0.4-0.9-1.5,0.1-2c1.4-0.8,2.4-0.4,3,1.1
			l1.7-1.1c-1-1.6-1-1.7-2.1-1.5c-1.7,0.3-3.4,0.8-5.2,1.2c-2.5,0.6-5,1.2-7.7,0.3c-1.1-0.4-2.3-0.5-3.4-0.2
			c-1.9,0.5-3.9,0.6-5.9,0.2c-2.6-0.3-5.2-0.8-7.8-1.1c-2.4-0.3-2.7,0-2.9,2.8c2.5,0.8,5.1,1.1,7.6,0.8c3.4-0.3,6.8-0.7,10.2-0.9
			c2.4-0.2,4.9-0.3,7.3-0.3c2.1,0,3.5,0.9,3.4,2.7c-0.3,1.9-0.8,3.8-1.4,5.7c-0.1,0.2-0.6,0.3-0.8,0.4c-0.2-0.2-0.4-0.4-0.4-0.5
			c-0.2-1-0.3-1.9-0.5-2.9c-0.4-2-1-2.5-3.1-2.6c-2,0-3.9,0-6.2,0C73.5,99.1,73.4,100.6,73.2,102.6z M64.5,128.6
			c-6.5-4.9-20-6-24.2-2.7c4.5,4.4,7.7,9.9,12.2,14.5C56.3,136.1,60.9,133,64.5,128.6L64.5,128.6z M44.5,165l0.5,0.3l14.2-14
			l-7.4-7.4l-13,13.6c1.1,1.4,2.4,2.7,3.7,3.8C43.9,162.4,44.6,163.3,44.5,165L44.5,165z M117.1,219.3c5.9,1.3,10.1-1.1,11.2-6.3
			c0.8-4.5-1.2-9-5-11.4c-3.3-2-7.5-1.3-10,1.5c-2.8,3.3-3,8-0.4,11.5c0.2-1.5,0.4-3,0.5-4.5c-0.1-1.7,0.7-3.4,2-4.5
			c1.5-1.4,3.9-1.3,5.3,0.2c0.5,0.5,0.8,1.2,0.9,2c0.6,2.3-0.2,4.6-2,6.1C117.8,215.4,117.6,217.2,117.1,219.3L117.1,219.3z
			 M228.5,221.3c3.4-2.9,5.9-6.6,7.4-10.8c0.4-1.3,0.9-2.5,1.3-3.8c0.2-0.6,0.3-1.2,0.3-1.8c-0.2-1.6-3.5-6.6-5.2-7.9
			c-1.5,1.6-3,3.3-4.7,4.8c-1.9,1.7-2.2,3.6-1.7,6c0.8,4.1,1.3,8.3,2,12.4C228.1,220.6,228.3,220.9,228.5,221.3L228.5,221.3z
			 M323.6,241.4c1.6,3.7,3.6,7.1,6.1,10.2c3.9,5,8.5,9.1,14.4,11.5c3.7,1.6,7.7,2.2,11.6,1.8c7.3-0.9,12.8-4.7,17.1-10.4
			c4.9-6.3,7.2-13.7,8.5-21.4c0-0.2-0.1-0.5-0.2-0.7c-1.4-0.3-1.8,0.2-2,1.5c-0.3,2.4-0.3,4.8-1.4,7.1c-1.2,2.6-1.8,5.4-3.3,7.9
			c-0.4,1-1,1.9-1.8,2.7c-1.4,1.5-2.6,3.1-3.6,4.8c-0.7,0.4-1.8,1-2.9,1.6c-2,1.3-4.1,2.6-6.1,3.8c-0.2,0.1-0.5,0.2-0.8,0.2
			c-1.7,0.2-3.4,0.5-5.1,0.5c-2,0-4.3,0.4-6.1-0.3c-4.9-1.8-9.6-4-13.4-7.8c-3.2-3.1-5.9-6.6-7.9-10.6
			C326.2,242.5,325,241.5,323.6,241.4L323.6,241.4z M97.8,203.7c-1.2,7-3.5,13.9-6.6,20.3c3,0,5.6,0,8.1,0c1.2,0.1,2.3-0.6,2.7-1.7
			c2.4-5.3,3.1-11.3,1.8-17L97.8,203.7z M54.5,141.4c2.1,0.4,3.7,0.6,5.2,0.9c1.1,0.2,1.9,1.3,1.8,2.4c0,1.3-0.9,1.4-1.8,1.5
			c-0.6,0.2-1.2,0.4-1.8,0.6l3.1,2.6l13.1-13.7l-7.2-5.9L54.5,141.4z M218.8,209.7c0.4-0.4,0.6-0.5,0.6-0.6c0.5-1.8,1.1-3.6,1.6-5.4
			c2-7.7,2-7.7,0.1-15.3l-0.1-0.3c-0.7-2.7-1.1-3-4.4-2.8c-0.3,1.3-0.8,2.5-1.3,3.7c-2,4.2-2.1,8.6-1.2,13.1
			C214.8,205.5,217,207.3,218.8,209.7z M70.3,159.1l1.9-2.8c2.4-3.5,4.8-6.9,7.3-10.4c0.6-0.8,1.3-1.6,0.6-2.7
			c-1.1-1.5-2.2-3-3.5-4.6l-13.3,13L70.3,159.1z M77,114.7c0.5,0.5,0.9,1,1.3,1.4c1.7,1.6,3.5,3.2,5.1,4.8c1.2,1.3,1.4,2.3,0.4,3.3
			c-1.2,1.2-2.5,2.4-3.8,3.5l-9.4-7.5c-0.8,2.8-1.6,5.4-2.5,8.2l7,6.1l15.2-16.2c-1.1-0.3-2.1-0.7-3.1-1.1c-2.1-1.1-4.7-0.7-6.7-2.5
			C79.6,113.9,78.1,113.8,77,114.7z M111.7,83c-0.5-0.4-1.1-0.8-1.7-1c-2.3-0.4-4.7-1.1-6.9-0.9c-7.7,0.8-15.4,1.7-23.2,1.3
			c-1-0.1-2,0-3,0.2c-0.8,0.1-1.6,0.4-2.3,0.8c-0.8,0.3-1.2,1.2-0.9,1.9c0.1,0.2,0.2,0.4,0.4,0.5c0.4,0.6,1,1.1,1.6,1.4
			c2,1,4.3,1.5,6.5,1.2c6.2-0.9,12.4-1.7,19-2.6c-1.6,0.1-3.1,0.1-4.7,0c-1.4-0.2-2.9,1.1-4.5-0.4C98.6,83,105.1,83.4,111.7,83z
			 M114.8,210.2c-0.4,1.6-0.8,3-1.2,4.5c-0.9,3.2-1.9,6.4-2.8,9.6c-1.6,5.5-3.2,11.1-4.9,16.6c-0.4,0.9-0.4,2,0.1,2.9l2.9-0.7
			c1.1-3.5,2.3-6.9,3.2-10.4c1.4-4.9,2.6-9.8,3.9-14.6c0.5-2,1.1-3.9,2.9-5.3c1.6-1.3,2.2-3.5,1.4-5.4c-0.3-1-1.2-1.7-2.2-1.7
			c-0.9-0.1-1.7,0-2,1.1c2.3,0.4,3.1,1,3.3,2.4c0.2,1.1-0.4,2.2-1.5,2.7C116.3,212.6,115.6,211.2,114.8,210.2L114.8,210.2z
			 M138.5,200.6l4.5,0.6c0.3-0.6,0.5-0.9,0.6-1.3c2.3-6.9,4.6-13.8,6.9-20.8c0.5-1.8,1-3.6,1.2-5.5c0.2-1.1,0.2-2.2,0-3.2
			c-0.4-1.7-1.6-2.1-3-1.1s-1.9,2.8-2.1,4.5c-0.7,8.6-3.1,17.1-7.2,24.7C139.1,199.1,138.9,199.7,138.5,200.6L138.5,200.6z
			 M37.2,89.2c-0.9-0.5-1.9-0.9-2.9-1.2c-4.8-0.8-9.6-1.5-14.4-2.2c-1.1-0.2-2.1-0.3-3.2-0.4c-0.5,0-1,0.5-1.5,0.8
			c0.4,0.4,0.8,1,1.2,1.1c1.7,0.4,3.4,0.5,5.1,0.8c9.4,2,18.9,4,28.3,6c1.7,0.4,3.5,0.6,5.2,0.8c0.3-3-0.1-3.8-2.5-4.1
			c-4.5-0.7-8.9-1.4-13.4-2C38.6,88.8,37.9,88.9,37.2,89.2z M225.2,245.7c-0.7,1.3-1.1,2.1-1.6,3c-1.5,3-1,5.2,1.4,7.4
			c3.4,3.1,6.8,6.2,10.2,9.3c0.4,0.3,0.9,0.6,1.4,0.9c0.5-0.9,0.9-1.7,1.4-2.5C233.9,257.8,229.7,252,225.2,245.7L225.2,245.7z
			 M238.8,262.5c0.6-2.4,1-4.2,1.6-6c0.4-1,0.1-2.2-0.8-2.9c-3.6-3.6-7.1-7.4-10.7-11c-0.4-0.4-0.9-0.8-1.4-1.2
			c-1.8,2.6-1.9,2.7-0.2,5c3.3,4.8,6.7,9.6,10.1,14.3C237.6,261.2,238,261.6,238.8,262.5L238.8,262.5z M95.8,239.3l9.5,1.2
			c1.1-5,3.2-9.7,3.9-14.9c-0.6,0-1.3,0-1.9,0c-1.8-0.2-2.8,0.5-3.5,2.2c-0.8,1.7-1.8,3.3-3,4.8C99.1,234.9,97.4,237,95.8,239.3
			L95.8,239.3z M135.8,205.3l0.7-0.3c-0.3-1.1-0.7-2.2-1.1-3.2c-1.3-2.4-3.1-4.5-5.3-6.1c-3.9-3-8.3-5.5-12.9-7.4
			c-17.6-7.5-36.3-10.6-55.1-13c-0.6,0-1.1,0.1-1.6,0.2v0.5c1.7,0.2,3.4,0.4,5.2,0.6c11.4,1,22.7,3.2,33.7,6.6
			c8.2,2.3,16.1,5.5,23.6,9.5C128.3,195.7,133.3,199.1,135.8,205.3L135.8,205.3z M241.2,253c0.3-2.7,0.6-5.2,0.9-7.4
			c-1.4-1-2.7-1.6-3.4-2.5c-0.9-1.2-2.1-1.9-3.5-2.2c-1.7-0.5-3.4-1-5-1.4c0-1.6,0.7-2.2,1.9-2.2c1.8,0,3.5-0.1,5.2,0.9
			c-0.4-0.5-1-0.9-1.6-1.1c-1.8-0.1-3.6,0.1-5.4,0.1c-1.1,0-1.6,0.6-2,1.6c-0.3,0.8-0.1,1.7,0.6,2.2c3.8,3.9,7.5,7.8,11.3,11.7
			C240.2,252.8,240.5,252.8,241.2,253L241.2,253z M110.2,140.3l-0.8,0.2c0,0.7,0.1,1.3,0.2,2c4.4,15.3,8.7,30.7,13.1,46
			c0.2,1.3,1.4,2.2,2.7,2.1C120.2,173.6,115.2,157,110.2,140.3L110.2,140.3z M176.9,210c1.1-4.5,1.7-8.6,3-12.4
			c4.1-12.1,9.8-23.1,21.5-29.8c0.9-0.5,1.2-1.3,0.5-2.5c-1.1,0.5-2.3,1.1-3.3,1.8c-8.6,5.8-15,14.4-18.1,24.2
			c-1.4,4.1-1.9,8.4-2.8,12.7C177.2,205.8,177.1,207.7,176.9,210L176.9,210z M349.3,239.9l-0.4,0.1c0,0.5-0.1,1-0.1,1.5
			c0,2.9,0,5.8,0,8.6s0,5.8,0.1,8.6c-0.1,1,0.6,1.9,1.6,2c0.1,0,0.1,0,0.2,0c1.9,0.2,2.8,0,3.1-1.3c0.9-3.3,2.2-6.5-0.1-9.8
			c-1.1-1.5-1.5-3.4-2.3-5.2C350.7,242.9,350,241.4,349.3,239.9L349.3,239.9z M214.4,20c-8.4-4-16.6-5.5-25.7-4
			c2.5,2.5,5.7,4.3,9.2,5c1.8,0.5,3.8,0.2,5.4-0.7c2-1.2,4.4-1.2,6.5-0.1C211.3,20.9,212.5,21,214.4,20z M218.8,51.3
			c4.7-6.2,6.1-20.3,1.3-25.9C217.8,34,219,42.6,218.8,51.3L218.8,51.3z M102,130l2.7,10.1l7.8-2.1l-0.7-3.4H110v-7.4
			C106.9,127,104.8,128.7,102,130z M235.8,267.4l-11.1-10.3l-0.4,0.2c1.5,5.4,3,10.8,4.6,16.5C231.6,272.3,234,270.1,235.8,267.4
			L235.8,267.4z M239.4,210.3c-4.1,4.1-6.1,7.8-6.7,12.3c0.3,0.2,0.6,0.3,0.9,0.4c2.6,0.4,5.1,0.8,7.7,1.1
			C241.8,221.8,240.9,215.3,239.4,210.3L239.4,210.3z M221,238.8h-4.9l-1.2,4.3c1.8-0.6,2.5-2.1,4.1-2.1c-0.9,1.1-1.9,2.1-3,3
			c-2.1,1.8-2.1,2-0.1,4c0.7,0.8,1.5,1.5,2.4,2.2c0.8,0.6,1.4,1.7,2.9,1.7c0.3-3.3-1.2-6.2-1-9.4c1.3,1.7,0.9,4.2,2.3,6.3l1.9-4.2
			C223.2,242.5,222.1,240.7,221,238.8z M4.4,80.4c0.4,0.3,0.8,0.5,1.2,0.7c2.7,0.6,5.4,1.2,8.2,1.7c0.7,0.1,1.4,0.1,2.1-0.1
			c3.9-0.5,7.8-1,11.8-1.5c0.7-0.1,1.3-0.2,2.2-0.4C21.4,77.4,13.1,77.5,4.4,80.4z M355,250.5l0.7-0.1c0.5-2.5,1.5-5.1,1.3-7.6
			c-0.2-2.7-1.5-5.3-2.4-8.1l-6.1,0.7L355,250.5z M211.4,248.4c-0.4,0-0.7-0.1-0.8,0c-2.6,2.2-5.3,4.3-7.9,6.5
			c-0.4,0.4-0.7,1-0.8,1.6c-0.2,1.4-0.2,2.9-0.2,4.3c0,1.8,0.9,3.6,2.5,4.5L211.4,248.4z M94,203.1c-1.2,7.1-3.6,13.9-7.2,20.1
			c2.9,0.9,3,0.9,4-1c2.7-5.3,4.6-11,5.6-16.9C96.8,203.4,96.6,203.2,94,203.1z M52.3,201c0.3,0.4,0.4,0.7,0.6,0.8
			c0.3,0.2,0.6,0.3,1,0.4c2.8,0.5,3.2,0.9,3.3,3.5s-0.1,5-0.1,7.6c0.1,3,0.3,6.1,0.5,9.1c0.1,0.5,0.4,1,0.7,1.5l3.8-2.2
			c-0.5-1.3-0.7-2.8-1.5-3.7c-2.3-2.7-2.4-5.9-1.8-9c0.8-4.2-0.5-7.8-2-11.5c-0.4-1.4-1.6-2.3-3-2.4c1.1,1.3,2.6,2.5,2,4.4
			C55.3,201.2,53.6,200.6,52.3,201z M163.3,14.5c5.5,3,11.1,2.9,17.3,1.4c-5.4-3.7-10.9-4.6-16.7-4.3L163.3,14.5z M12.9,128.2
			l0.4,0.4c0.4-0.4,0.8-0.8,1.2-1.2c3.7-5.2,8.6-9.6,14.2-12.7c9.7-5.5,20-7.7,30.9-3.8c0.6,0.1,1.2,0.2,1.8,0.3
			c-2.5-1.8-5-1.8-7.2-2.3c-5.8-1.3-11.6-1.5-17.3,0.5c-9.9,3.5-17.5,9.9-23.7,18.2C13,127.7,12.9,128,12.9,128.2z M361.2,238.9
			c2.3,5.1,4.8,10.1,7.5,14.9c1-1.2,1.8-2.1,2.5-3.1c1.2-2,0.8-4.5-1-6C367.5,242.8,364.5,241,361.2,238.9z M367.6,255l-8-16.7
			c-1.1,2.7-1,5.7,0.3,8.3c1.3,2.7,2.1,5.6,3.2,8.3c0.3,0.7,0.7,1.4,1.1,2.4L367.6,255z M342.7,258.2c1-6.4,1.9-12.3,2.7-18.3
			l-0.5-0.2c-1,1.3-2,2.7-3.2,3.9c-1.2,1.1-1.7,2.7-1.6,4.4c0.1,2.8,0,5.6,0,8.8L342.7,258.2z M185.4,14.9
			c-3.4-2.8-7.5-4.8-11.8-5.6c-4.2-0.8-8.3-1.5-12.5-0.4c-1.2,0.3-1.5,0.7-1.2,1.5c3.6,0.2,6.9,0.2,10.2,0.5
			c3.7,0.2,7.3,1.5,10.3,3.7C181.7,15.8,183.8,15.9,185.4,14.9z M99.8,131.6l-2.3,3.5l8.4,16.4c-1.9-8-3.9-15.8-6.4-23.6
			c-1.9,0.2-2.5,1.1-2.6,2.7L99.8,131.6z M208,270.4l0.7-0.2c1.3-6.9,2.7-13.9,4-20.9l-0.6-0.2c-2.2,5.5-4.5,10.9-6.7,16.4
			c-0.2,0.8,0,1.6,0.4,2.2C206.4,268.7,207.2,269.6,208,270.4z M333.3,250.4c2.4-1.4,3.7-3.6,5.4-5.4c0.2-0.3,0.3-0.6,0.3-1
			c0-1.9-0.1-3.9-0.2-6.5c-2.4,2.5-4.5,4.4-6.4,6.5s-2,3-0.2,5.3C332.4,249.6,332.8,249.9,333.3,250.4L333.3,250.4z M347.7,237.3
			H347c-0.9,6-1.9,12.1-2.8,18.1c-0.5,3.2,0.1,3.9,3.5,4.3V237.3z M50.3,105.7c0.2-3.3,0.4-6.4,0.6-9.5l-1.7-0.1
			c-0.3,1.9-0.5,3.6-0.9,5.3c-0.5,2.2-1,2.4-3.3,2l-1.6-0.4c-3.1-0.6-6.2-1.3-9.2-1.8c-1.9-0.3-2.2-0.1-3.2,1.8L50.3,105.7z
			 M90.6,112.2c-3-5.9-9.8-8.6-15.4-6.3C79.8,109.2,84.9,110.9,90.6,112.2z M358.8,246.4c-2.2,4.6-2.9,9.1,0.7,13.2
			c3.4-0.9,3.6-1.2,2.6-4.1S359.9,249.4,358.8,246.4z M184.2,16.8c4,5,15.4,8.9,20.2,7.1c-0.8-1.4-1.6-2.4-3.4-1.7
			c-0.7,0.1-1.4,0.1-2.1-0.1c-3.7-0.6-7.1-2.2-10-4.6C187.6,16.4,185.8,16.1,184.2,16.8z M369.6,242.8l0.4-0.4c-0.5-2-1-4-1.6-5.9
			c-0.3-0.7-0.8-1.3-1.5-1.7c-2.2-1.5-4.6-0.9-7-0.2c0.1,0.5,0,1.1,0.2,1.3C363,238.5,366.2,240.8,369.6,242.8L369.6,242.8z
			 M215.3,185.6l-0.4-0.7c-1.4,0.3-2.7,0.6-4,1c-1.4,0.3-2.2,1.7-1.9,3.1c0.3,2.3,0.3,4.7,0.6,7c0.3,1,0.6,2,1.1,2.9
			c2.6-3.8,0.3-7.6,1.3-11.1c0.3,1.3,0.6,2.7,1.1,4.6L215.3,185.6z M210.7,65.2c-2.6,3.2-4.5,6.5-5,10.6h6.5
			C211.7,72,211.2,68.6,210.7,65.2z M224.7,206l-0.6-0.2c-1.1,1.3-2.2,2.6-3.2,3.9c-0.7,0.7-0.7,1.7-0.1,2.4
			c1.1,1.5,2.1,3.1,3.3,4.6c0.7,1,1.7,1.6,2.9,1.8C226.2,214.2,225.4,210.1,224.7,206L224.7,206z M329.7,245.1c1.4-1.6,2.7-3,4-4.3
			s2.6-2.6,3.8-3.8l-0.3-0.5c-1.8,0.1-3.6,0.3-5.3,0.7C327.2,238.4,326.4,241.2,329.7,245.1L329.7,245.1z M11.4,130.6
			c-3.3,2.9-8.9,15.4-8.8,20.1c0.6-0.6,1.3-1,1.6-1.6c2.6-5.9,5.2-11.9,7.7-17.9C11.9,131.1,11.6,130.8,11.4,130.6z M250.7,243.8
			c1.7,1.1,3.1,2,4.5,2.7c0.4,0.2,1.5,0.1,1.7-0.2c0.4-0.6,0.7-1.8,0.4-2.1c-1.4-1.6-1.2-3.1-0.8-5c0.5-2.1-1.1-3.1-3.4-2.4
			C255,239.7,252.8,241.5,250.7,243.8z M221.9,162.9c0.3,0.6,0.7,1.2,1.1,1.7c1.5,1.2,3,2.3,4.6,3.3c3,1.8,6.1,3.4,9.2,5.1
			c0.4,0.1,0.8,0.2,1.2,0.3C234,167.6,228.2,165.4,221.9,162.9z M168,212.5c1.6,2,3.8,3.4,6.3,3.8c6.4,1.3,12.7,2.6,19.1,3.8
			c1,0.2,2.1,0.3,3.1,0.5l0.1-0.5c-4.6-1-9.3-2.1-13.9-3.1c-3-0.7-6-1.4-9-2.1c-1.6-0.4-3-1.2-2.6-3.5L168,212.5z M374.6,245
			c0.6-1.6,1.2-3.2,1.7-4.9c0.1-0.6-0.2-1.2-0.6-1.6c-1.7-0.8-3.5-1.4-5.5-2.1C370.4,241.2,371.9,244.3,374.6,245z M222.4,20.5
			c0.3,0,0.7-0.1,1-0.2c4.2-2.5,7.8-6,12.5-7.8c0.2-0.1,0.3-0.2,0.4-0.3c0.9-0.7,0.6-1.4-0.2-2c-1.4,0.9-3.6,0.2-4.2,2.6
			c0,0.2-0.6,0.3-0.9,0.4C227.1,14.1,224.7,16.9,222.4,20.5z M195.8,250.6l2.8,6.3c1-0.9,2-1.4,2.1-2.1c0.7-2.4,0.9-5,0.6-7.5
			L195.8,250.6z M293.5,223.6c-1,1.8-1.7,2.9-2.3,4.1c-0.6,0.8-0.3,2,0.5,2.5c0.2,0.1,0.4,0.2,0.6,0.3c0.8,0.3,1.6,0.4,2.4,0.5
			c2,0.2,3-1,2.1-2.8C295.8,226.5,294.7,225,293.5,223.6z M212,221.8l-2.3-13.8l-0.6,0.1c-0.2,4.3-0.9,8.6,0,13.1L212,221.8z
			 M29.8,105.3c-0.5,2.2-0.2,3.7,1.1,4.9l8.4-3.2l-0.1-0.5L29.8,105.3z M309.5,230.5c0.3-2.7,0.2-5.5-0.4-8.1c-3.1,1.1-3.9,3-3,6.4
			C306.5,230.7,307,231,309.5,230.5z M192.6,217.6l8.1,1.9c-0.6-1.6-0.7-3.1-1.4-3.5c-2-0.9-4.1-1.7-6.2-2.4
			C192.9,215.2,192.7,216.3,192.6,217.6z M376.9,237.6c0.4-1.8,0.7-3.2,1-4.7c-3-0.2-5.9,0.1-8.8,0.9
			C371.3,235.7,373.9,236.3,376.9,237.6L376.9,237.6z M281.1,257c0.3-2.9,0.5-5.4,0.8-7.9l-3.2-1c-0.2,2.6-0.5,4.8-0.7,7.3
			L281.1,257z M340.1,242.6l0.6,0.3c1.7-2.4,4.2-4.1,5.4-7.5l-6,0.7V242.6z M20.3,84c1.9,0.2,3.7,0.4,5.6,0.6c0.4,0.1,1,0.2,1.3,0
			c2-1.2,4.2-0.4,6.3-0.4c0.7,0,1.4,0,2.1-0.1c0.9-0.2,1-0.9,0.5-1.9C30.9,81.9,25.6,83,20.3,84z M290,253.9
			c0.6,0.1,0.8,0.3,0.9,0.2c0.4-0.1,0.8-0.3,1.2-0.6c4.9-3.4,9.7-6.8,14.6-10.3c0.1-0.1,0.1-0.3,0.2-0.6l-1.8-0.6L290,253.9z
			 M101.3,112.7c2.5-0.2,2.5-0.3,2.1-2.1c-0.4-1.6-0.8-3.1-1.3-4.7c-0.2-0.9-0.5-1.8-0.7-2.9l-2.5,0.5
			C99.6,106.8,100.4,109.7,101.3,112.7z M107,125.9c-0.7-2.2-1.3-4-1.9-5.9s-1.2-3.7-1.8-5.4c-1.3,0.2-1.5,0.7-1.2,1.6
			c1,3.4,1.9,6.8,2.8,10.1c0,0.1,0.3,0.2,0.5,0.3L107,125.9z M405.9,230.9l0.2,0.7c3.1-0.3,6.2-0.5,9.3-0.9c1.1-0.1,1.9-0.9,2.4-2.4
			c-3.6,0.1-7.2,0.5-10.7,1.3C406.5,229.7,406.2,230.4,405.9,230.9L405.9,230.9z M241.5,228.4c0.3-2.8,0.3-2.9-1.6-3.2
			c-2.1-0.3-4.3-0.6-6.4-0.8c-0.6,0.1-1.1,0.2-1.6,0.5c0.4,0.4,0.7,1.1,1.1,1.2C235.7,226.8,238.5,227.5,241.5,228.4L241.5,228.4z
			 M197.5,229.3c-1.9-1.2-2.4-4-5.2-3.3c-0.4,2.5-0.3,5,0.2,7.4L197.5,229.3z M67.2,89.2c-5-1.2-10-2.5-15.2-0.4
			C57.1,89.3,62,91.6,67.2,89.2z M199.6,214.6c-0.2-4-3.2-5-5.3-7.6l-1.1,5.3L199.6,214.6z M90.2,243.1c4.4,1.9,11.1,2.7,11.5,1.6
			l-1.8-0.5l3.1-1.5C98.3,241.8,94.3,243,90.2,243.1z M261.5,247.7c1.6-3.9,1.1-7.4,0.8-11.4c-1.5,1.4-1,2.7-1.3,3.9
			s-0.5,2.3-0.8,3.4s-0.7,2.4-1.1,3.7L261.5,247.7z M218.3,210.9l-3-3.7l-0.4,0.2l1.2,9.8c0.8-0.4,1.4-0.5,1.6-0.8
			c0.4-0.7,0.8-2,0.5-2.2C216.7,213,218.6,212.1,218.3,210.9L218.3,210.9z M334.9,252.4c0.7,0.7,1.5,1.4,2.2,2
			c0.8,0.5,1.6,0.2,1.7-0.6c0.2-2.2,0.7-4.4,0.1-7.1C337.3,248.7,335.1,249.6,334.9,252.4z M104.5,87.2c-3.6-0.6-6.2,1.3-9.1,2v0.1
			l1.3,1.8C99.8,90.9,102.5,90.2,104.5,87.2z M194.8,205.8l4.1,3.9c0-3.2,0.7-6-2.3-8.2C196,203,195.4,204.4,194.8,205.8z
			 M201.5,194.1c-2.7,2.2-2.9,7.6-0.4,10.2c0.1-1.4,0.4-2.6,0.4-3.8C201.6,198.5,201.5,196.4,201.5,194.1L201.5,194.1z M208.7,26.6
			h0.9l1.5-3c-1.6-2.3-3.6-2.5-6.3-1.9L208.7,26.6z M250.7,231.8c-6.2-2.1-10.1-2.6-12-1.6C242.4,232,246.7,232.6,250.7,231.8z
			 M213,62.5h-0.8c-0.1,4.2,0.9,8.3,1.4,12.4c0,0.2,0.6,0.3,1.4,0.6C214.4,70.9,213.7,66.7,213,62.5z M404.8,223.7
			c0.9,0.6,1.4,1.2,1.9,1.1c3.5-0.2,7-0.2,10.5-1.3C413.1,222.3,409.2,223.2,404.8,223.7z M137,218.1l-0.1,0.6l21.2,4.7
			C151.2,221.1,144.2,219.3,137,218.1z M45,85.2c4.9,0.4,9.7,1.7,14.9,0.8C54.9,84.1,50,84.7,45,85.2z M100.2,249.2
			c2.5-0.8,4.4-1.4,6.4-2c1-0.4,1.1-1.1,0.3-2l-6.2,1.4C100.5,247.3,100.4,247.9,100.2,249.2L100.2,249.2z M256.5,221
			c1.1-0.2,1.1-1.1,1-1.9c-0.4-2.6-0.8-5.1-1.2-7.7c0-0.2-0.3-0.4-0.5-0.6C255.2,215.2,255.5,219.1,256.5,221z M88.3,178.3l0.3-0.4
			l-3.9-4.1l-2.3,1.2l0.8,2.2L88.3,178.3z M216.6,183.4c-2.2-0.8-4.6-1-6.9-0.6c-1.9,0.4-1.9,0.5-1.5,2.5L216.6,183.4z M105.6,223.9
			l4.7-0.2c-0.7-2.2-2-3.3-3.4-4.8C106.5,220.6,106.1,222.1,105.6,223.9L105.6,223.9z M21.6,101.3c1.8,0.4,3.4,0.8,5.1,1.1
			c1.4,0.3,2.2-0.3,2.3-1.9C26.5,99.7,24,99.1,21.6,101.3z M170.8,170.4c0.2-1.2-0.3-1.8-1.3-1.5c-1.6,0.4-3.3,0.9-4.9,1.4
			c-0.4,0.1-0.7,0.6-1.1,1.1C165.7,171.9,166.2,171.9,170.8,170.4L170.8,170.4z M38.7,85.9c3.8,2.2,6.5,2.3,12,1L38.7,85.9z
			 M210.1,45.7c0,1.3-0.2,2.2,0,2.8c1.2,2.5,0.9,5.3,1.4,7.9c0.2,1,0.3,2,0.4,3c0.1-4.1-0.1-8.3-0.6-12.4
			C211.3,46.8,210.8,46.5,210.1,45.7z M222.3,238.5c1.3,2.8,1.3,2.9,2.9,4c1.3-2.4,1.3-2.6,0-4C224.2,237.6,223.4,237.2,222.3,238.5
			z M101.8,161.8l0.6-0.1c-0.5-3.9-1.8-7.6-4-10.9L101.8,161.8z M384.6,230l-0.1,0.5l16.9-1.6v-0.6L384.6,230z M156.4,13.9l0.2,0.5
			l2.1,0.1c-0.8-2.7,0.3-5.3-0.9-7.7c-0.3,1.2-0.6,2.3-0.9,3.4C156.5,11.4,158.4,12.8,156.4,13.9z M217.8,22.7
			c-2-2.1-2.4-2.1-5.6,0.1C214.1,24.2,215.8,22.9,217.8,22.7z M177.2,220.7l-0.1,0.5l14.1,2.7l0.1-0.5L177.2,220.7z M217.4,57.1
			h-0.7c0.3,3.4,0.5,6.7,0.8,10.1C218,63.9,218,60.5,217.4,57.1z M356.6,256.4l-0.6,0.1c-0.3,1.3-0.6,2.7-1,4.5l3.2-0.9
			C357.6,258.6,357.1,257.5,356.6,256.4z M45.8,83.5v-0.3c-1.9-0.3-3.8-0.7-5.8-0.9c-0.9-0.1-1.8,0-1.6,1.5c0.3,0.1,0.7,0.2,1,0.2
			C41.6,83.8,43.7,83.7,45.8,83.5z M307.8,236.2c-1.6,0.5-2.6,0.9-2.7,2.2c-0.1,1.1,0.5,1.9,2,2C307.2,239.2,307.4,238,307.8,236.2
			L307.8,236.2z M355.8,234.9c0.6,2,1,3.5,1.6,5.6C358.5,236.9,359,236.2,355.8,234.9L355.8,234.9z M217.6,20.5l2.1,1.9l2.4-3.8
			l-0.3-0.3L217.6,20.5z M94.3,136.4l-0.4,0.6l3.3,4.3l0.5-0.3c-0.5-1.6-1.4-3.2-2.4-4.5C95.1,136.3,94.6,136.4,94.3,136.4z
			 M421.7,122.1c-1,3-0.8,5.5,0.4,7C421.9,126.6,421.8,124.4,421.7,122.1z M37.1,195.9l10.4,2.3C45.4,196.8,39.6,195.6,37.1,195.9z
			 M200.2,206.3c-0.3,1.9,0,4,0.9,5.7C201.7,209.6,201.7,207.9,200.2,206.3z M67.9,88.4c-1.3-3.3-3.5-1-5.4-1.1L67.9,88.4z
			 M219.1,216.1h3.1c-0.9-1.2-1.5-2.1-2.5-3.4C219.5,214.1,219.3,215,219.1,216.1z M229.2,222.6c2.4,0,2.4-0.1,3.1-4.1L229.2,222.6z
			 M67.1,114.6c-1-1.8-1.5-3.7-3.8-4.9C64.4,111.8,64.8,113.8,67.1,114.6L67.1,114.6z M63.1,108.6c-0.8-0.9-5.7-1.9-7.8-1.8
			L63.1,108.6z M62.5,100.6c1.2-1,2.1-1.6,2.6-2.9L61.7,98C61.9,98.8,62.1,99.5,62.5,100.6L62.5,100.6z M163,169.2
			c-3.4-1.6-4.9-1.7-6.7-0.8L163,169.2z M332.5,234.9v0.4l8.5-0.8v-0.4L332.5,234.9z M176.2,223.3c-0.9,1.6-0.9,3.6,0,5.1V223.3z
			 M414,125.9c2.9,0.6,2.9,0.6,2.9-1.5C415.7,124.3,414.6,124.2,414,125.9z M100.7,99.9c-1.2,0.2-2.1,0.3-2.6,1.6
			c0.7,0.6,1.8,0.6,2.5,0C100.9,101.3,100.7,100.6,100.7,99.9z M155.5,17.7c-0.6-1.1-0.9-2.2-2.2-2.9
			C153.6,17.8,153.6,17.8,155.5,17.7z M60.2,186.7c0.4-1.7-0.8-1.9-1.7-2.6c-0.1,0.8-0.2,1.3-0.3,2L60.2,186.7z M208.8,200.4v3.8
			l0.5-0.1C209.1,202.7,208.9,201.3,208.8,200.4z M197,226.5c1.4,2,1.4,2,2.3,0.4L197,226.5z M231.3,233.2c-2,1.7-2,2.1-0.4,2.6
			L231.3,233.2z M238.2,206.9c-0.5,1.5-0.8,2.4-1.1,3.4C238.4,209.7,239.5,208.9,238.2,206.9L238.2,206.9z M200.6,257.1
			c-1.4,0.9-1.4,0.9,0,2.7V257.1z M114.8,82l0.2-0.6l-3.4-1l-0.2,0.6L114.8,82z M414.5,214.7l0.1-0.6l-3.4-0.9l-0.2,0.7L414.5,214.7
			z M157,171.3l2.3,0.6C158.5,170.5,158.5,170.5,157,171.3z M263.8,231.8c-1.4-0.8-1.4-0.8-2.9,0.3L263.8,231.8z M299.5,131.4
			c-0.6-0.2-1-0.5-1.1-0.4c-0.3,0.2-0.6,0.5-0.8,0.9c0.3,0.2,0.6,0.5,0.8,0.5S299,131.8,299.5,131.4L299.5,131.4z M418.4,213.4
			l-0.7-0.1c-0.6,0.6-0.7,1.1,0.5,1.9C418.3,214.5,418.4,214,418.4,213.4L418.4,213.4z M154.9,13.9c0.1,1.1,0.2,2.1,1.8,2
			L154.9,13.9z M280,245.9l0.2,0.8l2.2-0.5l-0.1-0.6L280,245.9z M167.6,217.7l-0.2,0.4c0.3,0.3,0.6,0.5,0.9,0.6
			c0.4,0.1,0.9,0.1,1.3,0.1l0.1-0.4L167.6,217.7z M306.5,132.2l0.5,0.6c0.7-0.2,1.5-0.4,1.2-2L306.5,132.2z M212.6,199.2l-0.7,0.2
			l0.7,2.1l0.5-0.1L212.6,199.2z M115.2,183.8l-0.4,0.1l0.2,1.8l0.5-0.1L115.2,183.8z M197.6,200.6l0.7,0.1v-2h-0.5
			C197.7,199.4,197.7,200,197.6,200.6L197.6,200.6z M168.2,168.1l0.1-0.4l-2.5-0.5l-0.1,0.6L168.2,168.1z M176.5,197.9h-0.8l0.2,2
			h0.5C176.4,199.2,176.4,198.6,176.5,197.9L176.5,197.9z M89.4,247.6l2.2,0.7C91.3,247,90.8,246.7,89.4,247.6z M32.6,146.8
			c-0.2,0.5-0.3,0.8-0.3,0.9c0.2,0.4,0.4,0.7,0.6,1c0.2-0.2,0.6-0.5,0.6-0.7S33.2,147.5,32.6,146.8z M327.1,238.1l0.5,0.5l1.1-1.2
			l-0.5-0.4L327.1,238.1z M93.7,122.6L93.7,122.6l1.5-1.2l-0.2-0.2L93.7,122.6z M225.7,237.2l-0.1,0.6l1.3,0.6
			c0.1-0.2,0.1-0.5,0.2-0.7L225.7,237.2z M10.8,86v0.3l1.8,0.3l0.1-0.6L10.8,86z M61.7,216.5l-0.4,0.2l0.8,1.7l0.3-0.1L61.7,216.5z
			 M50.5,177.6l0.6,0.6l1-1.4l-0.5-0.4L50.5,177.6z M238.7,236.7c-0.1,0.4-0.3,0.6-0.3,0.8s0.3,0.5,0.5,0.5s0.4-0.3,0.6-0.5
			C239.3,237.4,239.2,237.2,238.7,236.7z M54.2,179.2l-0.4-0.4l-1,1l0.3,0.3L54.2,179.2z M60.3,105.5l-0.1,0.3l1.5,0.4l0.1-0.2
			L60.3,105.5z M381.8,230.8l-0.1-0.3l-1.5,0.2v0.1H381.8z M374.8,231.2v0.2l1.1-0.1v-0.2h-1.1V231.2z M59.5,97.8
			c-0.4-0.2-0.6-0.4-0.7-0.4c-0.2,0.1-0.4,0.3-0.4,0.5s0.2,0.3,0.3,0.5L59.5,97.8z M230.1,223.9c-0.2,0.3-0.4,0.5-0.4,0.7
			s0.3,0.4,0.4,0.6c0.1-0.2,0.4-0.4,0.4-0.6S230.3,224.2,230.1,223.9z"/>
	</g>
</g>
</svg>
