<?xml version="1.0" encoding="utf-8"?>
<!-- Generator: Adobe Illustrator 23.0.4, SVG Export Plug-In . SVG Version: 6.00 Build 0)  -->
<svg version="1.1" id="Calque_1" xmlns="http://www.w3.org/2000/svg" xmlns:xlink="http://www.w3.org/1999/xlink" x="0px" y="0px"
	 viewBox="0 0 416.2 357.5" style="enable-background:new 0 0 416.2 357.5;" xml:space="preserve">
<style type="text/css">
	.st0{opacity:0.34;}
	.st1{fill:#10434B;}
</style>
<title>box</title>
<g class="st0">
	<g id="Calque_1-2">
		<path class="st1" d="M138.1,340.9c-3.4,0.6-6.6,1.3-9.9,1.6c-6.1,0.6-12.2-1.1-17.2-4.7c-3.1-2.2-5.6-5-7.4-8.4
			c-0.7-1.4-1.6-2.8-2.3-4.2c-4.7-9.7-9.8-19.2-13.8-29.3c-2.9-7.4-5.7-14.8-8.6-22.1c-1.2-3-2.6-6-3.8-9.1c-3-7.7-5.9-15.4-8.9-23
			c-3.2-8-6.6-15.9-9.8-24c-3.5-8.9-7-17.9-10.4-26.8c-3.5-9.2-7-18.5-10.5-27.9c-4.6-12.4-10.5-24.2-15.9-36.2
			C14.9,116,10,105.3,5.1,94.5c-1.4-3.1-2.8-6.3-4.2-9.4c-1.1-2.8-1.2-5.8-0.5-8.7c0.8-3.9,3.6-7.2,7.3-8.7
			c7.8-3.6,15.9-6.7,24.1-9.3c9.4-2.8,18.8-5.9,28.2-8.6c19.7-5.6,39.4-10.9,59.2-16.3c5.1-1.4,10.2-2.5,15.3-3.9s9.9-3.1,15-4.2
			c9.9-2.2,19.5-5.5,29.2-8.5c14.2-4.6,28.7-8.4,43.3-11.6c4.5-0.9,8.9-2.5,13.4-3.5c6.7-1.6,13.6-2.1,20.5-1.6
			c3.5,0.3,6.8,1.5,10.2,2.4c1,0.3,1.9,0.8,2.7,1.5c1.1,0.9,2.4,1.6,3.7,2.1c1.3,0.6,2.5,1.4,3.4,2.5c2.8,2.9,5.5,6,8,9.3
			c5.5,7.5,10.9,15.2,16.3,22.9s11,15.3,16.4,23.1c5.2,7.5,10,15.2,15.1,22.8c4.5,6.8,9.1,13.5,13.6,20.3
			c4.8,7.3,9.6,14.7,14.4,22.1c7.3,11.3,14.6,22.6,21.8,33.9c2.6,4.2,4.9,8.6,7.6,12.8c3.9,6.2,8.1,12.1,11.8,18.3
			c3.9,6.5,7.5,13.2,11,19.9c2.5,4.7,3.3,10,4,15.2c0.7,4.8-1,8.9-3.9,12.7c-3.9,5.2-9.1,9.3-15.1,11.8c-4.6,2.1-9.2,4.2-13.9,5.9
			c-9.1,3.4-18.3,6.6-27.5,9.9c-1,0.3-1.8,1-2.2,2c-1.7,3.5-3.4,7-5.3,10.5c-2,3.7-4.1,7.3-6.1,10.9c-2.5,4.8-5.8,9.1-9.8,12.6
			c-1.8,1.6-3.8,2.9-6,3.9c-3.6,1.7-7.3,3.2-11.1,4.4c-9.3,2.9-18.4,6.6-27.4,10.2c-15.2,6.2-30.6,11.7-46.2,16.6
			c-9.2,2.9-18.5,5.5-27.8,8.2c-8.8,2.5-17.7,4.9-26.7,6.9c-6.8,1.5-13.7,2.1-20.6,0.3c-3.2-0.8-6.5-1.6-9.8-2.5
			C149.1,351.8,142.7,347.8,138.1,340.9z M89.1,290.8c0.2,0.7,0.5,1.3,0.7,2c4.2,10.9,9.6,21.3,14.7,31.8c0.5,1.1,1.2,2.1,1.8,3.1
			c1.5,2.9,3.6,5.3,6.2,7.2c4.7,3.5,10.5,5,16.3,4.3c7.4-0.9,14.3-3.5,21.3-5.6c6.2-1.9,12.6-3.7,19-5c4.2-0.8,8.4-1.9,12.5-3.2
			c9.6-3.2,19.1-6.4,28.9-8.7c8.2-1.9,16.2-4.2,24.4-6.3c4-1,8.1-2,12-3.2c13.4-4.1,26.5-8.9,39.7-13.6
			c15.6-5.6,30.9-11.9,46.2-18.1c7-2.8,14.2-5.5,21.3-8.1c5.9-2.2,11.9-4.1,17.9-6.2c0.8-0.2,1.6-0.6,2.3-1.2
			c2.7-2.3,5.3-4.6,7.7-7.1c4.7-5,7.6-11.2,10.6-17.3c2.6-5,4.4-10.3,5.3-15.9c0.9-6.5,2-13,1-19.6c-0.5-3.3-1-6.4-3.3-9.1
			c-2.2-2.6-4.2-5.4-6-8.4c-3.5-5.7-6.7-11.6-10.3-17.3c-7.3-11.6-14.8-23.2-22.3-34.7c-4.7-7.2-9.4-14.5-14.2-21.7
			s-9.4-14.1-14-21.2c-4.3-6.6-8.5-13.4-13-19.9C308,56.2,300,44.7,292,33.2c-2.2-3.3-5-6-8.2-8.2c-0.8-0.5-1.6-1.1-2.4-1.6
			c-5.6-4.1-11.7-7.5-18.2-10.1c-7.9-3.2-16.3-5.2-24.9-5.8c-6.8-0.5-13.6,0-20.2,1.6c-11.4,2.5-22.6,5.9-33.7,9.3
			c-11.6,3.5-23,7.8-34.9,10.5c-8.7,2-17.3,4.7-25.9,7c-10.6,2.9-21.3,5.7-31.9,8.7c-14.8,4.2-29.6,8.6-44.5,12.9
			c-2.3,0.7-4.4,1.9-6.2,3.4c-4.2,3.3-8,6.9-11.6,10.7c-7.5,8-12.5,17.2-13.9,28.1c-0.4,3.2-0.6,6.6,0.7,9.7
			c2.2,5.5,4.6,10.9,7,16.3c3.4,7.6,7.2,15,10.3,22.7c7.6,19,14.8,38.2,22.1,57.3c0.9,2.2,1.7,4.5,2.6,6.7
			c4.8,11.9,9.6,23.9,14.4,35.8c1.3,3.3,2.5,6.7,3.9,10.1c3.2,8.1,6.7,16.1,9.8,24.2c2.1,5.4,5.4,10.1,9.7,14
			c2.3,2.2,4.8,4.2,7.2,6.3c4.8,4,9.7,8,15.4,10.6c7.3,3.3,14.7,6.8,22.3,9.4c10.3,3.6,21.1,5.2,32.1,3.6c0.7,0,1.3,0,2,0
			c-5.5,1.4-11.2,1.7-16.8,0.9c-7.8-0.9-15.4-2.7-22.7-5.6c-10.9-4.4-21.8-8.8-30.9-16.7C99.3,300.6,93.4,296.7,89.1,290.8
			L89.1,290.8z M351.8,271.7l-0.4-0.4c-5.3,2.1-10.6,4-15.8,6.2c-19.3,8-38.8,15.8-58.5,22.9c-11.8,4.2-23.6,8.4-35.8,11.7
			s-24.3,6.1-36.5,9.3c-7.6,2-15.2,4.5-22.8,6.6c-7.9,2.2-15.8,3.9-23.6,6.2c-5.9,1.7-11.7,3.9-17.5,5.8c-0.1,0-0.2,0.2-0.4,0.3
			c0,0.2,0.1,0.3,0.1,0.5c4.2,4.7,9.1,8.4,15.2,10.1c4.7,1.4,9.4,2.4,14.2,3.4c3.7,0.7,7.5,0.7,11.2,0V350l0.3-0.1
			c0.3,1.4,0.6,2.9,1,4.7c5.1-0.7,9.9-2.3,14.8-3.5s10-2.2,14.5-4.3c0-3.3,0.1-6.4,0-9.5s-0.6-6-0.1-9h0.6c0.2,6,0.5,12,0.7,18.3
			l17.1-4.5c-0.2-3.4-0.4-6.5-0.4-9.6s-0.7-6.3,0.3-9.4c2.1,5.9,0.5,12.2,1.9,18.3l17-5.6c0-1.8,0-3.6,0-5.3s-0.1-3.5,0-5.3
			s-0.9-3.4,0.2-5.6c1.5,5.4,0.5,10.5,1.1,15.5c0.3,0,0.7,0,1,0c4.2-1.5,8.4-3,12.6-4.5c0.9-0.3,1.5-1.2,1.4-2.2
			c0.1-2.6,0.2-5.1,0.4-7.7c0.2-3.4,0.4-6.9,0.7-10.3c0.1-0.9,0-2,1.4-2.5c-0.1,7.2-1.2,14.2-1.2,21.5l14-5.1
			c0.1-1.6,0.3-3.1,0.4-4.7c0.3-4.1,0.5-8.3,0.8-12.5c0-0.8-0.1-1.8,1.4-2.4c-0.3,6.4-1,12.5-1.2,18.9c1-0.3,1.7-0.6,2.4-0.8
			c3.3-1.3,6.5-2.7,9.8-3.8c1.6-0.4,2.8-1.9,2.9-3.6c0.6-4.3,1.5-8.6,2.3-13c0.2-0.6,0.4-1.1,0.7-1.6l0.5,0.1
			c-0.5,2.7-1.1,5.4-1.6,8.1s-0.8,5.4-1.2,8.4c2-0.7,3.5-1.3,5.1-1.9c3.1-1,6.3-1.9,9.4-2.9c0.9-0.3,1.8-0.4,2.1-1.7
			c0.6-3.3,1.3-6.6,1.9-9.9c0.4-2,0.7-4,1-6.3c0.8,0.5,1.2,1.5,0.8,2.4c-0.6,3.5-1.3,6.9-2,10.3c-0.2,1.2-0.5,2.4-0.9,4
			c0.9-0.2,1.8-0.4,2.6-0.7c2.3-0.9,4.6-1.9,6.9-2.9c3-1.2,5.6-3.1,7.9-5.4c3.4-3.5,6.3-7.5,8.6-11.8c3.1-5.8,6.4-11.4,9.6-17.1
			L351.8,271.7z M399.8,197.1c1.3,11.5,0.4,22.7-3.9,33.4s-9.4,20.8-18.4,28.5c0.5,0,1,0,1.5-0.2c7.4-2.4,14.7-5.4,21.6-9
			c6.2-2.9,10.7-8.5,12.3-15.1c0.4-1.4,0.6-2.8,0.5-4.2c-0.3-4.7-1.3-9.4-3-13.8C407.6,209.8,403.6,203.5,399.8,197.1L399.8,197.1z
			 M14,105.3l0.6-0.1c0-0.8,0-1.6,0-2.3c0.1-7.2,2.1-14.3,5.8-20.5c4.8-8.1,11.1-15.2,18.5-20.9c0.7-0.6,1.4-1.2,2.1-1.8
			c-3.4,0.7-6.6,1.5-9.8,2.4c-7.4,2.1-14.7,4.3-21.5,8c-3.2,1.7-5.5,4.3-6,8.2c-0.4,2-0.2,4,0.6,5.9c1.4,3.2,2.9,6.3,4.4,9.5
			C10.4,97.6,12.2,101.5,14,105.3z M286.6,26.1c0-0.2,0-0.5,0-0.7c-3.4-5.3-7.2-10.3-11.5-15c-0.4-0.4-0.8-0.7-1.3-1c-2-1-4-1.9-6-3
			c-4.8-2.5-9.9-4-15.4-3.7c-4.2,0.3-8.4,0.6-12.6,1.2c-3.1,0.4-6.3,1.2-9.4,1.9c-0.4,0.2-0.9,0.4-1.2,0.6
			C250.8,5.8,269.6,12.9,286.6,26.1z"/>
		<path class="st1" d="M380.4,215.1c0.2,8.3-2.2,16-5.7,23.3c-1.2,2.2-2.7,4.3-4.4,6.2c-1.4,1.8-3,3.3-4.4,5
			c-4.7,5.4-10.7,9.5-17.4,12.1c-8.6,3.6-17.4,6.8-26.1,10.2c-22,8.6-44.4,15.9-66.9,23c-6.6,2.1-13.3,3.5-19.9,5.2
			c-4.6,1.2-9,2.7-13.6,4c-11.6,3.2-23.1,6.5-34.7,9.4c-4.5,1.2-9.2,1.6-13.8,1.4c-2.1-0.2-4.2-0.7-6.4-1c-0.9-0.2-1.9-0.3-2.8-0.3
			c-9.2,0.1-18.2-0.6-27-3.5c-8.5-2.8-16-7.9-21.8-14.7c-6.2-7.3-11.3-15.5-15.2-24.3c-8.3-18.6-15.6-37.6-22.4-56.9
			c-1.4-4.1-3.3-8-4.9-12c-3.8-9.6-7.7-19.1-11.2-28.8c-3.4-9.5-7.3-18.8-11.4-28c-4.3-9.7-7.8-19.6-10.6-29.8
			c-2.3-7.9-2.7-15.9-0.2-23.9c1.9-6,5.1-11.2,10.4-14.9c1.8-1.3,3.6-2.7,5.3-4.2c3.2-2.6,6.9-4.4,10.8-5.5c7.8-2.4,15.6-4.7,23.4-7
			c9.8-3,19.5-6.2,29.3-9.1c11.5-3.3,23.1-6.5,34.6-9.6c7.1-1.9,14.3-3.4,21.4-5.2c9.8-2.4,19.5-4.9,29.3-7.2
			c7.3-1.7,14.9-2.1,22.3-2.8c11.4-1.1,21.3,3.1,31,8.1c9.5,4.9,17.9,11.4,26,18.3c4.3,3.7,8,8.1,11,12.9
			c8.5,13.1,17.1,26.3,25.6,39.5c5.1,8,10.1,16.1,15.2,24.2c1.8,2.8,3.7,5.4,5.4,8.2c2.3,3.6,4.5,7.4,6.8,11
			c5.1,8.1,10.1,16.1,15.2,24.1c0.9,1.2,1.7,2.5,2.4,3.9c3.8,7.6,7.5,15.2,11.2,22.8c0.9,1.8,1.6,3.6,2.4,5.5c0.5,1.2,0.8,2.4,1,3.7
			C380.1,210.8,380.2,212.9,380.4,215.1z M167.2,312.4c8.5,0.3,14.6-0.1,21.5-1.9c6.5-1.8,12.9-3.7,19.4-5.4
			c10.3-2.8,20.2-6.6,30.7-8.6c2-0.4,3.9-0.8,5.8-1.4c12.8-4,25.6-8,38.4-12.3c10-3.3,19.9-6.9,29.9-10.4c6.5-2.4,13-4.8,19.5-7.4
			c5.4-2.1,10.9-4.2,16.2-6.5c14.3-6.4,24.1-16.8,28.2-32.2c1.7-6.5,1.8-13.4,0.3-19.9c-0.2-0.8-0.6-1.6-1.1-2.3
			c-1-1.7-2.3-3.3-3.2-5c-2.1-4-4.1-8.1-6-12.3c-2.7-5.7-5.8-11.2-9.4-16.4c-4.6-6.6-8.6-13.7-12.9-20.5c-2.3-3.7-4.5-7.3-6.9-11
			c-1.3-2-2.7-4-4-6c-5.4-8.6-10.8-17.2-16.2-25.8c-8.3-13-16.6-25.9-24.9-38.8c-3.1-5.1-6.9-9.6-11.3-13.6
			c-3.3-2.9-6.7-5.7-10.2-8.3c-8-6-16.5-11.2-26-14.6c-5.1-1.9-10.5-2.7-15.9-2.5c-8.5,0.3-16.9,1.3-25.2,3.2
			c-16.3,3.9-32.6,7.8-48.9,12c-11.6,3-23.1,6.4-34.7,9.6c-12.1,3.3-23.8,7.9-36,10.9c-6,1.4-11.8,3.4-17.7,5.2
			c-3.8,1-7.3,2.8-10.4,5.3c-1.5,1.3-3,2.4-4.6,3.5c-4.2,2.9-7.2,7.1-8.7,12c-2.6,8-2.3,16.2-0.2,24.1c2.5,9.7,5.7,19.2,9.7,28.3
			c3.8,8.4,7.2,16.9,10.6,25.4c4,9.9,7.7,20,11.6,30c1.9,5,4.2,9.9,6,14.9c6.7,19.1,13.6,38.1,21.9,56.6c3.6,8.3,8.4,16,14.1,23
			c7.5,9.2,18.2,15.3,30,17.1C153.5,311.2,160.4,311.7,167.2,312.4z"/>
		<path class="st1" d="M225.8,306.3c-1,0.4-2.1,0.7-3.1,1.1c-5.6,2.1-11.3,3.8-17.1,5.3c-5.8,1.4-11.6,3.1-17.3,5
			c-5.5,1.8-11.1,2.3-16.7,2.8c-4,0.4-8,0.5-12,0.4c-4.1-0.2-8.1-0.7-12.1-1.5c-5.2-0.9-10.3-2.2-15.3-3.9
			c-7.3-2.6-13.9-7.2-18.9-13.2c-3.1-3.6-6-7.5-8.7-11.4c-2.4-3.6-4.2-7.5-6.2-11.3c-1-1.9-1.8-4-2.8-5.8c-4.4-7.9-8.3-16-11.8-24.4
			c-1.3-3.1-2.7-6.1-4.1-9.2c-0.3-0.5-0.3-1.1-0.2-1.7c0.3,0.4,0.5,0.8,0.8,1.3c2.7,6,5.4,12.1,8.2,18.1c1.3,2.8,2.7,5.5,4,8.2
			c2.6,5.1,5.2,10.3,7.8,15.4c4.4,9,10.4,17.1,17.7,24c6.7,6.2,15.2,10.3,24.2,11.8c4.9,0.9,9.8,1.8,14.7,2.3c6,0.6,12,0,18-0.5
			c10.3-0.9,20-4.1,29.8-7.1c1.7-0.5,3.4-0.8,5.1-1.3c3.9-1.2,7.8-2.5,11.7-3.6C222.7,306.7,224.3,306.4,225.8,306.3L225.8,306.3z"
			/>
		<path class="st1" d="M225.9,306.4c0.6-0.4,1.3-0.8,2.1-1c7-1.6,13.9-3.5,20.8-5.7c3-1,6.1-1.7,9.2-2.5c10.8-2.7,21.5-5.7,31.9-9.4
			c11-3.9,21.9-8,32.6-12.6c12.3-5.2,24.4-10.8,36.1-17.2c2.1-1.1,4-2.6,6-4c0.1,0.1,0.2,0.2,0.3,0.3c-1.8,1.5-3.8,2.9-5.8,4.2
			c-12.9,7-26.2,13.3-39.8,18.9c-9,3.7-18.1,7.2-27.2,10.5c-6.4,2.3-12.9,4.2-19.4,6.1c-10.3,3-20.6,5.9-30.9,8.7
			c-4.9,1.4-9.9,2.4-14.9,3.6C226.5,306.4,226.2,306.4,225.9,306.4L225.9,306.4z"/>
		<path class="st1" d="M362.9,164.6c7.8,12.1,14.7,24.7,19.4,38.4c1.4,4.4,2,9.1,1.8,13.7c0,1.7-0.1,3.3-0.1,5h-0.5v-2.3
			c0-4.4,0.2-8.8-1-13.1c-0.5-1.8-1-3.5-1.6-5.2c-3.6-10-8.2-19.6-13.9-28.6c-1.5-2.4-2.9-5-4.3-7.5L362.9,164.6z"/>
		<path class="st1" d="M382.7,224.4c0,6.4-6.7,20.1-11.2,23.1C376.6,240.5,381,233.1,382.7,224.4z"/>
		<path class="st1" d="M362.5,164.9l-9.1-14.9l0.3-0.3c3.1,5,6.1,9.9,9.1,14.9L362.5,164.9z"/>
		<path class="st1" d="M344,135.5c1.6,2.4,3.2,4.8,5.1,7.5C347.4,142,345.2,138.9,344,135.5z"/>
		<path class="st1" d="M325,106.1l4.8,8.2l-0.2,0.2l-4.8-8.1L325,106.1z"/>
		<path class="st1" d="M320.6,99.3c1.4,2.2,2.9,4.5,4.3,6.7l-0.3,0.3l-4.3-6.7L320.6,99.3z"/>
		<path class="st1" d="M316.3,93.1l4.3,6.2l-0.3,0.3l-4.3-6.2L316.3,93.1z"/>
		<path class="st1" d="M353.4,150l-3.8-4.9l0.6-0.4l3.5,5.1L353.4,150z"/>
		<path class="st1" d="M366.9,252c1.2-1.2,2.4-2.4,3.6-3.6l0.4,0.3c-0.9,1.5-2.2,2.7-3.6,3.6L366.9,252z"/>
		<path class="st1" d="M334,121.4l2.8,4l-0.6,0.4l-2.5-4.1L334,121.4z"/>
		<path class="st1" d="M329.7,114.2l2.4,3.8l-0.2,0.2l-2.4-3.8L329.7,114.2z"/>
		<path class="st1" d="M340.3,130.6l2.3,3l-0.5,0.4l-2.1-3.1L340.3,130.6z"/>
		<path class="st1" d="M333.8,121.7l-1.9-3.4l0.2-0.2c0.6,1.1,1.3,2.2,1.9,3.4L333.8,121.7z"/>
		<path class="st1" d="M364.5,253.9l2.4-1.9l0.3,0.3l-2.4,1.9C364.7,254.1,364.6,254,364.5,253.9z"/>
		<path class="st1" d="M340,130.8l-1.3-1.7l0.5-0.3l1.1,1.7L340,130.8z"/>
		<path class="st1" d="M316,93.4l-1.3-1.5l0.4-0.3l1.2,1.6L316,93.4z"/>
		<path class="st1" d="M313.6,259.4c-2.5-3.6-4.5-7.1-7.1-10.3c-4.6-5.8-8.2-12.2-12.3-18.3c-5.5-8.2-10.9-16.6-16.5-24.7
			c-10.5-15.2-21.2-30.2-31.9-45.3c-2.2-3.3-4.6-6.3-7.3-9.2c-2-2-3.2-4.5-4.8-6.7c-0.7-0.9-1.5-1.6-2.4-2.3
			c-3.4-2.6-7.8-3.5-12-2.4c-7.4,1.6-14.4,4.3-21.5,6.6c-15.3,4.9-30.3,10.6-45.9,14.5c-6.6,1.6-13.1,3.6-19.6,5.5
			c-7.3,2-14.6,4.1-21.9,6.2c-4.8,1.4-9.5,2.9-14.2,4.4c-5.1,1.5-10,3.4-14.7,5.8c-0.4,0.2-0.8,0.4-1.5,0.8c0.3,0.8,0.5,1.7,0.9,2.4
			c4,8.9,7.9,17.8,12.1,26.7c4.8,10.3,8.9,20.9,12.8,31.6c3.3,9.1,7.3,17.9,12,26.4c4.1,7.2,9.4,13.6,15.6,19
			c7.4,6.7,16.3,10.3,26,12c4,0.7,8,1.4,12.1,2.1c0.3,0.1,0.7,0.2,1,0.4v0.5c-0.7,0.1-1.5,0.1-2.2,0.1c-8.3-1.2-16.6-2.1-24.5-5.5
			c-5.4-2.3-10.3-5.5-14.5-9.5c-5.8-5.5-11.3-11.1-15.2-18.1c-2.7-4.9-5.3-9.9-7.5-15c-3.6-8.5-6.8-17.1-10.2-25.6
			c-1.8-4.5-3.8-9-5.7-13.5c-5.9-13.2-11.9-26.4-17.7-39.6c-4.9-11.2-9.8-22.4-14.4-33.7c-4.1-9.8-7.4-20-9.8-30.4
			c-0.6-3.1-0.9-6.2-0.9-9.3c-0.2-3.9,1.3-7.5,2.7-11.1c2.2-5.9,6.5-9.7,11.7-12.8C68,78.7,72.1,77,76.4,76c3.2-0.8,6.3-1.7,9.4-2.9
			c5.6-1.8,11.3-3.4,16.9-5.3c3.7-1.3,7.3-3,11-4.3c6.9-2.5,13.9-4.8,20.9-7.2c1.4-0.5,3-0.7,4.4-1c7.8-2,15.6-4.2,23.4-6.2
			c4.4-1.1,8.9-2.2,13.3-3.1c8.9-1.9,17.9-3.7,26.8-5.6c11-2.3,22.2-3.2,33.4-2.8c3.3,0.2,6.5,1,9.4,2.3c2.6,1.1,5.1,2.3,7.6,3.5
			c3.7,1.8,6.9,4.4,9.6,7.5c6,6.8,12.2,13.3,17.4,20.8c3.1,4.5,6.2,9.1,9.3,13.7c3.7,5.7,7.4,11.4,11,17.1
			c4.5,7.1,8.8,14.3,13.2,21.5c6,9.7,12.1,19.4,18,29.2c4.4,7.4,8.5,14.9,12.6,22.4c3.4,6.1,6.7,12.2,9.9,18.4c2.5,4.9,4.8,9.9,7,15
			c0.3,0.9,0.6,1.9,0.7,2.9l-0.5,0.2c-0.3-0.3-0.6-0.6-0.8-0.9c-1.3-2.8-2.4-5.6-3.8-8.3c-2.6-5-5.4-9.8-8-14.7
			c-3.5-6.4-6.9-12.8-10.4-19.2c-3.4-6.1-7-12.2-10.6-18.3c-3.4-5.9-6.8-11.8-10.3-17.6c-7.6-12.7-15.1-25.5-23.7-37.5
			c-0.9-1.3-1.8-2.7-2.6-4c-7-11.4-15-22.1-24-32c-2-2.2-4-4.3-6-6.6c-3-3.4-6.7-6-10.8-7.8c-3.5-1.5-6.9-3.4-10.7-4.1
			c-1.3-0.2-2.5-0.4-3.8-0.5c-12.2-0.4-24.5,0.7-36.5,3.2c-10.7,2.1-21.3,4.3-31.9,6.8c-6.2,1.5-12.3,3.5-18.4,5.3
			c-1.6,0.5-3.2,1-4.9,1.3c-7.5,1.4-14.6,4-21.8,6.6c-5.6,2-11.2,4.2-16.9,6.2c-3.8,1-7.2,2-10.7,3c-7.2,2-14.5,4-21.7,6.1
			c-0.9,0.3-1.8,0.6-2.7,1.1c-2.2,1.3-4.4,2.6-6.6,3.9c-4.6,2.7-7.3,6.8-9.5,11.7c-2.7,6-2.7,12.1-1.1,18.3
			C55.5,125,59,135.6,63.4,146c2.9,6.9,5.7,13.9,8.7,20.8c2.1,5,4.4,9.9,6.6,14.9c0.2,0.4,0.5,0.8,0.8,1.4c0.8-0.3,1.5-0.5,2.2-0.9
			c9.2-4.6,19-7.4,28.9-10.2c8.4-2.4,16.7-4.9,25.1-7.2c7.7-2.1,15.5-4.1,23.1-6.3c5.4-1.6,10.8-3.4,16.2-5.1
			c10.8-3.5,21.5-7.2,32.3-10.7c4.2-1.4,8.4-2.4,12.7-3.5c5.4-1.4,9.6,1,13.6,4.2c0.3,0.3,0.5,0.6,0.7,1c1.6,2.2,3,4.5,4.8,6.6
			c7,8.4,13.1,17.6,19.4,26.5c3.4,4.7,6.8,9.3,10.1,14c6.1,8.7,12.2,17.4,18.1,26.2c4.9,7.3,9.4,14.8,14.3,22.2
			c2.9,4.3,6,8.4,9,12.7c1.5,2.1,2.9,4.2,4.3,6.2c0.3,0,0.6,0,0.9,0c9.4-3.8,18.9-7.5,27.7-12.6c5.4-3.1,10.1-7,13.4-12.4
			c2.4-4.3,3.7-9,3.8-13.9c0.1-1.7,0.4-3.4,0.6-5.5c1,0.7,1.5,1.9,1.3,3.1c0,1.8-0.1,3.7-0.3,5.5c-0.9,9.5-5.7,16.7-13.4,22
			c-7.3,5-15.4,8.5-23.5,11.8c-2.5,1-5.1,2-7.5,3.1c-0.8,0.4-1.4,1.3-2.2,1.6s-1.7,0-2.5,0.3c-5.6,2-11,4.3-16.7,6
			c-6.3,1.9-12.7,3.1-19.1,4.8c-8.5,2.4-17.1,4.8-25.5,7.5c-14.4,4.6-28.5,10-42.5,15.7c-8.8,3.6-18,6.2-27.3,8
			c-0.3,0-0.6-0.1-0.8-0.3c0.4-0.2,0.9-0.4,1.3-0.6c9.9-2.5,19.6-5.8,29.1-9.7c20.6-8.7,41.4-16.5,63.1-22
			c5.9-1.5,11.9-2.6,17.7-4.4c6.8-2,13.5-4.5,20.2-6.8C312.7,259.9,313.1,259.7,313.6,259.4z"/>
		<path class="st1" d="M239.3,44.3c-0.3,3.1-0.7,6.2-1,9.3c-0.5,4.8-0.9,9.5-1.3,14.3c-0.8,8.6-1.5,17.2-2.2,25.7
			c-0.7,8.8-1.4,17.6-2.1,26.5c-0.4,4.7-0.6,9.4-1,14.1c-0.1,0.8-0.4,1.6-0.9,2.2c0.1-1,0.2-2.1,0.3-3.1c0.4-6.8,0.7-13.6,1.1-20.3
			c0.2-3.4,0.7-6.8,1-10.2c0.5-5.1,0.9-10.2,1.4-15.2c0.6-6.6,1.1-13.2,1.7-19.8c0.5-5.7,1-11.4,1.7-17.1
			C238.2,48.4,237.9,46.2,239.3,44.3L239.3,44.3z"/>
		<path class="st1" d="M239.4,44.3c0.2-0.8,0.4-1.5,0.7-2.7C240.5,43.1,240.4,43.8,239.4,44.3L239.4,44.3z"/>
	</g>
</g>
</svg>
