<?xml version="1.0" encoding="utf-8"?>
<!-- Generator: Adobe Illustrator 23.0.4, SVG Export Plug-In . SVG Version: 6.00 Build 0)  -->
<svg version="1.1" id="Calque_1" xmlns="http://www.w3.org/2000/svg" xmlns:xlink="http://www.w3.org/1999/xlink" x="0px" y="0px"
	 viewBox="0 0 200 200" style="enable-background:new 0 0 200 200;" xml:space="preserve">
<style type="text/css">
	.st0{fill:#E20613;}
</style>
<g>
	<path class="st0" d="M75.8,91.9c-3.6,0-5.8,2.3-6.5,5.4h12.7C81.5,93.9,79.1,91.9,75.8,91.9"/>
	<path class="st0" d="M42,93.3c-4.5,0-7.4,3.1-7.4,7.5c0,4.3,2.9,7.5,7.4,7.5c4.5,0,7.5-3.1,7.5-7.5C49.5,96.3,46.4,93.3,42,93.3"/>
	<path class="st0" d="M133.3,86.1c-6.8,0-12.1,2.7-12.9,9.8c-0.1,0,0,0,0,0C118.2,63.9,93,38.7,60.6,38.7
		c-25.7,0-47.6,15.8-56.8,38.1h21.8l-1.1,7.3H7.3v7.8h15.5L21.6,99H7.3v4.5c0,2.7,1.2,4,3.4,4h14.6l-1.2,7.3H8
		c-0.8,0-1.5-0.1-2.2-0.2v0c0,0-2.8-0.3-4.5-2.6c0-0.1-0.7-0.9-1.1-2.3c-0.1-0.4-0.1-0.4-0.2-0.7c0.1,0.9,0.3,2.1,0.4,2.6
		c0.5,2.6,1.1,4.7,1.2,4.9c7.3,25.8,30.9,44.6,59,44.6c28.7,0,53-19.8,59.6-46.4h-8.2v-15c0-4-1.6-6.6-5.5-6.6c-4,0-5.5,2.6-5.5,6.6
		v15h-8.2v-17c0-8.1,5.9-11.7,13.8-11.7c7.9,0,13.8,3.6,13.8,11.7l0,17h8.3v-15c0-4,1.1-6.6,5-6.6c1.2,0,2.7,0.4,3.3,0.6l1.6-7.2
		C137.4,86.6,135.1,86.1,133.3,86.1 M57.8,99.1c0,10.3-6.1,16.3-16.2,16.3c-9.3,0-15.6-6.2-15.6-14.7c0-8.8,6-14.7,14.9-14.7
		c4.1,0,7.1,1.6,8.6,3.2V76.9h8.2V99.1z M78.5,109.2c2.4,0,4.7-0.7,6.8-1.7l-0.7,6.5c-2.4,1-5.2,1.3-8.1,1.3
		c-9.5,0-16.2-5.5-16.2-15c0-8.2,6-14.3,15.1-14.3c10.3,0,15.5,6.6,15.3,16.7H69.5C70.3,107.4,74.7,109.2,78.5,109.2"/>
	<path class="st0" d="M152,86.1c-9.2,0-15.1,6.1-15.1,14.3c0,9.4,6.7,15,16.2,15c2.9,0,5.7-0.4,8.1-1.3l0.7-6.5
		c-2.1,1-4.3,1.7-6.8,1.7c-3.8,0-8.2-1.8-9-6.4h21.3C167.5,92.7,162.4,86.1,152,86.1 M145.8,97.3c0.7-3.1,3-5.4,6.5-5.4
		c3.3,0,5.7,2,6.1,5.4H145.8z"/>
	<path class="st0" d="M191.8,76.9v12.5c-1.5-1.6-4.5-3.2-8.6-3.2c-8.9,0-14.9,5.9-14.9,14.7c0,8.4,6.3,14.7,15.6,14.7
		c10.1,0,16.2-6,16.2-16.3V76.9H191.8z M184.2,108.3c-4.5,0-7.4-3.2-7.4-7.5c0-4.4,2.9-7.5,7.4-7.5c4.5,0,7.5,3,7.5,7.5
		C191.7,105.2,188.7,108.3,184.2,108.3"/>
</g>
</svg>
