<?xml version="1.0" encoding="utf-8"?>
<!-- Generator: Adobe Illustrator 23.0.4, SVG Export Plug-In . SVG Version: 6.00 Build 0)  -->
<svg version="1.1" id="Calque_1" xmlns="http://www.w3.org/2000/svg" xmlns:xlink="http://www.w3.org/1999/xlink" x="0px" y="0px"
	 viewBox="0 0 500.4 296.2" style="enable-background:new 0 0 500.4 296.2;" xml:space="preserve">
<style type="text/css">
	.st0{opacity:0.34;}
	.st1{fill:#10434B;}
</style>
<title>legume</title>
<g class="st0">
	<g id="Calque_1-2">
		<path class="st1" d="M498.6,125.5c0.8,0.5,1.8,0.7,1.8,2.2c-0.4,0-0.9-0.1-1.3-0.2c-1.3-0.5-2.5-1.2-3.5-2
			c-4.8-4.1-10.7-6.4-16-9.7c-3.1-1.7-6.7-2.5-10.2-2.1c-0.4,0-0.7,0.1-1.1,0.2c3.2,4.9,6.3,9.7,9.5,14.5
			c5.5,8.1,10.1,16.7,13.7,25.8c2.4,6.3,4.2,12.8,4.3,19.6c0.1,3.5-0.3,7-1.2,10.4c-2,7-2.9,14.1-4,21.2c-0.6,4.1-1.4,8.2-2.5,12.2
			c-0.6,2.4-1.7,4.6-3.3,6.6c-4.8,5.6-8.3,12-11.6,18.4c-2.3,4.5-4.7,9-6.9,13.4c-3.5,6.8-8.6,12.2-14,17.5
			c-3.8,3.7-8.2,6.4-12.5,9.2c-5.6,3.7-11.7,6.6-18.2,8.5c-5.6,1.6-11.2,3.4-17,3.9c-0.9,0.1-1.8,0.2-2.6,0.2
			c-2.9,0.1-5.8,0.4-8.6,0.3c-4.3-0.1-8.6-0.4-12.9-1c-6.6-1.1-13.2-2.5-19.7-4.1c-8.8-2.2-17.5-4.6-25.5-8.8
			c-4.8-2.5-9.4-5.1-14.1-7.8c-5.5-3.3-10.3-7.6-14.3-12.7c-4.5-5.5-9-11-12.4-17.4c-3.9-7.3-7.7-14.6-9.3-22.8
			c-0.9-4.6-2.3-9.1-3.2-13.8c-1-5.2-0.7-10.5-0.5-15.8c0.1-3.4,0.6-6.9,0.8-10.3c0.1-0.7,0-1.4,0-2.4c-0.9,0.6-1.7,1-2.4,1.5
			c-5.2,3.7-10.1,7.9-14.3,12.7c-2.4,2.8-4.9,5.5-7.4,8.2c-7.6,8.2-13.9,17.4-20.3,26.4c-5.6,7.8-11.2,15.6-18,22.5
			c-6.4,6.4-13.5,12.1-21.3,16.7c-15.7,9.5-32.6,16.9-50.2,22c-9,2.6-18.2,4.4-27.5,5.6c-4.4,0.6-8.7,1.2-13.1,1.5
			c-11.6,0.8-23.2,0.1-34.6-2.1c-11.3-2-22.1-6.2-31.8-12.3c-4.6-2.9-8.7-6.6-12-10.9c-2.2-2.9-4.7-5.6-7-8.6
			c-8.1-10.4-13.2-22.2-16.4-35c-2.5-9.7-4.4-19.5-5.5-29.4c-0.7-7.7-0.6-15.4,0.4-23c1.4-12.2,5.8-23.4,11.2-34.2
			c4.6-9.2,10.9-17.3,17.4-25.1C34,109.9,39,105,43.6,99.9c0.9-1,1.7-2.1,2.6-3.1c8.9-9.1,19.4-16.2,30.1-22.9
			c11.8-7.3,24.5-12.6,37.7-17.1c21.1-7.1,42-15.1,62.3-24.2c6.6-2.9,13-6.2,19.4-9.5c17.1-8.7,35.2-15.3,53.9-19.7
			c9.9-2.3,19.9-3,30-3.4c11-0.5,21.9,1,32.4,4.4c7.5,2.4,15.2,4.4,22.5,7.9c0.6-0.7,0.9-1.9,2.5-1.4c7.7,2.3,15.6,4,23,7.3
			c4.8,2,8.9,5.5,11.7,10c2.1,3.4,4,6.9,6.1,10.6c0.9-0.1,2.2-0.2,3.4-0.3c6.1-0.4,12.3-0.8,18.4-1.1c8.7-0.4,17.4-0.8,26.1-1
			c4.9-0.1,9.8,0.2,14.6,0.4c3.4,0.2,6.7,1.1,9.7,2.7c6.4,3.3,13.4,5.4,20.5,6.2c4.1,0.5,8.2,1.5,12.2,2.4c2.5,0.5,3,0.9,2.5,3.3
			c-0.6,2.9-1.3,6.1-2.8,8.6c-2.7,4.5-7,6.9-12.3,6.2c-6.5-0.8-12.8,0.2-18.9,2c-2.1,0.6-4.2,1.6-6.3,2.2c-4.8,1.3-9.6,2.6-14.4,3.6
			c-4.2,0.8-8.4,1.5-12.6,1.9c-4.9,0.5-9.7,0.7-14.6,1c-6.6,0.5-12.7,2.9-18.7,5.7c-0.5,0.2-1,0.5-1.5,0.8c-0.8,0.4-1.9,0.5-2.3,1.2
			c-1,1.6-2.6,2.9-2.7,5.2c0.6-0.3,1.2-0.4,1.7-0.7c4.8-2.3,9.8-4,15.2-3.4c3,0.3,6,0.9,8.9,1.7c6.3,1.8,12.6,3.7,18.9,5.5
			c5.5,1.8,11,3.2,16.7,4.2c3.2,0.5,6.2,1.6,9,3.3c3.9,2.2,7.9,4.2,11.9,6.3c2,1,4.3,1.3,6.5,0.9c2.2-0.3,4.5-0.4,6.7-0.2
			c2.5,0.2,4.4,1.9,6.3,3.3c4.9,3.7,9.8,7.4,14.7,11.2c0.8,0.5,1.6,1.1,2.3,1.7c0.6,0.7,1.2,1.4,1.8,2.1c-1-0.7-1.9-1.4-2.9-2.1
			l-9.3-6.8c-3.3-2.4-6.6-4.8-9.9-7.2c-1.4-1-3.1-1.5-4.8-1.4c-2.5,0.1-4.9,0.3-7.4,0.4c-11.2,0.9-22.2,3.2-32.8,6.9
			c-6.3,2.1-12.5,4.3-18.8,6.5c-0.4,0.2-1.1,0.3-1.2,0.6c-0.5,1.4-1.8,1.5-2.9,1.9c-5.2,1.8-10.5,3.5-15.7,5.3
			c-6.1,2-11.5,5.7-15.6,10.6c-0.3,0.3-0.6,0.5-0.9,0.7c-0.8-0.2-1.3-0.9-1.1-1.7c0-0.2,0.1-0.3,0.2-0.5c0.5-1.1,1.1-2.1,1.9-3
			c4-4.3,8.6-7.9,14.4-9.7c0.5-0.2,1-0.4,1.5-0.7c-3.4,0-6.5,0.2-9.5,0c-3.4-0.2-6.4,0.2-8.4,3.3c-0.2,0.4-0.8,0.6-1,1
			c-0.5,0.7-1.5,1.7-1.4,2.3c0.4,2.1-1.1,2.6-2.4,3.3c-0.8,0.3-1.5,0.6-2.4,0.8l7.2,11.6c1.7-0.8,3.4-1.4,5.2-2
			c1.7-0.4,3.5-0.4,5.2-0.7c0.8-0.2,1.4-0.6,1.9-1.2c1.3-1.6,2.9-3,4.8-3.8c5.2-2.7,10.4-5.5,15.6-8.3c1.8-0.9,3.5-1.9,5.3-2.8
			c3.9-1.9,7.8-3.5,12.3-3.7c1.5-0.2,3-0.6,4.3-1.3c2.5-1.1,4.9-2.3,7.4-3.5c9.8-4.7,19.9-7.7,30.9-7.8c5.2-0.2,10.4,1.2,14.7,4.1
			c1.5,1.1,3.1,2,4.7,2.9c2.8,1.4,5.4,3,7.9,5c0.9,0.6,1.8,1.2,2.7,1.7l0.2-0.3L498.6,125.5z M423.8,157.5c0.9-1.7,1.1-3.7,0.5-5.5
			c-0.3-1.4-0.5-2.8-0.4-4.3c0-2.4,0.1-4.8,0.2-7.2c0-3-1.2-4.2-4.2-4.3c-1.8-0.1-3.7,0-5.5,0.1c-2.9,0-5.9,0.4-8.7-0.7
			c-0.4-0.2-0.8-0.2-1.2,0c-2.3,1.3-4.6,2.6-6.9,3.9c1.2,0.4,2.4,0.6,3.6,0.6c2.5,0.2,5,0.4,7.1,1.8s2.9,3.2,1.8,5.6
			c-0.7,1.2-1.6,2.4-2.5,3.4c-0.7,1-1.8,2-1.8,3c0,4-1.6,7.8-1.4,11.8c0.1,1.8-0.3,3.6-2.1,4.5s-4.1,1.1-5.9-0.2
			c-1.4-1.2-3.4-1.5-5.1-0.9c0.5,0.4,0.8,0.7,1.2,1c2.6,1.8,5.5,3.2,8.6,4.1c1.8,0.6,3.5,1.4,5.1,2.4c-3-1-6-1.8-8.9-2.9
			c-3.8-1.4-7.1-3.8-9.7-6.9c-0.6-0.8-1.2-1.7-1.7-2.4c-3.1,0.2-7.5,2.9-9,5.6c-2.8,4.7-4.6,9.9-5.4,15.3c-0.1,0.9,0,1.9,0.5,2.7
			c1,2.1,1.5,4.4,1.5,6.7c0,0.6-0.2,1.1-0.3,1.6c-0.2-1-0.3-2.1-0.4-3.2c-0.2-1.5-0.6-2.9-1.2-4.3c-0.7-1.2-1-2.5-0.8-3.9
			c0.1-0.9,0.4-1.9,0.5-2.8c0.2-2.5,0.5-5.1,1-7.6c0.8-3.3,2-6.5,3-9.8c0.4-1.4,0.7-2.8,0.8-4.2c0.1-1.2-0.7-2.2-1.8-2.5
			c-2.2-0.8-4.4-1.9-6.7-2.9c-0.5,0.3-1.5,0.4-1.8,1c-0.7,1.3-1.9,1.3-3,1.7c-2,0.7-4.4-0.3-6.1,1.6c-0.1,0.1-0.3,0-0.5,0.1
			c-1.2,0.3-2.5,0.5-3.7,0.8c-2.1,0.5-4.2,1.1-6.3,1.5c-1.6,0.3-3.4,0-4.2-1.6c-1-1.8-2.5-2.4-4.2-2.8c-0.9-0.2-1.8-0.5-2.7-0.9
			c-1.7-0.6-2.9-2.3-2.8-4.1c0.1-2.2,0.3-4.5,2.3-6.1c1.1-0.9,1.8-2.1,2.1-3.4c-0.3,0-0.6,0-0.8,0c-4.1,0.8-7.8,3.2-10.1,6.7
			c-1.4,2.2-3.1,4.3-4.7,6.3c-0.7,1-1.7,1.8-2.9,2.1c2-2.5,4.3-4.9,6-7.6c2.7-4.3,7-7.2,11.9-8.2c0.6-0.1,1.2-0.4,1.6-0.9
			c1.5-2.5,3.6-4.7,4.1-7.7c0.1-0.5,0.2-0.9,0.5-1.3c0.5-0.6,1.1-1.1,1.6-1.7c0.3,0.6,0.5,0.8,0.4,1c-1,3.2-1.5,6.6-1.6,10
			c0,4,0.8,7.4,3.9,10c0.9,0.8,1.7,1.6,2.6,2.4c0.3,0.3,0.9,0.2,1.6,0.3c-2.9-6.7-3.2-10.1-1.1-12.3c0.2,1,0.3,2,0.5,2.9
			c0.4,2.7,1.3,5.3,2.8,7.6c1.8,2.6,5.3,3.5,8.2,2.1c-2.2-5.9-6.8-15-8-15.9c-0.2,1.7-0.5,3.3-0.8,5h-0.3c0.1-4,0.2-8,0.4-12.1
			l1.1,0.8c1.8-2.4,3.6-4.7,5.2-7.1c1.2-1.8,2.3-3.8,3.4-5.8c0.5-0.9,0.1-1.7-0.8-2.2c-1.6-1.2-3.8-0.9-5,0.7l0,0
			c-0.4,0.7-1.2,1.2-2.1,1.2c-0.4,0-0.8,0.1-1.1,0.2c-1.1,1.7-2.2,3.2-3.1,4.8s-1.8,3-2.7,4.5c-1.4-2.3-1.2-4.6-1.2-6.8
			c0.2-3.6-0.8-7.2-2.7-10.3c-1.4-2.2-2.8-4.5-4.3-6.7c-1.3-1.9-2.1-4-2.5-6.2c-0.3-1.5,0.1-3.1,1.5-3.8c1.3-0.7,2.2-1.8,2.8-3.1
			c2.2-4,3.2-8.6,2.9-13.2c-0.2-3.2-2.4-6.4-5.6-7c-5.5-1-11-0.9-15.9,2.5c-1.8,1.2-3.7,2.3-5.4,3.5c-3.5,2.6-8,3.3-12.1,1.8
			c-0.7-0.2-1.4-0.3-2.1-0.3c0.4,1.4,1.4,2.5,2.7,3c2.4,1.5,5.4,1.8,8.2,0.9c0,1.9,0.1,3.5,1.3,4.9c1,1,1.5,1.1,2.7,0.3
			c1.2-0.9,2.2-2.2,2.6-3.7c0.5-1.6,1-3.2,1.5-4.8c0.3-1.6,1.3-3,2.7-3.9c2.4-1.4,5.2-2.1,8-2c2.1,0.1,4,1.5,4.8,3.5
			c0.8,1.8,1,3.9,0.6,5.9c-0.6,2.7-1.3,5.4-1.9,8.1c-0.4,1.8-1.2,3.5-2.4,4.9c-0.9,1.1-1.7,2.2-2.6,3.3c2.7,3.8,5.3,7.5,7.8,11.2
			c1.5,2.2,3.1,4.5,4.5,6.8s1.2,3.5-0.5,5.4c-0.8,1-1.8,1.8-2.7,2.8l-5,5.1l4.7,6c-0.6,0.3-0.9,0.3-1.1,0.1
			c-1.4-1.4-2.7-2.9-3.9-4.5c-1.1-1.5-1-1.9,0.4-3.4c2.1-2.3,4.2-4.6,6.4-6.9c1.4-1.5,1.6-2.3,0.5-4.1c-2.3-3.8-4.8-7.5-7.1-11.1
			c-2.5,1.1-4.7,2.4-7.1,3.2c-7.6,2.6-14.6,6.6-20.6,11.9c-4.4,4-7.9,8.8-10.3,14.3c-5,11.5-7.1,23.7-9.5,35.9
			c-1,5.1-1.6,10.3-1.8,15.5c-0.4,5.4-0.4,10.9-0.1,16.3c0.6,7.3,3,14.4,4.7,21.5c0.4,1.7,1,3.4,1.8,5c3.9,8.6,8.3,17,14.5,24.2
			c2.5,3.1,5.1,6.1,8,8.9c6.7,5.8,14.1,10.8,22,14.8c8.1,4.2,16.8,6.7,25.5,9.1c2.2,0.6,4.5,0.9,6.8,1.3c3.5,0.6,7.1,1.1,10.6,1.8
			c3.7,0.8,7.4,1.2,11.2,1.1c2.8-0.1,5.6,0.1,8.4,0c4-0.1,8-0.5,11.9-1.1c3.4-0.6,6.7-1.5,10-2.6c14.2-4.5,26.9-12.8,36.5-24.2
			c2.6-3,4.8-6.2,6.6-9.7c2.3-4.3,4.5-8.7,6.7-13c3.5-6.7,7.1-13.4,12.2-19.1c1.2-1.6,2.2-3.3,2.8-5.3c0.8-2.2,1.3-4.4,1.8-6.7
			c1.4-7.1,2.6-14.1,4.3-21.1c0.9-4.1,1.6-8.2,1.9-12.3c0.4-5.3-0.2-10.6-1.9-15.6c-2.3-6.8-5.2-13.4-8.8-19.7
			c-2.7-5-5.8-9.8-8.8-14.6c-2.8-4.4-5.7-8.7-8.7-13.1c-4.4,0.4-8.8,0.8-13.1,2.2c-6.7,2.2-13.3,5-19.6,8.2c-1,0.5-1.8,1.2-2.4,2.2
			c-1.6,2.7-4.2,3.8-7.3,3.9c-1.6,0.1-3.2,0.1-4.8,0.2c-2.7,0.1-4.6,1.6-6.5,3.3c-0.2,0.2-0.2,0.7-0.3,1.1h1.6c2.7,0,5.4-0.1,8.1,0
			s4.3,1.9,4.4,4.7c0,1.5,0,3-0.1,4.6c-0.3,2.9-0.2,5.9,0.3,8.8c0.1,0.9-0.1,1.9-0.5,2.7C424.5,156.4,424.2,157,423.8,157.5
			L423.8,157.5z M365.6,110c1.6-1.9,2.8-3.6,4.1-5c3-2.9,4.8-6.7,5.3-10.7c0.3-2,0.7-3.9,1.4-5.8c0.5-1.2,0.9-2.4,1.1-3.6
			c0.2-2.1,1-4.1,2.4-5.7c3.7-4.1,7.8-7.6,13.3-9c4.1-1,8.2-2.1,12.4-2.8c6.5-1.1,13-2.7,19.3-4.7c10.8-3.3,22.2-4.5,33.4-3.4
			c5.5,0.5,11,0.5,16.5-0.1c5-0.3,8.8-4.5,8.7-9.5c-0.5-0.3-1.1-0.5-1.7-0.6c-4.6-0.7-9.1-1.6-13.7-2.1c-6.3-0.6-12.4-2.4-18-5.4
			c-2.9-1.6-6.2-2.5-9.5-2.6c-5.4-0.2-10.7-0.3-16.1-0.2c-7.9,0.2-15.8,0.7-23.7,1c-6.7,0.3-13.4,0.6-20.1,0.8c-1.7,0-3.3-0.1-5-0.3
			c-1.6-4-3.8-7.8-6.5-11.3c-2.6-3.6-6-6.4-10.1-8.2c-6.4-2.8-12.9-5.2-19.6-7.1c-0.4-0.1-0.9-0.1-1.3,0c1.1,1.8,2.2,3.3,3,5
			c0.9,1.9,2.1,3.9,2.4,6c0.6,4.4,0.3,9-0.8,13.3c-0.5,2.5-2.3,4.5-4.7,5.4c-0.8,0.3-1.6,0.7-2.5,1.1c4.5,0.2,9,0.2,13.5-0.2
			c1.4-0.2,2.8-0.6,4.1-1.3c2.1-1.1,2.5-2,2-4.3c-0.2-1.1-0.6-2.1-0.9-3.2c-0.1-0.4-0.1-0.8-0.2-1.2l0.5-0.3c0.6,0.5,1.1,1,1.5,1.6
			c0.5,0.8,0.8,1.7,1.1,2.7c1,2.8,0.5,4.7-1.8,6.6c-1.8,1.5-3.9,2.5-6.3,2.8c-3.6,0.4-7.3,0.6-11,1c-2.1,0.2-4.2,0.4-6.4,0.6
			c1.3,2.6,3.5,4.5,6.2,5.5c2.8,1,5.6,1.9,8.3,3c4.1,1.6,8.1,3.3,12.2,5c1.7,0.7,3.1,1.8,3.1,3.9c0.2,2.2,0.1,4.5-0.1,6.7
			c-0.5,3.2-0.9,6.5-1,9.8c-0.4,4.4,0.7,8.8,3.1,12.5c0.4,0.8,0.7,1.6,0.9,2.4c0.2,1.3,0.4,2.7,0.5,4
			C365.1,104.6,365.3,107,365.6,110z M119.7,179.2c-0.2,3,0.4,6,1.8,8.8c1.9,3.6,4.6,5,8.5,3.8c5-1.4,9.9-3,14.8-4.7
			c3.9-1.3,7.7-2.6,11.9-2.7c1.1-0.1,2.2-0.3,3.3-0.7c6.2-2,11.3-6.6,14.1-12.6c3.9-8.2,9.8-15.3,17.1-20.7c2.8-2.2,5.5-4.7,8.1-7.1
			s3.6-5.8,3.6-9.4c0-1-0.3-1.9-0.7-2.7c-2.3-4.7-8.9-8.1-14.1-7.4c-4.8,0.6-9.6,1.8-14.2,3.5c-16.5,6.2-31.5,15.9-43.9,28.4
			C123.2,162.6,120.4,171,119.7,179.2z M15,181c0.7,5.9,1.2,12,4.6,17.4c2.5,3.9,4.9,7.9,7.2,11.9c1.7,2.8,3.2,5.7,4.8,8.6
			c1,1.8,2.5,3.2,4.4,4.1c2.3,1.3,4.3,1,6-1c1.1-1.3,2.2-2.8,3-4.3c3.1-5.9,5.1-12.3,6-18.9c1.2-8.4,2.4-16.8,5.7-24.7
			c0.5-1.2,1-2.4,1.3-3.6c0.5-2,0.9-4,1.1-6.1c0.2-2.4-0.8-4.7-2.8-6.1c-1.6-1.1-3.4-2.2-5.1-3.1c-2-1.1-4-2-5.9-3.1
			c-1.4-0.8-2.7-2-4.1-2.9c-5-3.1-8.3-3.4-12,0.4C20.5,158.2,16,168.6,15,181z M457.9,108.2c-2.1-1.2-4-2.3-5.9-3.5
			c-4.3-2.5-9-4.2-13.9-5c-8-1.3-15.7-3.7-23.4-6c-5-1.5-10-2.9-15-4.1c-4.1-1.1-8.5-1-12.6,0.2c-3.2,1-6.4,1.9-9.6,2.8
			c-0.4,1.6-0.6,3.2-1,4.7s-1,2.9-1.5,4.6c1-0.4,2-0.7,3-0.9c2-0.3,4.1-0.4,6.1-0.4c1.2-0.1,2.2,0.8,2.2,2c0,0.5-0.1,1-0.4,1.4
			c-1,1.3-4.1,2.2-5.5,1.3c-0.8-0.7-1.5-1.5-2.1-2.5c-2.9,0.7-3.4,1-4.8,2.7c1,1.1,2.5,1.8,4,1.8c6.1,0.3,5.3,1.4,10.5-2.9
			c0.2-0.2,0.4-0.2,0.6-0.4c1-0.9,1.1-2.4,0.3-3.4c-0.2-0.3-0.5-0.5-0.8-0.6c-1.1-0.6-2.4-0.9-3.7-0.9c-1.9,0.1-3.8,0.4-5.7,0.7
			c-0.6,0-1.1,0-1.7,0c3.1-3,9.3-3.5,12.4-1c1.3,0.8,1.8,2.4,1.4,3.8c-0.5,1.6-1.1,3.2-1.9,4.6c-3.2,5.4-6.5,10.8-9.7,16.2
			c-0.1,0.3-0.2,0.6-0.4,0.9H390c1-4,1.7-8,4-11.3c1.7-2.6,3.7-5,5.5-7.5c0.2-0.2,0.4-0.4,0.7-0.5c-0.7,1.9-1.7,3.6-3,5.1
			c-3.2,3.7-4.6,8.2-5.9,12.7c-0.1,0.4-0.1,0.8,0,1.2c3.1,0.6,5.7-1.1,8.7-1.1l-3.5,1.7c0.5,0.2,1,0.3,1.5,0.2
			c5.5-0.8,11-2.2,16.2-4.1c8-2.9,16.1-5.7,24.3-8.1C444.8,110.9,451.3,109.7,457.9,108.2z M323.7,71.7c0.3-1.8,0.3-3.2,0.6-4.4
			c0.5-1.9,0.4-3.8-0.3-5.7c-0.8-2.4-3.4-3.6-5.8-2.8l0,0c-0.9,0.3-1.8,0.6-2.7,0.9c-8.7,2.5-17.4,4.9-25.5,8.9
			c-3.4,1.6-6.5,3.7-9.3,6.3c-2.2,2.1-4.3,4.2-6.4,6.4c-2.2,2.3-3.8,5.2-4.5,8.3c-0.4,1.3-0.5,2.7-0.3,4c0.6,3.2,2,6.3,4,8.9
			c0.8,1.3,2.2,1.9,3.7,1.7c3.1-0.4,6.2-0.9,9.2-1.6c4.5-1.1,8.4-3.8,12.5-5.9c1.6-0.8,3-1.8,4.3-3c3-2.7,5.8-5.5,8.7-8.2
			c0.1-0.1,0.1-0.4,0.2-0.8c-3,0.5-6-0.1-8.5-1.8c-0.9-0.6-1.7-1.4-2.2-2.4c-0.7-1.5,0.3-2.7,2-2.4c0.8,0.2,1.5,0.4,2.3,0.7
			c3.2,1.1,6.7,0.6,9.4-1.3C317.9,75.3,321,73.4,323.7,71.7z M358.2,90.1c-6.2,1.4-10.6,5.3-14.9,9.7c4,5.8,7.4,11.8,12,17.2
			c1-0.5,1.8-0.9,2.6-1.3c1.6-0.8,3.5-0.7,5.1,0.1c1.4,0.6,2.3,2,2.1,3.6h0.6c1.3-3.6,2.6-7.3,3.9-10.9l-0.4-0.2l-2.8,4.3
			c-1.9-1-3.1-2.9-3.2-5c-0.2-2.9-0.6-5.9-0.9-8.8c0-0.6-0.2-1.1-0.4-1.6C360.7,94.9,359.5,92.6,358.2,90.1z M354.5,133.9
			c3.2,5.5,6.9,10.8,11,15.6c1,1.2,2.2,2.4,3.4,3.4c2.4,1.9,5.2,3.2,8.2,3.9l-17.7-29.5C357.2,129,355.5,131.3,354.5,133.9z
			 M373.3,108.4c-0.9,1.9-1.7,3.8-2.3,5.8c-1.2,4.6-3.9,8.4-5.6,12.6c-0.2,0.6-1.2,1-1.3,1.6c-0.4,1.7,0.6,3,1.6,4.3
			c0.9,1.1,1.8,1,2.9,0.6c-0.3-1.7-0.2-1.7,1.2-2.3c0.8-0.4,2.2-0.4,2.1-1.6c-0.2-1.7,1.9-2.8,0.9-4.6c-0.1-0.1,0.2-0.7,0.4-0.8
			c1.9-0.7,3.4-2.3,3.9-4.3c0-0.2,0.4-0.3,0.5-0.5s0.3-0.6,0.3-0.8c-0.4-1.3,1.2-2.4,0.2-3.8c-0.1-0.2,0.5-0.9,0.8-1.3
			c0.3-0.3,0.7-0.7,1.1-0.9l-1.4-2.7L373.3,108.4z M378,150.8c1,3,3.1,4.5,5.7,5.6c0.9,0.4,1.9,0.4,2.7,0c1.6-0.8,3.3-1.5,5-2.4
			c0.5-0.2,0.8-0.9,1.1-1.3c-1.2-1.1-2.9-1.7-4.6-1.4c-1.9,0.3-3.9-0.1-5.5-1.2C381.1,149.2,379.1,149.4,378,150.8z M364.5,121.3
			c-1.5,1.6-2.5,2.8-3.6,4c-0.5,0.6-0.5,1.1,0.3,1.4c0.4-0.7,0.7-1.6,1.3-1.9C363.9,124.2,363.9,122.9,364.5,121.3L364.5,121.3z"/>
		<path class="st1" d="M407.9,178.2c1.5,0.2,1.8,1.6,2.6,2.6c0.8,1.2,2.3,1.8,3.7,1.6c1.8-0.1,3.1-1.6,3.1-3.3
			c0-0.7-0.1-1.4-0.3-2.1c-0.9-6,0.7-12.1,4.5-16.8c0.2-0.2,0.3-0.3,0.5-0.5c-0.1,0.3,0,0.7-0.2,0.9c-2.4,3.1-3.2,6.7-3.9,10.4
			c-0.2,1.8-0.2,3.6-0.1,5.4c0,0.6,0.3,1.2,0.3,1.9c0.3,1.9-0.6,3.7-2.4,4.5c-1.9,0.8-4.1,0.3-5.4-1.2
			C409.5,180.6,408.7,179.3,407.9,178.2z"/>
		<path class="st1" d="M417.8,160.2c0,1.1-0.6,2.1-1.6,2.6s-2.3,0.4-3.1-0.4c-1-0.8-2.1-1.3-3.3-1.6c-1.7-0.5-2.7-2.3-2.2-4
			c0.1-0.5,0.4-1,0.8-1.3c1.7-1.7,2.2-1.8,3.9-0.2c0.8,0.8,1.9,1.4,3,1.7C417,157.6,417.8,158.7,417.8,160.2z"/>
	</g>
</g>
</svg>
