<svg xmlns="http://www.w3.org/2000/svg" viewBox="0 0 495.02 495.02"><defs><style>.cls-1{fill:#fff;stroke-width:3px;}.cls-1,.cls-4{stroke:#0b4951;stroke-miterlimit:10;}.cls-2{fill:#e9b966;}.cls-3{fill:#0b4951;}.cls-4{fill:none;stroke-width:4px;}.cls-5{fill:#10434b;}.cls-6{fill:#cfd1d4;}.cls-7{fill:#fdfdfd;}</style></defs><title>Fichier 1</title><g id="Calque_2" data-name="Calque 2"><g id="Calque_2-2" data-name="Calque 2"><circle class="cls-1" cx="247.51" cy="247.51" r="246.01"/><path class="cls-2" d="M129.85,120.35,119.3,176.22l10,43.54s6.72,15.88,5.92,12.9,4.83-5.79,13-4.38c14.12,2.41,24.58,6.09,22.11,6.84,0,0,19.5-3.11,24.13,2s6.81,4.6,6.81,4.6c.1-1.58-42.42,5.68-53.05,13.11-9.95,6.95-28.91,17.08-33.14,20.29-6.81,5.18-14.46,7.81-28.43,23.58l-6.6,5.84S74.5,280.5,74,276.44s-1.38-43.77-1.38-43.77l6.57-37.77,13.14-31.68,18.42-26.49Z"/><path class="cls-2" d="M294.68,239.83c11.71,3.65,29.74,4.3,39.51,8.78,5.14,2.37,22.47,10.84,35.41,22.76,4.64,4.27,20.19,20.71,24.75,25.08,6.87,6.56,5.74,14.65,10.84,19.75l-2.71,6.8s14.63-36.42,15.33-41,2.9-53.44,2.9-53.44l-9.57-39.4-16.88-36.06L370.59,122.9l-26.42-18.59,9.59,18.24,4,17.62,6.35,25.89-4.59,26.22-12.15,19.39s-20,14.16-19,10.76-9.82-.81-18.75,4.42-10.62,5.39-10.62,5.39-.75,4-6.7,9.9"/><path class="cls-3" d="M196.22,252.39l-3.34-10.62h-4.31s7.17,10.52,9.91,20.06"/><path class="cls-3" d="M70.27,107.63l12.47,10.45L79.4,109l3.44-4.1,9.54,1.7L79.91,96.13l5.37-6.4,26,21.82-5.27,6.3-16.4-3.77,6.57,15.48-5.27,6.3L64.9,114Z"/><path class="cls-3" d="M49.29,139.65l5.17,1.18,5.25-9.05-3.53-4,4.39-7.56L83.73,148l-3.24,5.58L44.9,147.21Zm21.57,4.86-6.3-7.2-3,5.12Z"/><path class="cls-3" d="M33.55,176l15.26,5.64-6.2-7.43,1.86-5L54,167.52l-15.26-5.64,2.9-7.84,31.87,11.77-2.85,7.71-16.7,2,11.4,12.36-2.85,7.71L30.65,183.8Z"/><path class="cls-3" d="M28.53,193.79l33.15,7.4-1.82,8.16L26.7,202Z"/><path class="cls-3" d="M24.75,211.4l33.77,3.72-2.53,23-7.4-.82,1.61-14.67L44.56,222l-1.38,12.54-7.4-.81,1.38-12.54-5.93-.65L29.62,235.2l-7.4-.81Z"/><path class="cls-3" d="M22.85,268.06l33.66-4.57,1.12,8.29-26.28,3.57,1.92,14.15-7.38,1Z"/><path class="cls-3" d="M32.9,317l4.43-2.92-2.9-10-5.32-.21-2.42-8.4,36.06,2.48,1.79,6.2-29.21,21.3Zm18.43-12.22-9.56-.43,1.64,5.69Z"/><path class="cls-3" d="M48.25,348.11a14.84,14.84,0,0,1-6.37-7.28A24.41,24.41,0,0,1,39.75,334a13.48,13.48,0,0,1,.85-6.74l7.09,2.64a7.74,7.74,0,0,0-.27,3.9,15.61,15.61,0,0,0,1.25,4c1.35,3,2.95,4,4.81,3.17A2.84,2.84,0,0,0,55,339.51a3.72,3.72,0,0,0-.11-2.42l-1.19-4a11.68,11.68,0,0,1-.1-7.46q1.2-3.12,5.23-5a9.84,9.84,0,0,1,8.36-.19,13.26,13.26,0,0,1,6.57,7q3.07,6.74,1.07,12.12L67.9,337a6.78,6.78,0,0,0,.2-3.93,13.79,13.79,0,0,0-.5-1.56L67,330.34a4.68,4.68,0,0,0-2.22-2.46,2.87,2.87,0,0,0-2.35,0,2.16,2.16,0,0,0-1.16,1.26,4,4,0,0,0,.06,2.55l1.19,4q1.3,4.35.22,7.26-1.2,3.33-5.72,5.39A9.37,9.37,0,0,1,48.25,348.11Z"/><path class="cls-3" d="M62.32,376.56l3.38-4.07L60,363.71l-5.16,1.35-4.76-7.34,35.24-8.11L88.84,355,67.08,383.9Zm14.07-17.05-9.27,2.37,3.23,5Z"/><path class="cls-3" d="M99.07,397.94q-5.86,5.19-10.74,4.93A11.66,11.66,0,0,1,83,401.43,16,16,0,0,1,78.91,398a12.84,12.84,0,0,1-3.43-9.61A11.3,11.3,0,0,1,78.06,382a21.26,21.26,0,0,1,2.42-2.59c.38-.38.84-.81,1.36-1.27l2.86-2.53c.52-.47,1-.87,1.42-1.2a21.8,21.8,0,0,1,2.86-2.1,11.22,11.22,0,0,1,6.64-1.79,12.86,12.86,0,0,1,9.13,4.54q4,4.55,3.73,9.53a13.42,13.42,0,0,1-3.34,7.88l-5.58-6.29a4.61,4.61,0,0,0-.38-6.18,3.9,3.9,0,0,0-3.29-1.48,4.78,4.78,0,0,0-2.28.81,37,37,0,0,0-4.79,3.8,38.85,38.85,0,0,0-4.39,4.33,4.94,4.94,0,0,0-1.07,2.17,3.88,3.88,0,0,0,1.12,3.42A4.86,4.86,0,0,0,88,395a4.94,4.94,0,0,0,3.57-1.44l.35-.32-3.33-3.75,5.22-4.63,8.84,10Z"/><path class="cls-3" d="M109.74,426.68l2.43-20.11-10.84,13.19-6.46-5.31,21.57-26.24,5.65,4.64L119.66,413l10.84-13.2,6.46,5.31-21.57,26.24Z"/><path class="cls-3" d="M124.15,437.26,141.46,408l19.9,11.79-3.79,6.4-12.71-7.52L142,423.58,152.82,430l-3.79,6.4L138.18,430l-3,5.13,12.7,7.52-3.79,6.41Z"/><path class="cls-3" d="M170.94,458.14a14.9,14.9,0,0,1-9.62-1,24.29,24.29,0,0,1-6.23-3.56,13.59,13.59,0,0,1-4-5.52l7-2.89a7.79,7.79,0,0,0,2.47,3,15.37,15.37,0,0,0,3.64,2.07q4.5,1.88,5.67-.95a2.82,2.82,0,0,0,.15-2.11,3.82,3.82,0,0,0-1.73-1.7l-3.57-2.1a11.62,11.62,0,0,1-5.16-5.39q-1.26-3.11.45-7.2a9.81,9.81,0,0,1,6-5.83,13.18,13.18,0,0,1,9.59.67q6.85,2.83,9,8.14l-6.86,2.83a6.7,6.7,0,0,0-2.53-3,10.92,10.92,0,0,0-1.43-.79l-1.23-.52a4.68,4.68,0,0,0-3.3-.28,2.81,2.81,0,0,0-1.7,1.62,2.12,2.12,0,0,0,0,1.71,3.88,3.88,0,0,0,1.78,1.82l3.58,2.1q3.9,2.29,5.1,5.17c.92,2.17.75,4.79-.52,7.84A9.39,9.39,0,0,1,170.94,458.14Z"/><path class="cls-3" d="M196.49,457.15l1-4.43,13.63,3-1,4.43Z"/><path class="cls-3" d="M245.51,458.17l-9.77-.25-.43,16.33-2.69-.07.92-35.45,13.51.35a10.67,10.67,0,0,1,7.22,2.63,9,9,0,0,1,2.71,7.14q-.21,8.17-8.43,9.35l8.15,16.61-3.14-.09Zm1.13-16.71-10.47-.27-.37,14.34,10.47.27q7.83.21,8-7T246.64,441.46Z"/><path class="cls-3" d="M264.55,438.73l21.37-2.7.3,2.38-18.7,2.36,1.75,13.88,15.94-2,.3,2.37-15.94,2,1.79,14.18,18.71-2.37.3,2.38L269,473.92Z"/><path class="cls-3" d="M321.34,452.72q1,10.5-8.75,13.29a12.07,12.07,0,0,1-9.54-1.06,10.38,10.38,0,0,1-4.28-4.42A32.08,32.08,0,0,1,297.4,457c-.23-.66-.46-1.42-.71-2.29l-1.54-5.36c-.25-.89-.46-1.66-.61-2.31a35.25,35.25,0,0,1-.72-3.78,10,10,0,0,1,1.3-6,12.09,12.09,0,0,1,7.54-5.94q9.73-2.79,14.45,6.64l-2.63.75q-3.83-7.2-11.16-5.09a9.15,9.15,0,0,0-5.72,4.48,8.71,8.71,0,0,0-1,5.06,27.26,27.26,0,0,0,.63,3.44c.27,1.06.7,2.62,1.28,4.66s1.05,3.59,1.38,4.63a28.34,28.34,0,0,0,1.29,3.26,8.75,8.75,0,0,0,3.52,3.76,9.18,9.18,0,0,0,7.23.78q7.43-2.13,6.87-10.26Z"/><path class="cls-3" d="M321.36,425.47l19.56-9,1,2.17-17.11,7.9,5.86,12.71,14.58-6.73,1,2.17-14.58,6.73,6,13,17.12-7.9,1,2.17-19.57,9Z"/><path class="cls-3" d="M373.68,437.74l-2.26,1.45-17.91-27.8-8.89,5.72-1.29-2,20.08-12.93,1.3,2-8.93,5.75Z"/><path class="cls-3" d="M397.76,419.65l-2.05,1.75L374.3,396.19,366.24,403l-1.55-1.82,18.21-15.47,1.55,1.82-8.1,6.88Z"/><path class="cls-3" d="M386.72,381.78l14.33-16.09,1.78,1.59-12.54,14.08,10.45,9.31,10.69-12,1.78,1.59-10.68,12,10.67,9.5,12.54-14.08,1.79,1.59L413.2,405.36Z"/><path class="cls-3" d="M442.32,363.75q.42,4.15-2.63,8.78a16,16,0,0,1-10.41,7.29l-.54-2.62a13.74,13.74,0,0,0,9-6.11q5-7.62-1.09-11.65a6.14,6.14,0,0,0-5.23-1.12,10.58,10.58,0,0,0-4.41,3.25l-2.82,3.1a12.2,12.2,0,0,1-5.65,3.87,8.08,8.08,0,0,1-7-1.26,9.09,9.09,0,0,1-4.33-6.38q-.54-3.88,2.28-8.17a15.25,15.25,0,0,1,8.83-6.43l.5,2.42a11.14,11.14,0,0,0-3.95,1.64,13.16,13.16,0,0,0-3.55,3.76Q406.85,361,413,365a5.67,5.67,0,0,0,4.88,1,11,11,0,0,0,4.74-3.21l2.61-2.87a12.4,12.4,0,0,1,5.44-4,8.49,8.49,0,0,1,7.44,1.2A8.83,8.83,0,0,1,442.32,363.75Z"/><path class="cls-3" d="M451.51,310c.68.26,1.28.51,1.8.74a34.1,34.1,0,0,1,3.71,1.72,16.63,16.63,0,0,1,3.27,2.36,9.62,9.62,0,0,1,2.25,3q1.89,4.19-.11,9.45l-4.23,11.15L425,325.93l4.22-11.15q2-5.26,6.17-7.16a12,12,0,0,1,7.2-.58,33,33,0,0,1,3.65,1.06c.5.16,1.09.36,1.74.61Zm-5.66.74a26.71,26.71,0,0,0-3.16-.93,10.21,10.21,0,0,0-6.16.23,8.64,8.64,0,0,0-3.28,2.49,13.94,13.94,0,0,0-2,3.67l-3,8,28.69,10.86,3-8a14.24,14.24,0,0,0,1-4.07,8.69,8.69,0,0,0-.81-4c-.75-1.56-2.4-3-4.93-4.42a35.74,35.74,0,0,0-3.26-1.51Z"/><path class="cls-3" d="M435.54,295.7l4.37-21.1,2.34.49-3.82,18.46,13.71,2.84,3.25-15.73,2.34.48-3.25,15.73,14,2.89,3.81-18.46,2.34.48-4.36,21.11Z"/><path class="cls-3" d="M458.5,252.89l-.26-16.06,2.39,0,.26,16.06,16.09-.26,0,2.69-35.46.58-.35-21.54,2.39,0,.31,18.85Z"/><path class="cls-3" d="M465.24,210.15l2.19,16.42,8.95,1.92.38,2.87-36.88-8.26-.32-2.37L473,203.08l.39,2.87ZM465,226l-2-14.73-19.7,10.13Z"/><path class="cls-3" d="M434.67,175.89l26.38,2.91.82,2.56-19.79,17.82,27.86-8.87.82,2.57L437,203.63l-.82-2.56L458.46,181l-29.72-3.21-.82-2.57,33.79-10.76.82,2.57Z"/><path class="cls-3" d="M423.57,166.69l-1.16-2.43,32-15.23,1.15,2.43Z"/><path class="cls-3" d="M418,155.34l-1.4-2.3,28.21-17.26L435,119.7l2-1.25,11.25,18.38Z"/><path class="cls-3" d="M403.39,132.68l-1.71-2.07,25.52-21L415.21,95l1.85-1.52,13.7,16.63Z"/><path class="cls-3" d="M385.77,112.28,369.84,97.77,371.45,96l13.94,12.7,9.42-10.35L382.94,87.54l1.6-1.77,11.88,10.81L406,86,392.1,73.32l1.61-1.77,15.93,14.51Z"/><path class="cls-4" d="M130.57,115.84C111.7,134,90.41,161.68,81.77,186.56c-9.1,26.24-11.5,56.34-8.59,83.86,5.55,52.33,40.18,105.19,88.28,127.78,26.24,12.33,55.37,17.08,84.09,18.93,30.7,2,58.62-2.37,85.83-17.27,46.36-25.38,79-73,87.59-124.94,9-54.9-7.64-108.77-45.72-149.12-5.19-5.5-26.33-23.8-32.17-28.6"/><path class="cls-5" d="M244.7,18.8c18.37,2.4,34.52,10.14,49.38,20.8,10.76,7.71,20.11,16.94,28.81,26.93a178.54,178.54,0,0,1,23.6,34.75,166.51,166.51,0,0,1,14.64,38.83,127.82,127.82,0,0,1,3.87,31c-.05,3.94-.48,7.88-.73,11.83a.56.56,0,0,0-.13.87c-1.56,6.25-2.88,12.53-5.41,18.55a54.44,54.44,0,0,1-23.83,27.15c-5.86,3.33-12.33,5-18.76,6.74-4.68,1.23-5.45.54-5.86-4a3.6,3.6,0,0,0,.35-.71c.1-.46.44-1-.24-1.28-.13,0-.57.51-.73.86a4.25,4.25,0,0,0-.19,1.14v0a3.49,3.49,0,0,0-1.07,2.27A9,9,0,0,0,307,240.4c0,.69.33.77.87.54,2.19.09,4.43,1.05,6.37-1.17.67-.75,2.39-.51,3.55-.1,6.64,2.34,13.59,3.29,20.41,4.87,1.66.38,3.46.64,4.77,2,.57.58,1.46,1.21,1.51,1.87.25,3.58,2.9,4.77,5.52,6.31,5,3,9.83,6.17,14.66,9.38a110.58,110.58,0,0,1,20.46,17.89c4.49,4.91,9.14,9.67,13.14,15a56,56,0,0,1,9,16.66c.53,1.67,1.39,3.59-.4,4.86a8,8,0,0,1-6.63,1.16c-.65-.16-.84-.71-1-1.14-1-2.21-2.54-4.08-3.57-6.22-3.26-6.76-8.31-12.2-12.92-17.95-2.46-3.07-5.22-5.89-7.85-8.82-.06-.6-.07-1.22-.74-1.52l-.07-.1a.75.75,0,0,0-.71-.78c-3.57-2.88-6.54-6.38-10-9.41-5.55-4.9-11.84-8.69-17.94-12.78,0-.89-.41-.9-1-.55.24,4.15.51,8.31.7,12.47.05,1.28.78,2.66-.37,3.83-3,.1-6-.62-9-.22l-.37-.1-.38,0c-2.65-.93-5.44-.63-8.16-.93-.13-5.79-.24-11.59-.39-17.39a12.83,12.83,0,0,0-.42-4.4c.58-1,.94-2-.84-1.94a.61.61,0,0,0-.18-.65c-1.56-1.32-2.26-1.31-3.05,0l.54,23.51c-1.87.62-3.76.05-5.64.09-2.84.06-2.93,0-2.92-2.83,0-5.55.14-11.1.24-16.64.11-6.69.11-6.69-6.89-6.79l-.15-.13c-1.16-.65-2.31-1.07-3.28.31-1.52,1.62-1.21,3.84-1.64,5.74a58.61,58.61,0,0,1-14.53,27.53,55.4,55.4,0,0,1-20.79,14.33l-2.44-.08c-.81-2.19,1.22-2.69,2.31-3.1,6.44-2.43,11-7.13,15.49-12.06a93.76,93.76,0,0,0,10.46-14.26c3.07-5.06,6.7-9.86,8.37-15.71a3.71,3.71,0,0,0-.85-4c-1.14-1.23-2.19-1.34-3.47-.16-1.48,1.38-3.15,2.56-4.62,3.95a30,30,0,0,1-11.33,6.85c-1.71-.05-3.44-.24-5,.7-3.7-.14-6.93,1.59-10.27,2.73-2.79,1-5.64,1.6-8.48,2.32-1.48-.2-3-.51-4.23.67-4.8,1.32-9.68.93-14.58.85a16.15,16.15,0,0,1-4.93-1c-4.72-1.59-9.66-3.13-13.53-6.44a101.56,101.56,0,0,0-17.49-11.65c-.64-.36-1.21-.74-1.78-.11s-1.63.94-1.38,2.23c2.24,11.09,3.65,22.44,11.06,31.74,1.79,2.24,3.58,4.42,6.16,5.8.26.45.56.87,1.19.73a.31.31,0,0,0,.36.23l.09.34h.34l.73.53v.3l.29.06c7.37,4.89,15.25,8.57,24.06,10,1.2.19,2.44.18,3.66.27.59,2-.86,1.94-2.08,1.93-19.06-.05-34.15-7.32-43.7-24.37a98.89,98.89,0,0,1-9.42-24.34c-1-3.93-3.88-.8-5.79-1.42-1.29-.42-2.84-.13-2.61,2,0,.27,0,.54,0,.82s0,.81,0,1.22c-.68,1.21.46,2.91-1,3.89a9,9,0,0,0-5,.77l-.4,0-.38.11a8.61,8.61,0,0,0-4.95.75l-.4,0-.39.1a12.05,12.05,0,0,0-4.1.3c-.55-1.43,0-2.91-.2-4.35-.67-1.76-1.53-.84-2.38-.18-1,.41-.89,1.34-.8,2.08.33,2.48-1.14,3.33-3.18,3.73-1.72-.11-3.43-.19-5,.78-1.38.86-.48,2-.82,3.15l5.79-.85h2.55c.18,7.61-.83,15.16-.9,22.75,0,2-1,2.49-2.79,2.54-2.29.06-4.61-.29-6.87.33-1.22-2.58-.76-5.3-.56-8a28.14,28.14,0,0,0-1.41-12c-1.63-4.39-4.78-5.32-8.67-2.77-.57.37-1,.88-1.59,1.27l-16.66,11.63A115.28,115.28,0,0,0,107,291.56c-6.86,6-13.75,12-20.17,18.5-1.87,1.91-3.89,2.14-5.34.9-1.63-1.4-2.35-4.63-1.37-6.37,2.76-4.95,6.91-8.67,11.17-12.25,4.78-4,9.68-7.87,14.55-11.76a225,225,0,0,1,19.75-13.71c5.7-3.61,11.28-7.45,17.4-10.36,1.42-.68,2.93-1.2,4.37-1.86,2.3-1.05,4.79-1.83,5.35-4.89.2-1.06,1.14-1.54,2.34-1.9a149.4,149.4,0,0,1,23.75-5.25c.53-.07,1.17-.3,1.6-.1,4.95,2.24,10-.29,15.13.57-2.05-3.21-5.33-4.29-8.28-2.78a14,14,0,0,1-5.77,1.84c-1.1-1.26-2.55-.95-3.94-.86a82.4,82.4,0,0,1-29.5-9.63,7.41,7.41,0,0,0-7.59.1c-7.42,3.79-6.77,4.92-11.51-3.72-3.61-6.58-5.59-13.78-7.62-20.93-.54-1.88,0-4-.67-6a.82.82,0,0,0-.32-1.06c-.54-6-1.3-11.95-1.58-17.93a154.71,154.71,0,0,1,2.7-35c.52-2.88.42-5.78,1.33-8.69,1.59-5,2.1-10.41,3.48-15.53a188.75,188.75,0,0,1,6.67-19.06,155.26,155.26,0,0,1,7.83-17.34c7.66-14.14,16.68-27.33,28.3-38.53a192.08,192.08,0,0,1,28.91-23.27,41.75,41.75,0,0,1,6-2.76c1.23-.54,2.3-.12,3.46.45,2.05,1,4.36,1.56,6.27,2.77a2.71,2.71,0,0,0,3.84-.52c3.51-4.15,8.28-5.16,13.26-5.81a5.72,5.72,0,0,0,3.39-.39h7.16A5.38,5.38,0,0,0,244.7,18.8Zm80.31,206a19,19,0,0,0,7.38-2.66,40.24,40.24,0,0,0,13.73-12,58.23,58.23,0,0,0,10-23.93c3-15.31,1.62-30.45-2.18-45.4-8.92-35.15-27.5-64.48-54.31-88.67-11.33-10.22-24-18.42-38.45-23.6a69.47,69.47,0,0,0-27.68-4.38c-3.4.2-6.88.35-8.84,3.88a2.75,2.75,0,0,0-.64.46c-2.61,3.26-5.66,5.23-10,3.47l-1.36-.59a7.48,7.48,0,0,0-4.79-1.47c-1.84-.9-3.41,0-5,.75-6.78,3.08-12.26,8-18,12.61a118.5,118.5,0,0,0-10.7,10.56c-.76.83-2,1.42-1.89,2.86l-.66.79c-2.15.8-3.16,2.81-4.45,4.44-23.66,29.86-37.62,63.66-41.29,101.66-2,20.43.19,40.3,7.53,59.54a43.23,43.23,0,0,0,1.71,4.16c.6,1.18,1.46,1,2.24.06,1.31-.67,2.67-1.26,3.92-2a6.71,6.71,0,0,1,7.91.12c1.31.86,2.65,1.89,4.34,2,4,2.45,8.54,3.72,13.23,5.21-17-13.63-25.41-31.5-28.12-52.47a152.52,152.52,0,0,1-.86-22.81c.92-4.8.63-9.82,2.49-14.48a20.5,20.5,0,0,1,0,7.16A99.06,99.06,0,0,0,144,190.52c6,19.57,16.51,35.55,35.86,44.37,1.33.61,2.46,1.73,4.11.79a16.51,16.51,0,0,1,3.7-1.71,22.43,22.43,0,0,1,4-.36c-1.73-3.25-3.31-6.11-4.78-9a10.69,10.69,0,0,0-2.51-3.19c-6.53-5.81-11.08-13-15.08-20.72a124.3,124.3,0,0,1-10.2-28,117.5,117.5,0,0,1-3.53-34.48c.45-8,2.15-15.91,4-23.76a199.64,199.64,0,0,1,9.12-30.1c.41-1,.46-2.53,2.15-2.67,1.15,2.86,1.18,5.87,1.21,8.85.12,10.1.28,20.21,1.1,30.28.26,3.22-.24,6.49.61,9.67,3.15.84,6.31,1.69,9.47,2.51.21.05.48-.09,1.07-.22-.3-1.76,0-3.64,1.85-4.41,3.73-1.59,7.2-4.11,11.44-4.13,11.46,0,22.9-1.09,34.38,0a18.39,18.39,0,0,1,9.7,3.79,24.1,24.1,0,0,1,2.48,2.14,3.6,3.6,0,0,0,4,1.14,13.8,13.8,0,0,1,10.34,1,2.9,2.9,0,0,0,3.6-.59,37.16,37.16,0,0,1,7.88-5.62c-.06-.12-.09-.28-.18-.36l-7.66-5.8c0,2.11,1.37,3.39,2,5,1.07,2.7-.15,4.32-3,4a13.39,13.39,0,0,1-3.16-.83,36.67,36.67,0,0,1-12.75-8A95.6,95.6,0,0,1,223.53,88.5,20.72,20.72,0,0,1,221.9,81c1.74.48,1.13,2.58,2.51,3.16a2,2,0,0,0,1.35,2.35c.2.36.4.72.61,1.08-.63,1.06.2,1.84.6,2.61a82.88,82.88,0,0,0,13,18.61c3.79,4.06,7.6,8.15,12.28,11.26a16.08,16.08,0,0,0,5.81,2.82,73.32,73.32,0,0,1-3.77-10.46c-.7-5.46-1.42-10.92-2.09-16.38-.22-1.82.82-.63,1.39-.53.9,3.65,3.35,6.41,5.29,9.5,4.77,7.6,11.5,13,19,17.55,3.28,2,6.71,3.23,10.79,2.7a54.78,54.78,0,0,1,11.8.07,33.5,33.5,0,0,0,8.13,0l3.28.21c3.85.89,6,4,8.44,6.64.91,1,1.59,1.64,3.05,1a8.46,8.46,0,0,1,4.81-.39c.84.14,1.67.44,1.85,1.34.23,1.16-.67,1.71-1.54,2.12a7.08,7.08,0,0,1-3.17.59,6.21,6.21,0,0,0-3.95.79,11.83,11.83,0,0,1,2.66,4.14c.35.94,1,1.34,1.89.8,2.26-1.43,3.94-.15,5.31,1.26,1.53-1,1.52-3,3.51-3.37.24,3.19-2.06,5.94-1.21,9,3.3-2.82,5.07-11.38,3.75-18.11.56-2.73-1.86-5.31-.71-8.06,1.25-.13,1.39.63,1.66,1.21a42.1,42.1,0,0,1,2.37,7.36c1.13,4.21,1.16,8.63,2.62,12.76.08,1.91.12,3.82.25,5.72a77.11,77.11,0,0,1-10.87,45.84c-2.09,3.51-4.18,7-6.37,10.49s-4.35,6.55-6.72,9.7a76,76,0,0,0,20.22-22.75,5.76,5.76,0,0,1,2.36-1.58c1.71,1.83.47,3.51-.25,5.24-4.2,10-10.48,18.79-16.85,27.49Zm-97-64.69c3.35-.89,4.54-3.19,4.22-6.45q-.27-2.85-.66-5.68c-.15-1.13-.62-2.38-1.84-2.39-2.35,0-4.72-.45-6.82,1.64-5.07,5.06-12.17,4.57-17-.88a3.65,3.65,0,0,0-.86-.85,1.9,1.9,0,0,0-1.94,0c-.78.51-.49,1.22-.09,1.76.95,1.26.69,2.55.23,3.87-1.37,1.17-3,.94-4.66,1s-3.44-.17-5.08,1a15.27,15.27,0,0,0,4.51,4.9c3.22,2.18,6.48,4.71,10.74,4.05,5-.76,10-.65,15-1C225.23,161.06,226.79,161.17,228.05,160.15Zm63.95-21c-4-1.28-7.91-1.7-11.85.34h11.79c2.57,1.32,5,3.08,7.73,3.85,3.56,1,6.14,4,9.86,4.43.35,0,.67.44,1,.7a1.25,1.25,0,0,1,.58,1.36,1.16,1.16,0,0,1-1.21.85c-2.28.12-4.6.41-6.54-1.24-1-1.72-2.12-.86-3.32-.14-2.34,1.39-4.77,2.63-7.61,2.58-.18,0-.35-.31-.53-.48-.1-1.27,1.64-1.28,1.7-2.41l-2.64-2.47c-2.13,2.41-4,5-7.75,4.64-3.5-.35-5.52-2.44-6.38-5.71-1.44.47-2.89.4-3.14,2s1.18,1.9,2.2,2.52c.59.36,1.78.23,1.37,1.72-2.28.75-4.59.11-7.15-.67.05,2-.25,4.25,1.11,4.86C273.76,157,276,159,279,159.15c1.71,1.55,3.85,1.19,5.84,1.2,6.27,0,12.54-.18,18.81-.09,2.38,0,3.9-1,5.71-2.4,4.27-3.37,5.63-7.41,4.29-12.55a8.65,8.65,0,0,1-.24-2.44,2.37,2.37,0,0,0-1.64-2.49c-4.05-1.79-7.32-4.71-10.61-7.57a5.79,5.79,0,0,0-4.43-1.59c-5.82.37-11.65.66-17.5,1,.86,2.39.87,2.47,2.71,2.3a28.65,28.65,0,0,1,10.49,1.22c5.56,1.53,10.61,4.23,15.79,6.62.75.35,1.49.78,1.26,1.83-3.16.56-3.49.52-6.77-1.47S296,139.07,292,139.13ZM285.73,221c-2.16-4-1.37-7.6,1.35-11l-5.32-4.44-1.89-3c.07-.26.23-.54.18-.76-1.48-6-6.07-9.72-10.36-13.61-.36-.32-1,.07-1.33.62-2.17.59-4.14,1.82-6.55,1.61-1.61-.13-2.72,1-3.62,2.27a6.9,6.9,0,0,1-6.37,2.83c-1.62-.09-3.23-.22-4.83-.44-3.21-.45-6.4-1-9.6-1.45-3.86-1.5-6-1-8.18,1.72a11.17,11.17,0,0,0-1.74,3.65,14.07,14.07,0,0,1-4.61,6.59,17.67,17.67,0,0,1-10.11,3.86c-4.76-.81-9.89-.35-13.87-4,2.36.69,4.82.54,7.15,1.08,7.1,1.63,12.25-1.11,15.91-7a27.32,27.32,0,0,1,8-8.64,3.34,3.34,0,0,0,1.71-2.93c.15-2.59.79-5.12,3.22-6.7,3-.08,3.18.2,1.92,2.64-2.08,4-1.41,5.36,3.36,6-2.83-3.71-2.51-7.76-1.84-11.86,1-5.89,2.72-11.64,3.35-17.95-7.75,6-16.58,7.26-25.72,7.17-4.9,0-9.8-.52-14.71-.8-4.92-1.12-8.24-4.45-11.26-8.19a17.38,17.38,0,0,1-1.58-1.87,2,2,0,0,0-3-.85,1.71,1.71,0,0,1-2.68-.85c-.45-1.09.45-1.7,1.19-2.32s2.36-.9,2.19-2.58c-.33-3.25-.58-6.5-.87-9.75-.11-1.25-.74-1.78-2.06-2-2.79-.5-5.53-1.3-8.3-2-2.93-.71-3.84,0-3.86,2.95a14,14,0,0,0,.44,2.38,50.13,50.13,0,0,1,1,6c.17,3.31-1.61,4.66-5.12,4.16-.84-1.21-.74-2.58-.71-4a5.46,5.46,0,0,0-1.46-3.71,1.6,1.6,0,0,0-1-.57c-.64,0-.88.54-1,1.06a5.57,5.57,0,0,0-.15,1.62c.55,9.52.74,19.08,2.84,28.42a16.42,16.42,0,0,0,4.51,8.68c1.95-1.84.21-4.5,1.65-6.42a2.12,2.12,0,0,1,1.3,1.73c1.51,5.5,3.06,11,4.46,16.52A72.8,72.8,0,0,0,183.5,211c3,5.67,5.89,11.37,9.09,16.91,3.42,5.93,7.35,11.49,13.35,15.2a54.65,54.65,0,0,1,4.85,3c6.64,5.17,14.23,8.51,22,11.57,5.66,2.25,11.52,3.18,17.57,1.62a24.07,24.07,0,0,0,14.54-5.75,20.25,20.25,0,0,1,9.5-4.23c8.51-1.73,15.1-6.66,20.26-13.45,1.95-2.56,3.19-5.65,4.85-8.44a26.87,26.87,0,0,0,3.46-14.9,8.09,8.09,0,0,0-3.92-6.75,12.45,12.45,0,0,0-6.95-2c-2.91-.05-4.51-1.47-5.76-3.77-1.39-2.53-1.11-3.07,2.13-4,4.61,1.56,8.76,1,12.39-2.49,5.59-5.4,8.3-12.27,10-19.63.38-1.68.65-4-1-4.94-2.35-1.36-4-4-7.18-4-8.82.17-17.64.3-26.46.45a42.27,42.27,0,0,1-9.36-2.68c-1.41-.62-2.74-1.3-3.2-2.92-1.87-6.54-3.42-13.15-3.16-20,.08-2.13-.92-3.06-2.68-3.31-3-.42-6-.74-8.95-.87-2.66-.11-2.66,0-1.82,3.2-.67,3.89-.07,7.83-.78,11.77a218.65,218.65,0,0,0-3.68,28.3c-.2,4.47,1.52,7.59,5.43,9.61,4.59,2.32,6.61,2,10.17-1.45a17.44,17.44,0,0,1,2.09-2,1.6,1.6,0,0,1,2.42.34c1.61,1.73,2.31,1.62,3.7-.06.52-.63.91-1.36,1.37-2,1.42-2,1.92-2.06,3.73-.29,2.14,2.09,4.22,4.25,6.42,6.29a17.55,17.55,0,0,1,4.67,7.5c1.42,4.18,2.35,8.71,6.09,11.8a2.47,2.47,0,0,1,.32,3.67c-1.58,1.86-1.92,4.15-2.3,6.44C286.53,219.62,286.52,220.46,285.73,221Zm-59.45-81.71A25.26,25.26,0,0,0,206,136.61c-.81.24-1.86,1.17-2.41-.22-.46-1.14.62-1.69,1.39-2.2a15,15,0,0,1,7.29-2.34c5-.36,9.76.72,14.47,2.12a16.09,16.09,0,0,0,6.78.36c-.59-2.32-2.06-2.61-3.8-2.77-11.29-1-22.61.08-33.91-.52-2.79-.14-4.33,1.34-4.94,4.42a28.41,28.41,0,0,0-.11,10.56c.15.87-.22,2.25,1.12,2.26,1.13,0,2.9-.19,3.09-1.42.46-3,2.72-4,4.87-5,6.73-3.05,13.71-4.66,21-2.27C222.84,140.27,224.58,140.41,226.28,139.27Zm41.93,4.44c.09.43.42.82.77.61a2.86,2.86,0,0,0,.94-1.21.49.49,0,0,0-.55-.73A1.23,1.23,0,0,0,268.21,143.71Z"/><path class="cls-2" d="M307.21,248.44c7,.1,7,.1,6.89,6.79-.1,5.54-.22,11.09-.24,16.64,0,2.84.08,2.89,2.92,2.83,1.88,0,3.77.53,5.64-.09-.61,1.69-2,1-3.14,1-2.83.08-2.83,0-3.3,3.13-1.7-.1-2.47.73-2.46,2.41,0,2.44,0,4.88,0,7.32,0,9.21,0,18.42-.08,27.63,0,1.78.11,3.3,2.52,2.94L316,323c-2.21-.08-2.62,1.25-2.62,3.12q0,9-.08,17.91c0,1.25.65,2.73-.75,3.74l-3,0c-.82-1.3-2.15-.94-3.31-.94-5.52,0-11.05,0-16.58,0,2.3-2.1,1.95-5.14,2.08-7.64.31-6.3,2.24-12.25,3.06-18.43,1.66-12.64,4-25.17,5.75-37.81,1-7.61,2.34-15.26,4.08-22.78.74-3.18.22-6.5,1.36-9.62A11.08,11.08,0,0,1,307.21,248.44Z"/><path class="cls-5" d="M312.58,347.76c1.4-1,.73-2.49.75-3.74q.14-9,.08-17.91c0-1.87.41-3.2,2.62-3.12l3.22-.15a5.43,5.43,0,0,0,3.29-.08c1.08,1.13.62,2.56.66,3.86.18,6.74.3,13.48.45,20.22.14.94.73.81,1.37.59l1.58,0c.54.24.82.07.8-.54.44-6.25,0-12.49,0-18.74,0-5.67,0-5.66,5.42-5.91,1.22-.05,2.44-.18,3.66-.27a16.94,16.94,0,0,0,6.61-.42l1.63,0c3,.09,3,.09,3.17,3.19q.62,11,1.24,22c-.06,1,.62.93,1.3.85,4.51.35,7.75,2.41,9.44,6.78,1.34,3.44,2.87,6.81,4.31,10.22-5.12.71-10.27-.18-15.4.28-.75-.22-1.48-.28-1.57-1.43-.35-4.07-2.72-7.56-3.47-11.53a1.35,1.35,0,0,0-1.81-1.16c-.92.38-1.31,1-.89,2.24,1.28,3.82,2.32,7.72,3.45,11.58l-3.07.27-1.62,0c-7.36-.77-14.76-.51-22.14-.82-1.37-1.34-1.48-3.2-2-4.89C314.63,355.39,313.61,351.57,312.58,347.76Z"/><path class="cls-2" d="M123.36,279.68,140,268.05c.55-.39,1-.9,1.59-1.27,3.89-2.55,7-1.62,8.67,2.77a28.14,28.14,0,0,1,1.41,12c-.2,2.67-.66,5.39.56,8,0,.83-.05,1.66-.08,2.49-1.4.88-1.18,2.34-1.29,3.67q-1.26,14.61-2.48,29.24c-.28,3.52-.23,3.52,3.48,4a6.2,6.2,0,0,1,2.73.72,17.68,17.68,0,0,1-2.72.06c-1.83-.22-2.3.74-2.23,2.3-1.34-.09-1.93.55-2,1.88-.2,2.84-.55,5.66-.69,8.49-.08,1.54-.41,2.54-2.2,2.74a14,14,0,0,0-3.88,1.11c-6.14,2.68-8.61,8.25-10.78,14-.07.17.46.57.71.86l0,2c-1.39-.1-2.62.05-3.2,1.62-.72,2-1.85,3.81-1.95,6-4-2.56-4.79-4-3.07-9.16,1.28-3.83,2.5-7.69,3.68-11.55a8.66,8.66,0,0,1,6-6c4.14-1.38,5.67-3.35,5.71-7.6.1-8.82.43-17.67-1.58-26.38-1.21-5.25-2.16-10.57-3.45-15.8a50.41,50.41,0,0,0-3.73-9.4C127.94,282.17,126.25,280.33,123.36,279.68Z"/><path class="cls-5" d="M130.8,361.09c-.25-.29-.78-.69-.71-.86,2.17-5.75,4.64-11.32,10.78-14a14,14,0,0,1,3.88-1.11c1.79-.2,2.12-1.2,2.2-2.74.14-2.83.49-5.65.69-8.49.09-1.33.68-2,2-1.88l2.35.24a3.13,3.13,0,0,0,2.56.44c5,.72,5,.72,4.71,6-.11,2-.28,4.08-.35,6.13a1.45,1.45,0,0,0,1.15,1.5c.8.17,1.18-.55,1.6-1a3.86,3.86,0,0,0,.48-2.36c.17-2.45.38-4.9.47-7.36.05-1.19.52-1.75,1.7-1.71a5.19,5.19,0,0,0,3.35.53l3.19.3a5,5,0,0,0,3.37.55l3.17.29A3.09,3.09,0,0,0,180,336c2.09.08,3,1,2.79,3.24a44.46,44.46,0,0,0,.05,5.16c-.13,1.11.59.93,1.26.82,5.87.09,11.73.13,17.6.27,1.31,0,2.74-.42,3.92.6l.47.77a24.27,24.27,0,0,0-.86,6.45.68.68,0,0,0-.22,1l-1.26,7.45-26.33-.29a5.62,5.62,0,0,1-3.11-.73c2.1-3.52,2.16-7.66,3.49-11.42a1.61,1.61,0,0,0-.11-.79c-.18-.73,0-1.71-1.18-1.76-1,0-1.36.46-1.58,1.4-.74,3.14-1.43,6.3-2.43,9.35-1.49,4.6-.18,4-5,3.91-10.88-.17-21.76-.45-32.63-.65A9.36,9.36,0,0,0,130.8,361.09Z"/><path class="cls-5" d="M247.17,365.72c.21,8.77-.38,17.52-.87,26.26-1.35,0-2.7.08-4.05,0q-19.27-.7-38.54-1.45c-.52-3.28.46-6.44.89-9.63.73-5.35,1.05-10.76,2.38-16l1.68-.23,22.88.33C236.72,365.75,242,365.38,247.17,365.72Z"/><path class="cls-5" d="M252.9,392.8c-3.23-.49-3.28-.49-3.18-3.58.24-7.27.55-14.54.82-21.81a2,2,0,0,1,.68-1.79l.88-.09,27.39.51c1.09,0,2.18,0,3.27.1,2.84.19,3.28.56,3.59,3.35.61,5.41,1.14,10.84,1.71,16.26.26,2.57.53,5.15.79,7.73-1.46.49-3,.2-4.45.19-3.66,0-7.32-.43-11-.06h-.07A128.16,128.16,0,0,0,252.9,392.8Z"/><path class="cls-5" d="M227.49,416.6l-.4-.09-.4,0a12.05,12.05,0,0,0-5.76-.76l-1.51-.15a6.2,6.2,0,0,0-4.22-.71l-.35-.11-.37,0a4.32,4.32,0,0,0-3.38-.68l-.39-.11-.4,0a4.38,4.38,0,0,0-3.31-.73c-1.74-.53-3.6-.11-5.38-.92-1.53-.7-1.83-.84-1.31-2.76a43.65,43.65,0,0,0,1.79-15.18c3-1,6,.38,9-.31l10.59.32a41,41,0,0,0,9.89.49c3.94.15,7.88.37,11.83.41,2,0,3,.48,2.86,2.77-.36,5.84-.55,11.69-.74,17.53,0,1.44-.68,1.88-2,1.83-3.12-.11-6.25-.16-9.38-.23C232,416.39,229.75,416.5,227.49,416.6Z"/><path class="cls-5" d="M125.68,370.71c.1-2.17,1.23-4,1.95-6,.58-1.57,1.81-1.72,3.2-1.62l34.65.81c1.62,0,3.23,0,5.33,0-1.51,6.22-2.92,12-4.33,17.8a34.65,34.65,0,0,0-1.47,6.68c-1.41.73-2.92.41-4.4.4-4.2-.05-8.39-.48-12.59-.13-4.39.49-7-2.88-10.06-4.95-4.27-2.86-7.77-6.69-11.36-10.36C125.82,372.56,125.31,371.84,125.68,370.71Z"/><path class="cls-5" d="M289.72,414.08h-.4l-.38.12a4.33,4.33,0,0,0-3.33.7l-.39,0-.38.12a6.23,6.23,0,0,0-4.14.73l-.4,0-.38.11a12.19,12.19,0,0,0-5.7.78h-.06a18.77,18.77,0,0,0-7.41.76l-2.39.1-15.53-.1c-.14-7.09.4-14.15.79-21.21l3.28-.3,10.59.31a34,34,0,0,0,9.07.45c4.6.17,9.2.46,13.8.46,2.1,0,3.05,1,3.16,2.79.29,4.59,1.37,9.11,1.13,13.74Z"/><path class="cls-5" d="M169.32,389.51c-2.2-1.49-.82-3.8-.42-5.11,1.78-6,2.94-12.11,4.6-18.11.56-2,1.29-2.18,2.82-2.17,4.47,0,8.94.05,13.41.07a89.92,89.92,0,0,0,13.23.51l.26.17.09,1.74q-1.45,10.5-2.9,21c-.38,2.78-.37,2.8-3.25,2.79-2.45,0-4.9,0-7.35-.08A129.85,129.85,0,0,0,169.32,389.51Z"/><path class="cls-5" d="M294.69,394.44l-1.54-.07-1-.63-2.82-25.47c0-.1.09-.21.07-.3a5.15,5.15,0,0,0-.23-.54c.85-1.63,2.38-1,3.64-1,6.13,0,12.25.15,18.37.24,3.65.06,3.65.06,4.59,3.57,2.17,8.16,4.34,16.33,6.59,24.77-2.7.6-5.38,0-8,.21A116.94,116.94,0,0,0,294.69,394.44Z"/><path class="cls-5" d="M162.76,330.5c-1-1.65.3-3.15.36-4.75.32-9.38.91-18.75,1.35-28.13.26-5.34.22-5.34,5.57-5.37,3.41,0,6.81-.07,10.21,0,2.89,0,3,.06,3,2.91,0,9,0,18-.2,26.95-.08,3.63.44,7.32-.63,10.9l-1.6,0-.37-.11-.39,0a11,11,0,0,0-5.76-.76h-.07a14.16,14.16,0,0,0-6.48-.83h-.06A10.77,10.77,0,0,0,162.76,330.5Z"/><path class="cls-5" d="M333.2,280.24l6.46.38a6.67,6.67,0,0,0,4.2.44c1,.17,1.73.57,1.78,1.78.51,11.49,1.74,22.94,1.4,34.46-4.91.14-9.83-.05-14.69.91-5,0-5,0-5.14-5.24q-.29-15.08-.5-30.17c0-1.19-.69-2.9,1.53-3A10.09,10.09,0,0,0,333.2,280.24Z"/><path class="cls-5" d="M334,367.11c3,.09,6,.27,9,.24,1.74,0,2.73.44,3.23,2.26q2.07,7.58,4.51,15c.4,1.24.47,2.05-.61,2.79q-5.68,3.88-11.38,7.76a5.1,5.1,0,0,1-3.09.85c-3.25-.71-6.57-.56-9.86-.75-1.84-4.23-2.47-8.82-3.85-13.19-1.53-4.83-2.24-9.91-4.29-14.59,1.67-.66,3.42-.39,5.15-.41C326.56,367.09,330.29,367.6,334,367.11Z"/><path class="cls-5" d="M215.21,362.47l-1.61,0c-2.11-.79-4.48.25-6.55-.87.65-5.13,2-10.19,1.6-15.43,1.56-.57,3.17-.26,4.76-.29,3.05-.07,6.11.41,9.16-.07l22.4.39c3.06.06,3.19.1,3,3.17-.23,4.44.37,8.93-.83,13.31l-5.66,0C232.74,362.52,224,362.17,215.21,362.47Z"/><path class="cls-5" d="M250.62,362.16a144.33,144.33,0,0,0,.67-15.14c1.49-1,3.15-.53,4.74-.54,5.78-.06,11.56.59,17.35.11,2.83.09,5.66.21,8.48.25,1.34,0,2.2.16,2.33,1.91.34,4.83.93,9.65,1.42,14.48-1.5,0-3,.14-4.48.14q-12.08,0-24.13-.08l-1.6,0C253.89,362.55,252,363.52,250.62,362.16Z"/><path class="cls-5" d="M165.2,288.82c-.25-7.87.88-15.68.91-23.54a2.26,2.26,0,0,1,2.41-2.58c1.08-.07,2.15-.28,3.22-.43a5.49,5.49,0,0,0,3.31-.55l2.43-.28a5.59,5.59,0,0,0,3.29-.55c1.93-.32,2.58.41,2.55,2.43-.14,8.44-.11,16.89-.14,25.34C177.19,289,171.19,288.92,165.2,288.82Z"/><path class="cls-5" d="M189.8,393.34c2.58.12,5.15.26,7.73.33,1.27,0,2.11.32,1.86,1.87-.68,4.28-1.25,8.58-2,12.84-.39,2.12-1.68,2.95-3.56,2.35-7.88-2.48-15.78-4.92-23.3-8.38-.85-.39-1.71-.54-2.55-.85-1.77-.65-3-1.93-2.43-3.61s-.41-4.28,2.11-5.27l1.68-.08,11.39.33A31.85,31.85,0,0,0,189.8,393.34Z"/><path class="cls-2" d="M183.45,253.71c0-.41,0-.81,0-1.22s0-.55,0-.82c-.23-2.11,1.32-2.4,2.61-2,1.91.62,4.8-2.51,5.79,1.42a98.89,98.89,0,0,0,9.42,24.34c9.55,17.05,24.64,24.32,43.7,24.37,1.22,0,2.67.09,2.08-1.93,1.57-.05,3.18-.47,5.17.46-2.55,2.16-5.42,2.3-8.06,2.58-18.05,1.93-32.69-4.71-44.35-18.24-3.54-4.11-5.9-9.07-8.47-13.84C188.6,263.85,186.06,258.76,183.45,253.71Z"/><path class="cls-5" d="M154.61,329.65a6.2,6.2,0,0,0-2.73-.72c-3.71-.46-3.76-.46-3.48-4q1.2-14.62,2.48-29.24c.11-1.33-.11-2.79,1.29-3.67,2.28.66,4.6.24,6.9.27,1.69,0,2.48.55,2.37,2.39-.7,11.69-.89,23.4-2,35.07l-4.08,0-.38-.11Z"/><path class="cls-5" d="M289.73,346.84c5.53,0,11.06,0,16.58,0,1.16,0,2.49-.36,3.31.94,1.37,5.27,2.75,10.54,4.2,16.11-5.16.61-10.1-.09-15,.2l-9.83-.8c-.53-4.66-.93-9.35-1.62-14C287,347.12,288,346.75,289.73,346.84Z"/><path class="cls-5" d="M315.94,319c-2.41.36-2.53-1.16-2.52-2.94.06-9.21.06-18.42.08-27.63,0-2.44,0-4.88,0-7.32,0-1.68.76-2.51,2.46-2.41,6.52.89,6.48.89,6.59,7.43.17,10.58.4,21.17.6,31.76-2.31,1-4.88.14-7.19,1.11Z"/><path class="cls-5" d="M294,412.29l-1.35-12.88c0-.1.09-.21.06-.3a3.6,3.6,0,0,0-.22-.54c.18-.32.35-.65.53-1l1.7-.13,11.38.34a31.92,31.92,0,0,0,9.1.47c1.63.09,3.26.2,4.89.26,3.69.14,3.69.13,4.31,4.16l-1.05.75a142.94,142.94,0,0,1-15.62,5.69c-3.76,1.24-7.59,2.28-11.39,3.41Z"/><path class="cls-5" d="M348.43,367.66c5.28,0,10,.14,14.77-.07,2-.08,2.28,1.19,2.59,2.37.43,1.59,1.39,3.78-.58,4.68-3.86,1.76-6,5.25-9.12,7.8-2,1.64-2,1.49-3.06-1C351.12,377.05,350.47,372.3,348.43,367.66Z"/><path class="cls-5" d="M151.73,392.23H162c1.31,0,1.56.75,1.39,1.88-.58,3.81-1.61,4.4-5,2.67A23.36,23.36,0,0,1,151.73,392.23Z"/><path class="cls-6" d="M203.71,390.56q19.28.74,38.54,1.45c1.35.05,2.7,0,4.05,0a1.53,1.53,0,0,1-1.67.88c-4.34-.22-8.69-.07-13-.44-4.61-.39-9.25-.32-13.87-.51-4.21-.18-8.41-.43-12.62-.64A1.73,1.73,0,0,1,203.71,390.56Z"/><path class="cls-6" d="M215.21,362.47c8.77-.3,17.53,0,26.29.15l5.66,0c-.61,1-1.64.78-2.54.77l-26.76-.24A3.42,3.42,0,0,1,215.21,362.47Z"/><path class="cls-6" d="M174.28,360.75a5.62,5.62,0,0,0,3.11.73l26.33.29c-.73,1.19-1.92.81-2.94.81-7.62-.05-15.23-.11-22.84-.24C176.57,362.31,174.82,362.83,174.28,360.75Z"/><path class="cls-6" d="M257,363.29q12.06,0,24.13.08c1.49,0,3-.09,4.48-.14-.35,1-1.19,1-2,1L258.85,364A2.67,2.67,0,0,1,257,363.29Z"/><path class="cls-6" d="M273.38,346.59c-5.79.48-11.57-.17-17.35-.11-1.59,0-3.25-.42-4.74.54.25-1,1.1-1.08,1.91-1.08q9.54.06,19.09.18C272.66,346.12,273,346.43,273.38,346.59Z"/><path class="cls-6" d="M317.65,364.08c7.38.31,14.78.05,22.14.82-6.8.51-13.6,0-20.4,0A2,2,0,0,1,317.65,364.08Z"/><path class="cls-6" d="M169.32,389.51a129.85,129.85,0,0,1,20.49.81c-6.35.48-12.7-.18-19.05-.17C170.28,390.15,169.8,389.74,169.32,389.51Z"/><path class="cls-6" d="M252.9,392.8a128.16,128.16,0,0,1,20.45.81c-6.34.46-12.67-.18-19-.18C253.86,393.43,253.38,393,252.9,392.8Z"/><path class="cls-6" d="M294.69,394.44a116.94,116.94,0,0,1,19.71.78c-6.09.48-12.18-.15-18.26-.15C295.66,395.07,295.18,394.66,294.69,394.44Z"/><path class="cls-6" d="M165.2,288.82c6,.1,12,.18,18-.16a1.61,1.61,0,0,1-1.64.94q-7.51,0-15,0A1.42,1.42,0,0,1,165.2,288.82Z"/><path class="cls-6" d="M148,388.68c4.2-.35,8.39.08,12.59.13,1.48,0,3,.33,4.4-.4a1.35,1.35,0,0,1-1.41,1.18q-7.46-.19-14.93-.46C148.45,389.12,148.23,388.84,148,388.68Z"/><path class="cls-6" d="M334,367.11c-3.73.49-7.46,0-11.19,0-1.73,0-3.48-.25-5.15.41.23-.3.46-.84.7-.85C323.6,366.52,328.84,365.94,334,367.11Z"/><path class="cls-6" d="M273.42,393.61c3.66-.37,7.32.05,11,.06,1.49,0,3,.3,4.45-.19a1.37,1.37,0,0,1-1.51,1c-4.3-.09-8.59-.18-12.89-.32C274.1,394.18,273.76,393.81,273.42,393.61Z"/><path class="cls-6" d="M348.77,365c5.13-.46,10.28.43,15.4-.28-.11.23-.21.66-.35.67C358.79,365.87,353.76,366.19,348.77,365Z"/><path class="cls-6" d="M247.17,365.72c-5.21-.34-10.45,0-15.63-.72,4.62-.45,9.26-.07,13.89-.11A1.82,1.82,0,0,1,247.17,365.72Z"/><path class="cls-6" d="M248.83,417.34l15.53.1C260.47,418.65,251.46,418.59,248.83,417.34Z"/><path class="cls-6" d="M332.35,318.21c4.86-1,9.78-.77,14.69-.91a1.77,1.77,0,0,1-1.35.78C341.24,318.13,336.8,318.65,332.35,318.21Z"/><path class="cls-6" d="M222.57,345.78c-3,.48-6.11,0-9.16.07-1.59,0-3.2-.28-4.76.29.26-.28.52-.79.78-.79C213.82,345.25,218.23,344.65,222.57,345.78Z"/><path class="cls-6" d="M203,364.7a89.92,89.92,0,0,1-13.23-.51C194.15,364.08,198.59,363.36,203,364.7Z"/><path class="cls-5" d="M331.6,399.59c-1.43.52-2.51,1-3.61,1.28a.88.88,0,0,1-1.23-.66c-.15-.72.05-1.37.92-1.4A5.49,5.49,0,0,1,331.6,399.59Z"/><path class="cls-6" d="M231.59,395a41,41,0,0,1-9.89-.49C225,394.33,228.34,393.82,231.59,395Z"/><path class="cls-6" d="M289,363.3l9.83.8c-2.75.45-5.51.13-8.27.15A1.49,1.49,0,0,1,289,363.3Z"/><path class="cls-6" d="M325.82,395.3c3.29.19,6.61,0,9.86.75C332.37,396.09,329,397,325.82,395.3Z"/><path class="cls-6" d="M335.67,276.43c3-.4,6,.32,9,.22C341.66,277.94,338.66,277.46,335.67,276.43Z"/><path class="cls-6" d="M272.56,396.59a34,34,0,0,1-9.07-.45C266.53,395.93,269.58,395.52,272.56,396.59Z"/><path class="cls-6" d="M315.18,398.27a31.92,31.92,0,0,1-9.1-.47C309.13,397.57,312.19,397.17,315.18,398.27Z"/><path class="cls-6" d="M211.11,394.18c-3,.69-6-.69-9,.31C204.44,393.23,207.21,393.14,211.11,394.18Z"/><path class="cls-6" d="M189.8,393.34a31.85,31.85,0,0,1-9.09-.47C183.76,392.66,186.82,392.24,189.8,393.34Z"/><path class="cls-6" d="M326.76,275.44c2.72.3,5.51,0,8.16.93C332.16,276.41,329.31,277.23,326.76,275.44Z"/><path class="cls-6" d="M266.75,417.34a18.77,18.77,0,0,1,7.41-.76C271.79,417.83,269.27,417.51,266.75,417.34Z"/><path class="cls-6" d="M316,319c2.31-1,4.88-.14,7.19-1.11-.26,1.19-1.22,1.22-2.13,1.22C319.35,319.15,317.67,319.08,316,319Z"/><path class="cls-6" d="M167.71,331.33a14.16,14.16,0,0,1,6.48.83C172,332.26,169.74,332.63,167.71,331.33Z"/><path class="cls-6" d="M207.05,361.57c2.07,1.12,4.44.08,6.55.87C211.39,362.4,209,363.65,207.05,361.57Z"/><path class="cls-6" d="M227.49,416.6c2.26-.1,4.51-.21,6.66.7C231.89,417.48,229.6,417.84,227.49,416.6Z"/><path class="cls-6" d="M343.08,321.56a16.76,16.76,0,0,1-6.61.43C338.62,321,340.85,321.36,343.08,321.56Z"/><path class="cls-6" d="M174.26,332.17a11,11,0,0,1,5.76.76C178.05,333.09,176.06,333.37,174.26,332.17Z"/><path class="cls-6" d="M274.22,416.57a12.19,12.19,0,0,1,5.7-.78C278.15,417,276.18,416.71,274.22,416.57Z"/><path class="cls-6" d="M220.93,415.79a12.05,12.05,0,0,1,5.76.76C224.71,416.72,222.73,417,220.93,415.79Z"/><path class="cls-6" d="M177.45,258.37a9,9,0,0,1,5-.77C180.9,258.8,179.17,258.56,177.45,258.37Z"/><path class="cls-6" d="M162.76,330.5a10.77,10.77,0,0,1,4.89.82C166,331.49,164.21,331.83,162.76,330.5Z"/><path class="cls-6" d="M250.62,362.16c1.37,1.36,3.27.39,4.78,1.1-1.21.06-2.41.17-3.61.16A1.05,1.05,0,0,1,250.62,362.16Z"/><path class="cls-6" d="M333.2,280.24a10.09,10.09,0,0,1-5-.48C329.93,279.56,331.63,279.24,333.2,280.24Z"/><path class="cls-6" d="M171.72,259.2a8.61,8.61,0,0,1,4.95-.75C175.16,259.6,173.44,259.39,171.72,259.2Z"/><path class="cls-6" d="M155.29,261.63c1.55-1,3.26-.89,5-.78C158.76,262.05,157,261.76,155.29,261.63Z"/><path class="cls-6" d="M275.73,258.33c1.57-.94,3.3-.75,5-.7C279.21,258.84,277.45,258.5,275.73,258.33Z"/><path class="cls-6" d="M252.75,264.05c1.26-1.18,2.75-.87,4.23-.67C255.69,264.37,254.2,264.09,252.75,264.05Z"/><path class="cls-6" d="M309.47,232.22a4.25,4.25,0,0,1,.19-1.14c.16-.35.6-.9.73-.86.68.24.34.82.24,1.28a3.6,3.6,0,0,1-.35.71Z"/><path class="cls-6" d="M177.5,241.28c1.39-.09,2.84-.4,3.94.86A3.15,3.15,0,0,1,177.5,241.28Z"/><path class="cls-6" d="M166.83,259.57a12.05,12.05,0,0,1,4.1-.3A3.34,3.34,0,0,1,166.83,259.57Z"/><path class="cls-6" d="M325.11,251.71c1.78,0,1.42.92.84,1.94C324.79,253.39,324.8,252.61,325.11,251.71Z"/><path class="cls-6" d="M343.86,281.06a6.67,6.67,0,0,1-4.2-.44C341.1,280.39,342.55,280.1,343.86,281.06Z"/><path class="cls-6" d="M215.2,414.93a6.2,6.2,0,0,1,4.22.71C217.94,415.87,216.47,416,215.2,414.93Z"/><path class="cls-6" d="M280.7,415.71a6.23,6.23,0,0,1,4.14-.73C283.61,416,282.16,415.91,280.7,415.71Z"/><path class="cls-6" d="M155.38,329.72l4.08,0C158.09,331.1,156.73,330.59,155.38,329.72Z"/><path class="cls-6" d="M321.88,251.1c.79-1.35,1.49-1.36,3.05,0Z"/><path class="cls-6" d="M303.78,248.62c1-1.38,2.12-1,3.28-.31A8.65,8.65,0,0,1,303.78,248.62Z"/><path class="cls-6" d="M174.24,335.24a5,5,0,0,1-3.37-.55C172.06,334.47,173.25,334.26,174.24,335.24Z"/><path class="cls-6" d="M167.68,334.39a5.19,5.19,0,0,1-3.35-.53C165.51,333.64,166.69,333.42,167.68,334.39Z"/><path class="cls-6" d="M322.54,322.76a5.43,5.43,0,0,1-3.29.08A2.61,2.61,0,0,1,322.54,322.76Z"/><path class="cls-6" d="M341.41,364.93l3.07-.27C343.58,366.23,342.51,365.79,341.41,364.93Z"/><path class="cls-6" d="M285.61,414.89a4.33,4.33,0,0,1,3.33-.7A3.43,3.43,0,0,1,285.61,414.89Z"/><path class="cls-6" d="M211.1,414.17a4.32,4.32,0,0,1,3.38.68A3.49,3.49,0,0,1,211.1,414.17Z"/><path class="cls-6" d="M180.77,260.89a5.59,5.59,0,0,1-3.29.55C178.45,260.47,179.61,260.69,180.77,260.89Z"/><path class="cls-6" d="M175.05,261.72a5.49,5.49,0,0,1-3.31.55C172.71,261.3,173.88,261.52,175.05,261.72Z"/><path class="cls-6" d="M207,413.35a4.38,4.38,0,0,1,3.31.73A3.4,3.4,0,0,1,207,413.35Z"/><path class="cls-6" d="M252.9,395.83l-3.28.3C250.59,394.67,251.73,395.05,252.9,395.83Z"/><path class="cls-6" d="M244.7,18.8a5.38,5.38,0,0,1-3.4-.39C242.48,18.14,243.66,17.9,244.7,18.8Z"/><path class="cls-6" d="M234.14,18.4a5.72,5.72,0,0,1-3.39.39C231.79,17.89,233,18.13,234.14,18.4Z"/><path class="cls-6" d="M154.57,332.69a3.13,3.13,0,0,1-2.56-.44A2.3,2.3,0,0,1,154.57,332.69Z"/><path class="cls-6" d="M264.38,296.14l2.44.08C266,297.07,265.15,297.34,264.38,296.14Z"/><path class="cls-6" d="M180,336a3.09,3.09,0,0,1-2.56-.44A2.29,2.29,0,0,1,180,336Z"/><path class="cls-6" d="M162.81,263.93h-2.55C161.11,263.12,162,262.87,162.81,263.93Z"/><path class="cls-6" d="M294,412.29l2.34.25C295.45,413.29,294.6,413.84,294,412.29Z"/><path class="cls-6" d="M164.25,255c.85-.66,1.71-1.58,2.38.18Z"/><path class="cls-6" d="M308.39,234.53a3.49,3.49,0,0,1,1.07-2.27C309.57,233.23,309.47,234.11,308.39,234.53Z"/><path class="cls-6" d="M208.66,364.67l-1.68.23C207.43,364,208,364,208.66,364.67Z"/><path class="cls-6" d="M203.31,366.61l-.09-1.74C204,365.41,203.94,366,203.31,366.61Z"/><path class="cls-6" d="M169.32,392.54l-1.68.08C168.17,391.85,168.73,391.85,169.32,392.54Z"/><path class="cls-6" d="M180.78,333l1.6,0C181.86,333.81,181.33,333.67,180.78,333Z"/><path class="cls-6" d="M294.7,397.46l-1.7.13C293.51,396.78,294.08,396.77,294.7,397.46Z"/><path class="cls-6" d="M374.11,284c.67.3.68.92.74,1.52C374,285.26,374,284.64,374.11,284Z"/><path class="cls-6" d="M217.47,286.18c-.63.14-.93-.28-1.19-.73C216.88,285.36,217.38,285.44,217.47,286.18Z"/><path class="cls-6" d="M323.33,403.44l1.05-.75C324.67,403.83,323.9,403.5,323.33,403.44Z"/><path class="cls-6" d="M350.42,347.68c-.68.08-1.36.19-1.3-.85C349.75,346.81,350.08,347.25,350.42,347.68Z"/><path class="cls-6" d="M325,347.43c-.64.22-1.23.35-1.37-.59A1.21,1.21,0,0,1,325,347.43Z"/><path class="cls-6" d="M184.07,345.19c-.67.11-1.39.29-1.26-.82C183.41,344.36,183.73,344.8,184.07,345.19Z"/><path class="cls-6" d="M206.06,346.83l-.47-.77C206.06,346.13,206.31,346.34,206.06,346.83Z"/><path class="cls-6" d="M327.4,346.91c0,.61-.26.78-.8.54Z"/><path class="cls-6" d="M205,354.32a.68.68,0,0,1,.22-1A.7.7,0,0,1,205,354.32Z"/><path class="cls-6" d="M307.83,240.94c-.54.23-.9.15-.87-.54A.84.84,0,0,1,307.83,240.94Z"/><path class="cls-6" d="M120.29,200a.82.82,0,0,1,.32,1.06A.75.75,0,0,1,120.29,200Z"/><path class="cls-6" d="M364.14,183.82a.56.56,0,0,1,.13-.87A.59.59,0,0,1,364.14,183.82Z"/><path class="cls-6" d="M344.38,260.35c.63-.35,1.07-.34,1,.55Z"/><path class="cls-6" d="M373.33,283.09a.75.75,0,0,1,.71.78A.73.73,0,0,1,373.33,283.09Z"/><polygon class="cls-6" points="218.26 286.74 217.91 286.75 217.83 286.41 218.2 286.4 218.26 286.74"/><polygon class="cls-6" points="219.28 287.63 218.99 287.57 218.99 287.27 219.27 287.32 219.28 287.63"/><path class="cls-6" d="M292.19,393.74l1,.63A.69.69,0,0,1,292.19,393.74Z"/><path class="cls-6" d="M292.47,398.57a3.6,3.6,0,0,1,.22.54c0,.09,0,.2-.06.3a3.63,3.63,0,0,1-.35-.55C292.25,398.8,292.4,398.67,292.47,398.57Z"/><path class="cls-6" d="M289.72,414.08l.93-.5A.67.67,0,0,1,289.72,414.08Z"/><path class="cls-6" d="M252.1,365.53l-.88.09C251.46,365.06,251.75,365,252.1,365.53Z"/><path class="cls-6" d="M289.21,367.43a5.15,5.15,0,0,1,.23.54c0,.09-.05.2-.07.3a3.33,3.33,0,0,1-.36-.56S289.14,367.52,289.21,367.43Z"/><path class="cls-7" d="M153.58,227.45c-1.69-.13-3-1.16-4.34-2a6.71,6.71,0,0,0-7.91-.12c-1.25.77-2.61,1.36-3.92,2-1.11-.77-1.3-2-1.68-3.17-4.14-12.65-5.69-25.72-6.38-38.93-.28-5.31.39-10.61.56-15.91A133.79,133.79,0,0,1,132,151.09a215.92,215.92,0,0,1,14.19-48.89,188.52,188.52,0,0,1,24.59-42.26c.56-.71,1.48-1.32.92-2.46l.66-.79c.83.37,1.26-.28,1.64-.77a128.25,128.25,0,0,1,10.41-11.2,1.68,1.68,0,0,0,.54-1.45c5.7-4.61,11.18-9.53,18-12.61,1.61-.73,3.18-1.65,5-.75,1.44,1,2.92,1.88,4.79,1.47l1.36.59c-.05.51.33.73.7.85,11.25,3.79,22,8.83,32.8,13.64a7.31,7.31,0,0,0,2.74.74c1,0,2,.09,2.38-1.07s-.4-1.81-1.25-2.3c-2.24-1.31-4.58-2.44-6.75-3.84q-9.78-6.3-20-12c2-3.53,5.44-3.68,8.84-3.88a69.47,69.47,0,0,1,27.68,4.38c14.46,5.18,27.12,13.38,38.45,23.6,26.81,24.19,45.39,53.52,54.31,88.67,3.8,14.95,5.15,30.09,2.18,45.4a58.23,58.23,0,0,1-10,23.93,40.24,40.24,0,0,1-13.73,12,3.82,3.82,0,0,1,.66-2.31c3.08-3.92,4.83-8.53,6.78-13a83.3,83.3,0,0,0,5.55-16.2,1.43,1.43,0,0,0-.33-1.5c-.67-.5-1.28-.08-1.76.45a3.2,3.2,0,0,0-1.19,2.5,5.76,5.76,0,0,0-2.36,1.58c-1.7-1.62-.07-3.12.41-4.42A84.82,84.82,0,0,0,345.66,154c-.21-3.25-.57-6.47-2.43-9.3-1.46-4.13-1.49-8.55-2.62-12.76a42.1,42.1,0,0,0-2.37-7.36c-.27-.58-.41-1.34-1.66-1.21-1.15,2.75,1.27,5.33.71,8.06a21.64,21.64,0,0,1-6.1-3.22c-2.26-1.52-4.24-3.36-6.51-4.9-8.58-5.82-15.93-12.8-19.37-23-2.43-7.22-4.71-14.49-7.26-21.66-1.64-4.59-3.83-8.93-8-11.9a.53.53,0,0,1-.4-.4l0-.34h-.34a1.26,1.26,0,0,1-.48-.59v-.28h-.28a1.39,1.39,0,0,1-.56-.59v-.26h-.26l-.62-.6V63.4h-.3c-1.49-.57-2.47-2.16-4.22-2.17-1,1.15-.21,2.06.3,3a32.9,32.9,0,0,1,3.32,9.59c1,5.19,1.78,10.43,2.75,15.63,2.79,14.94,8.45,28.06,22.84,35.55a3.08,3.08,0,0,0,0,.61l-3.28-.21c-2.45-1.2-5.08-.49-7.62-.6a30.58,30.58,0,0,1-8.8-1.54c-13.58-4.74-24.77-12.89-34.1-23.75-1.28-1.49-2.31-3.4-4.46-4-.57-.1-1.61-1.29-1.39.53.67,5.46,1.39,10.92,2.09,16.38C246,109.28,239.55,103.63,234,96.8c-2.51-3.11-5.1-6.15-7.65-9.22-.21-.36-.41-.72-.61-1.08a1.7,1.7,0,0,0-1.35-2.35c-1.38-.58-.77-2.68-2.51-3.16a20.72,20.72,0,0,0,1.63,7.51,95.6,95.6,0,0,0,21.57,31.55,36.67,36.67,0,0,0,12.75,8,13.39,13.39,0,0,0,3.16.83c2.89.36,4.11-1.26,3-4-.62-1.59-2-2.87-2-5l7.66,5.8c.09.08.12.24.18.36a37.16,37.16,0,0,0-7.88,5.62,2.9,2.9,0,0,1-3.6.59,13.8,13.8,0,0,0-10.34-1,3.6,3.6,0,0,1-4-1.14,24.1,24.1,0,0,0-2.48-2.14,18.39,18.39,0,0,0-9.7-3.79c-11.48-1-22.92,0-34.38,0-4.24,0-7.71,2.54-11.44,4.13-1.82.77-2.15,2.65-1.85,4.41-.59.13-.86.27-1.07.22-3.16-.82-6.32-1.67-9.47-2.51-.85-3.18-.35-6.45-.61-9.67-.82-10.07-1-20.18-1.1-30.28,0-3-.06-6-1.21-8.85-1.69.14-1.74,1.65-2.15,2.67a199.64,199.64,0,0,0-9.12,30.1c-1.81,7.85-3.51,15.74-4,23.76A117.5,117.5,0,0,0,159,172.71a124.3,124.3,0,0,0,10.2,28c4,7.69,8.55,14.91,15.08,20.72a10.69,10.69,0,0,1,2.51,3.19c1.47,2.9,3,5.76,4.78,9a22.43,22.43,0,0,0-4,.36,16.51,16.51,0,0,0-3.7,1.71c-1.65.94-2.78-.18-4.11-.79-19.35-8.82-29.82-24.8-35.86-44.37a99.06,99.06,0,0,1-3.67-40.46,20.5,20.5,0,0,0,0-7.16c-1.86,4.66-1.57,9.68-2.49,14.48a64.18,64.18,0,0,0-1.29,15c.36,8.88,2.41,17.47,4.38,26.07A87.06,87.06,0,0,0,153.58,227.45ZM216.91,99.5a12.35,12.35,0,0,1-1.21-1.59c-4.39-7.94-6.7-16.6-8.48-25.4-.82-4.1-1.48-8.3-.22-12.5a1.53,1.53,0,0,0-.59-1.88c-1.75,2.13-1.08,4.68-1.21,7-.13,2.58.14,5.17,0,7.75-.11,2.29,1.52,4.46.35,7.4-2.53-7.15-5.22-13.63-6.85-20.52-.61-2.59.13-5.44-1.51-7.8-.42-1.13.46-2.41-.39-3.5-1.16.38-1.16,1.4-1.35,2.32-3.85,18.34-.81,35.24,10.56,50.36,4.94,6.57,11.07,11.61,19,14.24a6.41,6.41,0,0,0,3.84.23c0-1.51-1.16-2-1.86-2.78a17,17,0,0,1-4.36-8.21c-2.42-11.46-4.24-23-3.49-34.79.12-1.83,0-3.67,0-5.5-.4,2.78-1.52,5.37-1.79,8.14C216.53,81.49,217,90.5,216.91,99.5Z"/><path class="cls-7" d="M247,138.88c-.84-3.16-.84-3.31,1.82-3.2,3,.13,6,.45,8.95.87,1.76.25,2.76,1.18,2.68,3.31-.26,6.86,1.29,13.47,3.16,20,.46,1.62,1.79,2.3,3.2,2.92a41.72,41.72,0,0,0,9.36,2.67c3.22,2.93,7.25,3.49,11.34,3.7,3.26.16,6.58-.15,9.74.89,6.39,2.1,9.81,6.48,7.1,13.46a20.52,20.52,0,0,1-6.29,8.41c-2.85,2.37-6.42,2.78-9.64,4.13-3.24.89-3.52,1.43-2.13,4,1.25,2.3,2.85,3.72,5.76,3.77a12.45,12.45,0,0,1,6.95,2,8.09,8.09,0,0,1,3.92,6.75,26.87,26.87,0,0,1-3.46,14.9c-1.66,2.79-2.9,5.88-4.85,8.44-5.16,6.79-11.75,11.72-20.26,13.45a20.25,20.25,0,0,0-9.5,4.23,24.07,24.07,0,0,1-14.54,5.75,60.65,60.65,0,0,1-9.3-1c-5.13-.93-9.92-2.49-14.18-5.8-6.55-5.1-13.11-10.2-19.82-15.11-8.41-6.16-13.56-14.3-14-25.11-.24-6.55-1-12.93-5.95-18.17a9.9,9.9,0,0,1-2.28-9.91,37.94,37.94,0,0,0,1-12.57c-.15-3.08-1-6-4.38-7.2-3.21-1.13-5.87,0-8.11,2.37-.94,1-1.8,2.07-2.82,3-1.44,1.23-2.26,1-3.23-.66-1.47-2.57-1.59-5.53-1.83-8.31-.27-3.13-1.11-6.61,1.71-9.27,3.51.5,5.29-.85,5.12-4.16a50.13,50.13,0,0,0-1-6,14,14,0,0,1-.44-2.38c0-3,.93-3.66,3.86-2.95,2.77.67,5.51,1.47,8.3,2,1.32.24,1.95.77,2.06,2,.29,3.25.54,6.5.87,9.75.17,1.68-1.31,1.86-2.19,2.58s-1.64,1.23-1.19,2.32a1.71,1.71,0,0,0,2.68.85,2,2,0,0,1,3,.85,17.38,17.38,0,0,0,1.58,1.87c3,3.74,6.34,7.07,11.26,8.19-.08,1.37.67,1.89,1.94,2.09a81.72,81.72,0,0,0,20,.34c4.91-.46,9.87-.74,14.61-2.69.15,5.5-1.89,10.18-2.86,15.06-2.43,1.58-3.07,4.11-3.22,6.7a3.34,3.34,0,0,1-1.71,2.93,27.32,27.32,0,0,0-8,8.64c-3.66,5.93-8.81,8.67-15.91,7-2.33-.54-4.79-.39-7.15-1.08,4,3.67,9.11,3.21,13.87,4,2.66,1.56,5.27.23,7.89-.14.86,2,3,2.29,4.45,3.49.12.55.41.78,1,.54l1,.46c1.84,2.12,4.4,3.49,6,5.89a14,14,0,0,0,9.44,5.89,51.35,51.35,0,0,0,14.63.88,21.73,21.73,0,0,0,11.32-4c.95-.75,2-1.45,2.85-2.28,1.06-1,1.19-2.38,1.53-3.7.22-.83.37-2.11,1.68-1.88,1,.18.81,1.27.84,2a18,18,0,0,1-.33,5.27,12.18,12.18,0,0,0-.23,4.46,2,2,0,0,0,1.78,1.94c1.19.16,1.72-.61,2-1.59,1.26-4,2.46-8.07,2.48-12.33,0-3.26-.26-3.75-3.6-4.28-6.41-1-12.82-2.57-19.4-1.06a6.74,6.74,0,0,1-2.41,0,39.17,39.17,0,0,0-14.6.72c-6,1.34-11.81,1.54-17.61-.66a2.34,2.34,0,0,1,1.14-1.56c3.82-2.62,6.17-6.42,8-10.52,1-2.32,2.37-3.47,4.85-3.33,3.2.49,6.39,1,9.6,1.45,1.6.22,3.21.35,4.83.44a6.9,6.9,0,0,0,6.37-2.83c.9-1.25,2-2.4,3.62-2.27,2.41.21,4.38-1,6.55-1.61a26.73,26.73,0,0,0,5.32,7.47c2,2.12,4.45,3.87,6.19,6.28l1.89,3c.91,3.54.6,7.17.61,10.77,0,2.3,0,4.6.06,6.89.06,1.7.2,3.42,1.61,4.82,1.59-3,1.59-3,1.69-7.06.79-.52.8-1.36.93-2.16.38-2.29.72-4.58,2.3-6.44a2.47,2.47,0,0,0-.32-3.67c-3.74-3.09-4.67-7.62-6.09-11.8a17.55,17.55,0,0,0-4.67-7.5c-2.2-2-4.28-4.2-6.42-6.29-1.81-1.77-2.31-1.72-3.73.29-.46.67-.85,1.4-1.37,2-1.39,1.68-2.09,1.79-3.7.06a1.6,1.6,0,0,0-2.42-.34,17.44,17.44,0,0,0-2.09,2c-3.56,3.48-5.58,3.77-10.17,1.45a3.22,3.22,0,0,0-.72-3.05c-2.13-2.45-1.87-5.2-1.25-8.07.93-4.36,1.87-8.72,2.66-13.11a67.68,67.68,0,0,0,.09-22.63C248.59,140.63,248.63,139.17,247,138.88Z"/><path class="cls-2" d="M167.22,151.52c-2.82,2.66-2,6.14-1.71,9.27.24,2.78.36,5.74,1.83,8.31,1,1.69,1.79,1.89,3.23.66,1-.89,1.88-2,2.82-3,2.24-2.36,4.9-3.5,8.11-2.37,3.38,1.18,4.23,4.12,4.38,7.2a37.94,37.94,0,0,1-1,12.57,9.9,9.9,0,0,0,2.28,9.91c5,5.24,5.71,11.62,5.95,18.17.4,10.81,5.55,18.95,14,25.11,6.71,4.91,13.27,10,19.82,15.11,4.26,3.31,9,4.87,14.18,5.8a60.65,60.65,0,0,0,9.3,1c-6,1.56-11.91.63-17.57-1.62-7.73-3.06-15.32-6.4-22-11.57a54.65,54.65,0,0,0-4.85-3c-6-3.71-9.93-9.27-13.35-15.2-3.2-5.54-6.13-11.24-9.09-16.91a72.8,72.8,0,0,1-5.84-16.08c-1.4-5.53-2.95-11-4.46-16.52a2.12,2.12,0,0,0-1.3-1.73c-1.44,1.92.3,4.58-1.65,6.42a16.42,16.42,0,0,1-4.51-8.68c-2.1-9.34-2.29-18.9-2.84-28.42a5.57,5.57,0,0,1,.15-1.62c.11-.52.35-1.1,1-1.06a1.6,1.6,0,0,1,1,.57,5.46,5.46,0,0,1,1.46,3.71C166.48,148.94,166.38,150.31,167.22,151.52Z"/><path class="cls-2" d="M171.67,57.48c.56,1.14-.36,1.75-.92,2.46a188.52,188.52,0,0,0-24.59,42.26A215.92,215.92,0,0,0,132,151.09a133.79,133.79,0,0,0-2.06,18.24c-.17,5.3-.84,10.6-.56,15.91.69,13.21,2.24,26.28,6.38,38.93.38,1.16.57,2.4,1.68,3.17-.78.95-1.64,1.12-2.24-.06a43.23,43.23,0,0,1-1.71-4.16c-7.34-19.24-9.5-39.11-7.53-59.54,3.67-38,17.63-71.8,41.29-101.66C168.51,60.29,169.52,58.28,171.67,57.48Z"/><path class="cls-2" d="M290.08,66.72c4.14,3,6.33,7.31,8,11.9,2.55,7.17,4.83,14.44,7.26,21.66,3.44,10.21,10.79,17.19,19.37,23,2.27,1.54,4.25,3.38,6.51,4.9a21.64,21.64,0,0,0,6.1,3.22c1.32,6.73-.45,15.29-3.75,18.11-.85-3.1,1.45-5.85,1.21-9-2,.35-2,2.33-3.51,3.37-1.37-1.41-3.05-2.69-5.31-1.26-.85.54-1.54.14-1.89-.8a11.83,11.83,0,0,0-2.66-4.14,6.21,6.21,0,0,1,3.95-.79,7.08,7.08,0,0,0,3.17-.59c.87-.41,1.77-1,1.54-2.12-.18-.9-1-1.2-1.85-1.34a8.46,8.46,0,0,0-4.81.39c-1.46.66-2.14,0-3.05-1-2.42-2.69-4.59-5.75-8.44-6.64a3.08,3.08,0,0,1,0-.61c1.14-.19,2.05,1.6,3.49.22-3.27-3.59-6.51-7.22-9.83-10.76-3.62-3.86-6.24-8.1-6.63-13.59a111.22,111.22,0,0,0-1.7-11.3c-1.31-7.54-3-15-7-21.65A3.14,3.14,0,0,1,290.08,66.72Z"/><path class="cls-2" d="M303.34,149.42c1.94,1.65,4.26,1.36,6.54,1.24a1.16,1.16,0,0,0,1.21-.85,1.25,1.25,0,0,0-.58-1.36c-.31-.26-.63-.66-1-.7-3.72-.48-6.3-3.43-9.86-4.43-2.72-.77-5.16-2.53-7.72-3.85l.05-.34c4-.06,7.37,1.58,10.67,3.57s3.61,2,6.77,1.47c.23-1-.51-1.48-1.26-1.83C303,140,298,137.25,292.39,135.72a28.65,28.65,0,0,0-10.49-1.22c-1.84.17-1.85.09-2.71-2.3,5.85-.32,11.68-.61,17.5-1a5.79,5.79,0,0,1,4.43,1.59c3.29,2.86,6.56,5.78,10.61,7.57a2.37,2.37,0,0,1,1.64,2.49,8.65,8.65,0,0,0,.24,2.44c1.34,5.14,0,9.18-4.29,12.55-1.81,1.41-3.33,2.43-5.71,2.4-6.27-.09-12.54.13-18.81.09-2,0-4.13.35-5.84-1.2.78-1.74,2.38-2.14,4-2.29,1.48-.14,3,0,4.47-.07C293.68,156.37,299.48,155,303.34,149.42Z"/><path class="cls-2" d="M226.28,139.27c-1.7,1.14-3.44,1-5.4.36-7.3-2.39-14.28-.78-21,2.27-2.15,1-4.41,2-4.87,5-.19,1.23-2,1.42-3.09,1.42-1.34,0-1-1.39-1.12-2.26a28.41,28.41,0,0,1,.11-10.56c.61-3.08,2.15-4.56,4.94-4.42,11.3.6,22.62-.5,33.91.52,1.74.16,3.21.45,3.8,2.77a16.09,16.09,0,0,1-6.78-.36c-4.71-1.4-9.48-2.48-14.47-2.12a15,15,0,0,0-7.29,2.34c-.77.51-1.85,1.06-1.39,2.2.55,1.39,1.6.46,2.41.22A25.26,25.26,0,0,1,226.28,139.27Z"/><path class="cls-7" d="M203.25,151.15c.46-1.32.72-2.61-.23-3.87-.4-.54-.69-1.25.09-1.76a1.9,1.9,0,0,1,1.94,0,3.65,3.65,0,0,1,.86.85c4.87,5.45,12,5.94,17,.88,2.1-2.09,4.47-1.66,6.82-1.64,1.22,0,1.69,1.26,1.84,2.39q.39,2.83.66,5.68c.32,3.26-.87,5.56-4.21,6.44-1.08,0-2.16-.14-3.24-.14H209.44a14.49,14.49,0,0,1-7.25-1.92,3.2,3.2,0,0,1,1.47-.31,32.52,32.52,0,0,1,6.45.65c2.14.31,4-.83,4.11-2.41.18-2.26-1.51-2.4-3.21-2.7C208.37,152.83,205.59,152.73,203.25,151.15Z"/><path class="cls-2" d="M288.43,196.05c3.22-1.35,6.79-1.76,9.64-4.13a20.52,20.52,0,0,0,6.29-8.41c2.71-7-.71-11.36-7.1-13.46-3.16-1-6.48-.73-9.74-.89-4.09-.21-8.12-.77-11.34-3.7,8.82-.14,17.64-.27,26.46-.44,3.15-.06,4.83,2.61,7.18,4,1.61.93,1.34,3.26,1,4.94-1.66,7.36-4.37,14.23-10,19.63C297.19,197.05,293,197.61,288.43,196.05Z"/><path class="cls-2" d="M343.23,144.68c1.86,2.83,2.22,6,2.43,9.3a84.82,84.82,0,0,1-5.51,35.28c-.48,1.3-2.11,2.8-.41,4.42a76,76,0,0,1-20.22,22.75c2.37-3.15,4.63-6.37,6.72-9.7s4.28-7,6.37-10.49a77.11,77.11,0,0,0,10.87-45.84C343.35,148.5,343.31,146.59,343.23,144.68Z"/><path class="cls-2" d="M253.63,95.51c2.15.57,3.18,2.48,4.46,4,9.33,10.86,20.52,19,34.1,23.75a30.58,30.58,0,0,0,8.8,1.54c2.54.11,5.17-.6,7.62.6a33.5,33.5,0,0,1-8.13,0,54.78,54.78,0,0,0-11.8-.07c-4.08.53-7.51-.68-10.79-2.7-7.47-4.59-14.2-10-19-17.55C257,101.92,254.53,99.16,253.63,95.51Z"/><path class="cls-2" d="M153.58,227.45a87.06,87.06,0,0,1-12.66-29c-2-8.6-4-17.19-4.38-26.07a64.18,64.18,0,0,1,1.29-15,152.52,152.52,0,0,0,.86,22.81c2.71,21,11.13,38.84,28.12,52.47C162.12,231.17,157.62,229.9,153.58,227.45Z"/><path class="cls-7" d="M303.34,149.42c-3.86,5.56-9.66,7-15.89,7.37-1.49.1-3-.07-4.47.07-1.64.15-3.24.55-4,2.29-3-.13-5.2-2.19-7.76-3.32-1.36-.61-1.06-2.85-1.11-4.86,2.56.78,4.87,1.42,7.15.67.41-1.49-.78-1.36-1.37-1.72-1-.62-2.46-.9-2.2-2.52s1.7-1.5,3.14-2c.86,3.27,2.88,5.36,6.38,5.71,3.72.38,5.62-2.23,7.75-4.64l2.64,2.47c-.06,1.13-1.8,1.14-1.7,2.41.18.17.35.47.53.48,2.84,0,5.27-1.19,7.61-2.58C301.22,148.56,302.3,147.7,303.34,149.42Z"/><path class="cls-2" d="M224.7,28q10.19,5.64,20,12c2.17,1.4,4.51,2.53,6.75,3.84.85.49,1.61,1.17,1.25,2.3s-1.42,1.09-2.38,1.07a7.31,7.31,0,0,1-2.74-.74c-10.83-4.81-21.55-9.85-32.8-13.64-.37-.12-.75-.34-.7-.85,4.35,1.76,7.4-.21,10-3.47A2.75,2.75,0,0,1,224.7,28Z"/><path class="cls-2" d="M226.37,87.58c2.55,3.07,5.14,6.11,7.65,9.22,5.53,6.83,11.95,12.48,20.31,15.62a73.32,73.32,0,0,0,3.77,10.46,16.08,16.08,0,0,1-5.81-2.82c-4.68-3.11-8.49-7.2-12.28-11.26a82.88,82.88,0,0,1-13-18.61C226.57,89.42,225.74,88.64,226.37,87.58Z"/><path class="cls-2" d="M247,138.88c1.62.29,1.58,1.75,1.75,2.82a67.68,67.68,0,0,1-.09,22.63c-.79,4.39-1.73,8.75-2.66,13.11-.62,2.87-.88,5.62,1.25,8.07a3.22,3.22,0,0,1,.72,3.05c-3.91-2-5.63-5.14-5.43-9.61a218.65,218.65,0,0,1,3.68-28.3C246.94,146.71,246.34,142.77,247,138.88Z"/><path class="cls-2" d="M234.83,181.2c1-4.88,3-9.56,2.86-15.06-4.74,2-9.7,2.23-14.61,2.69a81.72,81.72,0,0,1-20-.34c-1.27-.2-2-.72-1.94-2.09,4.91.28,9.81.75,14.71.8,9.14.09,18-1.21,25.72-7.17-.63,6.31-2.39,12.06-3.35,17.95-.67,4.1-1,8.15,1.84,11.86-4.77-.64-5.44-2-3.36-6C238,181.4,237.81,181.12,234.83,181.2Z"/><path class="cls-2" d="M203.25,151.15c2.34,1.58,5.12,1.68,7.76,2.15,1.7.3,3.39.44,3.21,2.7-.12,1.58-2,2.72-4.11,2.41a32.52,32.52,0,0,0-6.45-.65,3.2,3.2,0,0,0-1.47.31,14.49,14.49,0,0,0,7.25,1.92h15.38c1.08,0,2.16.09,3.24.14-1.27,1-2.83.92-4.28,1-5,.32-10,.21-15,1-4.26.66-7.52-1.87-10.74-4.05a15.27,15.27,0,0,1-4.51-4.9c1.64-1.21,3.39-1,5.08-1S201.88,152.32,203.25,151.15Z"/><path class="cls-2" d="M342.1,192.1a3.2,3.2,0,0,1,1.19-2.5c.48-.53,1.09-.95,1.76-.45a1.43,1.43,0,0,1,.33,1.5,83.3,83.3,0,0,1-5.55,16.2c-1.95,4.49-3.7,9.1-6.78,13a3.82,3.82,0,0,0-.66,2.31,19,19,0,0,1-7.38,2.66h0c6.37-8.7,12.65-17.45,16.85-27.49C342.57,195.61,343.81,193.93,342.1,192.1Z"/><path class="cls-2" d="M237.39,193.63c-2.48-.14-3.83,1-4.85,3.33-1.79,4.1-4.14,7.9-8,10.52a2.34,2.34,0,0,0-1.14,1.56c-.94,0-1.92-.42-2.8.27-2.62.37-5.23,1.7-7.89.14a17.67,17.67,0,0,0,10.11-3.86,14.07,14.07,0,0,0,4.61-6.59,11.17,11.17,0,0,1,1.74-3.65C231.35,192.58,233.53,192.13,237.39,193.63Z"/><path class="cls-2" d="M285.73,221c-.1,4-.1,4-1.69,7.06-1.41-1.4-1.55-3.12-1.61-4.82-.08-2.29-.06-4.59-.06-6.89,0-3.6.3-7.23-.61-10.77l5.32,4.44C284.36,213.38,283.57,217,285.73,221Z"/><path class="cls-2" d="M279.87,202.56c-1.74-2.41-4.15-4.16-6.19-6.28a26.73,26.73,0,0,1-5.32-7.47c.29-.55,1-.94,1.33-.62,4.29,3.89,8.88,7.57,10.36,13.61C280.1,202,279.94,202.3,279.87,202.56Z"/><path class="cls-6" d="M184.92,43.27a1.68,1.68,0,0,1-.54,1.45A128.25,128.25,0,0,0,174,55.92c-.38.49-.81,1.14-1.64.77-.13-1.44,1.13-2,1.89-2.86A118.5,118.5,0,0,1,184.92,43.27Z"/><path class="cls-7" d="M292,139.13l-.05.34h-11.8C284.09,137.43,288,137.85,292,139.13Z"/><path class="cls-6" d="M212.69,31.38c-1.87.41-3.35-.46-4.79-1.47A7.48,7.48,0,0,1,212.69,31.38Z"/><path class="cls-6" d="M268.21,143.71a1.23,1.23,0,0,1,1.16-1.33.49.49,0,0,1,.55.73,2.86,2.86,0,0,1-.94,1.21C268.63,144.53,268.3,144.14,268.21,143.71Z"/><path class="cls-2" d="M224.41,84.15a1.7,1.7,0,0,1,1.35,2.35A2,2,0,0,1,224.41,84.15Z"/><path class="cls-6" d="M325,224.84h0Z"/><path class="cls-5" d="M216.91,99.5c.12-9-.38-18,.51-27,.27-2.77,1.39-5.36,1.79-8.14,0,1.83.1,3.67,0,5.5-.75,11.79,1.07,23.33,3.49,34.79a17,17,0,0,0,4.36,8.21c.7.76,1.83,1.27,1.86,2.78a6.41,6.41,0,0,1-3.84-.23c-7.95-2.63-14.08-7.67-19-14.24-11.37-15.12-14.41-32-10.56-50.36.19-.92.19-1.94,1.35-2.32.85,1.09,0,2.37.39,3.5-1.66,4.31-1.32,8.81-1.3,13.29.08,17.17,7.94,30.16,21.87,40.43C217.13,103.42,217.82,101.39,216.91,99.5Z"/><path class="cls-2" d="M216.91,99.5c.91,1.89.22,3.92.88,6.21C203.86,95.44,196,82.45,195.92,65.28c0-4.48-.36-9,1.3-13.29,1.64,2.36.9,5.21,1.51,7.8,1.63,6.89,4.32,13.37,6.85,20.52,1.17-2.94-.46-5.11-.35-7.4.11-2.58-.16-5.17,0-7.75.13-2.35-.54-4.9,1.21-7A1.53,1.53,0,0,1,207,60c-1.26,4.2-.6,8.4.22,12.5,1.78,8.8,4.09,17.46,8.48,25.4A12.35,12.35,0,0,0,216.91,99.5Z"/><polygon class="cls-6" points="289.68 66.32 289.35 66.33 289.36 65.98 289.69 65.98 289.68 66.32"/><polygon class="cls-6" points="288.88 65.39 288.58 65.42 288.61 65.12 288.89 65.11 288.88 65.39"/><polygon class="cls-6" points="288.05 64.53 287.77 64.56 287.8 64.28 288.06 64.27 288.05 64.53"/><polygon class="cls-6" points="287.18 63.68 286.88 63.7 286.87 63.39 287.17 63.4 287.18 63.68"/><path class="cls-5" d="M220.64,209.31c.88-.69,1.86-.27,2.8-.27,5.8,2.2,11.63,2,17.61.66a39.17,39.17,0,0,1,14.6-.72,6.74,6.74,0,0,0,2.41,0c6.58-1.51,13,.06,19.4,1.06,3.34.53,3.61,1,3.6,4.28,0,4.26-1.22,8.31-2.48,12.33-.31,1-.84,1.75-2,1.59a2,2,0,0,1-1.78-1.94,12.18,12.18,0,0,1,.23-4.46,18,18,0,0,0,.33-5.27c0-.76.18-1.85-.84-2-1.31-.23-1.46,1.05-1.68,1.88-.34,1.32-.47,2.72-1.53,3.7-.89.83-1.9,1.53-2.85,2.28-7.38,2-14.8,3.6-22.48,1.87-4.37-1-9-1.63-11.3-6.24-1.62-3.25-4.25-4.3-7.6-4.25l-1-.46c-.1-.58-.47-.67-1-.54C223.64,211.6,221.5,211.28,220.64,209.31Zm25.07,7.45a22.26,22.26,0,0,0,17.94-.74A31.71,31.71,0,0,0,245.71,216.76Z"/><path class="cls-2" d="M227.05,213.8c3.35-.05,6,1,7.6,4.25,2.29,4.61,6.93,5.25,11.3,6.24,7.68,1.73,15.1.12,22.48-1.87a21.73,21.73,0,0,1-11.32,4,51.35,51.35,0,0,1-14.63-.88,14,14,0,0,1-9.44-5.89C231.45,217.29,228.89,215.92,227.05,213.8Z"/><path class="cls-6" d="M225.09,212.8c.5-.13.87,0,1,.54C225.5,213.58,225.21,213.35,225.09,212.8Z"/><path class="cls-6" d="M245.71,216.76a31.71,31.71,0,0,1,17.94-.74A22.26,22.26,0,0,1,245.71,216.76Z"/><path class="cls-2" d="M337.27,141.28c.49,5.07-.76,37.22-15,52.4,0,0,4.85-38.31,3.13-51.94-.81.52-1.47.14-1.81-.76a11.31,11.31,0,0,0-2.54-4,6,6,0,0,1,3.78-.76,7,7,0,0,0,3-.56c.82-.4,1.69-.92,1.46-2-.18-.86-1-1.15-1.76-1.28a8,8,0,0,0-4.6.37c-1.41.63-2,0-2.94-.93-2.3-2.58-4.38-5.5-8.06-6.36a2.86,2.86,0,0,1,0-.58c1.09-.18,2,1.53,3.34.22-3.14-3.44-6.22-6.91-9.41-10.31-3.46-3.69-6-7.74-6.34-13-.26-3.63-1-7.22-1.62-10.81-1.26-7.2-2.87-14.31-6.66-20.71a3.36,3.36,0,0,1-.15-1.13c4,2.86,6.06,7,7.62,11.4,2.45,6.86,4.63,13.81,7,20.72,3.29,9.76,10.32,16.44,18.54,22,2.16,1.46,4.07,3.23,6.22,4.68a20.78,20.78,0,0,0,5.83,3.08C337,134.76,338.22,137.79,337.27,141.28Z"/><path class="cls-5" d="M290.08,66.72a3.14,3.14,0,0,0,.15,1.17c4,6.69,5.65,14.11,7,21.65a111.22,111.22,0,0,1,1.7,11.3c.39,5.49,3,9.73,6.63,13.59,3.32,3.54,6.56,7.17,9.83,10.76-1.44,1.38-2.35-.41-3.49-.22-14.39-7.49-20.05-20.61-22.84-35.55-1-5.2-1.73-10.44-2.75-15.63A32.9,32.9,0,0,0,283,64.2c-.51-.92-1.33-1.83-.3-3,1.75,0,2.73,1.6,4.22,2.17v.31l.3,0,.62.6,0,.28.28,0a1.39,1.39,0,0,0,.56.59l0,.3.3,0a1.26,1.26,0,0,0,.48.59v.35h.33A.53.53,0,0,0,290.08,66.72Z"/></g></g></svg>