<?xml version="1.0" encoding="utf-8"?>
<!-- Generator: Adobe Illustrator 23.0.4, SVG Export Plug-In . SVG Version: 6.00 Build 0)  -->
<svg version="1.1" id="Calque_1" xmlns="http://www.w3.org/2000/svg" xmlns:xlink="http://www.w3.org/1999/xlink" x="0px" y="0px"
	 viewBox="0 0 200 200" style="enable-background:new 0 0 200 200;" xml:space="preserve">
<style type="text/css">
	.st0{fill:#7673C0;}
	.st1{fill:#EB001B;}
	.st2{fill:#00A1DF;}
</style>
<g>
	<g>
		<path d="M60.5,176.8v-10.3c0-3.9-2.5-6.5-6.4-6.5c-2.1,0-4.2,0.6-5.8,2.9c-1.1-1.8-2.9-2.9-5.4-2.9c-1.7,0-3.5,0.5-4.8,2.4v-2
			h-3.6v16.4h3.6v-9.1c0-2.8,1.6-4.3,4-4.3c2.4,0,3.6,1.5,3.6,4.3v9.1h3.6v-9.1c0-2.8,1.6-4.3,4-4.3c2.4,0,3.6,1.5,3.6,4.3v9.1H60.5
			z M80.6,168.6v-8.2H77v2c-1.1-1.5-2.8-2.4-5.2-2.4c-4.6,0-8.2,3.6-8.2,8.6c0,5,3.6,8.6,8.2,8.6c2.3,0,4-0.9,5.2-2.4v2h3.6V168.6z
			 M67.3,168.6c0-2.9,1.9-5.2,5-5.2c2.9,0,4.9,2.3,4.9,5.2c0,3-2,5.2-4.9,5.2C69.2,173.9,67.3,171.5,67.3,168.6z M156.8,160
			c1.3,0,2.4,0.2,3.5,0.7c1.1,0.4,2,1,2.8,1.8c0.8,0.8,1.4,1.7,1.8,2.7c0.4,1,0.7,2.2,0.7,3.4c0,1.2-0.2,2.4-0.7,3.4
			c-0.4,1-1.1,2-1.8,2.7c-0.8,0.8-1.7,1.4-2.8,1.8c-1.1,0.4-2.2,0.7-3.5,0.7c-1.3,0-2.4-0.2-3.5-0.7c-1.1-0.4-2-1-2.8-1.8
			c-0.8-0.8-1.4-1.7-1.8-2.7c-0.4-1-0.7-2.2-0.7-3.4c0-1.2,0.2-2.4,0.7-3.4c0.4-1,1.1-2,1.8-2.7c0.8-0.8,1.7-1.4,2.8-1.8
			C154.4,160.2,155.5,160,156.8,160z M156.8,163.4c-0.7,0-1.4,0.1-2,0.4c-0.6,0.3-1.2,0.6-1.6,1.1c-0.5,0.5-0.8,1-1.1,1.7
			c-0.3,0.6-0.4,1.4-0.4,2.1c0,0.8,0.1,1.5,0.4,2.1c0.3,0.6,0.6,1.2,1.1,1.7c0.5,0.5,1,0.8,1.6,1.1c0.6,0.3,1.3,0.4,2,0.4
			s1.4-0.1,2-0.4c0.6-0.3,1.2-0.6,1.6-1.1c0.5-0.5,0.8-1,1.1-1.7c0.3-0.6,0.4-1.4,0.4-2.1c0-0.8-0.1-1.5-0.4-2.1
			c-0.3-0.6-0.6-1.2-1.1-1.7c-0.5-0.5-1-0.8-1.6-1.1C158.2,163.5,157.5,163.4,156.8,163.4z M100,168.6c0-5.1-3.2-8.6-7.8-8.6
			c-4.8,0-8.2,3.5-8.2,8.6c0,5.2,3.5,8.6,8.4,8.6c2.5,0,4.7-0.6,6.7-2.3l-1.7-2.6c-1.4,1.1-3.1,1.7-4.8,1.7c-2.3,0-4.4-1.1-4.9-4
			h12.2C99.9,169.6,100,169.1,100,168.6z M87.8,167.2c0.4-2.4,1.8-4,4.4-4c2.3,0,3.8,1.4,4.1,4H87.8z M115,164.6
			c-1-0.6-3-1.4-5.1-1.4c-2,0-3.1,0.7-3.1,1.9c0,1.1,1.2,1.4,2.8,1.6l1.7,0.2c3.6,0.5,5.7,2,5.7,4.9c0,3.1-2.7,5.3-7.5,5.3
			c-2.7,0-5.1-0.7-7.1-2.1l1.7-2.8c1.2,0.9,3,1.7,5.4,1.7c2.4,0,3.7-0.7,3.7-2c0-0.9-0.9-1.4-2.9-1.7l-1.7-0.2
			c-3.7-0.5-5.7-2.2-5.7-4.8c0-3.3,2.7-5.2,6.8-5.2c2.6,0,5,0.6,6.7,1.7L115,164.6z M132.1,163.7h-5.8v7.4c0,1.6,0.6,2.7,2.4,2.7
			c0.9,0,2.1-0.3,3.2-0.9l1,3c-1.1,0.8-2.9,1.3-4.5,1.3c-4.2,0-5.7-2.3-5.7-6.1v-7.5h-3.3v-3.3h3.3l0-5h3.6l0,5h5.8V163.7z
			 M144.4,160c0.7,0,1.7,0.1,2.5,0.4l-1.1,3.4c-0.8-0.3-1.5-0.4-2.2-0.4c-2.3,0-3.5,1.5-3.5,4.2v9.2h-3.6v-16.4h3.5v2
			C141,161,142.4,160,144.4,160L144.4,160z M169.1,174.4c0.2,0,0.4,0,0.6,0.1c0.2,0.1,0.4,0.2,0.5,0.3c0.2,0.1,0.3,0.3,0.4,0.5
			c0.1,0.2,0.1,0.4,0.1,0.6c0,0.2,0,0.4-0.1,0.6c-0.1,0.2-0.2,0.4-0.4,0.5c-0.2,0.1-0.3,0.3-0.5,0.4c-0.2,0.1-0.4,0.1-0.6,0.1
			c-0.2,0-0.5,0-0.7-0.1c-0.2-0.1-0.4-0.2-0.5-0.4c-0.1-0.1-0.3-0.3-0.4-0.5c-0.1-0.2-0.1-0.4-0.1-0.6c0-0.2,0-0.4,0.1-0.6
			c0.1-0.2,0.2-0.4,0.4-0.5c0.1-0.1,0.3-0.3,0.5-0.3C168.6,174.5,168.8,174.4,169.1,174.4z M169.1,177.3c0.2,0,0.3,0,0.5-0.1
			c0.2-0.1,0.3-0.2,0.4-0.3c0.1-0.1,0.2-0.2,0.3-0.4c0.1-0.2,0.1-0.3,0.1-0.5s0-0.3-0.1-0.5c-0.1-0.2-0.2-0.3-0.3-0.4
			c-0.1-0.1-0.2-0.2-0.4-0.3c-0.2-0.1-0.3-0.1-0.5-0.1c-0.2,0-0.3,0-0.5,0.1c-0.2,0.1-0.3,0.2-0.4,0.3c-0.1,0.1-0.2,0.2-0.3,0.4
			c-0.1,0.2-0.1,0.3-0.1,0.5s0,0.3,0.1,0.5c0.1,0.2,0.2,0.3,0.3,0.4c0.1,0.1,0.2,0.2,0.4,0.3C168.7,177.3,168.9,177.3,169.1,177.3z
			 M169.2,175.3c0.2,0,0.3,0,0.4,0.1c0.1,0.1,0.2,0.2,0.2,0.4c0,0.1,0,0.2-0.1,0.3c-0.1,0.1-0.2,0.1-0.4,0.1l0.5,0.6h-0.4l-0.5-0.6
			h-0.1v0.6h-0.3v-1.5H169.2z M168.8,175.6v0.4h0.4c0.1,0,0.2,0,0.2-0.1c0.1,0,0.1-0.1,0.1-0.2c0-0.1,0-0.1-0.1-0.2
			c-0.1,0-0.1,0-0.2,0H168.8z"/>
		<g id="XMLID_12_">
			<rect x="73" y="35.5" class="st0" width="54" height="97.1"/>
			<path id="XMLID_16_" class="st1" d="M76.4,84c0-19.7,9.2-37.2,23.6-48.5c-10.5-8.3-23.8-13.2-38.2-13.2
				C27.7,22.3,0.1,49.9,0.1,84c0,34.1,27.6,61.7,61.7,61.7c14.4,0,27.7-4.9,38.2-13.2C85.6,121.3,76.4,103.7,76.4,84z"/>
			<path class="st2" d="M194,122.3v-2h0.8v-0.4h-2v0.4h0.8v2H194z M198,122.3v-2.4h-0.6l-0.7,1.6l-0.7-1.6h-0.6v2.4h0.4v-1.8
				l0.7,1.6h0.5l0.7-1.6v1.8H198z"/>
			<path class="st2" d="M199.9,84c0,34.1-27.6,61.7-61.7,61.7c-14.4,0-27.7-4.9-38.2-13.2c14.4-11.3,23.6-28.8,23.6-48.5
				s-9.2-37.2-23.6-48.5c10.5-8.3,23.8-13.2,38.2-13.2C172.3,22.3,199.9,49.9,199.9,84z"/>
		</g>
	</g>
</g>
</svg>
