<?xml version="1.0" encoding="utf-8"?>
<!-- Generator: Adobe Illustrator 23.0.4, SVG Export Plug-In . SVG Version: 6.00 Build 0)  -->
<svg version="1.1" id="Calque_1" xmlns="http://www.w3.org/2000/svg" xmlns:xlink="http://www.w3.org/1999/xlink" x="0px" y="0px"
	 viewBox="0 0 200 200" style="enable-background:new 0 0 200 200;" xml:space="preserve">
<style type="text/css">
	.st0{fill:#231F20;}
	.st1{fill:#F79410;}
	.st2{fill:#FF5F00;}
	.st3{fill:#EB001B;}
	.st4{fill:#F79E1B;}
</style>
<g>
	<path class="st0" d="M196,175.7v0.4h0.4c0.1,0,0.1,0,0.2-0.1c0,0,0.1-0.1,0.1-0.2c0-0.1,0-0.1-0.1-0.1c-0.1,0-0.1-0.1-0.2-0.1
		L196,175.7L196,175.7z M196.4,175.4c0.2,0,0.3,0,0.4,0.1c0.1,0.1,0.2,0.2,0.2,0.4c0,0.1,0,0.2-0.1,0.3c-0.1,0.1-0.2,0.1-0.4,0.1
		l0.5,0.6h-0.4l-0.5-0.6H196v0.6h-0.3v-1.5L196.4,175.4L196.4,175.4z M196.3,177.5c0.2,0,0.3,0,0.5-0.1c0.1-0.1,0.3-0.2,0.4-0.3
		c0.1-0.1,0.2-0.3,0.3-0.4c0.1-0.3,0.1-0.7,0-1c-0.1-0.1-0.2-0.3-0.3-0.4c-0.1-0.1-0.3-0.2-0.4-0.3c-0.2-0.1-0.3-0.1-0.5-0.1
		c-0.2,0-0.3,0-0.5,0.1c-0.2,0.1-0.3,0.2-0.4,0.3c-0.4,0.4-0.5,0.9-0.3,1.4c0.1,0.2,0.2,0.3,0.3,0.4c0.1,0.1,0.3,0.2,0.4,0.3
		C196,177.4,196.1,177.5,196.3,177.5 M196.3,174.6c0.4,0,0.9,0.2,1.2,0.5c0.2,0.1,0.3,0.3,0.4,0.5c0.2,0.4,0.2,0.9,0,1.3
		c-0.1,0.2-0.2,0.4-0.4,0.5c-0.2,0.1-0.3,0.3-0.5,0.4c-0.2,0.1-0.4,0.1-0.6,0.1c-0.2,0-0.4,0-0.7-0.1c-0.2-0.1-0.4-0.2-0.5-0.4
		c-0.1-0.2-0.3-0.3-0.3-0.5c-0.2-0.4-0.2-0.9,0-1.3c0.1-0.2,0.2-0.4,0.4-0.5c0.2-0.2,0.3-0.3,0.5-0.4
		C195.9,174.6,196.1,174.6,196.3,174.6 M43.2,168.7c0-2.9,1.9-5.3,5-5.3c3,0,4.9,2.3,4.9,5.3c0,3-2,5.3-4.9,5.3
		C45.1,174,43.2,171.6,43.2,168.7 M56.5,168.7v-8.2h-3.6v2c-1.1-1.5-2.8-2.4-5.2-2.4c-4.6,0-8.2,3.6-8.2,8.6c0,5,3.6,8.6,8.2,8.6
		c2.3,0,4.1-0.9,5.2-2.4v2h3.6L56.5,168.7L56.5,168.7z M177.1,168.7c0-2.9,1.9-5.3,5-5.3c3,0,4.9,2.3,4.9,5.3c0,3-2,5.3-4.9,5.3
		C179,174,177.1,171.6,177.1,168.7 M190.4,168.7v-14.8h-3.6v8.6c-1.1-1.5-2.8-2.4-5.2-2.4c-4.6,0-8.2,3.6-8.2,8.6
		c0,5,3.6,8.6,8.2,8.6c2.3,0,4.1-0.9,5.2-2.4v2h3.6V168.7z M100.8,163.3c2.3,0,3.8,1.4,4.2,4h-8.5
		C96.8,164.9,98.2,163.3,100.8,163.3 M100.9,160.1c-4.8,0-8.2,3.5-8.2,8.6c0,5.2,3.5,8.6,8.4,8.6c2.5,0,4.7-0.6,6.7-2.3l-1.7-2.6
		c-1.4,1.1-3.1,1.7-4.8,1.7c-2.3,0-4.4-1.1-4.9-4h12.2c0-0.4,0.1-0.9,0.1-1.4C108.6,163.6,105.5,160.1,100.9,160.1 M143.9,168.7
		c0-2.9,1.9-5.3,5-5.3c3,0,4.9,2.3,4.9,5.3s-2,5.3-4.9,5.3C145.8,174,143.9,171.6,143.9,168.7 M157.2,168.7v-8.2h-3.6v2
		c-1.1-1.5-2.8-2.4-5.2-2.4c-4.6,0-8.2,3.6-8.2,8.6c0,5,3.6,8.6,8.2,8.6c2.3,0,4-0.9,5.2-2.4v2h3.6L157.2,168.7L157.2,168.7z
		 M123.8,168.7c0,5,3.5,8.6,8.8,8.6c2.5,0,4.1-0.6,5.9-2l-1.7-2.9c-1.3,1-2.7,1.5-4.3,1.5c-2.8,0-4.9-2.1-4.9-5.3
		c0-3.2,2.1-5.2,4.9-5.3c1.5,0,3,0.5,4.3,1.5l1.7-2.9c-1.8-1.4-3.4-2-5.9-2C127.3,160.1,123.8,163.7,123.8,168.7 M169.8,160.1
		c-2.1,0-3.4,1-4.3,2.4v-2h-3.5v16.4h3.6v-9.2c0-2.7,1.2-4.2,3.5-4.2c0.8,0,1.5,0.1,2.2,0.4l1.1-3.4
		C171.5,160.2,170.5,160.1,169.8,160.1 M74.1,161.8c-1.7-1.1-4.1-1.7-6.7-1.7c-4.2,0-6.8,2-6.8,5.3c0,2.7,2,4.3,5.7,4.8l1.7,0.2
		c2,0.3,2.9,0.8,2.9,1.7c0,1.3-1.3,2-3.7,2c-2.5,0-4.3-0.8-5.5-1.7l-1.7,2.8c2,1.4,4.4,2.1,7.1,2.1c4.7,0,7.5-2.2,7.5-5.4
		c0-2.9-2.2-4.4-5.7-4.9l-1.7-0.2c-1.5-0.2-2.8-0.5-2.8-1.6c0-1.2,1.2-1.9,3.1-1.9c2.1,0,4.1,0.8,5.1,1.4L74.1,161.8L74.1,161.8z
		 M120.2,160.1c-2.1,0-3.4,1-4.3,2.4v-2h-3.5v16.4h3.6v-9.2c0-2.7,1.2-4.2,3.5-4.2c0.8,0,1.5,0.1,2.2,0.4l1.1-3.4
		C121.9,160.2,120.9,160.1,120.2,160.1 M89.7,160.5h-5.8v-5h-3.6v5H77v3.3h3.3v7.5c0,3.8,1.5,6.1,5.7,6.1c1.5,0,3.3-0.5,4.5-1.3
		l-1-3.1c-1.1,0.6-2.2,0.9-3.2,0.9c-1.8,0-2.4-1.1-2.4-2.7v-7.4h5.8L89.7,160.5z M36.4,176.9v-10.3c0-3.9-2.5-6.5-6.5-6.5
		c-2.1,0-4.3,0.6-5.8,2.9c-1.1-1.8-2.9-2.9-5.4-2.9c-1.8,0-3.5,0.5-4.8,2.4v-2h-3.6v16.4H14v-9.1c0-2.8,1.6-4.4,4-4.4
		c2.4,0,3.6,1.5,3.6,4.3v9.1h3.6v-9.1c0-2.8,1.6-4.4,4-4.4c2.4,0,3.6,1.5,3.6,4.3v9.1L36.4,176.9z"/>
	<path class="st1" d="M198.1,122.3v-2.4h-0.6l-0.7,1.6l-0.7-1.6h-0.6v2.4h0.4v-1.8l0.7,1.6h0.5l0.7-1.6v1.8H198.1L198.1,122.3z
		 M194.1,122.3v-2h0.8v-0.4h-2v0.4h0.8v2H194.1L194.1,122.3z"/>
	<path class="st2" d="M127,132.6H73V35.4H127L127,132.6z"/>
	<path class="st3" d="M76.4,84c0-19.7,9.2-37.3,23.6-48.6c-10.9-8.6-24.3-13.2-38.2-13.2C27.7,22.2,0,49.9,0,84s27.7,61.8,61.8,61.8
		c13.9,0,27.3-4.6,38.2-13.2C85.6,121.3,76.4,103.7,76.4,84"/>
	<path class="st4" d="M200,84c0,34.2-27.7,61.8-61.8,61.8c-13.9,0-27.3-4.6-38.2-13.2c14.4-11.3,23.6-28.9,23.6-48.6
		s-9.2-37.3-23.6-48.6c10.9-8.6,24.3-13.2,38.2-13.2C172.3,22.2,200,49.9,200,84"/>
</g>
</svg>
