<?xml version="1.0" encoding="utf-8"?>
<!-- Generator: Adobe Illustrator 23.0.4, SVG Export Plug-In . SVG Version: 6.00 Build 0)  -->
<svg version="1.1" id="Calque_1" xmlns="http://www.w3.org/2000/svg" xmlns:xlink="http://www.w3.org/1999/xlink" x="0px" y="0px"
	 viewBox="0 0 487.7 304.1" style="enable-background:new 0 0 487.7 304.1;" xml:space="preserve">
<style type="text/css">
	.st0{opacity:0.34;}
	.st1{fill:#10434B;}
</style>
<title>micro-onde</title>
<g class="st0">
	<g id="Calque_1-2">
		<path class="st1" d="M481,3.9c1.6,0.6,3,1.8,3.8,3.3c1.6,2.9,2.3,6.2,2.2,9.5c0,15,0,30.1,0,45.1c0.2,54.7,0.3,109.3,0.5,163.9
			c0,10.2,0.2,20.3,0.2,30.5c0,2.1,0,4.2,0,6.2c0.1,5.5-0.3,11-1.2,16.5c-1.1,6.2-1.7,12.5-2.5,18.8c-0.4,2.9-0.6,3.2-3.6,3.4
			c-8.5,0.4-17.1,0.7-25.6,1c-4.1,0.2-8.1,0.4-12.2,0.6c-4.7,0.2-9.4,0.3-14.1,0.3c-1-0.1-2-0.6-2.7-1.3c-0.9-0.8-2.1-1.2-3.3-1.2
			c-12.9,0.2-25.8,0.4-38.6,0.4c-68.8,0-137.6,0-206.4-0.1c-37,0-74.1,0.1-111.1,0.2c-2,0-3.7,0-5.1,1.9c-1,1.4-2.7,1.4-4.2,1.3
			c-13.1-0.4-26.2-1.6-39.3-1.3c-2.7,0.1-5.4-0.2-8.1-0.3c-1,0.1-1.9-0.5-2.2-1.5c-1.8-6.6-4.3-13-4.7-20c-0.3-1.7,0.5-3.4,1.8-4.3
			c0.7-0.5,1.3-1.1,2.3-1.9c-1.8-0.1-3.2-0.2-4.6-0.3c-1.6-0.1-2-0.5-2.1-2C0,271.3,0,270.2,0,269c0.1-10.7,0.3-21.4,0.3-32.1
			c0.1-14.4,0.1-28.8,0.2-43.2c0.2-23,0.3-45.9,0.5-68.9c0.2-30.1,0.4-60.2,0.5-90.2c0-8.4,0.1-16.8,0.1-25.2C1.6,8.3,1.8,7.3,3,7
			c0.3-0.1,0.6-0.3,0.8-0.6C5.5,4.1,8,3.5,10.6,3.3c8-0.7,16-1,24-0.7c4.9,0.3,9.8,0,14.6,0c2.1,0,4.3,0.3,6.4,0.3
			c2.4,0,4.8-0.2,7.2-0.2c4.9,0,9.7,0,14.6,0c5.8,0,11.5,0.2,17.3,0.1S106.2,2.2,112,2c3-0.1,6.1,0,9.1,0l40.8-0.2
			c6.5,0,12.9,0,19.4-0.1c10.6-0.1,21.3-0.2,31.9-0.4c6.4-0.2,12.9-1,19.4-1c8.7,0,17.4,0.6,26.1,0.7c11.5,0.3,23,0.4,34.5,0.6
			c0.6,0,1.1,0,1.7,0c5.3-0.1,10.5-0.2,15.8-0.4c7.8-0.2,15.5-0.7,23.2-0.8c5.3-0.1,10.6,0,15.8,0.5c4,0.5,8.1,0.7,12.2,0.6
			c4.1,0,8.3-0.4,12.5-0.6S383,1,387.2,1c2.8,0,5.6,0.1,8.4,0c5.5-0.1,11-0.1,16.5-0.3c5-0.2,10.1-0.5,15.1-0.7c3.1-0.1,6.2,0,9.4,0
			c5,0,9.9-0.1,14.9,0c7.3,0.2,14.5,0.6,21.8,0.9c1.8,0.1,3.5,0.4,5.2,0.6c0.8,0.1,1.6,0.2,1.9,1.3c-0.7,0.5-1.6,0.6-2.4,0.3
			c-11.4-1.2-22.8-1.6-34.2-1.3c-4,0.1-8-0.1-12,0c-6.1,0.1-12.1,0.5-18.2,0.6c-3.9,0.1-7.8,0-11.8,0c-0.3,0-0.7,0.1-1,0.1
			c-2.1,2.7-1.5,5.7-1.7,8.6c-0.8,11,0.4,21.9,0.8,32.8c0.2,5.1-0.2,10.2-0.2,15.3c0,11.8,0.2,23.7,0.2,35.5c0,5-0.1,9.9-0.2,14.9
			c0,3.4-0.1,6.7-0.1,10.1c0.1,10.3,0.5,20.6,1.6,30.9c0.2,2.3,0.2,4.6,0.1,6.9c0,5.6-0.1,11.2-0.1,16.8c0,2.5,0.2,5,0.2,7.4
			c0.2,9.9,0.3,19.8,0.5,29.7c0.1,3.3,0.3,6.6,0.6,9.8c0.2,3.3,0.1,6.7-0.4,10c-0.6,5.1-0.6,10.2-0.1,15.3c0.5,4.9,1,9.9,1.1,14.8
			c0.1,4-0.3,8-0.5,12c0,0.5,0,1-0.1,1.7l2.8,0.1c8.8,0.2,17.6,0,26.4-0.6c12.5-0.9,24.9-0.7,37.4-0.9c1,0,2-0.1,3-0.2l0.2-0.5
			c-0.6-0.4-1.2-0.8-1.9-1.1c-5.6-3.3-11.2-6.5-16.7-9.9c-0.7-0.4-1.5-0.5-2.3-0.2c-5.4,1.1-11.1,0.8-16.4-0.9
			c-12.2-4-20.6-15.3-20.9-28.2c-0.2-7,2.1-13.8,6.5-19.1c0.6-0.7,1.2-2,2.2-1.3c1.2,0.9-0.2,1.7-0.7,2.3c-4,5.2-6.5,11-6.5,17.7
			c0,9.9,4.1,17.8,12.3,23.4c6.8,4.7,15.2,6.5,23.3,5c2.8-0.5,5-1.8,7.8-3.6l-3.8,0.2c0.7-0.6,1-1,1.4-1.2c1.1-0.5,2.3-0.8,3.4-1.2
			c7.9-3.1,13.9-10.6,13.1-20.5c-0.1-2.1-0.4-4.1-0.7-6.2c-1.4-10.7-13.1-20.7-26.8-19c-4.9,0.6-9.7,2.4-13.8,5.2
			c-0.8,0.5-1.7,1-2.8,1.7c-0.2-1.5,0.6-1.9,1.3-2.4c4.2-3.4,9.3-5.5,14.6-6.2c9.3-1.3,17.3,1.2,23.6,8.3c0.1,0.1,0.3,0.2,0.7,0.1
			c-0.8-1.1-1.6-2.3-2.4-3.3c-4-4.5-9.3-6.9-15.1-8.2c-2.5-0.6-4.9,0-7.3,0.5c-5.1,1-10,3.1-14.1,6.2c-4.9,3.8-8.6,8.4-10.2,14.4
			c-2.9,10.8,0.6,19.6,8.2,27.3c0.7,0.7,1.4,1.4,2,2.1c-5.6-1.3-12.1-11.3-12.5-20.8c-0.7-14.1,6.8-23.3,19.2-29
			c-4.1,0.8-7.7,3-11.1,5.4l-0.3-0.4c0.3-0.4,0.6-0.8,1-1.1c6.4-4.8,14.3-7.1,22.3-6.5c5.9,0.3,11.5,2.5,16.1,6.2
			c3.3,2.6,5.8,6,7.2,10c0.4,1,1.1,1.9,2,2.5c2.9,2.2,5.7,4.6,8.5,7c0.7,0.6,1.4,1.2,2.2,1.9c0.7-2,0.8-23.7,0.2-29.3
			c-1.8-0.8-3.7-1.6-5.5-2.5c-7.4-3.7-14.7-7.4-22.1-11.1l-0.8-0.5c-2.6-1.5-5.3-2.7-8.5-1.8c-2,0.5-4,0.4-5.9-0.2
			c0.9-1,1.9-0.7,2.8-0.8c2.4-0.1,4.8-0.4,7.1-0.8c1.9-0.5,3.6-1.3,5.2-2.3c-5.3,1.2-10.9,1-16.1-0.6c0.8-1.1,1.8-0.8,2.6-0.8
			c4.6-0.1,9.1-0.6,13.6-1.4c10.9-1.9,15.6-11.8,16.1-19.3c0.9-13.2-9-24.3-19.3-26.8c-4.6-1.1-9.5-0.7-13.9,1.3
			c-2.2,1-4.3,2.2-6.4,3.3c-0.8,0.4-1.6,0.9-2.5,1.4c-0.8-1.3,0-1.9,0.6-2.4c3.7-3.6,8.4-6,13.4-6.9c0.8-0.1,1.7-0.3,2.5-0.5
			c-12.1-1.6-24.8,4.5-29.3,17.3c-2.9,8.1-3.5,16.2,1,24.1c4.3,7.6,11,12,19,14.7l-0.2,0.5c-0.5,0.1-1,0.1-1.5,0
			c-10.7-3.4-19.7-11.1-21.5-23.1c-1.5-8.8,1-17.9,6.9-24.7c0.3-0.4,0.6-0.8,0.9-1.1c5-6.1,11.5-9,19.3-9.1c2.1,0,4.1,0.1,6.2,0.2
			c1.1-0.1,2.2,0.3,3,1.2c0.2,0.3,0.9,0.4,1.3,0.5c6.9,1.2,12.1,5.1,15.9,10.7c1.9,2.9,4.7,5.2,8,6.5c1.8,0.7,3.4,1.7,5.1,2.6
			l2.7,1.4c0.1-0.7,0.2-1.4,0.3-2.1c0-13.8,0-27.7,0-41.5c0-15.8-0.1-31.7-0.1-47.5c0-13.8-0.1-27.5-0.2-41.3c0-0.9,0-1.8,0.1-2.6
			c0.5-3.4-0.7-6.8-3.2-9.1c-0.3-0.3-0.6-0.7-0.9-1.1L481,3.9z M45.6,4.4c-0.7,0-1-0.1-1.4-0.1c-5.8,0-11.7,0-17.5,0.1
			C21,4.6,15.4,4.8,9.7,5.2C5.9,5.6,4.6,7,4.5,11c0,0.7,0,1.3,0,1.9C4.3,27.4,4.2,42,4.1,56.5C3.9,87.3,3.7,118,3.6,148.7
			c-0.1,29.8-0.3,59.5-0.5,89.3C3,248.6,3,259.2,3,269.9c0,0.8,0.1,1.5,0.1,2.5c0.9,0,1.6,0.1,2.3,0.1c7.2,0,14.4-0.1,21.6-0.1
			c27.8,0.3,55.7,0.6,83.5,0.9c29.3,0.2,58.6,0.3,87.8,0.5c22,0.2,44,0.4,66,0.6c10.7,0.1,21.4,0.3,32.1,0.3
			c34.1,0.2,68.2,0.4,102.2,0.6c0.7,0,1.4-0.1,2.3-0.1c0-1.9,0-3.7,0-5.4c0-3,0.3-5.9,0.1-8.9c-0.2-4.7-0.6-9.4-1.1-14.1
			c-0.5-5.7-0.5-11.4,0.1-17c0.3-2.9,0.3-5.9,0.2-8.8c-0.1-5.4-0.4-10.7-0.6-16.1c-0.2-9.3-0.4-18.6-0.5-27.8
			c-0.1-6.1,0-12.3,0-18.5c0-3.3,0-6.5-0.1-9.8c0-1.4-0.4-2.9-0.5-4.3c-0.3-5.8-0.8-11.5-0.9-17.2c-0.1-8.2,0-16.5,0.1-24.7
			c0-1.9,0.2-3.8,0.2-5.8c-0.1-4.7-0.3-9.4-0.4-14.2c-0.1-7.7-0.3-15.4-0.2-23s0.4-15.2-0.1-22.8c-0.8-8.9-0.9-17.9-0.2-26.9
			c0.2-2.3,0.2-4.6,0.4-7c-14.3-0.7-28.6,0-43.2,0.2c3.1,3.6,2.8,8,3.5,12.5c1.2,0,2.3,0,3.4,0c6.2,0.1,12.5,0.3,18.7,0.4
			c3.5,0.1,4.4,0.8,5.2,4c1.4,5.9,2.1,12,1.9,18.1c-0.1,9.3-1.2,18.5-0.7,27.8c0.3,5,0.4,10.1,0.6,15.1c0.2,6,0.6,12,0.8,18
			c0.2,5.5,0.2,11,0.3,16.5c0.2,5.6,0,11.2-0.7,16.8c-0.2,2.2-0.3,4.5-0.1,6.7c0.1,2.6,0.4,5.3,0.5,7.9c0.3,9.4,0.7,18.9,0.9,28.3
			c0.3,13.2,0.7,26.4,0.8,39.6c0.1,7.3-0.1,14.6-0.2,21.8c0,2.5,0.5,5.1-1.3,7.4c-0.1,0.2-0.1,0.5-0.1,0.7c-0.9,4-3,6.1-7.6,6.3
			c-6.5,0.3-13,0.3-19.4,0.3c-9.6,0-19.1-1.4-28.8-1.1c-6.4,0.2-12.8,0-19.2,0.2c-16.7,0.4-33.4,0-50.1-0.4c-1.9,0-3.8-0.1-5.8-0.1
			c-6,0-12,0.1-18,0.2c-4.1,0-8.2,0.1-12.2,0.1c-9,0.2-17.9,0.5-26.9,0.6c-9.3,0.1-18.6-0.1-27.8-0.1c-2.2,0-4.5,0.2-6.7,0.1
			c-9.8-0.8-19.5-0.6-29.3-0.4c-5.6,0.1-11.2,0.6-16.8,0.7c-6.4,0.1-12.8,0-19.2,0c-0.9,0-1.8-0.1-2.6-0.1c-5.5-0.2-11-0.6-16.5-0.6
			c-6.5,0-12.9,0.4-19.4,0.6c-6.3,0.2-12.6,0.3-18.9,0.4c-4.6,0.1-9.3,0.2-13.9,0.1c-2.5-0.1-4.9-0.3-7.4-0.8
			c-2.2-0.3-4.1-1.7-5-3.7c-1.7-3.4-2-7.3-1-11c0.1-0.4,0.5-0.7,1-1.5c0.2,0.7,0.4,1.4,0.6,2.2c0.2,1.8,0.3,3.7,0.4,5.5
			c0.3,4.3,2.6,6.1,6.2,6.3c4.6,0.3,9.3,0.4,13.9,0.3c5.7,0,11.4-0.7,17-0.3c11.9,0.8,23.8,0.4,35.7,0.1c2.3-0.1,4.6,0.1,6.9,0.2
			c1.8,0.1,3.7,0.2,5.5,0.2c3.7,0,7.3-0.1,11-0.2c5-0.1,10.1-0.2,15.1-0.3c8.2-0.2,16.5-0.5,24.7-0.6c4.5,0,8.9,0.4,13.4,0.4
			c10.2,0.1,20.3,0,30.5-0.1c11.3-0.1,22.6-0.4,33.8-0.6c6.2-0.1,12.5,0,18.7-0.1c3.8-0.1,7.5-0.4,11.3-0.4c6.9,0,13.8,0.3,20.6,0.3
			c8.9,0,17.8-0.1,26.6-0.2c8.2,0,16.5-0.1,24.7-0.2c0.9,0.2,1.8,0,2.6-0.5c-4-3.9-8-7.6-11.9-11.3c-0.6-0.5-1.4-0.8-2.2-0.8
			c-2.3-0.3-4.6-0.4-6.9-0.4c-10.8,0.2-21.6,0.5-32.4,0.7c-11.3,0.2-22.5,0.4-33.8,0.5c-8.4,0.1-16.8,0.1-25.2,0
			c-15.8-0.1-31.7-0.3-47.5-0.5c-12.2-0.2-24.4-0.6-36.7-0.9c-2.2,0-4.3,0.1-6.5,0c-6.6-0.1-13.3-0.4-19.9-0.5
			c-6.8-0.1-13.6-0.2-20.4-0.3c-3.9-0.1-7.8-0.2-11.7-0.1c-6.1,0.1-12.1,0.4-18.2,0.4c-2.2-0.1-4.4,0.4-6.4,1.5
			c-1.9,1.3-4.4,1.4-6.4,0.3c-4.2-2.2-6.8-8.7-5.4-13.3c0.2-0.3,0.4-0.6,0.6-0.9c0.3,0.6,0.4,1.3,0.2,1.9c-0.8,4.2,1.1,7.4,3.9,10.3
			c1.3,1.4,3.3,1.9,5.1,1.3c0.9-0.2,1.7-0.5,2.4-1c1.4-0.8,2.9-1.3,4.5-1.2c6.4-0.1,12.8-0.4,19.2-0.4c5.1,0,10.2,0.2,15.3,0.3
			c15.4,0.2,30.9,0.4,46.3,0.7c11.4,0.2,22.9,0.7,34.3,0.9c12.4,0.3,24.8,0.5,37.2,0.6c9.3,0.1,18.5-0.1,27.8-0.1
			c1.8,0,3.7,0.1,5.5,0c5.7-0.1,11.3-0.4,17-0.5c6-0.1,12,0,18-0.1c3.4,0,6.7-0.4,10-0.4c5.1-0.1,10.2-0.2,15.4-0.2
			c3.8,0,7.7,0.1,11.5,0.1h2.7c-0.1-0.3-0.2-0.6-0.4-0.9c-2.3-2.2-4.6-4.5-7-6.6c-0.7-0.5-1.5-0.8-2.4-1c-0.7-0.6-0.1-2.2-1.6-2.4
			l-1.1,3.3c-1.5-1.9-0.4-3.5-0.4-5.4c-0.4-0.3-1-0.8-1.6-1.3c-11.9-11.3-23.7-22.6-35.5-34.1c-1.6-1.7-3.8-2.6-6.1-2.5
			c-29,0-58.1-0.1-87.1-0.2c-40.2-0.1-80.5-0.1-120.7-0.1c-0.8,0-1.5,0.1-2.3,0.1c-0.3,3.3-0.2,3.5,2.7,3.6c1.5,0,3,0,4.6,0
			c0.6-0.1,1.1,0,1.7,0.2c0.7,0.4,1.6,0.9,1.9,1.6c0.3,1-0.7,1.5-1.5,1.8c-3.8,1.3-7.9,1.3-11.8,0c-1.5-0.4-2.4-1.7-2.3-3.2
			c0-1.3-0.3-2.5-0.4-3.9l-3.2-0.1c-2.8-0.1-5.6-0.2-8.4-0.4c-1.5-0.1-2.3-1.7-2.1-3.5s0.8-2.1,2.6-2c1.7,0.1,3.3,0.3,5.1,0.4
			c0.1-0.6,0.2-1.2,0.3-1.7c0.3-1.8,0.5-2,2.3-2c0.5,0,1,0,1.4,0c1.1-0.1,2.1,0.5,2.4,1.6c1,2.2,1.1,2.2,3.6,2.1
			c3-0.1,5.9-0.1,8.9-0.2c0.5,0,1.1-0.1,1.7-0.1c0.5-1.3,0.8-2.8,2.6-2.6l4.4,0.3l1,2.2c0.2,0.1,0.4,0.2,0.6,0.2
			c5.2,0.2,10.4,0.3,15.6,0.4c0.6-0.1,1.2-0.3,1.6-0.7c1.5-0.9,4.3-1.1,5.1,0.1s1.7,1,2.7,1.1c3.7,0,7.4,0,11,0
			c1,0.2,2.1-0.3,2.7-1.2c0.5-0.5,1.1-0.9,1.8-0.9c1.3-0.1,2.5-0.1,3.8,0l0.6,2.2h1.7c3.5-0.1,7-0.2,10.6-0.3
			c0.9-0.2,1.8,0.2,2.3,0.9c-1.2,0.1-2,0.2-2.9,0.3c-3.4,0.1-6.7,0.1-10.1,0.4c-1.8,0.1-3.3,0-3.7-2c-1.5-0.1-2.8-0.4-3.8,1.1
			c-0.3,0.5-1.2,0.7-1.9,0.7c-4.5,0.1-8.9,0.1-13.4,0c-0.8,0-1.5-0.3-2.2-0.8c-1.5-1.1-2.2-1.1-3.8-0.1c-0.6,0.4-1.4,0.7-2.2,0.7
			c-5.7-0.1-11.3-0.3-17-0.4c-0.3,0-0.6-0.1-0.9-0.2l-0.2-2.5c-1-0.1-2-0.2-2.9-0.2c-0.8,0-1.5,0.2-1.6,1.1
			c-0.1,1.6-1.2,1.6-2.4,1.6c-3.4,0.1-6.7,0.2-10.1,0.2c-1.2,0-2.4-0.2-3.6-0.4c-1.2-3.3-1.2-3.3-4-2.7c-0.2,0.3-0.3,0.6-0.4,1
			c-0.2,2-1.2,2.3-3,2.4c-1,0.1-2.1,0.1-3.1,0.2s-1.2,0.6-0.8,1.7h227.1c-1-1.3-1.7-2.4-3.4-1.8c-0.8,0.2-1.6,0.3-2.4,0.2
			c-4,0.1-8,0.2-12,0.2c-0.8,0-1.6-0.1-2.2-0.1c-0.9-3.7-1-3.8-3.2-3.2c-0.1,0.2-0.1,0.4-0.1,0.7c0.1,2.3,0,2.4-2.3,2.5
			c-3,0.1-5.9,0-8.9,0c-2.2,0-4.4-0.1-6.5-0.2c-1.2-3-1.2-3-2.4-3.1c-1,3.5-1.6,4.2-4.5,4.1c-4.4,0-8.8-0.3-13.2-0.4
			c-1,0.1-1.9-0.6-2.2-1.5c-0.1-0.9-1-1.5-1.9-1.3c-0.2,0-0.4,0.1-0.5,0.2c-0.1,0.2-0.3,0.4-0.4,0.6c-0.8,2.2-0.8,2.3-3.2,2.3
			c-2.8,0-5.6-0.1-8.4-0.2c-2.5,0-4.9,0-7.2,0c-0.8-1.2-0.1-3.1-2.2-2.8c-1.4,2.6-1.4,2.5-4.3,2.4c-3.5-0.1-7-0.1-10.6-0.2
			c-1,0-2-0.1-3-0.1l-0.9-2.1h-2.2c-1.7,2.8-1.7,2.8-4.9,2.8c-4.2,0-8.5,0-12.7,0c-1.4,0-2.7-0.2-3.1-1.7c-1.7-0.7-2.6,0.3-3.4,1.6
			c-0.6-2.1-0.2-2.8,1.2-2.9c1-0.1,2.1,0,3.1,0l1,1.8h16.5c0.9-1.1,0.8-2.9,2.8-2.8c1.7,0.1,3.2,0.3,3.6,2.3
			c4.6,0.1,9.1,0.2,13.5,0.3c0.8,0.1,1.5-0.4,1.6-1.1c0.2-1.2,1-1.4,2.1-1.5s2.1,0.6,2.2,1.7c0.2,0.4,0.3,0.8,0.6,1.2
			c5.4,0.1,10.8,0.5,15.9,0.3c1.1-1.3,0.3-3.2,2.4-3.3s3.4,0.7,3.6,3.1c5,0.1,9.8,0.3,14.7,0.3c1.8,0,2.1-0.5,2.3-2.3
			s0.5-2.1,2.4-1.9c0.8,0,1.5,0.6,1.7,1.4c0.2,0.6,0.4,1.2,0.6,1.8h15.3c0.2-0.3,0.3-0.4,0.3-0.6c0.1-2.6,0.5-2.9,3-2.8
			c1.4,0.1,1.8,1.1,2.1,2c0.3,1.1,1.4,1.9,2.5,1.7c4-0.1,8-0.1,12-0.2c0.6-0.1,1.1-0.2,1.6-0.4c-1.3-1.3-2.4-2.3-3.4-3.4
			c-1.6-2-3.6-2.5-6.1-2.5c-52.9,0.1-105.8,0.1-158.6,0c-7.1,0-14.2-0.1-21.4-0.1c-0.7,0-1.4-0.1-2.1-0.1l0.1-0.6h184.3
			c-0.4-0.5-0.9-1.1-1.3-1.6c-6.6-6.3-13.2-12.6-19.8-18.9c-0.9-0.9-2.1-1.3-3.2-1.1c-3.1,0.2-6.2,0.6-9.3,0.6
			c-7,0-13.9-0.1-20.9-0.2c-11-0.2-22.1-0.4-33.1-0.5c-3.5-0.1-7,0.2-10.6,0.2c-13.6-0.1-27.2-0.4-40.8-0.5c-6.9-0.1-13.8,0-20.6,0
			c-7.3,0-14.5-0.1-21.8,0.5c-5.2,0.4-10.5,0.2-15.8,0.2c-0.6,0-1.4,0-1.7-1.1c9.4,0.7,18.6-0.2,28.1-0.9c-0.8-0.7-1.5-1.4-2.2-2.2
			c-0.8-0.9-1.3-2-1.6-3.1c-0.7-4.5-1.2-9-1.4-13.6c-0.1-6.5,0.1-13,0.6-19.4c0.3-3.4,1.1-6.8,2.2-10c1.1-3.4,3.3-6.3,6.3-8.2
			c1.9-1.3,4.3-1.6,6.4-0.7c1.4,0.4,2.2,1.8,1.8,3.1c0,0.1-0.1,0.2-0.1,0.3c-0.1,0.4-0.2,0.8-0.4,1.2c-1.7,4.8-3,9.6-2.9,14.7
			c0,0.6-0.1,1.3-0.2,1.9c-0.3,5.5-0.7,11-0.8,16.5c-0.1,3.8,0.3,7.7,0.4,11.5c0.1,2.9-0.7,5.6-3.2,7.4c-0.1,0.1,0,0.3-0.1,0.6
			c0.8,0.1,1.6,0.1,2.3,0.1c6.4,0,12.8,0,19.2,0.1c16.9,0.2,33.8,0.4,50.6,0.5c5.6,0.1,11.2-0.1,16.8,0c13.4,0.2,26.7,0.6,40.1,0.7
			c4.3,0,8.5-0.4,13.3-0.6c-0.9-0.9-1.4-1.4-1.9-1.9c-23.7-22.9-47.5-45.7-71.2-68.6c-1-1-2.4-1.6-3.8-1.5
			c-9.7,0.3-19.5,0.5-29.3,0.7c-11.7,0.2-23.3,0.5-35,0.7h-2.4c-5.7,0.1-11.3,0.1-17,0.2c-0.5,0-1-0.1-1.5-0.3v-0.5
			c28.6-0.1,57.1-1.1,86.1-1.8c-0.6-0.6-0.8-0.9-1.1-1.2c-5.5-5.3-11.1-10.4-16.4-15.8c-1.7-1.9-4.2-2.9-6.8-2.6
			c-5.7,0.4-11.5,0.3-17.2-0.2c-5.2-0.5-10.4-1.1-15.6-0.9c-8.2,0.4-16.5-1-24.7,0.4c-0.2,0-0.3,0-0.5,0c-10.2,0-20.3,0-30.5,0
			c-0.8-0.1-1.6,0.1-2.3,0.3c-3.8,1.6-7.9,2.3-12,1.9c-2.8,0-5.6,0.1-8.4,0.3c-0.8,0-1.4,0.6-1.4,1.3c0,0.1,0,0.1,0,0.2
			c0,0.5,0,1.1,0,1.7c-0.1,13-0.3,26.1-0.5,39.1c-0.2,19.5-0.3,39-0.5,58.6c-0.2,21.3-0.4,42.6-0.6,63.8c0,2.8-0.2,5.6-0.3,8.4
			c-0.1,0.5-0.2,1.1-0.5,1.6l-0.6-0.1c-0.1-1.4-0.2-2.8-0.2-4.1c0.1-24.2,0.3-48.3,0.4-72.5c0.1-12.1,0.2-24.1,0.3-36.2
			c0.1-19.6,0.3-39.2,0.4-58.8c0.2-1.5-0.4-3-1.6-4c-0.8-0.9-1.4-1.9-1.6-3.1c-0.3-1-0.4-2.1-0.3-3.1c0.3-7.7,0.6-15.3,1.1-23
			c0.2-3.5,1.9-5.4,5.4-6.1c2.6-0.5,5.2-0.8,7.8-0.9c3.6-0.1,7.2,0,10.7,0c0.4-0.8,0.7-1.3,0.9-1.9c0.8-2.2,1.6-4.5,2.5-6.8
			S43.2,6,45.6,4.4z M216.2,42.8l0.1,0.8c-1,0.3-1.9,0.4-2.9,0.6c-9.2,0.5-18.4,1-27.6,1.5c-7.9,0.4-15.8,0.8-23.7,1.3
			c-4.7,0.3-9.4,0.9-14.1,1.1c-4,0.2-8,0-12,0.1c-5,0-10.1,0.1-15.1,0.2c-1.6,0-3.2,0.1-4.8,0.3c-8.9,1.3-17.7,2.6-25.9,3.9
			c3.5,0,7.8-0.1,12,0c7.1,0.2,14.2,0.8,21.3,1c4.8,0.1,9.6-0.3,14.4-0.4c7-0.2,14.1-0.4,21.1-0.6l3.4-0.1c15.7-0.3,31.3-1,47-0.5
			c7.2,0.2,14.4,0.1,21.6,0.2c5,0.1,10.1,0.4,15.1,0.3c6.6-0.1,13.1-0.2,19.7,0.1c6.3,0.2,12.6,0,18.9,0.1c1.8,0,3.7,0.2,5.5,0.2
			c3.4,0.2,6.9,0.2,10.3,0c7.1-0.8,14.2-1,21.3-0.7c0.4,0.1,0.8,0.2,1.1,0.3c-0.7,0.4-1.4,0.6-2.1,0.5l-16,0.7
			c-3.4,0.2-6.9,0.4-10.3,0.5c-3.2,0-6.4-0.2-9.6-0.3c-2.7,0-5.4,0.2-8.1,0.2c-10.1-0.1-20.1-0.7-30.2-0.5
			c-10.8,0.2-21.6-0.2-32.4-0.4c-6.9-0.1-13.9-0.4-20.9-0.1c-17.7,0.6-35.5,0.8-53.2,1.2c-0.7,0-1.5,0.2-2.4,0.2
			c0.1,0.3,0.3,0.6,0.5,0.9c6.2,5.9,12.4,11.8,18.6,17.7c0.7,0.7,1.6,1,2.6,0.9c5.4,0,10.7,0,16.1,0c3.7,0,7.4-0.1,11,0
			c5.8,0.1,11.5,0.4,17.3,0.5c6.6,0.1,13.3,0.1,19.9,0.1h16.8c2,0,4,0.1,6,0.1c3.3,0,6.6,0.1,9.8,0.2c6.4,0.1,12.8,0,19.2,0.2
			c4.5,0.1,9.1,0.6,13.6,0.8c6.7,0.3,13.5,0.2,20.1,0.8c9.6,0.8,19.2,0.4,28.8,0.2c2.6,0,5.2-0.5,7.9-0.7c0.4,0,0.8,0.1,1.2,0.3
			c-1.5,0.8-3.2,1.3-4.9,1.2c-5.2,0.2-10.4,0.5-15.6,0.4c-6.7-0.1-13.4-0.4-20.1-0.7c-9-0.4-18-0.8-27.1-1.2
			c-3.2-0.2-6.4-0.4-9.6-0.5c-10.8-0.1-21.6,0-32.4,0c-2.8,0-5.6,0.1-8.4,0.1c-4.3-0.1-8.6-0.2-12.9-0.3c-8.4-0.1-16.8-0.1-25.2-0.3
			c-3.3,0-6.5-0.4-9.8-0.4c-6.4,0-12.8,0.1-19.2,0.2c-0.8,0-1.5,0.1-2.7,0.2c0.8,0.9,1.2,1.4,1.7,1.9l60.3,57.4
			c3.9,3.8,7.9,7.5,11.8,11.2c0.7,0.8,1.6,1.3,2.7,1.4c6.2,0.1,12.5,0.2,18.7,0.3c2.5,0,5.1-0.3,7.7-0.2c4.4,0.1,8.8,0.5,13.2,0.7
			c9.3,0.4,18.7,0.7,28,1c3.1,0.1,6.2,0,9.3-0.1s6.1-0.3,9.1-0.3c8.1-0.2,16.3-0.4,24.4-0.6c0.3,0,0.7,0.1,1,0.1
			c-3.6,1.4-7.4,1.1-11.3,1.4c-0.2,0.9-0.4,1.8-0.4,2.7c-0.1,3.6-0.1,7.2-0.1,10.8c0,1.9,0.1,3.8,0,5.8c-0.1,0.6-0.2,1.1-0.4,1.7
			c-0.5-3.5-0.7-7-0.7-10.4c0-3.5,0.2-6.9,0.3-10.5c-2.1,0.1-3.9-0.2-5.9,0.7c1.7,6.4,0.8,12.9,1.1,19.4l2.7,0.5
			c-0.3,0.3-0.7,0.6-1.1,0.6c-1.7,0.2-3.5,0.2-5.2,0c-3.5-0.1-7,0-10.6,0h-53c-0.9,0-1.8,0.1-3.2,0.2l3.6,3.6
			c0.8-2.1,2.3-1.2,3.6-1.2c2.2,0,1.2,2.3,2.3,3.4l14.6,0.4c0.4-1.6,1-2.5,2.7-2.4c1.2,0.1,2.6-0.3,3.2,1.3c0.4,0.9,1.3,0.7,2.1,0.7
			c2.4,0,4.8-0.1,7.2-0.1s4.6,0,7,0c0.5-2,2-2.4,3.6-2.5c0.5,0,1.3,0.3,1.4,0.6c0.4,1.9,1.8,1.7,3.2,1.8c3.4,0.1,6.7,0.2,10.1,0.2
			c2.6,0,5.2-0.1,8-0.2c0.7-2.8,2.7-2.6,4.9-2.2l1.1,2.1l16.6-0.4c1.2-2.6,1.4-2.7,4.4-2.1l1,2.1c1.6,0,3.3,0.1,4.9,0.2
			s2.2,0.6,2.4,2.3c0,0.7,0,1.4,0,2.2c0,1.5-0.2,1.7-1.8,1.8c-0.8,0-1.6,0-2.4,0h-6c-0.1,0.8-0.2,1.2-0.3,1.7s-0.2,1.1-0.3,1.6
			c-0.5,2-1,2.4-3,2.4c-2.6,0.1-5.3,0.1-7.9,0c-1.1,0-2.2-0.2-3.3-0.6c-0.5-0.1-0.9-0.7-1.5-1.1c1.6-1.7,3.5-1.7,5.3-1.7
			c1.4,0.1,2.9,0.3,4.3,0.3c1.8,0,2-0.3,1.8-2.6h-80.8c0.9,0.9,1.5,1.6,2.1,2.1c11.9,11.4,23.8,22.8,35.7,34.2c1,1,1.9,1.7,3.4,1
			c0.4,1.9,0.6,3.7,2.6,4.3c0.8-1,0.1-2.6,1.8-3.2c0.2,0.5,0.4,1,0.5,1.5c0.1,1,0.1,2.1,0,3.1c-0.1,0.7,0.1,1.4,0.7,1.9
			c1.9,1.8,3.7,3.6,5.6,5.3c0.7,0.5,1.5,0.8,2.4,0.9c7.6,0.6,15.2,0.7,22.8,0.2c1.8-0.1,2.9,0.4,3.5,2.1c0.2,0.6,0.6,1.1,0.8,1.8
			c0.1,0.3-0.1,0.8-0.2,1.6c-0.7-1.4-1.2-2.3-1.6-3.2c-0.3-0.9-1.2-1.4-2.1-1.2c-0.7,0.1-1.4,0.1-2.2,0.1c-4.6,0-9.1,0.1-13.7,0.1
			c-2.3,0-4.5,0-7,0c0.2,0.3,0.4,0.6,0.6,0.8c3.6,3.4,7.1,6.9,10.7,10.3c0.5,0.5,1.2,0.7,1.9,0.8c3.8,0.2,7.5,0.5,11.3,0.6
			c6.6,0.1,13.3,0.1,19.9,0.2c2.8,0,5.6,0.1,8.4,0.2c1.1,0.2,2.3-0.4,2.7-1.5c0.9-1.8,1.6-3.6,2-5.6c0.7-5.9,1.1-11.9,1.6-17.9
			c0.1-0.3,0.1-0.6,0-0.9c-1-1.9-0.7-3.9-0.8-5.9c-0.3-20.5-0.7-41-1-61.4c-0.3-21-0.6-42.1-1-63.1c-0.2-11.9-0.4-23.8-0.6-35.8
			c0-0.8-0.1-1.6-0.2-2.9c-1.7,2.1-3.7,2-5.6,1.8c-5.4-0.5-10.8-1.2-16.2-1.7c-3.5-0.3-6.2-1.8-7.8-5.1c-1.3-2.7-2.6-5.3-3.8-8
			c-0.5-1.2-1.5-2.1-2.8-2.5c-2.6-1-5.3-1.5-8-1.4c-17.1,0.3-34.2,0.6-51.4,0.8l-63.3,1c-20.9,0.3-41.8,0.6-62.6,0.9
			c-19.4,0.3-38.9,0.5-58.3,0.8c-1.1,0-2.2,0-3.3,0c3.5,0.3,7,0.5,10.6,0.6c13.9,0.1,27.8,0.1,41.8,0c4.7-0.1,9.4,0.1,14.1,0.5
			c2.9,0.3,5.9,0.3,8.9,0.4c1.3,0,2.6,0,3.8,0c6.1,0.1,12.3,0.2,18.5,0.3c3,0.1,6.1,0.2,9.1,0.4s5.9,0.5,8.8,0.8
			C214.9,42.5,215.6,42.7,216.2,42.8z M45,34c11.4-0.5,22.3-1.2,33.3-1.6s21.9-0.3,32.9-0.5s22.1-0.4,33.1,0.2
			c10.8,0.6,21.7-0.2,32.6,1.2c-0.5,0.4-1.1,0.6-1.7,0.7c-1.8,0.2-3.6,0.4-5.5,0.6c-5.6,0.4-11.1,1.1-16.7,1.2c-10,0.2-20,0-30,0
			c-12.9,0.1-25.7,0.2-38.6,0.5c-10.9,0.2-21.7,0.7-32.6,1.1c-0.6,0-1.2,0.2-1.7,0.2v0.5c0.8,0,1.5,0,2.2,0c2.5-0.1,5-0.2,7.4-0.3
			c16.1-0.3,32.2-0.7,48.2-1c20.6-0.4,41.1-0.7,61.7-1c21.7-0.3,43.3-0.6,65-0.9c19.8-0.3,39.5-0.5,59.3-0.8
			c5-0.1,10.1-0.1,15.1-0.6c8.2-0.7,16.4-1.3,24.7-1.2c4.2,0.1,8.4,0.8,12.5,2.2c2.8,0.9,5,3.2,5.8,6c0.7,1.9,1.5,3.7,2.5,5.4
			c1.7,3.2,4.5,4.5,8,4.8c4.7,0.4,9.4,0.8,14.1,1.2c0.9,0.1,1.9,0,2.8,0c0.8-2.4,1.9-4.5,1.7-7.1c-0.4-4.4-0.5-8.8-0.4-13.2
			c0.1-2.8-0.4-5.6-1.3-8.2c-0.4-1.7-1.9-2.9-3.6-3c-2.3-0.2-4.6-0.7-6.9-0.9c-1.7-0.1-3.5-0.1-5.2,0c-1-0.1-1.9,0.7-1.9,1.7
			c0,0.1,0,0.2,0,0.3c-0.1,0.6-0.3,1.2-0.6,1.7c-1.3-1-0.9-3.3-3.2-3c0.5,7.2,0.2,14.5-1.1,21.6c-0.8-0.8-1.4-1.2-1.6-1.7
			c-1.2-2.7-3-5.1-5.3-7c-0.1-0.1-0.1-0.4-0.2-0.7c1.5-1.5,2.6,0.8,4.1,0.3c0.3-2.6,0.7-5.3,0.8-8c0.1-4.5,0.1-9.1,0.1-13.7
			c0-1.9-0.6-3.8-1.7-5.4c-0.7-1.3-2.2-2.1-3.8-1.9c-0.1,2.6-0.2,5.1-0.2,7.7c-0.1,5-0.2,9.9-0.3,14.9c0,0.9,0,1.8-1.2,2.2
			c-0.8-1.2-0.7-2.5-0.7-3.7c0.1-4.6-0.1-9.1-0.7-13.6c-0.6-3.7-4.7-8.1-9.1-8.1c-7.1,0-14.2-0.3-21.3,0.2c-9.3,0.8-18.1,0.7-27,0.7
			c-10,0-20-0.5-30-0.8C253.9,3,249,3,244.2,2.6C234.6,1.9,225,2.7,215.4,3c-6.7,0.2-13.4,0.6-20.1,0.7c-9.1,0.1-18.2-0.2-27.4-0.1
			c-10.4,0.1-20.8,0.6-31.2,0.6c-11.3,0-22.5-0.2-33.8,0.5c-5.7,0.4-11.3,0.1-17,0.2C77.7,5,69.3,5,61,5.2
			c-4.2,0.1-8.4,0.7-12.6,1.2C46.1,6.7,46,7.2,46,9.3c0,4.3-0.3,8.6-0.5,12.9C45.3,26.1,45.2,30,45,34z M328.4,169.7
			c0.1-1.2,0.2-2.1,0.2-3c0-2.1,0.1-4.2,0-6.2c-0.2-3-0.5-6-0.8-9c0.1-1-0.7-1.8-1.7-1.9c-0.1,0-0.2,0-0.3,0c-2.1,0-4.3-0.2-6.5-0.1
			c-4.2,0.1-8.3,0.6-12.5,0.5c-10.5-0.2-21.1-0.7-31.6-1.1c-4.7-0.2-9.4-0.5-14.1-0.5c-8.1-0.1-16.1-0.1-24.2-0.1
			c-0.3,0.1-0.7,0.2-1,0.3c0.5,0.6,0.8,1,1.2,1.4c6.2,6,12.5,11.9,18.7,18c1.2,1.3,2.9,1.9,4.7,1.9c21.7-0.1,43.3-0.1,65,0
			L328.4,169.7z M37.8,20.9c-2.5,0.3-4.6,0.6-6.7,0.8c-2.9,0.3-5.9,0.3-8.8,0.8c-4.6,0.7-4.9,1.3-5.1,5.9c-0.1,3.7-0.5,7.3-0.6,11
			c-0.1,3.8-0.2,7.7-0.1,11.5c0,2.3,0.7,2.8,3,2.6c0.3,0,0.6-0.1,1-0.1c2.4-0.1,4.8-0.3,7.1-0.3c1.8,0,3.5,0.2,5.3,0.1
			c1.6-0.2,3.1-0.4,4.7-0.7c-0.4-0.3-1-0.3-1.5-0.2c-2,0.2-4,0.5-5.9,0.7c-0.6,0.1-1.5,0.1-1.4-0.8c0-0.3,0.7-0.7,1.2-0.9
			c2-0.7,4.1-1.3,6.2-2c1.8-0.5,3.2-1.9,3.8-3.7c0.8-2.1,1.6-4.2,2.5-6.2c0.7-1.4,0.9-3.1,0.5-4.7c-0.9-4.5-1-9-0.3-13.5
			c0.3-2,0.4-4.1,0.6-6.1c-0.4,0.2-0.6,0.6-0.7,1c-0.9,3.4-1.5,6.9-1.5,10.4c0,3.4-0.2,6.7-0.5,10s-1.5,6.4-3.5,9.1
			c-2.3,2.9-6.4,3.8-9.7,1.9c-0.2-0.1-0.2-0.4-0.3-0.7c0.8-1,2-0.9,3-1.2c1.5-0.5,3.2-0.7,4.4-1.6c3.3-2.6,4.2-6.5,4.3-10.5
			c0-1.9-0.1-3.8-0.3-5.7C38.2,25.3,38,23.1,37.8,20.9z M358.4,176.8c-0.1-0.3-0.3-0.7-0.5-1c-0.3-0.4-0.8-1.1-1-1.1
			c-0.6,0.1-1.1,0.5-1.3,1c-0.5,1.3-1.4,1.3-2.5,1.3c-3.5,0.1-7,0.2-10.5,0.3c-1.4,0-2.7,0-4.1,0s-2.3-0.1-2.9-1.6
			c-0.4-1.2-1.7-1.2-2.3,0c-0.5,1.1-1.6,1.8-2.9,1.7c-6.1,0-12.1,0-18.2,0c-1.7,0-2.8-0.8-3.3-2.9c-0.8,0.7-1.7,1-1.9,1.6
			c-0.2,0.9-1.1,1.5-2,1.3c-5.4,0-10.9,0-16.5,0l-1.2-2.1c-0.8,0.4-2.1,0.5-2.4,1.1c-0.7,1.6-1.9,1.6-3.1,1.6
			c-4.5-0.1-9-0.2-13.4-0.3c-0.5-0.1-1-0.2-1.5-0.3c-0.1-1.1-0.2-2.1-0.2-3.2c-0.5-0.1-1.1-0.1-1.6-0.1c-0.9,0.1-1.3,0.9-0.6,1.5
			c2.1,2.1,3.8,4.4,7.5,4.3c12.3-0.2,24.6-0.1,37,0c18,0.1,36,0.1,54,0.2c0.8,0,1.5-0.1,2.4-0.2v-2.7L358.4,176.8z M385.4,134.6
			l0.3-0.1c0-0.4,0.1-0.8,0.1-1.2c-0.1-14.9-0.1-29.7-0.4-44.6c-0.1-8.6-0.7-17.2-1-25.9c-0.1-2.8,0-5.6,0.1-8.4
			c0.4-8.9,1.4-17.7,0.4-26.6c-0.3-2.6-0.7-5.2-1.1-7.8c-0.1-1.2-1.1-2.1-2.2-2c-1.7-0.1-3.3-0.1-5-0.2c0.5,0.5,1.2,0.5,1.7,0.9
			c1,0.5,1.9,1.1,2.5,2c1.6,2.9,3,6,2.9,9.5c-0.1,6.9,0,13.7,0.1,20.6c0.2,11.4,0.4,22.7,0.6,34.1c0.3,14.8,0.5,29.6,0.8,44.4
			C385.2,131,385.3,132.8,385.4,134.6L385.4,134.6z M386.1,171.5L386.1,171.5c0,5.1-0.1,10,0,14.9c0.1,11.5,0.3,23,0.6,34.5
			c0,0.3,0.4,0.6,0.6,1l0.4-0.1L386.1,171.5z M53.1,182.2c-1-0.4-1.7-0.3-1.6,0.9c0,0.9,0.2,1.8,0.2,2.6c0,1.1,0.7,2,1.8,2.2
			c0.7,0.3,1.5,0.4,2.3,0.5c2,0,4,0,6-0.1c1,0.1,2-0.3,2.6-1c-1.8-0.7-3.4-0.4-5.1-0.3c-1.3,0.1-2.7,0-4-0.1c-1.2-0.1-2-1.1-2-2.3
			C53.2,183.8,53.1,183,53.1,182.2z M343.3,186.2c3.4,1.1,6.9,0.8,10.4,0.5c1.2-0.1,1.2-1.3,1.4-2.2c0.1-0.8,0.4-1.8-1-2.1
			c-0.2,0.5-0.3,0.9-0.5,1.4c-0.5,1.9-1.1,2.3-3,2.4c-0.8,0-1.6,0-2.4,0L343.3,186.2z M385.6,157.5h0.1v-16.3h-0.1V157.5z
			 M383.9,247.9c1.9-1.2,2.6-3,2.5-5.4L383.9,247.9z M41.2,50.3c2.2-1.3,2.7-3,2.8-5.4L41.2,50.3z M386.6,239.5
			c1.7-1.8,0.4-3.7,0.5-5.5L386.6,239.5z M359.5,17.2v0.2h1.3v-0.2H359.5z"/>
	</g>
</g>
</svg>
