<?xml version="1.0" encoding="utf-8"?>
<!-- Generator: Adobe Illustrator 23.0.4, SVG Export Plug-In . SVG Version: 6.00 Build 0)  -->
<svg version="1.1" id="Calque_1" xmlns="http://www.w3.org/2000/svg" xmlns:xlink="http://www.w3.org/1999/xlink" x="0px" y="0px"
	 viewBox="0 0 200 200" style="enable-background:new 0 0 200 200;" xml:space="preserve">
<style type="text/css">
	.st0{fill:#7C528C;}
	.st1{fill:#D7D0DB;}
	.st2{fill:#9F87AA;}
	.st3{fill:#FFFFFF;}
	.st4{fill:#583664;}
	.st5{fill:#3F2F3F;}
	.st6{clip-path:url(#SVGID_2_);fill:#7C528C;}
	.st7{clip-path:url(#SVGID_2_);fill:#13110C;}
	.st8{fill:#13110C;}
</style>
<g>
	<path class="st0" d="M54.9,83.7c0.7-0.6,1.7-0.7,2.6-0.9c0,0.2,0,0.3,0,0.5c-0.2,0-0.5,0-0.7,0c-0.1,0.3-0.4,0.4-0.7,0.6
		c0-0.1,0-0.3,0-0.4c0,0-0.1,0-0.1,0c0,0.1,0,0.4,0,0.5c-0.1-0.1-0.2-0.2-0.3-0.3c0.2,0.3-0.1,0.6-0.4,0.6c-0.2,0-0.5-0.1-0.7-0.1
		c-0.1,0.2-0.2,0.3-0.3,0.5c-0.3,0.1-0.5,0.2-0.8,0.3c0.2,0.1,0.3,0.2,0.5,0.3c0,0.1,0,0.2,0,0.2c-0.3,0.1-0.5,0.2-0.9,0.2
		c0-0.1,0-0.4-0.1-0.5l0-0.1c-0.4,0-0.7,0.2-1,0.4c0,0-0.1-0.1-0.2-0.2l-0.1,0c-0.5,0-0.9,0-1.4,0.2c0.1,0,0.4,0.1,0.5,0.2
		c-0.4,0.2-0.9,0.2-1.3,0.1c0-0.1,0.1-0.2,0.2-0.2c0-0.1,0-0.3,0-0.4l0-0.1c0.1,0,0.2-0.1,0.2-0.1c0,0.2-0.2,0.6,0.2,0.5
		c0-0.1,0.1-0.2,0.1-0.2c0.1,0,0.2,0.1,0.3,0.1C50.7,85,51,85,51.3,85c0-0.2,0.1-0.4,0.1-0.6c0.1,0.1,0.1,0.4,0.1,0.5l0.1,0
		c0-0.1,0-0.2,0-0.3c0.2,0,0.5,0,0.7-0.1l-0.1,0.3c0.2-0.1,0.3-0.1,0.5-0.2c0.1-0.1,0.1-0.2,0.2-0.4c0.2,0,0.3,0,0.5,0
		c0-0.1,0-0.2-0.1-0.2c0.1,0,0.3,0.1,0.4,0.1c0-0.1,0.1-0.2,0.1-0.3c0.3,0,0.7-0.4,0.7,0.1c0-0.1,0-0.3,0-0.3
		C54.6,83.7,54.8,83.7,54.9,83.7L54.9,83.7z"/>
	<path class="st1" d="M51.3,84c0.5-0.1,0,0.6-0.1,0.2C51.2,84.2,51.3,84.1,51.3,84L51.3,84z"/>
	<path class="st2" d="M54.6,84.2c0.2,0,0.5,0.1,0.7,0.1c-0.2,0.2-0.5,0.3-0.8,0.5c0.2,0,0.4,0.1,0.6,0.1c-0.2,0.1-0.3,0.3-0.3,0.5
		c-0.2,0-0.3,0-0.5,0c-0.1,0-0.2-0.1-0.3-0.2c-0.2-0.1-0.4-0.2-0.5-0.3c0.3-0.1,0.5-0.2,0.8-0.3C54.4,84.5,54.5,84.3,54.6,84.2
		L54.6,84.2z"/>
	<path class="st1" d="M57.6,85c0.9-0.2,1.9-0.4,2.8-0.7c0,0.1,0,0.2-0.1,0.2c-0.3,0.1-0.7,0.2-1,0.4c-0.5,0.2-1.1,0.3-1.5,0.6
		c0,0,0,0.1,0.1,0.2c0,0-0.1,0.1-0.2,0.1c0-0.1,0-0.3,0-0.4c-0.1,0-0.3,0-0.4,0C57.3,85.2,57.4,85.1,57.6,85L57.6,85z"/>
	<path class="st0" d="M55.9,84.7c0.1-0.1,0.2-0.3,0.4-0.4c0.3,0.2,0.6,0.3,0.9,0.5c-0.3,0.2-0.7,0.4-0.6,0.8
		c0.2-0.1,0.4-0.3,0.5-0.4c0,0.1,0,0.2,0,0.3c-0.2,0-0.3,0.1-0.3,0.3c0.2,0,0.3-0.1,0.5-0.1c0.1,0,0.2-0.1,0.3-0.1
		c0,0.2,0,0.4-0.1,0.5c-0.3,0.1-0.6,0.3-0.9,0.3c-0.3,0-0.6-0.2-0.9-0.3c0-0.1,0-0.3,0.1-0.4c0,0-0.1-0.1-0.2-0.1
		c0.1-0.1,0.1-0.2,0.2-0.3c0-0.1-0.1-0.3-0.2-0.4C55.7,84.8,55.8,84.8,55.9,84.7L55.9,84.7z"/>
	<path class="st1" d="M50.1,84.6c0.2,0.1,0,0.3-0.2,0.3C49.8,84.8,50,84.5,50.1,84.6L50.1,84.6z"/>
	<path class="st3" d="M52.1,85.4c0.3-0.3,0.6-0.4,1-0.4l0,0.1c-0.6-0.1-0.8,0.6-1.3,0.8c-0.1-0.1-0.2-0.3-0.3-0.4
		c0.1-0.1,0.2-0.2,0.3-0.3l0.1,0C52,85.3,52.1,85.4,52.1,85.4L52.1,85.4z"/>
	<path class="st1" d="M59.1,85.3c0-0.3,0.3-0.2,0.5-0.2c0.3,0,0.5-0.1,0.7-0.1c-0.3,0.3-0.7,0.3-0.9,0.6c0.3,0,0.6,0,1-0.1
		c0.1,0,0.2,0.1,0.3,0.2c0.5-0.1,1-0.4,1.5-0.4c-0.3,0.5-0.9,0.5-1.3,0.7c-0.3-0.1-0.6-0.2-1-0.3c-0.1,0.1-0.2,0.2-0.3,0.3
		c0-0.1-0.1-0.2-0.1-0.3c-0.1,0-0.2,0.1-0.4,0.1C59,85.7,59,85.5,59.1,85.3L59.1,85.3z"/>
	<path class="st1" d="M49.4,85.4c0.2-0.1,0.3-0.1,0.5-0.2c0,0.1,0,0.3,0,0.4c0,0.1-0.1,0.2-0.2,0.2c-0.1,0-0.2,0-0.3,0.1
		C49.4,85.7,49.4,85.5,49.4,85.4L49.4,85.4z"/>
	<path class="st2" d="M50.4,85.5c0.4-0.2,0.9-0.2,1.4-0.2c-0.1,0.1-0.2,0.2-0.3,0.3c0.1,0.1,0.2,0.3,0.3,0.4
		c-0.2,0.1-0.4,0.2-0.6,0.3c0-0.2-0.1-0.3-0.1-0.5c0,0.1,0,0.3,0,0.4c-0.5-0.2-1-0.1-1.4,0.3c0-0.1,0-0.3,0-0.4
		c-0.3,0.1-0.7,0.2-1,0.3c0.1-0.2,0-0.3-0.1-0.5c0.2-0.1,0.3-0.3,0.5-0.4c0,0.1,0,0.3,0,0.4c0.1,0,0.2,0,0.3,0c0.1,0,0.2,0,0.3-0.1
		c0.5,0.1,0.9,0,1.3-0.1C50.8,85.6,50.6,85.6,50.4,85.5L50.4,85.5z"/>
	<path class="st4" d="M51.8,85.9c0.5-0.1,0.7-0.9,1.3-0.8c0,0.1,0,0.4,0.1,0.5c0.3,0,0.6,0,0.9-0.2c0.1,0,0.2-0.1,0.3-0.1
		c0.2,0,0.3,0,0.5,0c0,0,0.1,0.1,0.1,0.1c0.2,0,0.4,0,0.6-0.1c0,0,0.1,0.1,0.2,0.1c0,0.1,0,0.3-0.1,0.4c-0.6,0-1.5,0.1-1.5,0.8
		c-0.1,0-0.3,0-0.4,0c0,0,0.1,0.1,0.2,0.2c0,0.1,0,0.3,0,0.4c-0.1,0-0.3,0-0.4,0c-0.1,0.1-0.2,0.3-0.3,0.4c-0.2-0.3-0.4-0.7-0.8-0.8
		c-0.2-0.1-0.3,0.1-0.5,0.2c-0.1,0.1-0.3,0.1-0.4,0.2c-0.1,0-0.3,0.1-0.4,0.2c0,0.1,0,0.2,0,0.3c0,0,0,0.1,0,0.1
		c0,0.1,0.1,0.3,0.1,0.4c0,0.1-0.1,0.2-0.2,0.3c-0.2,0-0.4,0.1-0.6,0.1l-0.1,0c-0.1,0-0.2,0-0.4,0c-0.1,0.1-0.2,0.2-0.2,0.4
		c-0.1,0-0.2,0.1-0.3,0.1c-0.2,0.1-0.4,0.1-0.6,0.2c-0.1,0.2-0.2,0.4-0.4,0.6c-0.4,0.1-0.8,0.3-1,0.6c-0.1,0-0.3,0.1-0.4,0.1
		c-0.1-0.1-0.2-0.2-0.2-0.2c-0.4,0.2-0.9,0-1.2-0.2c0,0.1,0,0.3,0,0.4c-0.1,0-0.2-0.1-0.2-0.1c0-0.1-0.1-0.2-0.1-0.3
		c-0.1,0-0.2,0.1-0.4,0.1c0,0.2,0.1,0.3,0.1,0.5c-0.2,0-0.5,0.1-0.7,0.1c-0.2,0.4-0.4,0.8-0.6,1.2c-0.1,0.3-0.4,0.1-0.6,0.1
		c-0.4,0.2-0.6,0.6-0.7,1c-0.3,0-0.6-0.1-0.8-0.1c-0.2,0.7-1,0.8-1.5,1.2c-0.1-0.1-0.1-0.3-0.2-0.4c-0.2,0.1-0.3,0.2-0.5,0.3
		c0.1,0,0.3,0.1,0.4,0.1c0,0.2-0.1,0.4-0.1,0.6c-0.3,0-0.6,0.2-0.9,0.3c-0.2-0.2-0.4-0.4-0.6-0.6c-0.2,0.4-0.5,0.8-0.2,1.2
		c0,0.1-0.1,0.2-0.1,0.3c-0.1-0.1-0.2-0.3-0.2-0.4c-0.1,0.1-0.2,0.2-0.2,0.3c0.1,0.1,0.2,0.2,0.3,0.3c-0.4,0.3-0.8,0.2-1.2,0
		c0-0.1-0.1-0.3-0.2-0.3c-0.5,0.3-0.8,0.9-1.4,1.2c-0.6,0.4-1.5,0.6-1.7,1.4c0.2,0,0.4,0.1,0.7,0.1c-0.1,0.1-0.2,0.3-0.3,0.4
		c0,0.3-0.1,0.7-0.1,1c0.2-0.1,0.5-0.1,0.6-0.3c0.2-0.3,0.5-0.5,0.8-0.7c0,0.1,0,0.3,0,0.4c-0.2,0-0.3,0.1-0.5,0.1
		c-0.3,0.4-0.5,0.9-0.9,1.3c0-0.2,0-0.4,0-0.5c-0.2-0.1-0.4-0.2-0.6-0.4c0-0.1,0-0.2,0-0.2c-0.4-0.2-0.7-0.3-1.2-0.2
		c0.1,0.1,0.1,0.2,0.2,0.2c-0.2,0-0.4,0-0.6,0.1c0,0.1,0,0.2,0,0.3c0.1,0,0.2,0.1,0.3,0.1c0,0.1,0.1,0.2,0.1,0.2
		c0.2-0.1,0.5-0.2,0.7-0.4c0,0.2,0,0.5,0,0.7c-0.4,0.2-0.8,0.3-1.2,0.3c0.1,0.1,0.2,0.2,0.2,0.3c-0.5,0.1-0.9,0.5-1.5,0.6
		c-0.5,0.1-1,0.3-1.5,0.5c0.1,0.1,0.2,0.2,0.3,0.2c-0.1,0-0.3,0.1-0.4,0.1c0.2,0.1,0.3,0.2,0.5,0.3c-0.1,0.2-0.1,0.5-0.2,0.6
		c-0.4,0-0.7-0.2-1-0.4c0.3,0,0.5,0.1,0.8,0.1c-0.3-0.4,0-0.9,0-1.4c-0.1,0.1-0.3,0.2-0.4,0.3c-0.1,0-0.2,0.1-0.3,0.1
		c0,0.1-0.1,0.2-0.1,0.3c-0.1,0-0.2,0.1-0.2,0.1c0,0.3,0,0.6-0.2,0.9c0.1,0,0.3-0.1,0.4-0.1c0,0-0.1,0.1-0.2,0.2
		c-0.2,0.1-0.5,0.2-0.7,0.3c-0.2,0-0.4-0.1-0.6-0.1c0-0.1,0.1-0.2,0.1-0.3c0-0.1-0.1-0.1-0.1-0.2c0.1-0.1,0.2-0.1,0.3-0.2
		c0-0.1,0-0.2-0.1-0.4c0.1-0.1,0.1-0.2,0.2-0.3c0,0-0.1-0.1-0.1-0.1c0-0.1,0.1-0.2,0.1-0.3v0c0.1-0.4,0.1-0.8,0-1.2
		c-0.1-0.3,0.1-0.6,0.2-0.8c-0.1-0.2-0.1-0.4-0.2-0.6c-0.4,0.3-0.8,0.7-1.3,0.6c0.1,0,0.3-0.1,0.4-0.1c-0.1-0.2-0.3-0.3-0.4-0.5
		c0.2-0.4,0.7-0.3,1.1-0.2c0-0.1,0.1-0.2,0.1-0.2c-0.2-0.2-0.4-0.5-0.5-0.8c-0.1-0.1-0.2-0.2-0.3-0.2c0.1,0,0.3,0,0.4-0.1
		c0.2,0,0.5,0.1,0.6,0.3c0.2,0.4,0.2,0.7,0.2,1.1l0.2-0.1c0.1-0.1,0.1-0.2,0.2-0.3c0,0,0.1-0.1,0.2-0.1c0-0.1,0.1-0.2,0.1-0.3
		c0.2,0,0.3,0,0.5-0.1c0.6-0.8,1.5-1.3,2.3-2c0.5-0.6,1.2-0.8,1.7-1.4c0,0.1,0,0.2,0,0.3c0,0.1,0,0.2-0.1,0.2
		c-0.1,0.2-0.2,0.4-0.5,0.5c-0.1,0.1-0.3,0.2-0.4,0.2c0.1,0.1,0.1,0.2,0.2,0.3c0.1-0.1,0.3-0.2,0.4-0.2c0.2,0,0.4,0.1,0.6,0.1
		c0.4-0.3,0.7-0.6,0.9-1c0,0.1,0.1,0.2,0.2,0.2c0.3-0.2,0.5-0.4,0.9-0.5c0.2-0.4,0.5-0.9,1-1c0.1,0.2,0.1,0.3,0.2,0.4
		c0.1,0,0.2-0.1,0.2-0.1c0-0.2,0-0.4,0-0.6c0.1-0.1,0.2-0.2,0.2-0.3c0-0.1,0-0.2-0.1-0.2c0-0.1-0.1-0.2-0.2-0.3
		c-0.2-0.1-0.5,0-0.7,0c-0.1-0.1-0.1-0.1-0.2-0.2c0.3-0.1,0.6-0.2,0.8-0.3c-0.1,0.1-0.2,0.2-0.3,0.3c0.3-0.1,0.6-0.1,0.9-0.2
		c-0.1-0.1-0.2-0.3-0.2-0.4c0.2-0.1,0.5-0.2,0.7-0.2c0.1-0.1,0.1-0.3,0.2-0.4c0.1,0.1,0.1,0.2,0.2,0.3c0,0,0,0.1,0.1,0.2
		c-0.1,0.1-0.3,0.2-0.4,0.3c0,0.2,0.1,0.4,0.1,0.6c0.1,0.1,0.3,0.1,0.4,0.2c0,0.1,0,0.2,0,0.3c0.2,0.1,0.3,0.2,0.5,0.2
		c0.2,0,0.3-0.3,0.4-0.5c0.3,0,0.5-0.2,0.6-0.5c-0.2,0.1-0.3,0.2-0.5,0.3c0.1-0.2,0-0.5,0.2-0.5c0.3,0,0.5,0.2,0.8,0.3
		c-0.1-0.2-0.2-0.4-0.3-0.5c0.3,0,0.5,0,0.7,0c-0.3-0.2-0.6-0.3-0.8-0.7c0.2-0.2,0.5-0.1,0.8-0.1c0.1-0.3,0-0.5-0.1-0.8
		c0.5-0.3,1.1-0.3,1.5,0.1c0.1-0.1,0.1-0.2,0.2-0.2c0.1,0.1,0.3,0.1,0.4,0.2c0.1-0.2,0.2-0.4,0.3-0.6c0.1,0,0.2-0.1,0.3-0.1
		c0-0.1,0-0.2,0-0.3c0.2,0,0.4,0,0.5,0c0,0.4,0.1,0.7,0.3,1c0.1-0.2,0.2-0.3,0.3-0.5c0.1,0.1,0.2,0.1,0.3,0.2c0-0.1,0-0.3,0.1-0.4
		c-0.2-0.1-0.3-0.1-0.5-0.2c0.1-0.4,0.4-0.8,0.8-0.9c-0.1-0.1-0.2-0.2-0.2-0.3c0.2,0,0.3,0,0.5,0c0.1-0.2,0.2-0.5,0.2-0.7
		c-0.4,0-0.6,0.2-0.8,0.5c-0.1-0.1-0.2-0.1-0.4-0.2c0.2-0.2,0.3-0.4,0.5-0.5c-0.3,0.1-0.6,0.2-0.9,0.4c0-0.1,0-0.2,0-0.3
		c0,0,0.1-0.1,0.1-0.1c0.2-0.3,0.6-0.3,0.9-0.3c-0.1,0-0.3,0-0.4,0c0-0.1,0.1-0.2,0.2-0.3c0.1-0.1,0.2-0.2,0.3-0.3
		c0,0.1,0,0.3,0,0.4c0.3-0.1,0.6-0.2,0.8-0.4c0,0,0-0.1,0-0.2c0.3,0.1,0.8,0.1,0.6-0.3c-0.1-0.1-0.2-0.1-0.3,0
		c0.1-0.2,0.4-0.3,0.6-0.5l0,0.1l-0.2,0.1l-0.1,0.2c0.2,0.3,0.4-0.1,0.6-0.2l0,0.2c0,0,0,0.1,0,0.1c-0.2,0-0.4,0-0.6,0.1
		c0,0,0,0.1,0,0.1c0.6,0.1,1.2-0.3,1.7-0.6c0.1-0.1,0.2-0.3,0.2-0.4c-0.2-0.1-0.4,0-0.5,0.2c0-0.1,0-0.3,0-0.4
		c0.1,0,0.2,0.1,0.4,0.1c0.1,0,0.3,0.1,0.4,0.1c0,0.2,0,0.3,0.1,0.5c0.1-0.1,0.2-0.3,0.2-0.5c0.2,0,0.5-0.1,0.7-0.2
		c0,0.1,0.1,0.3,0.1,0.4c0,0,0.1-0.1,0.1-0.1c0.4-0.3,0.9-0.5,1.4-0.3c0-0.1,0-0.3,0-0.4c0,0.2,0.1,0.3,0.1,0.5
		C51.4,86.1,51.6,86,51.8,85.9L51.8,85.9z"/>
	<path class="st1" d="M53.6,85.2c0.2-0.1,0.3,0.2,0.1,0.3C53.5,85.6,53.4,85.3,53.6,85.2L53.6,85.2z"/>
	<path class="st1" d="M54.1,85.2c0.1,0,0.2,0.1,0.3,0.2c-0.1,0-0.2,0.1-0.3,0.1C54.1,85.4,54.1,85.3,54.1,85.2L54.1,85.2z"/>
	<path class="st2" d="M57.2,85.3c0.1,0,0.3,0,0.4,0c0,0.1,0,0.3,0,0.4c0,0,0.1-0.1,0.2-0.1c0.2-0.1,0.4-0.2,0.6-0.3
		c0.2,0.1,0.5,0,0.6-0.1c0,0.2,0,0.4,0,0.6c0.1,0,0.2-0.1,0.4-0.1c0,0.1,0.1,0.2,0.1,0.3c0.1-0.1,0.2-0.2,0.3-0.3
		c0.3,0.1,0.6,0.2,1,0.3c-0.5,0.1-1,0.3-1.4,0.6c0,0.1,0.1,0.4,0.1,0.5c-0.1,0-0.3,0-0.4,0c-0.1-0.4-0.1-0.8-0.2-1.2
		c-0.1,0-0.2-0.1-0.2-0.1c0,0.3,0,0.6,0,0.9c-0.2,0-0.3-0.1-0.5-0.1c-0.3,0.1-0.6,0.1-0.9,0.1c0,0.1,0,0.2,0,0.4c-0.1,0-0.2,0-0.2,0
		c-0.1-0.2-0.1-0.3-0.2-0.5c0,0.1-0.1,0.2-0.1,0.3c-0.1,0-0.2,0-0.3,0c0.1,0.2,0.2,0.3,0.3,0.5c-0.1,0-0.2,0-0.3,0.1
		c0,0.3,0,0.5,0,0.8c-0.2-0.1-0.3-0.1-0.5-0.2c-0.2,0.1-0.4,0.3-0.6,0.4c-0.3,0-0.5-0.1-0.8-0.1c0,0.1-0.1,0.2-0.2,0.2
		c-0.2,0.1-0.4,0.1-0.7,0.2c0.2,0.4,0.2,0.9,0,1.3c0.3-0.1,0.7-0.1,1-0.1c-0.5,0.2-0.9,0.5-1.5,0.3c0,0.1,0,0.2,0,0.3
		c-0.1-0.2-0.2-0.4-0.4-0.5c0,0.4,0.2,0.8,0.4,1.2c-0.2-0.1-0.4-0.2-0.6-0.3c-0.1,0.2-0.1,0.3-0.2,0.5c0-0.2,0-0.3-0.1-0.5
		c-0.1,0.1-0.1,0.1-0.2,0.2c-0.1-0.1-0.2-0.2-0.3-0.3c-0.1,0.3-0.3,0.7-0.4,1c-0.1-0.1-0.1-0.2-0.2-0.4c-0.5,0-0.9,0.2-1.2,0.5
		c0,0.1,0.1,0.2,0.2,0.3c0.2,0.1,0.5,0.1,0.7,0.2c-0.4-0.1-0.8,0.2-1.1,0.4c0,0.1-0.1,0.2-0.1,0.3c-0.3,0-0.6-0.1-0.9-0.1
		c0.4-0.3,0.8-0.6,1.1-1c-0.2-0.1-0.3-0.2-0.5-0.3c-0.4,0.4-0.7,0.9-1.1,1.3c0.1,0,0.3,0,0.3,0c0,0.2-0.1,0.4-0.1,0.5
		c-0.1-0.1-0.2-0.3-0.3-0.4c-0.2,0-0.5,0.1-0.7,0.2c0.4-0.4,0.8-0.7,1.2-1.1c0.4-0.4,1-0.6,1.3-1.1C50.1,91,50,91.2,50,91.4
		c0.2,0,0.5,0,0.6,0c0-0.2,0-0.5-0.1-0.7c0,0.1,0.1,0.2,0.2,0.3c0.5-0.4,1.1-0.7,1.5-1.2c0-0.1,0-0.2,0-0.3c0.1,0,0.2-0.1,0.2-0.2
		c0,0,0,0,0,0c0.2-0.1,0.3-0.3,0.5-0.4c0.1,0,0.2,0.1,0.4,0.1c0-0.1-0.1-0.3-0.1-0.4c0.2-0.1,0.5-0.3,0.5-0.5
		c-0.3,0.1-0.6,0.3-0.9,0.3c-0.3-0.4-0.6-0.7-1.1-0.6c0.2,0.2,0.4,0.3,0.6,0.5c0,0.2-0.1,0.4-0.1,0.6c0,0-0.1,0.1-0.1,0.1l0.1-0.2
		c-0.2,0-0.5,0-0.7,0.1c0,0.1,0,0.2,0,0.4c-0.4,0.3-0.9,0.5-1.3,0.8c0,0.1,0,0.2,0,0.2c-0.2,0.4-0.6,0.5-1,0.8
		c-0.3,0.2-0.5,0.5-0.8,0.7c-0.2,0-0.3,0-0.5-0.1c-0.1,0.3-0.5,0.5-0.7,0.2c0,0.2-0.2,0.4-0.3,0.6l0.2,0c-0.1,0.1-0.2,0.2-0.3,0.3
		c0.1,0,0.2,0,0.3,0c-0.4,0.3-0.7,0.6-1,1c0-0.2-0.2-0.3-0.4-0.2c-0.1,0.2,0.1,0.4,0.2,0.4c-0.1,0.1-0.2,0.3-0.3,0.5
		C45,94.1,44.6,94.7,44,95c0.3-0.4,0.6-0.7,1-1.1c0-0.1,0-0.2,0-0.3c0.3-0.2,0.5-0.5,0.7-0.8c0,0,0.1-0.1,0.2-0.1
		c0.2-0.3,0.4-0.6,0.6-0.9c0.2,0,0.5,0,0.7-0.1c-0.1-0.1-0.2-0.2-0.2-0.3c0.1,0,0.3-0.1,0.4-0.1c-0.1-0.2-0.3-0.3-0.4-0.5l0.1,0
		c0.1-0.1,0.3-0.1,0.4-0.1c0,0.1,0,0.4,0,0.5c0.4-0.2,0.5-0.7,1-0.9c0.2-0.1,0.4-0.2,0.6-0.4c0.1-0.2-0.1-0.3-0.2-0.5
		c0.2-0.1,0.4-0.1,0.6-0.2c-0.1,0.2-0.2,0.3-0.3,0.5c0.1-0.1,0.3-0.1,0.4-0.2c0.1-0.2,0.2-0.3,0.4-0.4c0-0.1,0-0.2,0-0.3
		c0.1,0,0.2,0,0.4,0c-0.1,0.1-0.1,0.3-0.2,0.4c0.1,0.1,0.2,0.1,0.3,0.2c0-0.2,0-0.4,0-0.6c0.2-0.1,0.4-0.1,0.6-0.1
		c0-0.1,0.1-0.2,0.2-0.3c0-0.1-0.1-0.3-0.1-0.4c0.2-0.1,0.4-0.3,0.6-0.4c-0.1-0.1-0.1-0.1-0.2-0.2c0.1-0.1,0.3-0.1,0.4-0.2
		c0.1-0.1,0.3-0.3,0.5-0.2c0.4,0.1,0.6,0.5,0.8,0.8c0.1-0.1,0.2-0.3,0.3-0.4c0.1,0,0.3,0,0.4,0c0-0.1,0-0.3,0-0.4
		c0.4,0,0.8-0.2,1-0.5c-0.3,0.1-0.5,0.4-0.8,0.4c0-0.7,0.9-0.8,1.5-0.8c0.3,0.1,0.6,0.2,0.9,0.3c0.3,0,0.6-0.2,0.9-0.3
		c0-0.2,0-0.4,0.1-0.5c-0.1,0-0.2,0.1-0.3,0.1C57.2,85.5,57.2,85.4,57.2,85.3L57.2,85.3z"/>
	<path class="st3" d="M51.2,85.6c0-0.2,0.1-0.2,0.3-0.1C51.4,85.7,51.3,85.7,51.2,85.6L51.2,85.6z"/>
	<path class="st3" d="M53.5,85.9c0.2-0.1,0.5-0.2,0.7-0.2c-0.1,0.3-0.2,0.6-0.5,0.7c-0.1,0-0.3-0.1-0.4-0.2
		C53.4,86.2,53.5,86,53.5,85.9L53.5,85.9z"/>
	<path class="st0" d="M58.7,85.7c0.1,0,0.2,0.1,0.2,0.1c0,0.4,0.1,0.8,0.2,1.2c0.1,0,0.3,0,0.4,0c0.2,0,0.5,0.1,0.7-0.2
		c0,0.1-0.1,0.2-0.1,0.3c-0.4,0.2-0.6,0.5-1,0.7c-0.1,0-0.2,0-0.3,0.1c-0.2,0.3-0.5,0.4-0.8,0.5c-0.5,0.2-0.9,0.4-1.3,0.7
		c0.2,0.1,0.4,0.2,0.6,0.1c-0.2,0.2-0.4,0.4-0.6,0.5c-0.5,0-0.8,0.3-1.1,0.6c-0.1,0-0.2-0.1-0.3-0.1c-0.1,0.2-0.2,0.4-0.5,0.4
		c0.1,0.1,0.2,0.1,0.3,0.2c-0.1,0-0.1,0.1-0.2,0.1c-0.1-0.1-0.3-0.2-0.5-0.2c-0.2-0.2-0.4,0.1-0.1,0.2l-0.1,0
		c-0.5,0-0.9,0.2-1.3,0.3c0,0.3-0.1,0.6-0.1,0.8v0c-0.1,0-0.3,0.1-0.4,0.1c0.1-0.1,0.2-0.3,0.3-0.4c-0.2,0-0.5,0-0.6,0
		c-0.1,0.3-0.3,0.4-0.5,0.6c-0.3,0.2-0.6,0.4-0.9,0.7c0-0.1-0.2-0.3-0.3-0.1c-0.1,0.2-0.2,0.4-0.3,0.6c0.1,0,0.3,0,0.4,0
		c0,0.1-0.1,0.2-0.1,0.3c0-0.1-0.1-0.2-0.1-0.3c-0.1,0-0.2,0.1-0.3,0.1c0-0.1,0-0.2,0-0.2h-0.2c0,0.5-0.6,0.7-0.5,1.1
		c0.2-0.1,0.5-0.1,0.6-0.4c0.1,0,0.2,0.1,0.2,0.1c0-0.1,0.1-0.2,0.1-0.3c0.2,0,0.4,0,0.5,0c0.1-0.1,0.1-0.2,0.2-0.3
		c0,0.1,0.1,0.2,0.1,0.2c-0.2,0.1-0.3,0.2-0.5,0.3c0,0.1-0.1,0.2-0.2,0.2c-0.1,0-0.2,0-0.3,0c-0.2,0.1-0.4,0.2-0.5,0.3
		c-0.1,0.1-0.2,0.3-0.3,0.4C49.3,95,49.1,95,49,95c0-0.2,0.1-0.5,0.1-0.7c-0.3,0.1-0.6,0.2-0.7,0.6c0-0.1,0-0.2,0-0.2
		c-0.3,0.2-0.6,0.4-0.9,0.6c0-0.1-0.1-0.2-0.2-0.2c0,0.1,0,0.3,0.1,0.4c0.2,0,0.4-0.1,0.6-0.1c0.1,0,0.3,0,0.4,0c0,0.1,0,0.2,0,0.3
		c-0.3,0.2-0.6,0.2-0.9,0.5c0-0.1,0-0.4,0-0.5c-0.1,0-0.2,0.1-0.2,0.2c-0.1,0.2-0.1,0.3-0.2,0.5c-0.2,0-0.5,0-0.7,0
		c-0.2,0.2-0.4,0.5-0.6,0.6c-0.1,0-0.2-0.1-0.3-0.1c0.3-0.3,0.1-0.7,0.5-1c0,0.1,0,0.3,0,0.4c0.2,0,0.3-0.1,0.4-0.3
		c0.2,0,0.4,0.2,0.5,0c0.1-0.2,0.1-0.4,0.1-0.6c0.1-0.1,0.1-0.2,0.2-0.3c0.1,0,0.2-0.1,0.3-0.1c0.1-0.1,0.2-0.2,0.2-0.2
		c0.3-0.3,0.6-0.6,0.7-1c-0.2,0-0.3-0.1-0.5-0.1c0,0.1,0,0.2,0,0.3c-0.1,0-0.2,0-0.2-0.1c0-0.3-0.4-0.3-0.4,0
		c-0.2-0.1-0.3-0.2-0.4-0.2c0.3-0.2,0.5-0.3,0.7-0.5c0.2-0.1,0.5-0.1,0.7-0.2c0.1,0.1,0.2,0.3,0.3,0.4c0-0.2,0.1-0.4,0.1-0.5
		c0,0,0.1,0,0.2,0c0.3,0,0.6,0.1,0.9,0.1c0-0.1,0.1-0.2,0.1-0.3c0.3-0.3,0.7-0.5,1.1-0.4c-0.1,0.2-0.2,0.4-0.3,0.6
		c0.3-0.1,0.5-0.3,0.7-0.5c-0.1,0-0.3-0.1-0.3-0.1c-0.3-0.1-0.5-0.1-0.7-0.2c0-0.1-0.1-0.2-0.2-0.3c0.3-0.3,0.8-0.5,1.2-0.5
		c0.1,0.1,0.1,0.2,0.2,0.4c0.1-0.3,0.2-0.7,0.4-1c0.1,0.1,0.2,0.2,0.3,0.3c0.1-0.1,0.1-0.1,0.2-0.2c0,0.2,0,0.3,0.1,0.5
		c0.1-0.2,0.1-0.3,0.2-0.5c0.2,0.1,0.4,0.2,0.6,0.3c-0.2-0.4-0.3-0.8-0.4-1.2c0.2,0.1,0.3,0.3,0.4,0.5c0-0.1,0-0.2,0-0.3
		c0.5,0.2,1-0.1,1.5-0.3c-0.3-0.1-0.7,0-1,0.1c0.2-0.4,0.2-0.9,0-1.3c0.2-0.1,0.4-0.1,0.7-0.2c0-0.1,0.1-0.2,0.2-0.2
		c0.3,0,0.5,0.1,0.8,0.1c0.2-0.1,0.4-0.3,0.6-0.4c0.2,0.1,0.3,0.1,0.5,0.2c0-0.3,0-0.5,0-0.8c0.1,0,0.2,0,0.3-0.1
		c-0.1-0.2-0.2-0.3-0.3-0.5c0.1,0,0.2,0,0.3,0c0-0.1,0.1-0.2,0.1-0.3c0.1,0.2,0.1,0.3,0.2,0.5c0.1,0,0.2,0,0.2,0c0-0.1,0-0.2,0-0.4
		c0.3,0,0.6,0,0.9-0.1c0.2,0,0.3,0.1,0.5,0.1C58.7,86.3,58.7,86,58.7,85.7L58.7,85.7z"/>
	<path class="st3" d="M55,86.5c0.2-0.3,0.6-0.4,0.9-0.3c0,0.1-0.1,0.2-0.1,0.2C55.5,86.4,55.3,86.4,55,86.5L55,86.5z"/>
	<path class="st0" d="M46.9,86.4c0.2,0.1,0.4,0.2,0.5,0.5c0-0.1,0-0.3,0-0.3c0.1,0,0.4,0.1,0.5,0.2c-0.5,0.3-1.1,0.7-1.7,0.6
		c0,0,0-0.1,0-0.1c0.2,0,0.4-0.1,0.6-0.1c0,0,0-0.1,0-0.1C46.9,86.9,46.9,86.6,46.9,86.4L46.9,86.4z"/>
	<path class="st3" d="M54.1,86.8c0.3,0,0.5-0.3,0.8-0.4c-0.3,0.3-0.6,0.5-1,0.5c0-0.1-0.1-0.2-0.2-0.2C53.9,86.8,54,86.8,54.1,86.8
		L54.1,86.8z"/>
	<path class="st2" d="M45.2,87.3c0,0,0.1-0.1,0.2-0.2c0,0.1,0,0.2,0,0.3c0,0,0,0.1,0,0.2c-0.1,0-0.3-0.1-0.4-0.1l0.1,0.3l-0.4,0
		C44.5,87.4,44.9,87.3,45.2,87.3L45.2,87.3z"/>
	<path class="st1" d="M52.7,87.3c0.2,0,0.1,0.3-0.1,0.3C52.5,87.6,52.6,87.3,52.7,87.3L52.7,87.3z"/>
	<path class="st3" d="M51.2,87.5c0.1,0,0.3-0.1,0.4-0.2c0.1,0.1,0.1,0.1,0.2,0.2c-0.2,0.1-0.4,0.2-0.6,0.4c0,0,0-0.1,0-0.1
		C51.2,87.7,51.2,87.6,51.2,87.5L51.2,87.5z"/>
	<path class="st1" d="M43.5,88.3c0-0.3,0.5-0.4,0.8-0.4c0,0.1-0.1,0.2-0.2,0.3c0.1,0,0.3,0,0.4,0c-0.3,0-0.6,0.1-0.9,0.3
		C43.6,88.4,43.6,88.3,43.5,88.3L43.5,88.3z"/>
	<path class="st3" d="M50,87.9c0.1-0.1,0.5-0.1,0.3,0.1C50.2,88.2,49.8,88.1,50,87.9L50,87.9z"/>
	<path class="st4" d="M51.7,87.8c0.5-0.1,0.8,0.3,1.1,0.6c-0.2,0.1-0.4,0.3-0.6,0.5c0.1-0.2,0.1-0.4,0.1-0.6
		C52.1,88.1,51.9,87.9,51.7,87.8L51.7,87.8z"/>
	<path class="st1" d="M51.4,88c0.2,0,0.2,0.1,0.1,0.3C51.3,88.2,51.3,88.1,51.4,88L51.4,88z"/>
	<path class="st3" d="M52.8,88.4c0.3,0,0.6-0.2,0.9-0.3c0,0.3-0.3,0.4-0.5,0.5c0,0.1,0.1,0.3,0.1,0.4c-0.1,0-0.2-0.1-0.4-0.1
		c-0.2,0.1-0.3,0.3-0.5,0.4c0,0,0,0,0,0c-0.1,0-0.2,0.1-0.2,0.2c0,0.1,0,0.2,0,0.3c-0.4,0.5-1,0.8-1.5,1.2c0-0.1-0.1-0.2-0.2-0.3
		c0,0.2,0,0.5,0.1,0.7c-0.2,0-0.5,0-0.6,0c0.1-0.2,0.1-0.4,0.2-0.6c-0.3,0.5-0.9,0.7-1.3,1.1c-0.4,0.4-0.8,0.7-1.2,1.1
		c-0.2,0.2-0.5,0.4-0.7,0.5c0,0.2-0.1,0.3-0.1,0.5c-0.5,0.3-0.8,0.7-1.1,1.2c-0.1,0.2-0.4,0.2-0.6,0.3c0-0.1,0-0.3,0-0.4
		c0-0.3,0.1-0.5,0.1-0.7c0.1,0,0.3-0.1,0.4-0.1c0.1-0.2,0.2-0.3,0.3-0.5c0,0,0.1-0.1,0.1-0.2c0.3-0.4,0.6-0.7,1-1
		c0.3-0.2,0.5-0.4,0.7-0.6c-0.2,0-0.5,0-0.6,0l0.3,0.2c-0.2,0-0.4,0.1-0.6,0.2c0.1-0.2,0.3-0.3,0.3-0.6c0.2,0.4,0.6,0.1,0.7-0.2
		c0.2,0,0.3,0,0.5,0.1c0.3-0.3,0.5-0.5,0.8-0.7c0.3-0.3,0.7-0.5,1-0.8c0.7-0.4,1.3-0.7,1.9-1.2c0,0,0.1-0.1,0.1-0.1
		C52.4,88.7,52.6,88.5,52.8,88.4L52.8,88.4z"/>
	<path class="st0" d="M42.9,88.6c0-0.3,0.4-0.3,0.6-0.3c0,0.1,0.1,0.2,0.2,0.2c0,0-0.1,0.1-0.1,0.1c-0.4,0.3-0.7,0.6-1,1
		c-0.2-0.1-0.5-0.2-0.7,0c-0.4,0.3-0.9,0.6-1.4,0.7c-0.4,0.6-1.2,0.7-1.8,1.1c0-0.1-0.1-0.2-0.2-0.3c0.1-0.1,0.3-0.2,0.4-0.3
		c0.6-0.3,1.1-0.7,1.6-1c0.6-0.3,1.1-0.8,1.7-1c0.1,0.1,0.2,0.2,0.3,0.3c-0.1-0.1-0.2-0.3-0.3-0.4C42.5,88.5,42.7,88.5,42.9,88.6
		L42.9,88.6z"/>
	<path class="st2" d="M50.9,88.3c0.5-0.1,0,0.5-0.1,0.2C50.8,88.4,50.9,88.4,50.9,88.3L50.9,88.3z"/>
	<path class="st5" d="M43.7,88.8c0.3-0.1,0.6-0.3,0.9-0.4c-0.2,0.2-0.3,0.4-0.5,0.5c0.1,0.1,0.2,0.1,0.4,0.2
		c0.2-0.3,0.5-0.5,0.8-0.5c-0.1,0.2-0.2,0.5-0.2,0.7c-0.2,0-0.3,0-0.5,0c0.1,0.1,0.2,0.2,0.2,0.3c-0.5,0.1-0.7,0.5-0.8,0.9
		c0.2,0.1,0.3,0.1,0.5,0.2c0,0.1,0,0.3-0.1,0.4C44.2,91.1,44.1,91,44,91c-0.1,0.2-0.2,0.3-0.3,0.5c-0.2-0.3-0.3-0.7-0.3-1
		c-0.2,0-0.4,0-0.5,0c0,0.1,0,0.2,0,0.3c-0.1,0-0.2,0.1-0.3,0.1c-0.1,0.2-0.2,0.4-0.3,0.6c-0.1-0.1-0.3-0.1-0.4-0.2
		c-0.1,0.1-0.1,0.2-0.2,0.2c-0.4-0.4-1-0.4-1.5-0.1c0.1,0.2,0.2,0.5,0.1,0.8c-0.3,0-0.5-0.1-0.8,0.1c0.1,0.3,0.5,0.5,0.8,0.7
		c-0.3,0-0.5,0-0.7,0c0.1,0.2,0.2,0.4,0.3,0.5c-0.3-0.1-0.5-0.3-0.8-0.3c-0.2,0-0.2,0.3-0.2,0.5c0.2-0.1,0.3-0.2,0.5-0.3
		c-0.1,0.3-0.3,0.5-0.6,0.5c-0.1,0.2-0.1,0.5-0.4,0.5c-0.2,0-0.3-0.1-0.5-0.2c0-0.1,0-0.2,0-0.3c-0.1-0.1-0.3-0.1-0.4-0.2
		c0.1-0.1,0.2-0.2,0.3-0.3c0.2-0.1,0.4-0.1,0.6-0.2c0-0.1,0-0.3,0-0.4c-0.1,0-0.3,0-0.3,0h-0.2c0-0.1-0.1-0.2-0.1-0.2
		c-0.1-0.1-0.1-0.2-0.2-0.3c0.3-0.3,0.7-0.5,1-0.8c0-0.1,0-0.2,0-0.2c0,0,0-0.1,0-0.2c0.1,0.1,0.1,0.2,0.2,0.3
		c0.6-0.4,1.4-0.5,1.8-1.1c0.5,0,1-0.4,1.4-0.7c0.2-0.2,0.5-0.1,0.7,0c0.3-0.4,0.6-0.7,1-1C43.6,88.6,43.6,88.8,43.7,88.8L43.7,88.8
		z"/>
	<path class="st1" d="M15.4,89c0.5,0,1,0,1.4-0.1c0.3-0.1,0.7,0,1,0.2c0.2,0.1,0.5,0.2,0.7,0.3l0.2,0.1c-0.7,0-1.5,0-2.2,0.1
		c0.4-0.1,0.7-0.1,1-0.2c-0.2-0.2-0.5-0.1-0.8-0.1c-0.5,0.1-0.9,0-1.4,0C15.3,89.2,15.4,89,15.4,89L15.4,89z"/>
	<path class="st3" d="M49.8,89.1c0.1-0.1,0.2-0.2,0.2-0.4c0,0.1,0,0.2,0,0.3c-0.2,0.1-0.3,0.3-0.4,0.4c-0.1,0.1-0.3,0.1-0.4,0.2
		c0.1-0.2,0.2-0.3,0.3-0.5C49.6,89.2,49.8,89.1,49.8,89.1L49.8,89.1z"/>
	<path class="st1" d="M50.4,88.8l0.1,0c0,0.2,0,0.4,0,0.6c-0.1-0.1-0.2-0.1-0.3-0.2C50.3,89,50.4,88.9,50.4,88.8L50.4,88.8z"/>
	<path class="st4" d="M51.5,88.8c0.2,0,0.5,0,0.7-0.1l-0.1,0.2c-0.6,0.5-1.2,0.8-1.9,1.2c0-0.1,0-0.2,0-0.2c0.4-0.3,0.8-0.5,1.3-0.8
		C51.5,89,51.5,88.9,51.5,88.8L51.5,88.8z"/>
	<path class="st4" d="M17.8,89c0.4-0.1,0.9,0,1.3,0.1c0.4,0,0.8,0.1,1,0.5c-0.3,0-0.6,0.1-0.9,0.2c0-0.1,0.1-0.2,0.1-0.3
		c0,0-0.1-0.1-0.1-0.1c-0.2,0.1-0.3,0.2-0.5,0.1l-0.2-0.1C18.2,89.2,18,89.1,17.8,89L17.8,89z"/>
	<path class="st5" d="M19.1,89.3C19.2,89.3,19.2,89.4,19.1,89.3c0.1,0.2,0,0.3,0,0.4c0,0.1-0.1,0.2-0.1,0.4c0.2,0.1,0.3,0.1,0.5,0.2
		c0,0.6,0.3,1.1,0.6,1.6c-0.2,0.1-0.5,0.3-0.7,0.4c0.3,0.3,0.5,0.5,0.7,0.9c-0.1,0.4-0.1,0.8,0.1,1.2c0.2,0.4,0,0.8-0.1,1.2
		c-0.2,0-0.4,0.1-0.6,0.1c0.1,0.1,0.2,0.2,0.3,0.3c-0.1,0.2-0.2,0.4-0.3,0.6c0,0,0.1,0.1,0.2,0.2c-0.2,0.3-0.3,0.6-0.5,0.9
		c0,0-0.1,0-0.2,0.1c0-0.1,0-0.3,0-0.4c-0.1-0.1-0.2-0.1-0.3-0.1c-0.4,0.2-0.8,0.2-1.2,0.2c-0.3,0.1-0.6,0.2-1,0.2
		c-0.5,0.2-1,0.3-1.5,0.4c0,0.1-0.1,0.2-0.2,0.2c-0.2,0-0.3,0-0.5,0c-0.4,0.2-0.7,0.5-1,0.7c-0.5,0.2-1,0.4-1.4,0.6
		c-0.3,0.2-0.7,0.2-1,0.4c-0.4,0.3-0.8,0.6-1.3,0.8c-0.5,0.2-0.9,0.5-1.4,0.7c-0.5,0.1-0.9,0.3-1.3,0.5c0-0.1-0.1-0.2-0.2-0.3
		c0.3-0.3,0.6-0.5,1-0.5c0,0,0.1-0.1,0.1-0.2c0.2-0.1,0.4-0.1,0.6-0.2c0.1-0.2,0.1-0.4,0.1-0.5c0,0,0.1,0,0.1,0.1
		c0.2,0,0.3,0.1,0.5,0.1c0-0.1,0.1-0.2,0.1-0.2c0.5-0.2,1-0.6,1.7-0.6c0.1-0.2,0.1-0.4,0.2-0.5c0.1,0.1,0.2,0.2,0.3,0.2
		c0.1-0.2,0.1-0.4,0.2-0.5c0.1-0.1,0.3-0.2,0.4-0.3c0-0.2,0-0.3-0.1-0.5l0.1,0c0.1,0.2,0.1,0.3,0.2,0.5c0.6-0.1,1-0.7,1.6-0.5
		c0.6-0.4,1.3-0.6,2-0.7c0.3,0,0.5,0,0.7,0.1c0.3-0.4,0.5-0.8,0.6-1.2c0.2-0.6,0.7-1.1,1-1.7c-0.3-0.2-0.5-0.4-0.8-0.5
		c0.2-0.1,0.3-0.2,0.5-0.2c-0.2-0.2-0.4-0.4-0.6-0.5c0.2-0.4,0.5-0.7,0.8-0.9c0.1-0.4,0-0.7-0.2-1.1c0-0.1,0.1-0.2,0.1-0.2
		c-0.3-0.2-0.8-0.4-0.5-0.8c-0.1-0.1-0.1-0.1-0.2-0.2c-0.6-0.1-1.1,0-1.6,0.2c-1,0.3-2.1,0.4-2.9,1.2c-0.2,0-0.4,0-0.5,0
		c0.1,0.2,0.2,0.4,0.3,0.5c0.1,0,0.3,0,0.4,0c-0.2,0.2-0.3,0.5-0.5,0.7c-0.1,0-0.2,0-0.3,0c0,0.1,0,0.2,0,0.3c-0.1,0-0.3,0-0.4,0
		c-0.1,0.4-0.4,0.8-0.6,1.1l0,0c-0.1,0-0.3,0-0.4,0c-0.1,0.2-0.1,0.3-0.2,0.5c-0.2,0-0.3,0-0.5,0c-0.1,0.1-0.1,0.3-0.2,0.4
		c-0.2,0-0.3,0-0.5,0c-0.2,0.2-0.4,0.5-0.7,0.3c-0.6,0.2-1.2-0.1-1.6-0.5c0.3-0.2,0.6-0.4,0.8-0.7c-0.7,0.3-1.4,0.7-2.1,1
		c0-0.4,0.5-0.4,0.7-0.6c1.2-1,2.5-1.8,3.8-2.7c0.4-0.1,0.8-0.2,1.1-0.5c0.5-0.4,1.1-0.6,1.6-0.9L13,90c-0.1,0-0.2,0-0.3-0.1
		c0,0,0-0.1,0-0.1c0.1,0,0.2,0.1,0.2,0.1c0,0.1,0.1,0.2,0.2,0.3c0.1-0.1,0.2-0.1,0.3-0.2c0.3-0.1,0.6-0.2,0.9-0.3
		c0.7-0.2,1.4-0.2,2.1-0.4c0.7,0,1.5,0,2.2-0.1C18.8,89.5,19,89.4,19.1,89.3L19.1,89.3z"/>
	<path class="st0" d="M52.5,89.3C52.5,89.3,52.5,89.3,52.5,89.3C52.5,89.3,52.5,89.3,52.5,89.3L52.5,89.3z"/>
	<path class="st0" d="M20.1,89.6c0.6,0.1,1.1,0.4,1.7,0.6c0.2,0.1,0.4,0.3,0.5,0.4c-0.3,0.1-0.5,0.2-0.8,0.3
		c0.2,0.1,0.5,0.2,0.7,0.3c-0.3,0-0.5,0-0.8-0.2c0-0.2,0.1-0.4,0.1-0.5c-0.2,0.1-0.4,0.1-0.6,0.2c0.1-0.1,0.3-0.2,0.4-0.4
		c-0.2-0.1-0.5-0.2-0.7-0.4c0,0.2,0,0.3,0,0.5c-0.1-0.2-0.1-0.5-0.4-0.5c-0.3-0.1-0.3,0.4-0.3,0.6c0.1,0.4,0.5,0.6,0.5,1.1
		c0.1,0.1,0.1,0.1,0.2,0.2c-0.2,0.3-0.3,0.7-0.5,1c0.1,0.1,0.2,0.2,0.2,0.3c0.1,0.5,0.3,0.9,0.3,1.3c0.2,0,0.3,0.1,0.5,0.1
		c0,0.1-0.1,0.1-0.2,0.2c-0.1,0-0.3,0.1-0.4,0.1c0,0.4-0.1,0.8-0.4,1.1c0.2,0.2,0.3,0.4,0.5,0.6c-0.2,0.2-0.4,0.3-0.6,0.5
		c0,0.1,0,0.2,0,0.3c-0.2,0.2-0.3,0.4-0.5,0.5c-0.3,0.1-0.5,0.2-0.8,0.4c0-0.1,0-0.3,0.1-0.4c0,0,0.1,0,0.2,0c0,0,0.1,0,0.2-0.1
		c0.2-0.3,0.3-0.6,0.5-0.9c0,0-0.1-0.1-0.2-0.2c0.1-0.2,0.2-0.4,0.3-0.6c-0.1-0.1-0.2-0.2-0.3-0.3c0.2,0,0.4-0.1,0.6-0.1
		c0.1-0.4,0.2-0.8,0.1-1.2c-0.1-0.4-0.1-0.8-0.1-1.2c-0.2-0.3-0.5-0.6-0.7-0.9c0.2-0.2,0.5-0.3,0.7-0.4c-0.3-0.5-0.6-1-0.6-1.6
		c-0.2-0.1-0.3-0.1-0.5-0.2c0-0.1,0.1-0.2,0.1-0.4C19.5,89.7,19.7,89.6,20.1,89.6L20.1,89.6z"/>
	<path class="st3" d="M48.6,90c0.1-0.2,0.2-0.4,0.4-0.6c0.1,0.1,0.2,0.3,0.2,0.5c-0.2,0.2-0.4,0.3-0.6,0.4c-0.4,0.2-0.5,0.7-1,0.9
		c0-0.1,0-0.4,0-0.5C47.8,90.3,48.2,90.1,48.6,90L48.6,90z"/>
	<path class="st4" d="M15.7,90.1c0.5-0.2,1.1-0.3,1.6-0.2c0.1,0.1,0.1,0.1,0.2,0.2c-0.3,0.4,0.3,0.6,0.5,0.8c0,0.1-0.1,0.2-0.1,0.2
		c0.1,0.4,0.2,0.7,0.2,1.1c-0.4,0.2-0.7,0.5-0.8,0.9c0.3,0.1,0.5,0.3,0.6,0.5c-0.2,0.1-0.3,0.2-0.5,0.2c0.3,0.2,0.5,0.4,0.8,0.5
		c-0.3,0.6-0.8,1-1,1.7c-0.1,0.5-0.4,0.9-0.6,1.2c-0.2-0.1-0.5-0.1-0.7-0.1c-0.7,0.1-1.4,0.4-2,0.7c-0.6-0.1-1,0.4-1.6,0.5
		c-0.1-0.2-0.1-0.3-0.2-0.5c0.1,0,0.3,0.1,0.3,0.1c0-0.2,0-0.3,0-0.5c0.1-0.1,0.3-0.1,0.4-0.2c-0.2-0.1-0.3-0.1-0.5-0.2
		c0.1-0.2,0.3-0.3,0.4-0.5c0.2,0.1,0.4,0.3,0.6,0.4c0-0.1,0-0.3,0-0.4c0.1,0.1,0.3,0.1,0.4,0.2c0.3-0.2,0.5,0,0.7,0.1
		c0.1,0,0.3-0.1,0.4-0.1c0,0,0,0.1,0.1,0.1c0.2-0.1,0.4-0.2,0.5-0.2c0-0.1,0-0.2,0.1-0.3c0.3,0,0.5,0,0.7,0c0.2-0.5,0.3-1,0-1.5
		c-0.1,0.1-0.3,0.1-0.4,0.2c0.1-0.4,0.2-0.7,0.4-1.1c-0.1-0.1-0.2-0.2-0.3-0.3c0.1-0.1,0.2-0.1,0.4-0.2c0.1-0.3,0.3-0.5,0.4-0.8
		c0-0.1-0.1-0.3-0.1-0.4c0.1-0.3,0.4-0.3,0.6-0.3c0-0.2,0-0.5,0-0.7c-0.2-0.1-0.6-0.2-0.6-0.5c0.1,0,0.3,0,0.4,0c0-0.1,0-0.2,0-0.2
		c-0.2,0-0.4,0.1-0.5,0.1c0-0.1,0-0.3,0-0.4c0.2,0,0.4-0.1,0.5-0.1c0-0.1-0.1-0.1-0.1-0.2c-0.4,0.1-0.7,0.1-1.1,0.1
		c0,0.2,0,0.3,0,0.5c-0.3-0.3-0.6,0-0.9,0.2c0.1,0.1,0.1,0.3,0.2,0.4c-0.2-0.1-0.3-0.2-0.5-0.2c0,0-0.1,0.1-0.2,0.1
		c0-0.1-0.1-0.2-0.1-0.3c-0.2,0.1-0.5,0.2-0.6,0.4c0,0.2,0,0.3,0,0.5C13.3,92,13.2,92,13,92.2c0,0.1,0,0.2,0,0.3
		c-0.1,0.1-0.2,0.2-0.2,0.3c0.2,0.1,0.3,0.1,0.4,0.3c-0.1,0.2-0.2,0.3-0.3,0.5c-0.1-0.1-0.2-0.1-0.3-0.2c0,0.1,0,0.3,0,0.4
		c-0.1,0.1-0.2,0.1-0.3,0.2c-0.4-0.3-0.9-0.2-1.2,0.1c0.2-0.4,0.5-0.7,0.6-1.1c0.1,0,0.3,0,0.4,0c0-0.1,0-0.2,0-0.3
		c0.1,0,0.2,0,0.3,0c0.2-0.2,0.3-0.5,0.5-0.7c-0.1,0-0.3,0-0.4,0c-0.1-0.2-0.2-0.4-0.3-0.5c0.2,0,0.4,0,0.5,0
		C13.6,90.5,14.7,90.4,15.7,90.1L15.7,90.1z"/>
	<path class="st2" d="M19.8,90.4c0-0.2,0-0.6,0.3-0.6c0.3,0,0.2,0.4,0.4,0.5c0-0.2,0-0.3,0-0.5c0.2,0.1,0.5,0.2,0.7,0.4
		c-0.1,0.1-0.3,0.2-0.4,0.4c0.2-0.1,0.4-0.1,0.6-0.2c0,0.2-0.1,0.4-0.1,0.5c0.2,0.2,0.5,0.2,0.8,0.2c-0.2-0.1-0.5-0.2-0.7-0.3
		c0.3-0.1,0.5-0.2,0.8-0.3l0.1,0c0.3,0.4,0.8,0.6,1,1v0.1c-0.1,0.3,0.1,0.5,0.3,0.7c0-0.1,0.1-0.2,0.1-0.3c0.1,0.1,0.1,0.2,0.2,0.3
		c0.1,0,0.3,0,0.4-0.1c0.2,0.6,0.5,1.1,0.9,1.5c-0.1-0.5-0.1-1-0.1-1.5c-0.2-0.2-0.3-0.5-0.4-0.8c0.1,0.2,0.3,0.3,0.4,0.5
		c0.1,0.2,0.2,0.4,0.1,0.6c0.2,0.2,0.4,0.4,0.4,0.7c-0.1,0-0.3-0.1-0.4-0.1c0.1,0.2,0.2,0.5,0.4,0.7c0,0.1-0.1,0.2-0.1,0.3
		c0.1,0,0.3,0.1,0.3,0.1c-0.1,0.1-0.2,0.1-0.3,0.2c0,0.1-0.1,0.2-0.1,0.2c0.1,0,0.3,0,0.4,0.1c-0.2,0.2-0.4,0.2-0.6,0.2
		c-0.1,0.1-0.1,0.2-0.2,0.4c-0.1,0-0.2,0-0.3,0.1c0,0.1,0,0.2-0.1,0.2c0.1,0,0.2,0,0.4,0c0,0.1,0,0.2,0,0.3c0.2,0.1,0.4,0.2,0.5,0.2
		c-0.1,0.2-0.1,0.5-0.2,0.7c0.1,0,0.2,0,0.4,0.1c0.1,0.3,0.2,0.5,0.5,0.7c-0.1,0.1-0.1,0.2-0.2,0.3c0.4,0,0.7-0.1,1.1-0.1
		c0.1,0.2,0.2,0.5,0.3,0.7c-0.2-0.2-0.4-0.3-0.6-0.3c-0.1,0-0.3-0.1-0.4-0.1c0,0-0.1,0.1-0.2,0.2c-0.6-0.1-1.1,0.3-1.7,0.4
		c-0.2,0-0.5,0.1-0.6,0.2c0,0.1,0,0.2,0,0.3c-0.6,0.1-0.8,0.7-1.4,0.9c-0.4,0.3-0.9,0.2-1.2,0.6c0.2,0.1,0.3,0.2,0.5,0.4
		c-0.5,0.2-0.9,0.3-1.4,0.3c0.1,0.1,0.2,0.2,0.3,0.2c0,0.1,0,0.2,0,0.3c-0.3-0.1-0.5-0.3-0.8-0.4c0-0.3-0.2-0.6,0-0.9
		c-0.3-0.1-0.7-0.2-0.9,0.2c-0.2,0.4-0.7,0.6-1.1,0.8c0-0.2,0-0.4-0.1-0.5l0-0.1c0,0,0.1-0.1,0.2-0.2c0-0.6,0.4-1.2,0.6-1.7
		c0.1-0.4,0.2-0.7,0.4-1c0.2-0.2,0.5-0.3,0.8-0.4c0.2-0.2,0.3-0.4,0.5-0.5c0-0.1,0-0.2,0-0.3c0.2-0.1,0.4-0.3,0.6-0.5
		c-0.2-0.2-0.3-0.4-0.5-0.6c0.2-0.3,0.4-0.7,0.4-1.1c0.1,0,0.3-0.1,0.4-0.1c0-0.1,0.1-0.1,0.2-0.2c-0.2,0-0.3-0.1-0.5-0.1
		c-0.1-0.5-0.3-0.9-0.3-1.3c-0.1-0.1-0.2-0.2-0.2-0.3c0.2-0.3,0.3-0.7,0.5-1c-0.1-0.1-0.2-0.1-0.2-0.2
		C20.4,91.1,19.9,90.8,19.8,90.4L19.8,90.4z"/>
	<path class="st1" d="M11.2,90.4c0.1-0.1,0.1-0.3,0.2-0.4c0.1,0.1,0.3,0.1,0.4,0.2c0,0.2,0,0.4,0,0.5c-0.2,0-0.3,0-0.5,0l0-0.2
		c0.2,0,0.3-0.1,0.4-0.3C11.5,90.3,11.3,90.4,11.2,90.4L11.2,90.4z"/>
	<path class="st0" d="M15.7,90.3c0.4,0.1,0.7,0,1.1-0.1c0,0.1,0.1,0.1,0.1,0.2c-0.2,0-0.4,0.1-0.5,0.1c0,0.1,0,0.3,0,0.4
		c0.2,0,0.4-0.1,0.5-0.1c0,0.1,0,0.2,0,0.2c-0.1,0-0.3,0-0.4,0c0,0.3,0.4,0.4,0.6,0.5c0,0.2,0,0.5,0,0.7c-0.2,0.1-0.6,0-0.6,0.3
		c0,0.1,0.1,0.3,0.1,0.4c-0.2,0.3-0.3,0.5-0.4,0.8c-0.1,0.1-0.2,0.1-0.4,0.2c0.1,0.1,0.2,0.2,0.3,0.3c-0.1,0.4-0.3,0.7-0.4,1.1
		c0.1-0.1,0.3-0.1,0.4-0.2c0.3,0.5,0.2,1,0,1.5c-0.3,0-0.5,0-0.7,0c0,0.1,0,0.2-0.1,0.3c-0.2,0.1-0.4,0.1-0.5,0.2c0,0,0-0.1-0.1-0.1
		c-0.1,0-0.3,0.1-0.4,0.1c-0.2-0.2-0.4-0.3-0.7-0.1c-0.1-0.1-0.3-0.1-0.4-0.2c0,0.1,0,0.3,0,0.4c-0.2-0.1-0.4-0.3-0.6-0.4
		c-0.1,0.2-0.3,0.3-0.4,0.5c0.2,0.1,0.3,0.1,0.5,0.2c-0.1,0.1-0.3,0.1-0.4,0.2c0,0.2,0,0.3,0,0.5c-0.1,0-0.3-0.1-0.3-0.1L12,98
		c0,0-0.1-0.1-0.2-0.1c-0.1-0.3-0.1-0.5-0.2-0.8c0.2,0,0.5-0.1,0.7-0.1c-0.3-0.2-0.5-0.5-0.6-0.8c0.4,0.1,0.8,0.3,1.2,0
		c0.3,0.1,0.5,0.3,0.8,0.4c0.2,0,0.3-0.1,0.5-0.1c-0.1-0.1-0.2-0.2-0.3-0.3c0-0.3-0.1-0.6-0.3-0.9c-0.1,0.1-0.2,0.2-0.3,0.4
		c-0.2-0.1-0.3-0.2-0.5-0.3c-0.1,0.1-0.3,0.3-0.4,0.4c0.1,0.1,0.1,0.2,0.2,0.3c-0.1,0-0.3,0.1-0.4,0.1c0-0.1-0.1-0.2-0.1-0.2
		c0.1-0.1,0.2-0.3,0.3-0.4c-0.2-0.2-0.4-0.5-0.7-0.7c-0.2,0-0.4,0-0.6-0.1c0.1,0,0.3-0.1,0.3-0.1c0-0.2,0-0.3,0-0.5
		c0.2,0.1,0.3,0.2,0.5,0.3c0-0.2,0-0.4,0-0.6c-0.2,0-0.4,0-0.5,0l0,0c0.4-0.3,0.8-0.3,1.2-0.1c0.1-0.1,0.2-0.1,0.3-0.2
		c0-0.1,0-0.3,0-0.4c0.1,0.1,0.2,0.1,0.3,0.2c0.1-0.2,0.2-0.3,0.3-0.5c-0.1-0.1-0.2-0.2-0.4-0.3c0.1-0.1,0.2-0.2,0.2-0.3
		c0-0.1,0-0.2,0-0.3c0.1-0.1,0.3-0.2,0.4-0.3c0-0.2,0-0.3,0-0.5c0.2-0.2,0.4-0.3,0.6-0.4c0,0.1,0.1,0.2,0.1,0.3c0,0,0.1-0.1,0.2-0.1
		c0.2,0.1,0.3,0.2,0.5,0.2c-0.1-0.1-0.1-0.3-0.2-0.4c0.3-0.2,0.6-0.5,0.9-0.2C15.7,90.6,15.7,90.5,15.7,90.3L15.7,90.3z"/>
	<path class="st2" d="M9.7,91c0.3-0.5,0.9-0.6,1.4-0.7c0,0.2,0,0.3,0,0.5c-0.1-0.1-0.2-0.2-0.3-0.4c-0.1,0.4-0.6,0.3-0.9,0.4
		C9.8,90.9,9.7,91,9.7,91L9.7,91z"/>
	<path class="st0" d="M45.1,90.5c0.1,0,0.2-0.1,0.4-0.1c0,0.1,0.1,0.2,0.1,0.3c0.1,0,0.2,0.1,0.2,0.1c0-0.1,0-0.3,0-0.4
		c0.4,0.2,0.8,0.4,1.2,0.2c0.1,0.1,0.2,0.2,0.2,0.2l-0.1,0C47,91,47,91.2,47,91.4c0.1,0.1,0.1,0.2,0.2,0.3c-0.2,0-0.5,0-0.7,0.1
		c-0.2,0.3-0.4,0.6-0.6,0.9c0,0-0.1,0.1-0.2,0.1c-0.3,0.1-0.5,0.1-0.7,0.2c0,0.2,0,0.4,0,0.6c0,0.1,0,0.2,0,0.3
		c-0.3,0.4-0.7,0.7-1,1.1c0.5-0.3,1-0.9,1.6-0.7c-0.1,0-0.3,0.1-0.4,0.1c-0.1,0.2-0.1,0.5-0.1,0.7c-0.1,0-0.2,0-0.3,0
		c0-0.1,0-0.2,0-0.3c-0.1,0.1-0.3,0.2-0.4,0.3c-0.1,0-0.3,0-0.4,0c-0.1,0.2-0.2,0.4-0.3,0.6c-0.1,0.1-0.2,0.1-0.4,0.2v0
		c0,0.1-0.1,0.3-0.1,0.3c-0.1,0.2-0.3,0.4-0.1,0.5c0.2-0.4,0.4-0.8,0.8-1c0.1,0,0.2-0.1,0.4-0.1c0-0.1-0.1-0.3-0.1-0.3l0.1,0
		c0.1,0,0.2,0.1,0.4,0.1c0,0.1-0.1,0.2-0.1,0.3c0.1,0,0.2,0,0.3,0.1c-0.1,0.2-0.5,0.2-0.6,0.4c-0.3,0.2-0.5,0.8-1,0.6
		c0,0.2-0.1,0.3-0.1,0.5c0-0.1-0.1-0.2-0.2-0.3c0,0.2,0.1,0.5-0.2,0.5c-0.2-0.1-0.2-0.3-0.3-0.5c0.1-0.1,0.2-0.2,0.2-0.2
		c-0.1,0-0.2,0.1-0.3,0.1c0,0.1,0,0.3,0,0.3c-0.5-0.1,0,0.2,0.1,0.3c-0.3,0.1-0.4,0.3-0.5,0.5c-0.1,0-0.2,0-0.3,0
		c-0.2,0.5-0.7,0.7-1.1,1c-0.3,0.2-0.1,0.5-0.2,0.7c-0.2,0.2-0.4,0.4-0.6,0.5c0,0.1,0.1,0.2,0.2,0.2c0,0,0,0.1-0.1,0.1
		c-0.1-0.1-0.2-0.2-0.2-0.3c-0.2-0.2-0.4-0.3-0.6-0.4c-0.1,0.2-0.1,0.4-0.2,0.5c-0.1-0.1-0.3-0.1-0.4-0.1c0,0.2,0.1,0.4,0.1,0.6
		c-0.1,0.3-0.3,0.5-0.4,0.8c-0.2,0-0.4,0.1-0.6,0.1c0,0,0,0.1,0.1,0.1c0,0.1-0.1,0.2-0.1,0.3c0.1,0.1,0.2,0.2,0.3,0.1
		c0,0.1-0.1,0.2-0.1,0.3c-0.1,0-0.2,0.1-0.2,0.1c0,0,0,0.1-0.1,0.2c0-0.1-0.1-0.2-0.1-0.2l0-0.1l0-0.1c-0.1,0-0.2-0.1-0.3-0.1
		c0,0.5-0.3,0.9-0.6,1.3c-0.1-0.1-0.2-0.1-0.3-0.2c-0.2,0.4-0.3,0.8-0.3,1.3c-0.2,0-0.3,0-0.5-0.1c-0.1,0.2-0.2,0.4-0.3,0.6
		c-0.2-0.1-0.3-0.1-0.5-0.2c0,0.1,0.1,0.2,0.1,0.3c-0.3,0.1-0.6,0.3-0.6,0.7l0.2,0.1c-0.1,0.1-0.3,0.1-0.4,0.2
		c0,0.1-0.1,0.3-0.1,0.3l-0.1-0.1c-0.1,0-0.2-0.1-0.2-0.2c-0.2,0-0.3,0-0.5,0c0,0.2,0,0.3,0,0.5c-0.3,0.3-0.5,0.6-0.7,0.9
		c-0.3,0.1-0.5,0.3-0.8,0.4c0,0.1,0,0.3,0,0.4l0,0.1c-0.1,0-0.2,0.1-0.2,0.1c-0.3,0.2-0.5,0.4-0.8,0.7c0.1,0.1,0.1,0.3,0.2,0.4
		c-0.2,0.3-0.5,0.5-0.9,0.5c-0.2,0.4-0.8,0.5-1.1,0.9c-0.2,0.2-0.4,0.4-0.7,0.5c-0.1,0.5-0.7,0.7-1,1.1c-0.5,0.3-0.8,0.7-1.3,0.9
		c0,0.1,0,0.2,0,0.3c-0.4,0.2-0.8,0.4-1.1,0.7c-0.2,0-0.4,0.1-0.6,0.2c-0.3,0.1-0.5,0.3-0.7,0.4c-0.1,0.1-0.3,0.1-0.4,0.1
		c-0.2,0-0.5-0.1-0.7-0.1c0.1-0.1,0.3-0.1,0.4-0.2c0.2,0,0.4,0.1,0.5,0c0.7-0.4,1.6-0.5,2.1-1.3c-0.6,0.2-1.2,0.5-1.7,0.8
		c0-0.1-0.1-0.2-0.1-0.4c0.2-0.2,0.5-0.4,0.7-0.6c0.1,0.1,0.1,0.2,0.2,0.4c0.1-0.1,0.2-0.2,0.4-0.3c0.2,0,0.4-0.1,0.6-0.1
		c0.8-0.4,1.2-1.5,2.1-1.5c0-0.1,0-0.2-0.1-0.3c0.2-0.2,0.4-0.3,0.5-0.5c-0.1,0-0.3,0.1-0.4,0.1c0.1-0.3,0.2-0.6,0.2-0.9
		c-0.2,0.1-0.4,0.3-0.5,0.5c0-0.1-0.1-0.2-0.1-0.3c0.2-0.1,0.4-0.1,0.5-0.2c-0.2-0.3-0.6-0.2-0.9-0.3c-0.1,0.1-0.2,0.2-0.3,0.3
		c0.1,0.1,0.1,0.2,0.2,0.3c-0.4-0.3-0.9-0.2-1.4,0c-0.3-0.2-0.6-0.1-0.9,0c-0.4,0-0.8-0.1-1.2-0.2c-0.2,0.2-0.5,0.5-0.7,0.6
		c0-0.2,0.1-0.3,0.2-0.5c0.1,0,0.2,0,0.4,0c0-0.4,0.1-0.8-0.1-1.2c-0.2-0.5-0.7-0.4-1.1-0.4c-0.2,0.2-0.3,0.4-0.5,0.6
		c-0.3-0.1-0.5-0.3-0.5-0.6c-0.1,0.1-0.2,0.2-0.2,0.4c-0.2,0-0.4,0-0.6,0c0.3,0.2,0.7,0.3,1,0.5c-0.5,0.1-1-0.2-1.5-0.3
		c-0.1,0-0.2,0-0.3-0.1c0-0.1,0.1-0.2,0.1-0.3c-0.1-0.4,0-0.8-0.3-1.2c-0.1,0.1-0.2,0.3-0.3,0.4c-0.3,0.1-0.6,0.2-0.8,0.4
		c-0.2,0-0.4-0.1-0.5-0.1c0-0.2,0-0.4,0-0.5c-0.2,0.1-0.4,0.2-0.6,0.3c-0.2-0.1-0.4-0.1-0.6-0.2c0.2-0.1,0.3-0.2,0.5-0.3
		c-0.1,0-0.3-0.1-0.4-0.1c0.2-0.1,0.4-0.2,0.6-0.3c0.1,0,0.3,0,0.4,0.1c0-0.1,0.1-0.2,0.1-0.3c-0.2,0-0.4-0.1-0.6-0.1
		c0-0.2,0-0.5-0.1-0.7c-0.4,0.5-0.8,0.9-0.8,1.6c-0.2-0.2-0.5-0.5-0.7-0.7c-0.1,0.1-0.2,0.2-0.2,0.3c0-0.2,0-0.3,0-0.5
		c0.1,0,0.2,0,0.3,0c-0.1-0.2-0.3-0.4-0.2-0.7c0.2-0.4,0.2-0.9,0.4-1.4c0.3-0.8,0.7-1.6,1.1-2.5c0.1-0.6,0.5-1.2,0.7-1.8
		c0.1-0.2,0.2-0.4,0.3-0.6c0,0.2,0.1,0.4,0.1,0.5c0.5-0.1,0.9-0.4,1.1-0.8c0.2-0.4,0.6-0.3,0.9-0.2c-0.1,0.3,0.1,0.6,0,0.9
		c0.3,0.2,0.5,0.3,0.8,0.4c0-0.1,0-0.2,0-0.3c-0.1-0.1-0.2-0.2-0.3-0.2c0.5-0.1,1-0.2,1.4-0.3c-0.2-0.1-0.3-0.2-0.5-0.4
		c0.3-0.3,0.8-0.3,1.2-0.6c0.5-0.2,0.8-0.8,1.4-0.9c0-0.1,0-0.2,0-0.3c0.2-0.1,0.4-0.2,0.6-0.2c0.6-0.1,1.1-0.5,1.7-0.4
		c0,0,0.1-0.1,0.2-0.2c0.1,0,0.3,0.1,0.4,0.1c-0.1,0-0.3,0-0.4,0.1c0.1,0.1,0.2,0.2,0.3,0.2c0.1,0.3,0.3,0.5,0.5,0.8
		c0,0.1-0.1,0.2-0.1,0.2c-0.4-0.1-0.8-0.2-1.1,0.2c0.1,0.2,0.3,0.3,0.4,0.5c-0.1,0-0.3,0.1-0.4,0.1c0.5,0,0.9-0.4,1.3-0.6
		c0.1,0.2,0.1,0.4,0.2,0.6c-0.1,0.3-0.4,0.5-0.2,0.8c0.1,0.4,0.1,0.8,0,1.2c0-0.1-0.1-0.2-0.1-0.2c-0.1,0.1-0.2,0.2-0.3,0.2
		c-0.1-0.1-0.2-0.1-0.3-0.2c0,0.2,0,0.3,0,0.5c-0.1,0-0.3,0-0.4,0c0.1,0.1,0.1,0.2,0.2,0.2c-0.2,0.1-0.4,0.1-0.6,0.2
		c0-0.1,0-0.3,0-0.4c-0.2,0.1-0.5,0.1-0.7,0.2c-0.3-0.1-0.6-0.2-0.9-0.3c0,0-0.1,0.1-0.1,0.1c0.1,0,0.4,0.1,0.5,0.1
		c-0.2,0.2-0.6,0.2-0.9,0.2c0,0.3-0.1,0.5-0.2,0.8c0.2,0.3,0.5,0.6,0.7,0.9c-0.2,0.1-0.3,0.3-0.5,0.4c0-0.1-0.1-0.3-0.2-0.4
		c0,0.3,0,0.6-0.3,0.7c-0.4-0.1-0.3-0.6-0.4-0.9c-0.3-0.1-0.7,0-0.8,0.3c0.2,0,0.4,0,0.5,0c-0.1,0.1-0.2,0.2-0.3,0.3
		c-0.1,0-0.2-0.1-0.2-0.1c-0.1,0-0.2,0.1-0.3,0.1c0.2,0.1,0.4,0.2,0.6,0.3c-0.2,0.1-0.3,0.2-0.5,0.2c0.2,0.4,0.5,0.6,0.9,0.7
		c0.1-0.1,0.2-0.2,0.3-0.3c-0.1-0.2-0.2-0.4-0.3-0.6c0.4,0,0.8,0.1,1.1,0.2c-0.2,0.1-0.4,0.1-0.6,0.2c0,0.1,0,0.2-0.1,0.3
		c0.2,0,0.3,0,0.4,0.1c0,0,0.1-0.1,0.1-0.2c0,0.1,0.1,0.2,0.1,0.2c-0.1,0.1-0.2,0.2-0.3,0.3c0.3,0,0.6,0,0.8,0.2
		c-0.3,0.1-0.6,0.2-0.8,0.4c-0.1-0.1-0.1-0.3-0.1-0.4c-0.1,0.1-0.3,0.2-0.4,0.3c-0.1,0-0.3,0-0.4,0c0.1,0.1,0.2,0.2,0.3,0.3
		c-0.3,0.1-0.4,0.2-0.4,0.5c0.3-0.1,0.5-0.2,0.8-0.2c0.2-0.3,0.6-0.5,0.9-0.6c-0.2,0.3-0.3,0.5-0.5,0.7c0.4,0.1,0.5,0.5,0.6,0.9
		c0.2,0.1,0.4,0.1,0.5,0.2c0.2-0.2,0.4-0.4,0.5-0.6c0.1,0,0.2,0,0.3,0c0.1-0.2,0.1-0.5,0.3-0.6c0.4-0.1,0.6,0.2,0.9,0.4
		c0.1,0,0.2-0.1,0.3-0.1c0,0,0.1,0.1,0.1,0.1c0-0.1,0-0.3,0-0.4c0.2,0,0.3,0.1,0.5,0.1c-0.1,0.1-0.2,0.2-0.3,0.4c0.2,0,0.3,0,0.5,0
		c0-0.1,0-0.2,0.1-0.3c0.1,0,0.2,0,0.3,0c0.1-0.1,0.1-0.2,0.2-0.3c-0.1-0.1-0.2-0.2-0.3-0.4c-0.5,0.4-1.1,0.4-1.6,0.4
		c0-0.1,0.1-0.1,0.2-0.2c0.6,0,1-0.4,1.5-0.6c0,0.1,0,0.2,0,0.3c0.1-0.1,0.3-0.1,0.4-0.2c0-0.1,0-0.3,0.1-0.4
		c-0.1,0-0.3-0.1-0.4-0.1c0-0.1-0.1-0.2-0.1-0.3c-0.4-0.2-0.8-0.2-1.2-0.1c0-0.1,0-0.2,0-0.3c0.2-0.2,0.4-0.3,0.7-0.5
		c0,0.1,0,0.3,0,0.4c0.2,0.1,0.4,0.2,0.5,0.3c0.1-0.1,0.2-0.2,0.3-0.3c0.3,0.2,0.6,0.5,0.9,0.7c0.1,0.3,0.1,0.5,0.2,0.8
		c-0.1,0-0.3,0-0.4-0.1c0,0.1,0,0.2-0.1,0.2c-0.1,0-0.3,0-0.4,0.1c0.1,0.1,0.1,0.2,0.2,0.3c-0.1,0.1-0.1,0.2-0.2,0.2
		c0.1,0.1,0.3,0.3,0.4,0.4c0-0.2-0.1-0.4-0.1-0.6c0.1,0.1,0.3,0.2,0.4,0.3c0.1-0.3,0.3-0.5,0.5-0.7c-0.1-0.1-0.2-0.2-0.2-0.4
		c0.3-0.1,0.5-0.1,0.8-0.2c-0.2-0.1-0.3-0.2-0.5-0.4c0-0.1,0-0.3,0-0.4c0.1,0.1,0.2,0.2,0.3,0.3c0,0,0.1-0.1,0.1-0.1
		c0,0.1,0.1,0.2,0.1,0.3c0.1-0.2,0.4-0.3,0.3-0.5c-0.2-0.2-0.3-0.3-0.5-0.4c0,0,0.1-0.1,0.1-0.2c-0.2-0.2-0.4-0.4-0.6-0.6
		c-0.1,0-0.1,0.1-0.2,0.1c-0.1,0-0.2-0.1-0.2-0.2c-0.5,0.3-0.8,0.7-1.4,0.9c0-0.1,0-0.2,0-0.3c-0.4-0.4-0.9-0.7-1.4-0.9
		c-0.1-0.2-0.3-0.4-0.5-0.6c0.3-0.3,0.6-0.7,0.6-1.2c0.1,0,0.2-0.1,0.3-0.1c0,0.1-0.1,0.2-0.1,0.3c0,0,0.1,0.1,0.1,0.1
		c-0.1,0.1-0.1,0.2-0.2,0.3c0,0.1,0,0.2,0.1,0.4c-0.1,0.1-0.2,0.1-0.3,0.2c0,0.1,0.1,0.1,0.1,0.2c0,0.1-0.1,0.2-0.1,0.3
		c0.2,0,0.4,0.1,0.6,0.1c0.2-0.1,0.5-0.2,0.7-0.3c0,0,0.1-0.1,0.2-0.2c-0.1,0-0.3,0.1-0.4,0.1c0.1-0.3,0.2-0.6,0.2-0.9
		c0.1,0,0.1-0.1,0.2-0.1c0-0.1,0.1-0.2,0.1-0.3c0.1,0,0.2-0.1,0.3-0.1c0.1-0.1,0.3-0.2,0.4-0.3c0,0.5-0.3,0.9,0,1.4
		c-0.3-0.1-0.5-0.1-0.8-0.1c0.3,0.2,0.6,0.5,1,0.4c0.2-0.2,0.2-0.4,0.2-0.6c-0.2-0.1-0.3-0.2-0.5-0.3c0.1,0,0.3-0.1,0.4-0.1
		c-0.1-0.1-0.2-0.2-0.3-0.2c0.5-0.2,1-0.4,1.5-0.5c0.5-0.1,0.9-0.5,1.5-0.6c-0.1-0.1-0.2-0.2-0.2-0.3c0.4-0.1,0.8-0.2,1.2-0.3
		c0-0.2,0-0.5,0-0.7c-0.2,0.1-0.5,0.2-0.7,0.4c0-0.1-0.1-0.2-0.1-0.2c-0.1,0-0.2-0.1-0.3-0.1c0-0.1,0-0.2,0-0.3c0.2,0,0.4,0,0.6-0.1
		c-0.1-0.1-0.1-0.2-0.2-0.2c0.4-0.1,0.8-0.1,1.2,0.2c0,0.1,0,0.2,0,0.2c0.2,0.1,0.4,0.2,0.6,0.4c0,0.2,0,0.4,0,0.5
		c0.3-0.4,0.6-0.8,0.9-1.3c0.2,0,0.3-0.1,0.5-0.1c0-0.1,0-0.3,0-0.4c-0.3,0.2-0.6,0.4-0.8,0.7c-0.1,0.2-0.4,0.3-0.6,0.3
		c0-0.3,0-0.7,0.1-1c0.1-0.1,0.2-0.3,0.3-0.4c-0.2,0-0.4-0.1-0.7-0.1c0.3-0.7,1.1-1,1.7-1.4c0.6-0.3,0.9-0.9,1.4-1.2
		c0,0.1,0.1,0.3,0.2,0.3c0.4,0.2,0.8,0.2,1.2,0c-0.1-0.1-0.2-0.2-0.3-0.3c0.1-0.1,0.2-0.2,0.2-0.3c0.1,0.1,0.2,0.3,0.2,0.4
		c0-0.1,0.1-0.2,0.1-0.3c-0.3-0.4,0-0.8,0.2-1.2c0.2,0.2,0.4,0.4,0.6,0.6c0.3-0.1,0.6-0.2,0.9-0.3c0-0.2,0.1-0.4,0.1-0.6
		c-0.1,0-0.3-0.1-0.4-0.1c0.2-0.1,0.3-0.2,0.5-0.3c0.1,0.1,0.1,0.3,0.2,0.4c0.5-0.5,1.3-0.5,1.5-1.2c0.3,0,0.5,0.1,0.8,0.1
		c0.1-0.4,0.3-0.8,0.7-1c0.2,0,0.5,0.1,0.6-0.1c0.2-0.4,0.4-0.8,0.6-1.2c0.2,0,0.5-0.1,0.7-0.1C45.2,90.9,45.2,90.7,45.1,90.5
		L45.1,90.5z"/>
	<path class="st1" d="M51.5,90.6c0.2-0.1,0.4,0.2,0.2,0.3C51.6,91,51.4,90.7,51.5,90.6L51.5,90.6z"/>
	<path class="st4" d="M54.3,90.9c-0.3-0.1-0.1-0.4,0.1-0.2C54.4,90.8,54.3,90.9,54.3,90.9L54.3,90.9z"/>
	<path class="st1" d="M8.6,91.3c0.3-0.1,0.6-0.3,1-0.3c-0.1,0.1-0.1,0.3-0.2,0.4c-0.4-0.1-0.7,0.2-1,0.4C8.2,91.8,8,91.9,7.8,92
		c-0.3,0.1-0.6,0.2-0.9,0.4c0,0-0.1-0.1-0.2-0.1C7.3,91.9,8,91.6,8.6,91.3L8.6,91.3z"/>
	<path class="st3" d="M47,91.4c0-0.2,0-0.4,0-0.6c0.1,0.2,0.3,0.3,0.4,0.5C47.3,91.4,47.2,91.4,47,91.4L47,91.4z"/>
	<path class="st0" d="M48.2,90.9c0.2-0.1,0.4,0.2,0.1,0.3C48.1,91.3,47.9,91,48.2,90.9L48.2,90.9z"/>
	<path class="st1" d="M49.4,90.9c0.2,0.1,0.2,0.2,0,0.3C49.3,91.1,49.3,91,49.4,90.9L49.4,90.9z"/>
	<path class="st4" d="M52.9,91.3c0.4-0.1,0.8-0.3,1.3-0.3c0,0.1-0.1,0.2-0.2,0.2c-0.3,0.1-0.7,0.1-0.8,0.5c-0.1,0-0.2,0-0.2,0
		c0,0,0,0.1,0,0.1l0.4-0.1c-0.1,0.2-0.3,0.4-0.5,0.5C52.8,91.9,52.8,91.6,52.9,91.3L52.9,91.3z"/>
	<g>
		<defs>
			<rect id="SVGID_1_" y="82.8" width="200" height="34.5"/>
		</defs>
		<clipPath id="SVGID_2_">
			<use xlink:href="#SVGID_1_"  style="overflow:visible;"/>
		</clipPath>
		<path class="st6" d="M36.6,92.1c0.8-0.1,1.2-0.9,2-1c0,0.1,0,0.2,0,0.2c-0.2,0.4-0.6,0.5-1,0.8c-0.1,0.1-0.1,0.3-0.2,0.4
			c-0.2,0.1-0.5,0.1-0.7,0.2c-0.1,0.1-0.3,0.2-0.4,0.3c-0.3,0.1-0.6,0.2-0.8,0.3c0.1,0.1,0.1,0.1,0.2,0.2c0.2,0,0.5-0.1,0.7,0
			c-0.1,0-0.4,0.3-0.1,0.3c0.1,0,0.2-0.1,0.2-0.1c0,0.1,0,0.2,0.1,0.2c-0.1,0.1-0.2,0.2-0.2,0.3c0-0.1,0-0.2,0-0.3
			c-0.1,0-0.2,0.1-0.3,0.1c0,0.1,0,0.2,0,0.3c-0.1,0-0.2,0.1-0.2,0.1c-0.5,0-0.8,0.5-1,1c-0.3,0.1-0.6,0.3-0.9,0.5
			c0-0.1-0.1-0.2-0.2-0.2c-0.2,0.5-0.5,0.7-0.9,1c-0.2,0-0.4-0.1-0.6-0.1c0.2-0.1,0.3-0.3,0.5-0.4c0.1,0,0.3-0.1,0.4-0.1
			c0-0.1-0.1-0.2-0.1-0.3c0.1-0.4,0.4-0.8,0.2-1.2C33.1,95,33,95,32.8,95.1c0,0,0,0.1,0,0.2l0-0.2c0-0.1,0-0.2,0-0.3
			c0.1,0,0.2,0,0.3,0c0.1-0.1,0.1-0.2,0.2-0.4c0.2,0,0.4,0,0.5-0.2c0.2-0.4,0.7-0.5,0.9-0.8c0.2,0,0.3-0.1,0.5-0.1
			c0.1-0.2,0.2-0.4,0.3-0.6c0,0,0.1,0.1,0.2,0.1c0.2-0.2,0.5-0.3,0.7-0.5C36.5,92.3,36.5,92.2,36.6,92.1L36.6,92.1z"/>
		<path class="st7" d="M182.1,92.6c2.2-1.1,4.6-1.4,7-1.4c3.4-0.1,7,0.6,9.9,2.6c-0.1,0.3-0.3,0.5-0.5,0.6c-0.5,0.6-1.1,1.2-1.7,1.7
			c-2.4-1.3-5.2-1.9-7.9-1.9c-1.5,0-3.1,0.1-4.5,0.6c-0.6,0.3-1.4,0.8-1.3,1.5c-0.1,0.7,0.6,1.2,1.2,1.4c1.5,0.5,3.2,0.4,4.8,0.6
			c1.5,0.1,3.1,0.2,4.6,0.5c1.5,0.2,2.9,0.6,4.2,1.3c1,0.6,1.7,1.5,1.9,2.6c0.3,1.3,0.2,2.8-0.6,4c-0.6,1-1.5,1.7-2.6,2.2
			c-2.1,1-4.4,1.2-6.7,1.3c-4,0-8.2-0.7-11.4-3.2c0.6-0.9,1.3-1.7,1.9-2.5c3.4,2.3,7.7,3,11.7,2.5c1.1-0.2,2.2-0.4,3.1-1.1
			c0.6-0.4,1-1.1,0.9-1.8c-0.1-0.7-0.6-1.3-1.2-1.5c-1-0.5-2-0.6-3.1-0.7c-1.9-0.1-3.8-0.2-5.7-0.3c-1.5-0.1-3-0.4-4.4-1
			c-0.9-0.4-1.7-1.1-2.1-1.9c-0.4-0.9-0.5-1.9-0.3-2.9C179.7,94.4,180.8,93.2,182.1,92.6L182.1,92.6z"/>
	</g>
	<path class="st3" d="M49.6,91.4c0.2,0.1,0.3,0.2,0.5,0.3c-0.3,0.4-0.7,0.7-1.1,1c0,0-0.1,0-0.2,0c-0.1,0-0.3,0-0.3,0
		C48.9,92.3,49.2,91.8,49.6,91.4L49.6,91.4z"/>
	<path class="st3" d="M52.4,91.5c0.2-0.2,0.3,0.1,0.1,0.2C52.4,91.9,52.3,91.6,52.4,91.5L52.4,91.5z"/>
	<path class="st0" d="M23.7,92.4c-0.2-0.2-0.4-0.4-0.3-0.7c0.1,0.1,0.3,0.3,0.4,0.4C23.7,92.1,23.7,92.3,23.7,92.4L23.7,92.4z"/>
	<path class="st8" d="M62.8,109.9c0-6.1,0-12.1,0-18.2c1.8,0,3.5,0,5.3,0c4.1,5,8.2,10.1,12.3,15.1c0-5,0-10.1,0-15.1
		c1.2,0,2.4,0,3.6,0c0,6.1,0,12.1,0,18.2c-1.7,0-3.5,0-5.3,0c-0.2-0.1-0.3-0.4-0.5-0.5c-3.3-4-6.6-8.1-9.9-12.1
		c-0.7-0.8-1.3-1.7-2-2.5c0,5,0,10.1,0,15.1C65.2,109.9,64,109.8,62.8,109.9L62.8,109.9z"/>
	<path class="st8" d="M110.1,91.7c7,0,14,0,20.9,0c0,1.1,0,2.2,0,3.2c-2.9,0-5.8,0-8.7,0c0,5,0,10,0,15c-1.2,0-2.4,0-3.5,0
		c0-4.4,0-8.8,0-13.2c0-0.6,0.1-1.2-0.1-1.7c-2.9,0-5.8,0-8.7,0C110.1,93.8,110.1,92.7,110.1,91.7L110.1,91.7z"/>
	<path class="st8" d="M135,91.6c1.2,0,2.4,0,3.6,0c0,6.1,0,12.1,0,18.2c-0.9,0-1.7,0-2.6,0c-0.3,0-0.6,0-1-0.1
		C135,103.7,135,97.7,135,91.6L135,91.6z"/>
	<path class="st8" d="M142.8,91.6c1.5,0,3,0,4.5,0c1.9,1.9,3.9,3.8,5.8,5.8c0.4,0.3,0.7,0.8,1.1,1c2.3-2.3,4.6-4.5,6.9-6.8
		c1.5,0,3,0,4.5,0c-2.8,2.8-5.7,5.6-8.6,8.4c-0.2,0.2-0.4,0.3-0.5,0.5c1.7,1.7,3.5,3.4,5.2,5c1.1,1.1,2.2,2.2,3.3,3.3
		c0.3,0.3,0.6,0.5,0.8,0.9c-1.5,0-3,0-4.4,0c-2.3-2.3-4.7-4.6-7-6.9c-0.1-0.1-0.3-0.2-0.4-0.1c-2,2-4,4-6,5.9
		c-0.4,0.3-0.7,0.7-1.1,1c-1.5,0-3,0-4.4,0c1.7-1.8,3.5-3.5,5.3-5.2c1.4-1.4,2.7-2.7,4.1-4C148.9,97.6,145.9,94.7,142.8,91.6
		L142.8,91.6z"/>
	<path class="st8" d="M170.6,92.9c0-0.4,0-0.8,0.1-1.2c1.2,0,2.3,0,3.5,0c0,6.1,0,12.1,0,18.2c-1.2,0-2.3,0-3.5,0
		c-0.1-0.1-0.1-0.3-0.1-0.4C170.6,103.9,170.6,98.4,170.6,92.9L170.6,92.9z"/>
	<path class="st4" d="M47.2,92c0.1,0,0.4,0,0.6,0c-0.2,0.3-0.5,0.5-0.7,0.6c-0.1,0-0.2,0-0.3,0c0.1-0.1,0.2-0.2,0.3-0.3l-0.2,0
		c0.2-0.1,0.4-0.1,0.6-0.2L47.2,92L47.2,92z"/>
	<path class="st1" d="M51.1,92.1c0.1,0,0.3,0.1,0.3,0.1c-0.2,0.2-0.4,0.4-0.7,0.5C50.8,92.6,50.9,92.3,51.1,92.1L51.1,92.1z"/>
	<path class="st2" d="M5.8,93c0.2-0.3,0.5-0.5,0.8-0.6c0,0.1,0,0.3-0.1,0.4c-0.1,0-0.3,0-0.4,0c0,0.1-0.1,0.3-0.1,0.4
		c-0.1,0-0.2,0-0.2-0.1c-0.2,0.1-0.3,0.3-0.5,0.4c0-0.1,0-0.3,0-0.4C5.5,93.1,5.7,93,5.8,93L5.8,93z"/>
	<path class="st4" d="M18,92.3c0.2,0.1,0.4,0.2,0.5,0.4c-0.3,0.1-0.6,0.2-0.8,0C17.7,92.6,17.9,92.5,18,92.3L18,92.3z"/>
	<path class="st3" d="M37.8,92.8c0-0.1,0-0.1-0.1-0.2C37.8,92.7,37.8,92.8,37.8,92.8l0.2,0c-0.1,0.2-0.2,0.4-0.2,0.6
		c-0.1,0.1-0.2,0.2-0.3,0.3c0-0.2-0.1-0.4-0.1-0.6C37.5,93,37.7,92.9,37.8,92.8L37.8,92.8z"/>
	<path class="st0" d="M38.4,93.2c0.1-0.3,0.2-0.6,0.5-0.5C39.2,93,38.7,93.2,38.4,93.2L38.4,93.2z"/>
	<path class="st2" d="M51.5,92.5c0.1,0.1,0.3,0.3,0.5,0.3c0,0-0.1,0.1-0.1,0.2c-0.1-0.1-0.2-0.1-0.4-0.2c-0.1,0.2-0.1,0.4-0.2,0.5
		c-0.1,0-0.3,0-0.4,0c0.1-0.2,0.2-0.3,0.4-0.4C51.5,92.8,51.5,92.6,51.5,92.5L51.5,92.5z"/>
	<path class="st1" d="M45,93c0.3-0.1,0.5-0.1,0.7-0.2c-0.2,0.3-0.4,0.6-0.7,0.8C45,93.4,45,93.2,45,93L45,93z"/>
	<path class="st0" d="M38,92.8c0.1,0,0.3,0,0.3,0c0,0.1,0,0.3,0,0.4c-0.2,0.1-0.4,0.1-0.6,0.2C37.9,93.2,37.9,93,38,92.8L38,92.8z"
		/>
	<path class="st2" d="M51.7,93.6c0.4-0.3,0.8-0.5,1.3-0.7c-0.5,0.4-1.1,0.7-1.6,1c0-0.1,0-0.3,0-0.3C51.4,93.6,51.6,93.6,51.7,93.6
		L51.7,93.6z"/>
	<path class="st1" d="M36.3,93.2c0.1-0.1,0.3-0.2,0.4-0.3c0.1,0.1,0.2,0.3,0.2,0.4c-0.3,0.1-0.6,0.2-0.9,0.2
		C36.1,93.4,36.2,93.3,36.3,93.2L36.3,93.2z"/>
	<path class="st1" d="M25.3,93.3c0.1,0,0.3,0.1,0.4,0.1c0.1,0.4,0.4,0.8,0.5,1.2c0.2,0,0.4,0,0.5-0.1c-0.1,0.2-0.3,0.3-0.3,0.5
		c-0.1-0.1-0.2-0.2-0.3-0.3c-0.1,0.3,0.2,0.5,0.4,0.7c0,0.2-0.1,0.5,0.1,0.7c0.1,0.1,0.3,0.2,0.4,0.3c-0.1,0-0.3,0-0.4,0
		c0.2,0.5,0.4,0.9,0.5,1.4c-0.3,0.1-0.7,0.2-1.1,0.1c0.1-0.1,0.1-0.2,0.2-0.3c-0.3-0.1-0.4-0.4-0.5-0.7c-0.1,0-0.2,0-0.4-0.1
		c0.1-0.2,0.1-0.5,0.2-0.7c-0.2-0.1-0.4-0.2-0.5-0.2c0-0.1,0-0.2,0-0.3c-0.1,0-0.2,0-0.4,0c0-0.1,0-0.2,0.1-0.2c0.1,0,0.2,0,0.3-0.1
		c0.1-0.1,0.1-0.2,0.2-0.4c0.2,0,0.5-0.1,0.6-0.2c-0.1,0-0.3,0-0.4-0.1c0-0.1,0.1-0.2,0.1-0.2c0.1-0.1,0.2-0.1,0.3-0.2
		c-0.1,0-0.3-0.1-0.3-0.1c0-0.1,0.1-0.2,0.1-0.3C25.5,93.8,25.4,93.6,25.3,93.3L25.3,93.3z"/>
	<path class="st4" d="M45.7,93.4c0.2-0.1,0.4,0,0.4,0.2c0,0-0.1,0.1-0.1,0.2C45.8,93.8,45.6,93.6,45.7,93.4L45.7,93.4z"/>
	<path class="st2" d="M46.8,94c0-0.2,0.1-0.3,0.1-0.5c0.1,0.1,0.3,0.2,0.4,0.2c0.1,0,0.3,0,0.4,0c0.1,0,0.2,0,0.2,0.1
		c0-0.1,0-0.2,0-0.3c0.2,0,0.3,0.1,0.5,0.1c0,0.5-0.3,0.7-0.7,1c0-0.1,0-0.3,0.1-0.3c-0.5-0.1-0.6,0.4-1,0.5c-0.2,0-0.3,0-0.5,0
		c-0.2,0.2-0.4,0.5-0.6,0.7c-0.2,0.1-0.5,0.2-0.7,0.3c-0.1-0.1-0.2-0.2-0.2-0.3c-0.1,0-0.2-0.1-0.4-0.1v0c0.1,0,0.3-0.1,0.4-0.1
		c0-0.1,0-0.2,0-0.3c0.1,0,0.2,0,0.3,0c0,0.1,0,0.3,0,0.4c0.2-0.1,0.5-0.1,0.6-0.3C46.1,94.7,46.4,94.3,46.8,94L46.8,94z"/>
	<path class="st1" d="M47.4,93.8c0-0.3,0.4-0.3,0.4,0C47.7,93.8,47.5,93.8,47.4,93.8L47.4,93.8z"/>
	<path class="st2" d="M4.3,94c0.3-0.2,0.6-0.3,0.9-0.4C5,94,4.5,93.8,4.3,94L4.3,94z"/>
	<path class="st4" d="M35.3,93.8c0.2,0.1,0.4,0.2,0.6,0.4c-0.2,0-0.3,0.1-0.5,0C35.4,94,35.4,93.9,35.3,93.8L35.3,93.8z"/>
	<path class="st1" d="M36.3,94c-0.3,0-0.1-0.3,0.1-0.3c0,0.1,0.1,0.2,0.2,0.3C36.5,94,36.3,94,36.3,94L36.3,94z"/>
	<path class="st4" d="M5.8,94.9c0.7-0.3,1.4-0.6,2.1-1c-0.1,0.4-0.5,0.5-0.8,0.7c0.4,0.4,1,0.8,1.6,0.5C9,95.3,9.3,95,9.5,94.9
		c0.2,0,0.3,0,0.5,0c0.1-0.1,0.1-0.3,0.2-0.4c0.2,0,0.3,0,0.5,0c0.1-0.2,0.1-0.3,0.2-0.5c0.1,0,0.3,0,0.4,0c0.2,0,0.4,0,0.5,0
		c0,0.2,0,0.4,0,0.6c-0.2-0.1-0.3-0.2-0.5-0.3c0,0.2,0,0.3,0,0.5c-0.1,0-0.3,0.1-0.3,0.1c0.2,0,0.4,0,0.6,0.1
		c0.3,0.2,0.5,0.5,0.7,0.7c-0.1,0.1-0.2,0.3-0.3,0.4c0,0.1,0.1,0.2,0.1,0.2c0.1,0,0.3-0.1,0.4-0.1c-0.1-0.1-0.1-0.2-0.2-0.3
		c0.1-0.1,0.3-0.3,0.4-0.4c0.2,0.1,0.3,0.2,0.5,0.3c0.1-0.1,0.2-0.3,0.3-0.4c0.2,0.3,0.3,0.5,0.3,0.9c0.1,0.1,0.2,0.2,0.3,0.3
		c-0.2,0-0.3,0.1-0.5,0.1c-0.3-0.1-0.5-0.3-0.8-0.4c-0.4,0.3-0.8,0.1-1.2,0c0.2,0.3,0.4,0.6,0.6,0.8c-0.2,0-0.5,0.1-0.7,0.1
		c0,0.3,0.1,0.5,0.2,0.8c0,0,0.1,0.1,0.2,0.1c0,0.2,0.1,0.3,0.1,0.5c-0.1,0.1-0.3,0.2-0.4,0.3c-0.1,0.2-0.1,0.4-0.2,0.5
		c-0.1-0.1-0.2-0.2-0.3-0.2c-0.1,0.2-0.1,0.4-0.2,0.5c-0.6,0-1.1,0.4-1.7,0.6c0,0.1-0.1,0.2-0.1,0.2c-0.2,0-0.3-0.1-0.5-0.1
		c0,0-0.1,0-0.1-0.1c0,0.2-0.1,0.4-0.1,0.5c-0.2,0.1-0.4,0.2-0.6,0.2c0,0-0.1,0.1-0.1,0.2c-0.4,0.1-0.7,0.3-1,0.5
		c0,0.1,0.1,0.2,0.2,0.3c-0.3,0.1-0.6,0.3-0.9,0.3c-0.2,0-0.5,0-0.6,0.2c0-0.4-0.3-0.3-0.5-0.2c-0.5,0.2-0.9-0.3-1.5-0.2
		c0.1,0.1,0.3,0.3,0.4,0.4c-0.2,0.1-0.3,0.1-0.5,0.2c-0.2-0.1-0.3-0.2-0.5-0.2c0.1-0.1,0.3-0.2,0.4-0.2c-0.3-0.1-0.6-0.1-0.8-0.3
		c0.3,0,0.6,0,0.9,0.1c-0.1-0.5,0.4-0.7,0.8-0.7c0.1,0.2,0.2,0.3,0.3,0.5c0.1-0.1,0.3-0.2,0.4-0.4c0.1,0,0.3,0.1,0.4,0.1
		c0-0.1,0-0.2,0-0.3c-0.3-0.2-0.6-0.4-0.8-0.6c0.1-0.2,0.3-0.3,0.4-0.4c0.2,0.5,0.5,0.9,0.9,1.2c-0.2,0.2-0.4,0.4-0.5,0.6
		c0.3-0.1,0.6-0.1,0.8-0.2c0-0.2-0.1-0.3-0.1-0.5c-0.4-0.1-0.5-0.5-0.5-0.9c-0.2-0.1-0.5-0.2-0.6-0.5c0.4-0.1,0.7-0.1,1.1,0
		c0.1-0.1,0.2-0.2,0.2-0.3c0.1,0.1,0.2,0.1,0.3,0.2c0-0.1-0.1-0.2-0.1-0.3c0.1-0.1,0.2-0.2,0.2-0.3c-0.5-0.1-1.1,0-1.4-0.5
		c-0.1-0.3,0-0.5,0-0.8c-0.3,0-0.6,0.1-1,0c0.1,0,0.3-0.1,0.4-0.2c-0.3-0.2-0.6-0.3-0.9-0.4c0.1,0.2,0.2,0.4,0.3,0.5
		c-0.2,0.1-0.4,0.2-0.6,0.3c0.1,0.1,0.2,0.2,0.3,0.3c-0.3,0-0.6,0-0.9-0.1c-0.3,0.2-0.5,0.3-0.8,0.5c0.3,0.3,0.7,0.4,1.1,0.5
		c-0.3,0.2-0.7,0.2-1.1,0.2c-0.2,0.3-0.3,0.5-0.5,0.8c0.1,0.2,0.1,0.4,0.2,0.5c0.2,0.1,0.4,0.2,0.6,0.2c-0.1,0.2-0.2,0.3-0.2,0.5
		c-0.5-0.4-0.9-1.1-0.7-1.7c0.3-1.2,1.3-1.9,2.2-2.6c0.5-0.3,0.8-0.9,1.5-0.8c0-0.2-0.1-0.3-0.1-0.5C5,96,5.2,96,5.3,96
		C5.4,95.6,5.6,95.3,5.8,94.9L5.8,94.9z"/>
	<path class="st1" d="M3.6,94c0.2,0,0.4,0,0.6,0c-0.2,0.2-0.5,0.3-0.8,0.5C3.4,94.3,3.5,94.1,3.6,94L3.6,94z"/>
	<path class="st1" d="M43.2,94.6c0.3-0.2,0.6-0.5,0.9-0.6c-0.1,0.2-0.2,0.4-0.2,0.6C43.7,94.8,43.4,94.7,43.2,94.6L43.2,94.6z"/>
	<path class="st3" d="M33.8,94.7c0.4-0.1,0.8-0.2,1-0.6c0,0.1,0.1,0.3,0.1,0.3c0.2,0.1,0.4,0,0.5-0.2c-0.1,0.2-0.2,0.4-0.3,0.6
		c-0.1,0-0.2-0.1-0.2-0.1c-0.1,0.1-0.2,0.3-0.3,0.5c-0.1,0-0.3,0.1-0.4,0.1c0-0.1,0.1-0.3,0.1-0.4c-0.2,0.1-0.3,0.3-0.5,0.4
		C33.9,95.1,33.8,94.9,33.8,94.7L33.8,94.7z"/>
	<path class="st3" d="M36.1,94.3c0.1,0,0.2-0.1,0.3-0.1c0,0.1,0,0.2,0,0.3c0,0.2,0,0.4,0,0.6c-0.1,0-0.2,0.1-0.2,0.1
		c-0.1-0.1-0.2-0.3-0.2-0.4c0.1,0,0.2-0.1,0.2-0.1C36.1,94.5,36.1,94.3,36.1,94.3L36.1,94.3z"/>
	<path class="st1" d="M48.4,94.9c0.1-0.3,0.4-0.5,0.7-0.6c0,0.2-0.1,0.5-0.1,0.7c0.1,0,0.2,0.1,0.3,0.1c-0.3,0.1-0.6,0.2-0.9,0.4
		c0-0.1,0-0.2,0-0.3c-0.1,0-0.3,0-0.4,0C48.2,95.2,48.3,95.1,48.4,94.9L48.4,94.9z"/>
	<path class="st4" d="M47.5,95.3c0.3-0.2,0.6-0.4,0.9-0.6c0,0.1,0,0.2,0,0.2c-0.1,0.1-0.2,0.3-0.4,0.4c-0.2,0-0.4,0.1-0.6,0.1
		c0-0.1,0-0.3-0.1-0.4C47.4,95.1,47.5,95.2,47.5,95.3L47.5,95.3z"/>
	<path class="st8" d="M95.1,102.7c2.9,0,5.7,0,8.6,0c-1.4-2.6-2.9-5.3-4.3-7.9C97.9,97.3,96.5,100,95.1,102.7L95.1,102.7z
		 M89.6,105.6c2.5-4.6,5-9.3,7.6-13.9c1.5,0,2.9,0,4.4,0c3.3,6.1,6.6,12.1,9.9,18.2c-1.3,0-2.6,0.1-3.9,0c-0.7-1.3-1.4-2.5-2.1-3.8
		c-1.7,0-3.4,0-5,0c-1.1,0-2.3,0-3.4,0c-0.5,0-0.9,0-1.4,0c-0.8,0-1.6,0-2.4,0c-0.7,1.3-1.4,2.6-2.1,3.9c-1.3,0-2.6,0-3.9,0
		C88,108.4,88.8,107,89.6,105.6L89.6,105.6z"/>
	<path class="st3" d="M44.5,95.1c0.1-0.1,0.3-0.2,0.4-0.3c0,0.1,0,0.2,0,0.3c0,0.1,0,0.2,0,0.3c-0.1,0-0.3,0.1-0.4,0.1V95.1
		L44.5,95.1z"/>
	<path class="st5" d="M4.9,95.4c0.3-0.1,0.6-0.3,0.8-0.6l0.1,0.1c-0.2,0.3-0.4,0.7-0.5,1.1c-0.2,0-0.3-0.1-0.5-0.1
		c0,0.2,0.1,0.3,0.1,0.5c-0.6-0.2-1,0.5-1.5,0.8c-0.9,0.7-1.9,1.4-2.2,2.6c-0.2,0.7,0.2,1.4,0.7,1.7c0.2,0.2,0.3,0.3,0.5,0.5
		c0.2,0.2,0.5,0.3,0.8,0.3c-0.1,0.1-0.3,0.2-0.4,0.2c-0.2-0.1-0.5-0.1-0.7-0.1l0-0.2c0,0.1,0,0.2,0,0.3c-0.3-0.1-0.5-0.3-0.6-0.6
		c-0.1,0.1-0.2,0.2-0.3,0.2c0-0.1,0-0.2,0-0.3c-0.3,0-0.6-0.1-0.6-0.5c-0.1,0-0.2,0-0.3,0c0-0.2-0.1-0.3-0.2-0.5c-0.1,0-0.3,0-0.3,0
		c0.2-0.1,0.4-0.2,0.6-0.4c0-0.1,0-0.3,0-0.4c0.1,0,0.2-0.1,0.3-0.2C1,99.3,1.3,99,1.5,98.5C1.8,98.3,2,98.1,2,97.8
		c0.2-0.1,0.4-0.2,0.5-0.3c0-0.1,0.1-0.2,0.1-0.3c0.1,0,0.2-0.1,0.3-0.2c0.1-0.1,0.3-0.2,0.4-0.3c0.1-0.1,0.1-0.3,0.2-0.4
		c0.3,0,0.5-0.3,0.7-0.5c0.1,0,0.2,0,0.2,0C4.6,95.7,4.7,95.6,4.9,95.4L4.9,95.4z"/>
	<path class="st3" d="M32.8,95.1c0.1-0.1,0.3-0.1,0.5-0.2c0.2,0.4-0.1,0.8-0.2,1.2c0,0.1,0.1,0.2,0.1,0.3c-0.1,0-0.3,0.1-0.4,0.1
		c-0.2,0.1-0.3,0.3-0.5,0.4c-0.1,0.1-0.3,0.2-0.4,0.2c-0.1-0.1-0.1-0.2-0.2-0.3c0.1-0.1,0.3-0.2,0.4-0.2c0.2-0.1,0.4-0.3,0.5-0.5
		c0-0.1,0-0.2,0.1-0.2c0-0.2,0.1-0.4,0.1-0.5C32.8,95.3,32.8,95.2,32.8,95.1L32.8,95.1z"/>
	<path class="st5" d="M44.1,95.1c0.1,0,0.3,0,0.4,0v0.3v0l-0.1,0c-0.1,0-0.2-0.1-0.2-0.1c0,0.3-0.2,0.5-0.4,0.7
		c-0.1,0-0.3,0-0.4-0.1v0c0.1-0.1,0.2-0.1,0.4-0.2C43.9,95.6,44,95.4,44.1,95.1L44.1,95.1z"/>
	<path class="st2" d="M31.8,95.9c0.2-0.4,0.5-0.9,1-0.7l0,0.2c0,0.2-0.1,0.4-0.1,0.5c0-0.1,0-0.2,0-0.3c-0.5,0.5-1.3,0.8-1.7,1.4
		c-0.7,0.7-1.6,1.2-2.3,2c-0.2,0-0.3,0-0.5,0.1c0,0.1-0.1,0.2-0.1,0.3c0,0-0.1,0.1-0.2,0.1c-0.1,0.1-0.1,0.2-0.2,0.3
		c-0.1-0.4,0.3-0.6,0.5-0.9c0.1,0,0.2-0.1,0.2-0.1c0.4-0.4,0.8-0.8,1.3-1.2c0.2-0.5,0.7-0.6,1.1-0.9C31.3,96.5,31.3,95.8,31.8,95.9
		L31.8,95.9z"/>
	<path class="st2" d="M25.7,95.3c0.2-0.1,0.5,0.4,0.2,0.5C25.7,95.8,25.6,95.5,25.7,95.3L25.7,95.3z"/>
	<path class="st3" d="M44.2,95.3c0.1,0,0.2,0.1,0.2,0.1c0,0.1,0.1,0.3,0.1,0.3c-0.1,0-0.2,0.1-0.4,0.1c-0.4,0.2-0.6,0.6-0.8,1
		c-0.3-0.1-0.1-0.4,0.1-0.5c0-0.1,0.1-0.3,0.1-0.3c0.1,0,0.3,0,0.4,0.1C44,95.9,44.2,95.6,44.2,95.3L44.2,95.3z"/>
	<path class="st2" d="M46.9,95.5c0-0.1,0.1-0.2,0.2-0.2c0,0.2,0,0.4-0.1,0.6c-0.2,0.2-0.4,0-0.5,0c0-0.1,0.1-0.2,0.1-0.3
		C46.7,95.6,46.8,95.5,46.9,95.5L46.9,95.5z"/>
	<path class="st0" d="M10.9,95.6c0.2,0.1,0.5,0.2,0.7,0.3c0,0.2,0,0.3,0.1,0.5c-0.3-0.1-0.5-0.1-0.7-0.2
		C10.9,96,10.9,95.8,10.9,95.6L10.9,95.6z"/>
	<path class="st2" d="M47.2,96.2c0.1-0.2,0.1-0.3,0.2-0.5c0.1,0.2,0.1,0.4,0.1,0.6c-1,0.2-1.6,1.1-2.5,1.6c-1.1,0.6-1.9,1.6-3,2.2
		c0.2-0.3,0.5-0.6,0.4-1c0.2-0.1,0.4-0.2,0.7-0.2c-0.1-0.6,0.6-0.8,1-1.1c0-0.2,0.1-0.3,0.1-0.4c0.1,0.1,0.2,0.2,0.2,0.3
		c0.4-0.3,1.1-0.6,0.8-1.2c0,0,0.1-0.1,0.2-0.1c0,0.1,0.1,0.2,0.1,0.3l0.1,0c0.1,0,0.2,0.1,0.3,0.1c0.3-0.1,0.5-0.4,0.6-0.6
		C46.7,96.2,46.9,96.2,47.2,96.2L47.2,96.2z"/>
	<path class="st0" d="M21.2,96.4c0.2-0.1,0.3,0,0.2,0.2C21.2,96.7,21.2,96.6,21.2,96.4L21.2,96.4z"/>
	<path class="st1" d="M31.3,97.1c0.2,0,0.3,0,0.5,0c-0.1,0.3-0.5,0.3-0.7,0.4c-0.2,0.1-0.3,0.3-0.4,0.4c-0.3,0.1-0.5,0.5-0.9,0.5
		c0.2-0.3,0.5-0.4,0.8-0.5c0-0.1,0-0.3,0-0.3C31,97.7,31.1,97.3,31.3,97.1L31.3,97.1z"/>
	<path class="st2" d="M2,97.8c0.1-0.5,0.5-0.7,1-0.7c-0.1,0-0.2,0.1-0.3,0.2c0,0.1-0.1,0.2-0.1,0.3C2.4,97.6,2.2,97.7,2,97.8L2,97.8
		z"/>
	<path class="st0" d="M3.8,97.2c0.3,0.1,0.6,0.2,0.9,0.4c-0.1,0-0.3,0.1-0.4,0.2c0.3,0.1,0.6,0,1,0c0,0.3,0,0.5,0,0.8
		C5.6,99,6.2,99,6.7,99.1c-0.1,0.1-0.2,0.2-0.2,0.3c0,0.1,0.1,0.2,0.1,0.3c-0.1-0.1-0.2-0.1-0.3-0.2c-0.1,0.1-0.2,0.2-0.2,0.3
		c-0.4,0-0.7,0-1.1,0c0.2,0.2,0.4,0.3,0.6,0.5c0,0.4,0.1,0.8,0.5,0.9c0,0.2,0.1,0.3,0.1,0.5c-0.3,0.1-0.6,0.2-0.8,0.2
		c0.1-0.2,0.3-0.4,0.5-0.6c-0.5-0.3-0.7-0.7-0.9-1.2c-0.1,0.1-0.3,0.3-0.4,0.4c0.3,0.2,0.5,0.4,0.8,0.6c0,0.1,0,0.2,0,0.3
		c-0.1,0-0.3-0.1-0.4-0.1c-0.1,0.1-0.3,0.2-0.4,0.4c-0.1-0.2-0.2-0.3-0.3-0.5c-0.4,0.1-0.9,0.2-0.8,0.7c-0.3,0-0.6-0.1-0.9-0.1
		c-0.2-0.2-0.3-0.3-0.5-0.5c0.1-0.2,0.2-0.3,0.2-0.5c-0.2-0.1-0.4-0.1-0.6-0.2c-0.1-0.2-0.1-0.3-0.2-0.5c0.2-0.2,0.4-0.5,0.5-0.8
		c0.4,0.1,0.7,0,1.1-0.2c-0.4-0.1-0.8-0.2-1.1-0.5c0.3-0.1,0.6-0.3,0.8-0.5c0.3,0.1,0.6,0.1,0.9,0.1c-0.1-0.1-0.2-0.2-0.3-0.3
		c0.2-0.1,0.4-0.3,0.6-0.3C4,97.6,3.9,97.4,3.8,97.2L3.8,97.2z"/>
	<path class="st0" d="M7.3,97.4c0.1,0.1,0.2,0.2,0.3,0.3c0.2,0,0.3,0,0.5,0.1c-0.1,0.1-0.2,0.2-0.4,0.3c0.2,0.2,0.5,0.1,0.7,0.1
		c-0.1,0-0.2,0-0.4,0.1c0,0.1,0,0.2,0,0.3c-0.2,0.1-0.4,0.2-0.5,0c0-0.1,0-0.3,0.1-0.4C7.4,98,7.3,97.7,7.3,97.4L7.3,97.4z"/>
	<path class="st3" d="M30.6,98.5c0.1-0.2,0.3-0.3,0.4-0.5c0,0.3-0.4,0.5-0.5,0.7c-0.1,0-0.2,0-0.2,0c0-0.1,0-0.2,0-0.3
		C30.3,98.5,30.5,98.5,30.6,98.5L30.6,98.5z"/>
	<path class="st0" d="M29.3,98.7c0.2-0.1,0.2,0,0.2,0.2C29.3,99,29.2,98.9,29.3,98.7L29.3,98.7z"/>
	<path class="st1" d="M29.8,98.7c0.3-0.1,0.3,0.5,0,0.4C29.6,99,29.6,98.7,29.8,98.7L29.8,98.7z"/>
	<path class="st2" d="M6.6,98.8c0.2-0.1,0.3-0.1,0.3,0.1C6.8,99,6.7,99,6.6,98.8L6.6,98.8z"/>
	<path class="st4" d="M23.7,99.7c0.3,0.1,0.5,0.2,0.8,0.3c0.1-0.1,0.3-0.2,0.4-0.2c0.1,0.2,0.1,0.4,0,0.7c0,0.1,0.1,0.2,0.1,0.3
		c-0.1,0-0.2,0.1-0.3,0.1c0-0.1,0-0.2,0-0.3c-0.2,0-0.3,0-0.5,0c0.1,0,0.3-0.1,0.4-0.1c-0.2-0.2-0.5-0.3-0.7-0.4
		c-0.1,0.1-0.2,0.2-0.2,0.2C23.8,100.1,23.7,99.9,23.7,99.7L23.7,99.7z"/>
	<path class="st2" d="M41.4,100c0.1,0,0.3,0.1,0.4,0.1c-0.8,0.6-1.5,1.3-2.3,1.9c0.1-0.3,0.2-0.5,0.3-0.8c0.1,0,0.3,0,0.4,0
		c0.1-0.1,0.1-0.3,0.2-0.4c0.1,0,0.2,0,0.3,0c0.2-0.1,0.4-0.2,0.6-0.3C41.3,100.3,41.4,100.2,41.4,100L41.4,100z"/>
	<path class="st4" d="M39.2,100.1c0.2,0.1,0.4,0.3,0.6,0.4c-0.3,0.1-0.5,0.2-0.7,0.5c0,0.1,0.1,0.3,0.2,0.4
		c-0.3-0.1-0.4,0.3-0.6,0.5c0.2,0.3,0.1,0.6,0,0.9c-0.2,0-0.3,0-0.5,0c0,0.4-0.2,0.6-0.4,0.9c-0.4,0.3-0.8,0.6-1.1,1.1
		c0-0.2,0-0.3,0-0.5c-0.2,0-0.4,0.2-0.5,0.4c0.1,0.1,0.2,0.2,0.3,0.2c-0.4,0.4-0.7,0.7-1.1,1.1c-0.1-0.1-0.2-0.2-0.2-0.3
		c-0.1,0.2-0.1,0.3-0.1,0.5c-0.1,0.1-0.1,0.2-0.2,0.3c-0.1,0-0.3,0-0.4,0l-0.2-0.1c0-0.4,0.3-0.5,0.6-0.7c0-0.1-0.1-0.2-0.1-0.3
		c0.2,0.1,0.3,0.1,0.5,0.2c0.1-0.2,0.2-0.4,0.3-0.6c0.2,0,0.3,0,0.5,0.1c0-0.4,0.1-0.9,0.3-1.3c0.1,0.1,0.2,0.1,0.3,0.2
		c0.3-0.4,0.6-0.8,0.6-1.3c0.1,0,0.2,0.1,0.3,0.1l0,0.1c0,0-0.1,0.1-0.1,0.1c0,0.2,0.1,0.5-0.2,0.5c0,0.1-0.1,0.2-0.1,0.3
		c-0.2,0.1-0.2,0.3-0.1,0.5c0.2-0.3,0.4-0.5,0.5-0.8l0.2,0.1c0-0.2-0.1-0.3-0.1-0.5c0,0,0-0.1,0.1-0.2c0.1,0,0.2-0.1,0.2-0.1
		c0-0.1,0.1-0.2,0.1-0.3c0.1-0.2-0.1-0.4-0.3-0.4c0,0,0-0.1-0.1-0.1c0.2,0,0.4-0.1,0.6-0.1c0.1-0.3,0.3-0.5,0.4-0.8
		c0-0.2-0.1-0.4-0.1-0.6c0.1,0,0.3,0.1,0.4,0.1C39,100.5,39.1,100.3,39.2,100.1L39.2,100.1z"/>
	<path class="st1" d="M39.2,102c0.3,0,0.1,0.6-0.1,0.5C39,102.3,39.1,102,39.2,102L39.2,102z"/>
	<path class="st5" d="M3.5,102.1c0.5-0.1,0.9,0.4,1.5,0.2c0.2-0.1,0.6-0.1,0.5,0.2c-0.3,0-0.6,0.1-0.8,0.3c-0.4,0-0.8-0.1-1.2-0.1
		c0.2-0.1,0.3-0.1,0.5-0.2C3.7,102.4,3.6,102.3,3.5,102.1L3.5,102.1z"/>
	<path class="st2" d="M26.5,102.2c0.1,0.1,0.2,0.1,0.3,0.2c0.1-0.1,0.2-0.2,0.3-0.2c0,0.1,0.1,0.2,0.1,0.2v0c-0.1,0-0.2,0.1-0.3,0.1
		c0,0.5-0.3,0.9-0.6,1.2c0.2,0.2,0.3,0.4,0.5,0.6c0.5,0.3,1,0.5,1.4,0.9c0,0.1,0,0.2,0,0.3c0.5-0.2,0.9-0.6,1.4-0.9
		c0.1,0,0.2,0.1,0.2,0.2c0.1,0,0.1-0.1,0.2-0.1c0.2,0.2,0.4,0.4,0.6,0.6c0,0-0.1,0.1-0.1,0.2c0.2,0.1,0.4,0.3,0.5,0.4
		c0.1,0.2-0.2,0.4-0.3,0.5c0-0.1-0.1-0.2-0.1-0.3c0,0-0.1,0.1-0.1,0.1c-0.1-0.1-0.2-0.2-0.3-0.3c0,0.1,0,0.3,0,0.4
		c0.1,0.1,0.3,0.3,0.5,0.4c-0.3,0.1-0.5,0.2-0.8,0.2c0.1,0.1,0.2,0.2,0.2,0.4c-0.2,0.2-0.4,0.4-0.5,0.7c-0.1-0.1-0.3-0.2-0.4-0.3
		c0,0.2,0.1,0.4,0.1,0.6c-0.1-0.1-0.3-0.3-0.4-0.4c0.1-0.1,0.1-0.2,0.2-0.2c-0.1-0.1-0.1-0.2-0.2-0.3c0.1,0,0.3,0,0.4-0.1
		c0-0.1,0-0.2,0.1-0.2c0.1,0,0.3,0,0.4,0.1c0-0.3-0.1-0.6-0.2-0.8c-0.3-0.3-0.6-0.5-0.9-0.7c-0.1,0.1-0.2,0.2-0.3,0.3
		c-0.2-0.1-0.4-0.2-0.5-0.3c0-0.1,0-0.3,0-0.4c-0.2,0.1-0.5,0.3-0.7,0.5c0,0.1,0,0.2,0,0.3c0.4-0.1,0.8,0,1.2,0.1
		c0,0.1,0.1,0.2,0.1,0.3c0.1,0,0.3,0.1,0.4,0.1c0,0.1,0,0.3-0.1,0.4c-0.1,0.1-0.3,0.1-0.4,0.2c0-0.1,0-0.2,0-0.3
		c-0.5,0.3-0.9,0.7-1.5,0.6c0,0-0.1,0.1-0.2,0.2c0.6,0.1,1.2,0,1.6-0.4c0.1,0.1,0.2,0.2,0.3,0.4c-0.1,0.1-0.1,0.2-0.2,0.3
		c-0.1,0-0.2,0-0.3,0c0,0.1,0,0.2-0.1,0.3c-0.2,0-0.3,0-0.5,0c0.1-0.1,0.2-0.2,0.3-0.4c-0.2,0-0.3-0.1-0.5-0.1c0,0.1,0,0.3,0,0.4
		c0,0-0.1-0.1-0.1-0.1c-0.1,0-0.2,0.1-0.3,0.1c-0.2-0.2-0.5-0.5-0.9-0.4c-0.2,0.2-0.2,0.4-0.3,0.6c-0.1,0-0.2,0-0.3,0
		c-0.1,0.2-0.3,0.4-0.5,0.6c-0.2-0.1-0.4-0.1-0.5-0.2c-0.1-0.4-0.1-0.8-0.6-0.9c0.2-0.2,0.4-0.5,0.5-0.7c-0.4,0.1-0.7,0.2-0.9,0.6
		c-0.3,0-0.6,0.1-0.8,0.2c0-0.3,0.2-0.5,0.4-0.5c-0.1-0.1-0.2-0.2-0.3-0.3c0.1,0,0.3,0,0.4,0c0.1-0.1,0.3-0.2,0.4-0.3
		c0,0.1,0.1,0.3,0.1,0.4c0.2-0.2,0.5-0.3,0.8-0.4c-0.2-0.2-0.5-0.2-0.8-0.2c0.1-0.1,0.2-0.2,0.3-0.3c0-0.1-0.1-0.2-0.1-0.2
		c0,0-0.1,0.1-0.1,0.2c-0.1-0.1-0.3-0.2-0.4-0.1c0-0.1,0-0.2,0.1-0.3c0.2,0,0.4-0.1,0.6-0.2c-0.4-0.1-0.7-0.2-1.1-0.2
		c0.1,0.2,0.2,0.4,0.3,0.6c-0.1,0.1-0.2,0.2-0.3,0.3c-0.4-0.1-0.8-0.4-0.9-0.7c0.2-0.1,0.3-0.2,0.5-0.2c-0.2-0.1-0.4-0.2-0.6-0.3
		c0.1,0,0.2-0.1,0.3-0.1c0.1,0,0.2,0.1,0.2,0.1c0.1-0.1,0.2-0.2,0.3-0.3c-0.2,0-0.4,0-0.5,0c0.1-0.4,0.5-0.4,0.8-0.3
		c0,0.3-0.1,0.8,0.4,0.9c0.3-0.1,0.3-0.4,0.3-0.7c0,0.1,0.1,0.3,0.2,0.4c0.2-0.1,0.3-0.2,0.5-0.4c-0.3-0.3-0.5-0.6-0.7-0.9
		c0.1-0.3,0.1-0.5,0.2-0.8c0.3-0.1,0.7,0,0.9-0.2c-0.1,0-0.4-0.1-0.5-0.1c0,0,0.1-0.1,0.1-0.1c0.3,0.1,0.6,0.2,0.9,0.3
		c0.2-0.1,0.5-0.1,0.7-0.2c0,0.1,0,0.3,0,0.4c0.2-0.1,0.4-0.1,0.6-0.2c-0.1-0.1-0.1-0.2-0.2-0.2c0.1,0,0.3,0,0.4,0
		C26.5,102.6,26.5,102.4,26.5,102.2L26.5,102.2z"/>
	<path class="st1" d="M37.8,102.2c0.2,0.1,0.4,0.2,0.3,0.4c-0.1,0-0.3,0-0.3-0.1C37.7,102.4,37.7,102.2,37.8,102.2L37.8,102.2z"/>
	<path class="st4" d="M19.6,102.4c0,0,0.1,0.1,0.2,0.2c0,0.3-0.1,0.7,0.1,0.9c-0.1,0-0.2,0-0.3,0c-0.2,0.2-0.2,0.5-0.5,0.6
		c-0.1-0.1-0.1-0.3-0.1-0.4c0.1-0.3,0.1-0.5,0.3-0.7c0.1,0.1,0.2,0.2,0.3,0.3C19.6,103,19.6,102.7,19.6,102.4L19.6,102.4z"/>
	<path class="st3" d="M37.4,103c0,0,0.1-0.1,0.1-0.1l0,0.1c0,0.1,0.1,0.2,0.1,0.2c0,0.2,0.1,0.3,0.1,0.5l-0.2-0.1
		c-0.2,0.3-0.3,0.6-0.5,0.8c-0.1-0.2-0.1-0.4,0.1-0.5c0-0.1,0.1-0.2,0.1-0.3C37.5,103.4,37.4,103.1,37.4,103L37.4,103z"/>
	<path class="st4" d="M18,103c0.3,0,0.6,0.1,0.8,0.2c-0.1,0-0.2,0.1-0.2,0.1c0.1,0.1,0.1,0.2,0.2,0.3c-0.3,0.4-0.6,0.6-1,0.9
		c0-0.3,0-0.6,0-0.8c0.1-0.1,0.2-0.2,0.3-0.3C18.1,103.2,18.1,103.1,18,103L18,103z"/>
	<path class="st0" d="M23.8,103.1c0.3,0,0.5,0.1,0.8,0.1c0,0.2-0.2,0.3-0.4,0.4c0,0.1,0,0.2-0.1,0.3c-0.1-0.1-0.3-0.1-0.5-0.2
		C23.6,103.5,23.7,103.3,23.8,103.1L23.8,103.1z"/>
	<path class="st4" d="M33.3,106.8c0.2,0,0.3,0,0.5,0c0.1,0,0.2,0.1,0.2,0.2c-0.4,0.3-0.3,0.9-0.7,1.2c-0.1-0.1-0.1-0.2-0.2-0.3
		c0.1-0.2,0.2-0.3,0.1-0.5C33.2,107.1,33.2,107,33.3,106.8L33.3,106.8z"/>
	<path class="st1" d="M15.3,108c0.1-0.4,0-1,0.5-1C15.7,107.3,15.8,108,15.3,108L15.3,108z"/>
	<path class="st4" d="M15.8,108.9c0-0.6,0.4-1.1,0.8-1.6c0,0.2,0,0.5,0.1,0.7c0.2,0,0.4,0,0.6,0.1c0,0.1-0.1,0.2-0.1,0.3
		c-0.1,0-0.3,0-0.4-0.1c-0.2,0.1-0.4,0.2-0.6,0.3c0.1,0,0.3,0.1,0.4,0.1c-0.2,0.1-0.3,0.2-0.5,0.3c0.2,0.1,0.4,0.1,0.6,0.2
		c0.2-0.1,0.4-0.2,0.6-0.3c0,0.2,0,0.4,0,0.5c0.2,0,0.4,0.1,0.5,0.1c0.3-0.2,0.5-0.3,0.8-0.4c0.1-0.1,0.2-0.3,0.3-0.4
		c0.3,0.3,0.2,0.8,0.3,1.2c0,0.1-0.1,0.2-0.1,0.3c0.1,0.1,0.2,0.1,0.3,0.1c0.5,0.1,1,0.4,1.5,0.3c-0.3-0.2-0.7-0.3-1-0.5
		c0.2,0,0.4,0,0.6,0c0.1-0.1,0.2-0.2,0.2-0.4c0,0.3,0.2,0.5,0.5,0.6c0.2-0.2,0.3-0.4,0.5-0.6c0.4,0,0.9,0,1.1,0.4
		c0.2,0.4,0.2,0.8,0.1,1.2c-0.1,0-0.2,0-0.4,0c-0.1,0.2-0.1,0.3-0.2,0.5c0.3-0.2,0.5-0.4,0.7-0.6c0.4,0.1,0.8,0.3,1.2,0.2
		c0.3-0.1,0.6-0.3,0.9,0c0.4-0.2,0.9-0.3,1.4,0c-0.1-0.1-0.1-0.2-0.2-0.3c0.1-0.1,0.2-0.2,0.3-0.3c0.3,0,0.7-0.1,0.9,0.3
		c-0.2,0.1-0.4,0.1-0.5,0.2c0,0.1,0.1,0.2,0.1,0.3c0.2-0.2,0.3-0.4,0.5-0.5c0,0.3-0.1,0.6-0.2,0.9c0.1,0,0.3-0.1,0.4-0.1
		c-0.2,0.2-0.4,0.3-0.5,0.5c0,0.1,0,0.2,0.1,0.3c-1,0-1.3,1.2-2.1,1.5c-0.2,0.1-0.4,0.1-0.6,0.1c-0.1,0.1-0.2,0.2-0.4,0.3
		c-0.1-0.1-0.1-0.2-0.2-0.4c-0.2,0.2-0.4,0.5-0.7,0.6c0,0.1,0.1,0.2,0.1,0.4c-0.3,0.2-0.6,0.3-0.9,0.4c-0.1,0.1-0.3,0.1-0.4,0.2
		c0.2,0.1,0.5,0.1,0.7,0.1c-0.2,0.1-0.4,0.2-0.6,0.3c-0.1,0-0.2,0.1-0.3,0.1c0.1,0.1,0.3,0.3,0.3,0.3c-0.4,0-0.7,0.1-1.1,0.1
		c-0.1,0.2-0.3,0.3-0.5,0.3c0-0.1-0.1-0.3-0.1-0.4c0.1-0.1,0.2-0.3,0.3-0.4c-0.3-0.2-0.9-0.2-1-0.7c-0.2,0-0.3,0-0.5,0
		c-0.2,0-0.5-0.1-0.7-0.1c-0.4-0.3-0.7-0.6-1.1-0.9c0.1-0.1,0.1-0.3,0.2-0.4c0.2,0.1,0.3,0.3,0.5,0.4c0-0.1,0-0.3,0-0.4
		c0.1-0.1,0.2-0.2,0.3-0.2c-0.3-0.2-0.5-0.3-0.8-0.5c-0.1,0-0.2,0.1-0.3,0.2c0.1,0.2,0.2,0.4,0.3,0.5c-0.4,0-0.6-0.3-0.8-0.6
		c-0.3,0.2-0.5,0.4-0.5,0.7c-0.1-0.2-0.3-0.4-0.4-0.5c0-0.2,0-0.3,0-0.5c-0.3,0.1-0.5,0.2-0.7,0.3c-0.1,0-0.2-0.1-0.4-0.1
		c-0.3,0-0.3,0.4-0.4,0.6c0.1-0.1,0.2-0.2,0.4-0.2c0.1,0.1,0.2,0.2,0.3,0.3c-0.3,0.1-0.5,0.2-0.8,0.3c-0.1-0.2-0.3-0.5-0.3-0.8
		c0-0.4,0.4-0.6,0.5-0.9c0.1,0.2,0.2,0.4,0.4,0.5c0.2-0.3,0.3-0.7,0.6-0.8c0.3,0.2,0.4,0.6,0.7,0.7c0-0.3,0-0.5,0-0.8
		c-0.1-0.1-0.2-0.1-0.3-0.2c0-0.1,0-0.2,0-0.3c-0.1,0.1-0.2,0.1-0.3,0.2c0,0.1,0,0.2-0.1,0.3c-0.2,0-0.3,0.1-0.5,0.1
		c-0.1,0.1-0.2,0.2-0.3,0.3c0-0.2,0-0.5,0-0.7c-0.3,0.1-0.5,0.4-0.8,0.6c0,0-0.1,0-0.2,0c0.1-0.2,0.1-0.4,0.2-0.6
		c0.1-0.1,0.2-0.1,0.4-0.2c-0.3-0.2-0.5-0.5-0.8-0.7c0-0.2,0.1-0.5,0.1-0.7c0.1-0.1,0.2-0.2,0.4-0.3c-0.1-0.2-0.2-0.4-0.2-0.7
		c0.2,0,0.5,0.1,0.7,0.2c0-0.1,0.1-0.2,0.1-0.3c-0.5,0.1-0.4-0.5-0.2-0.8c0.1-0.1,0.2-0.2,0.2-0.3C15.4,108.5,15.6,108.7,15.8,108.9
		L15.8,108.9z"/>
	<path class="st3" d="M32.5,108.2c0.3-0.3,0.5-0.6,0.7-0.9c0,0.2,0,0.4-0.1,0.5c-0.1,0.2-0.3,0.3-0.4,0.4
		C32.7,108.2,32.5,108.2,32.5,108.2L32.5,108.2z"/>
	<path class="st2" d="M32.7,108.2c0.1-0.1,0.3-0.3,0.4-0.4c0.1,0.1,0.1,0.2,0.2,0.3c-0.4,0.4-1,0.6-1.5,0.8c0-0.1,0-0.3,0-0.4
		c0.3-0.1,0.5-0.2,0.8-0.4C32.5,108.2,32.7,108.2,32.7,108.2L32.7,108.2z"/>
	<path class="st2" d="M20.6,108.4c0.2,0.1,0.4,0.1,0.6,0.2c0,0.1-0.1,0.2-0.1,0.3C20.9,108.7,20.7,108.6,20.6,108.4L20.6,108.4z"/>
	<path class="st2" d="M30.8,109.8c0.2-0.3,0.5-0.5,0.8-0.7c-0.1,0.1-0.2,0.2-0.2,0.3c0,0.1,0.1,0.2,0.2,0.3
		c-0.1,0.2-0.4,0.4-0.6,0.5C30.9,110.1,30.8,110,30.8,109.8L30.8,109.8z"/>
	<path class="st0" d="M16.7,109.7c0.1,0,0.3,0,0.3,0c0,0.2,0.1,0.3,0.1,0.5c-0.1,0.2-0.4,0.3-0.6,0.4c0.1,0.1,0.2,0.1,0.3,0.2
		c0.1-0.1,0.2-0.1,0.3-0.2c0.1,0,0.2,0.1,0.2,0.1c0,0.2,0,0.4-0.2,0.5c-0.1,0-0.3,0-0.4-0.1c0.1,0,0.3-0.1,0.4-0.2
		c-0.3-0.1-0.6-0.2-0.9-0.2c0-0.1,0.1-0.2,0.1-0.4c-0.1,0-0.2-0.1-0.3-0.1c0.3-0.1,0.5-0.1,0.8-0.2C16.9,110,16.8,109.9,16.7,109.7
		L16.7,109.7z"/>
	<path class="st1" d="M14.7,110.6c-0.2-0.2,0.1-0.5,0.3-0.5C15.1,110.3,14.9,110.5,14.7,110.6L14.7,110.6z"/>
	<path class="st1" d="M14.1,111.1c0.3,0.2,0.5,0.5,0.8,0.7c-0.1,0.1-0.2,0.1-0.4,0.2c-0.1,0.2-0.1,0.4-0.2,0.6l0,0
		c0-0.1-0.1-0.2-0.2-0.2c0.1-0.2,0.1-0.4,0.2-0.5c-0.1,0-0.2,0.1-0.2,0.2c0,0.1-0.1,0.3-0.1,0.4c-0.1-0.1-0.1-0.2-0.2-0.4
		c0-0.2-0.1-0.3-0.1-0.5c0.1,0,0.2,0.1,0.3,0.1C14.1,111.4,14.1,111.2,14.1,111.1L14.1,111.1z"/>
	<path class="st0" d="M16.2,112c0.1-0.1,0.2-0.1,0.3-0.2c0,0.1,0,0.2,0,0.3c0.1,0.1,0.2,0.1,0.3,0.2c0,0.3,0,0.5,0,0.8
		c-0.3-0.1-0.4-0.5-0.7-0.7c-0.3,0.2-0.4,0.6-0.6,0.8c-0.2-0.1-0.3-0.3-0.4-0.5c-0.2,0.3-0.5,0.5-0.5,0.9c0,0.3,0.2,0.5,0.3,0.8
		c0.2,0.2,0.4,0.3,0.5,0.5c-0.2,0-0.4,0-0.5-0.1c0.1,0.1,0.1,0.3,0.2,0.4c-0.3,0-0.6-0.2-0.6-0.6c0.1,0,0.3,0.1,0.4,0.2
		c-0.3-0.5-0.4-1.1-0.6-1.6c0.1,0,0.2,0,0.3,0c-0.3-0.1-0.2-0.4-0.2-0.6l0,0c0,0,0.1,0,0.2,0c0.2-0.2,0.5-0.5,0.8-0.6
		c0,0.2,0,0.5,0,0.7c0.1-0.1,0.2-0.2,0.3-0.3c0.2,0,0.3-0.1,0.5-0.1C16.1,112.2,16.1,112.1,16.2,112L16.2,112z"/>
	<path class="st0" d="M13.9,112c0.1,0.1,0.1,0.2,0.2,0.4c0.1,0.3-0.1,0.5-0.2,0.8c-0.2,0.6,0.2,1.1,0.1,1.7c-0.1-0.4-0.2-0.7-0.4-1
		C13.7,113.2,13.5,112.5,13.9,112L13.9,112z"/>
	<path class="st5" d="M15.8,113.5c0.3-0.1,0.5-0.2,0.7-0.3c0,0.2,0,0.3,0,0.5c0.2,0.2,0.3,0.4,0.4,0.5c0-0.3,0.2-0.6,0.5-0.7
		c0.2,0.3,0.4,0.6,0.8,0.6c-0.1-0.2-0.2-0.4-0.3-0.5c0.1,0,0.2-0.1,0.3-0.2c0.3,0.2,0.5,0.3,0.8,0.5c-0.1,0.1-0.2,0.2-0.3,0.2
		c0,0.1,0,0.3,0,0.4c-0.2-0.1-0.3-0.3-0.5-0.4c-0.1,0.1-0.1,0.3-0.2,0.4c0.4,0.3,0.7,0.6,1.1,0.9c0.3,0,0.5,0,0.7,0.1
		c0.2,0,0.3,0,0.5,0c0.1,0.5,0.7,0.5,1,0.7c-0.1,0.1-0.2,0.3-0.3,0.4l-0.1,0.1c-0.3,0-0.7,0.1-1,0.2c0-0.2-0.1-0.5-0.1-0.7
		c0.1-0.1,0.3-0.2,0.4-0.2c-0.2,0-0.4-0.1-0.6-0.1c0,0.3,0,0.5-0.1,0.8c-0.1-0.1-0.2-0.2-0.3-0.2c-0.2,0.1-0.3,0.2-0.5,0.4
		c-0.3,0.1-0.7-0.1-0.8,0.3c-0.1-0.1-0.2-0.2-0.2-0.2c-0.5-0.1-1,0.2-1.4-0.2c0-0.1,0.1-0.2,0.2-0.3c0,0,0.1-0.1,0.1-0.2
		c-0.1,0-0.3,0-0.4,0c-0.2-0.2-0.4-0.3-0.6-0.4c-0.1-0.2-0.2-0.5-0.5-0.5c-0.1-0.1-0.1-0.3-0.2-0.4c0.2,0,0.4,0,0.5,0.1
		c-0.2-0.2-0.4-0.3-0.5-0.5c0.3,0,0.6-0.1,0.8-0.3c-0.1-0.1-0.2-0.2-0.3-0.3c-0.1,0.1-0.2,0.2-0.4,0.2c0.1-0.2,0.1-0.5,0.4-0.6
		C15.6,113.4,15.7,113.5,15.8,113.5L15.8,113.5z"/>
	<path class="st1" d="M23.6,115.1c0.5-0.3,1.1-0.6,1.7-0.8c-0.5,0.7-1.4,0.8-2.1,1.3c-0.2,0.1-0.4,0-0.5,0
		C23,115.4,23.3,115.3,23.6,115.1L23.6,115.1z"/>
	<path class="st4" d="M15.6,114.5c0.3,0,0.6-0.1,0.8,0.2c-0.1,0-0.3,0-0.4,0.1c-0.1,0.2-0.2,0.4-0.3,0.5
		C15.3,115.2,15.5,114.8,15.6,114.5L15.6,114.5z"/>
	<path class="st1" d="M23.4,115.8c0.3-0.1,0.5-0.3,0.7-0.4c-0.1,0.2-0.1,0.4-0.3,0.5C23.7,116,23.6,115.9,23.4,115.8L23.4,115.8z"/>
	<path class="st4" d="M14.7,115.8c0,0.1,0.1,0.3,0.1,0.4c0.1,0,0.2-0.1,0.2-0.1c0.1,0.4,0.5,0.1,0.8,0.2c-0.1,0-0.4-0.1-0.5-0.2
		c0.4,0,0.7,0.1,1.1,0.2c0,0.1-0.1,0.2-0.2,0.3c0,0-0.1,0.1-0.1,0.1l-0.1,0.1c-0.5,0-0.9-0.3-1.4-0.4
		C14.7,116.1,14.7,116,14.7,115.8L14.7,115.8z"/>
	<path class="st4" d="M19.5,115.8c0.2,0,0.4,0.1,0.6,0.1c-0.1,0.1-0.3,0.2-0.4,0.2c0,0.2,0.1,0.5,0.1,0.7l0,0.1
		c-0.4,0.1-0.8,0.2-1.2,0.3c0-0.1,0-0.3,0-0.4c0.2,0,0.5,0,0.7,0c0,0,0-0.1,0-0.2c-0.2,0-0.4,0-0.6,0c0.2-0.1,0.3-0.2,0.5-0.4
		c0.1,0.1,0.2,0.2,0.3,0.2C19.5,116.3,19.5,116.1,19.5,115.8L19.5,115.8z"/>
</g>
</svg>
