<?xml version="1.0" encoding="utf-8"?>
<!-- Generator: Adobe Illustrator 23.0.4, SVG Export Plug-In . SVG Version: 6.00 Build 0)  -->
<svg version="1.1" id="Calque_1" xmlns="http://www.w3.org/2000/svg" xmlns:xlink="http://www.w3.org/1999/xlink" x="0px" y="0px"
	 viewBox="0 0 200 200" style="enable-background:new 0 0 200 200;" xml:space="preserve">
<style type="text/css">
	.st0{fill:#273896;stroke:#273896;stroke-width:9.375000e-02;stroke-miterlimit:10;}
	.st1{fill:#EC1C25;stroke:#EC1C25;stroke-width:9.375000e-02;stroke-miterlimit:10;}
</style>
<g>
	<path class="st0" d="M175.3,75.9c1.3-2.8,2.6-5.5,4-8.3c0.4,2.8,0.8,5.6,1.1,8.4c2.7-0.9,5.4-2,8.1-2.8c-1.9,2.4-3.8,4.8-5.7,7.2
		c2,1.6,4.1,3.2,6.1,4.8c-2.7,0.3-5.4,0.4-8.2,0.7c-0.1,2.9-0.3,5.8-0.5,8.7c-1.6-2.1-3-4.3-4.5-6.4c-2.3,2.1-4.6,4.1-6.8,6.3
		c0.9-3,1.7-5.9,2.5-8.9c-2.6-0.3-5.3-0.7-7.9-1.1c2.6-1.4,5.2-2.9,7.7-4.4c-1.1-2.5-2.1-5-3.2-7.5
		C170.5,73.8,172.9,74.7,175.3,75.9L175.3,75.9z"/>
	<path class="st1" d="M150,113.9c6.9-5.9,13.2-12.6,19-19.5c-2.7,9.2-7.8,17.6-14.8,24.1c-1.6,1.3-3.2,2.9-5,4
		c-6,4.1-13.1,6.7-20.4,6.8l0.2-0.1c5.7-3.3,11.3-7.1,16.4-11.3C146.9,116.5,148.5,115.3,150,113.9L150,113.9z"/>
	<path class="st0" d="M13.6,104.6c3-0.8,6.2-1.1,9.3-1.1c3.4,0,6.9,0.2,10.3,0.8c-0.5,1.3-1,2.6-1.4,3.9c-4.9-0.4-9.9-0.7-14.8,0.4
		c-1.5,0.4-3.4,1-3.8,2.7c-0.1,1.3,1.1,2.1,2.3,2.4c3.5,1,7.2,0.8,10.5,2.4c1.5,0.7,2.9,2,3.1,3.7c0.4,2.7-0.3,5.6-2.2,7.6
		c-2.1,2.3-5.3,3.3-8.3,3.9c-6.2,1-12.6,0.5-18.6-1.1c0.3-1.4,0.7-2.8,1.1-4.1c5.2,0.7,10.6,1.5,15.8,0.4c2-0.4,4.2-1.5,4.6-3.7
		c0.4-1.4-0.9-2.6-2.1-3c-3.3-1-6.9-0.8-10.1-2c-1.4-0.5-2.8-1.5-3.3-2.9c-1-2.5-0.1-5.5,1.9-7.3C9.5,106.2,11.5,105.2,13.6,104.6
		L13.6,104.6z"/>
	<path class="st0" d="M135.3,103.5c2.1,0,4.3,0,6.4,0c2.6,3.5,5.4,7,8.4,10.2l-0.2,0.2c-1.4,1.4-3,2.6-4.5,3.9
		C141.8,113.3,138.4,108.5,135.3,103.5L135.3,103.5z"/>
	<path class="st0" d="M98.1,92.3c-0.7,3.6-1.4,7.2-2.1,10.8c-5.6-0.2-11.6-0.6-16.9,1.8c-4.4,1.8-8,5.7-9.3,10.4
		c-1.2,3.8-1.1,8.3,1.5,11.6c2.5,3.1,6.5,4.4,10.3,4.6c4.3,0.2,8.9-0.5,12.4-3.1c3.3-2.4,5.2-6.4,5.9-10.4c1.7-8.7,3.3-17.4,5-26.1
		C102.7,91.9,100.4,92.1,98.1,92.3z M92.8,118.2c-0.4,2.2-1.2,4.5-2.9,6c-2.1,1.9-5.2,2.4-7.9,2c-1.9-0.2-3.9-1.1-4.8-2.9
		c-1.1-2.1-0.7-4.5-0.2-6.7c0.8-3.1,2.7-5.9,5.5-7.4c3.8-2,8.2-1.9,12.4-1.5C94.1,111.2,93.5,114.7,92.8,118.2z"/>
	<path class="st0" d="M131.9,105.7c-2.3-1.9-5.4-2.4-8.3-2.5c-5.5-0.1-11.2,1.5-15.2,5.3c-3.2,2.9-5,7.1-5.2,11.3
		c-0.2,2.7,0.5,5.4,2.2,7.5c2.1,2.7,5.4,4.2,8.7,4.8c5.1,0.9,10.5,0,14.8-2.9l0.2-0.1c-4.9,0.5-10.3,0.7-14.8-1.7
		c-2.9-1.6-4.2-5-3.9-8.1c5.7,1,11.7,1.2,17.2-0.8c2.3-0.9,4.6-2.4,5.7-4.7C134.5,111.1,134.2,107.6,131.9,105.7z M123.9,114.7
		c-4.1,1.3-8.5,1-12.6,0.3c1.2-2.7,3.2-5.2,6-6.4c2.3-1.1,5.1-1.5,7.6-0.8c1.2,0.3,2.3,1.3,2.3,2.6
		C127.5,112.4,125.7,114.1,123.9,114.7z"/>
	<path class="st0" d="M66.2,112.3c-0.4-2.9-2.2-5.5-4.8-7c-3.4-2-7.6-2.3-11.4-1.9c-5.2,0.5-10.3,2.9-13.6,7
		c-2.7,3.3-4.2,7.7-3.7,11.9c0.3,3,2.1,5.8,4.7,7.3c3.3,2,7.4,2.3,11.2,2c5.7-0.5,11.5-3.3,14.8-8.1
		C65.5,120.3,66.7,116.2,66.2,112.3z M58.7,115.6c-0.3,2.4-1.2,4.9-2.7,6.8c-2.1,2.8-5.6,4.4-9.1,4.3c-1.9,0-3.9-0.5-5.3-1.9
		c-1-1-1.4-2.3-1.5-3.7c-0.2-5.6,3.5-11.6,9.2-12.9c2.5-0.6,5.4-0.4,7.4,1.3C58.4,111.1,59,113.5,58.7,115.6z"/>
	<path class="st0" d="M199.8,111.9c-0.5-3.2-2.8-5.9-5.7-7.3c-3.7-1.7-7.9-1.8-11.8-1.3c-5.8,0.9-11.3,4.2-14.2,9.3
		c-1.8,3.2-2.8,7.1-2,10.8c0.6,3,2.8,5.6,5.6,6.9c3.6,1.7,7.7,1.9,11.6,1.4c5.5-0.8,11-3.8,14-8.5
		C199.3,119.9,200.5,115.8,199.8,111.9z M184.9,126.1c-2.6,1.1-5.6,1.2-8.2,0.2c-1.8-0.7-3.1-2.5-3.2-4.4
		c-0.5-5.9,3.4-12.3,9.4-13.6c2.4-0.5,5.1-0.4,7.1,1.1c1.6,1.1,2.4,3.1,2.4,5C192.4,119.2,189.5,124.2,184.9,126.1z"/>
	<path class="st0" d="M149.2,122.4c1.8-1.1,3.3-2.7,5-4c4,4.4,8.1,8.8,12.2,13.2c-2.9-0.1-5.7,0-8.6,0c-0.8-0.5-1.2-1.1-1.9-1.7
		C153.6,127.4,151.3,125,149.2,122.4L149.2,122.4z"/>
</g>
</svg>
