<?xml version="1.0" encoding="utf-8"?>
<!-- Generator: Adobe Illustrator 23.0.4, SVG Export Plug-In . SVG Version: 6.00 Build 0)  -->
<svg version="1.1" id="Calque_1" xmlns="http://www.w3.org/2000/svg" xmlns:xlink="http://www.w3.org/1999/xlink" x="0px" y="0px"
	 viewBox="0 0 200 200" style="enable-background:new 0 0 200 200;" xml:space="preserve">
<style type="text/css">
	.st0{clip-path:url(#SVGID_2_);}
	.st1{clip-path:url(#SVGID_4_);fill:#002169;}
	.st2{clip-path:url(#SVGID_4_);fill:#FFFFFF;}
	.st3{clip-path:url(#SVGID_4_);fill:#FEFEFE;}
	.st4{clip-path:url(#SVGID_4_);fill:#FBFBFC;}
	.st5{clip-path:url(#SVGID_4_);fill:#F9F9FB;}
	.st6{clip-path:url(#SVGID_4_);fill:#F6F6F9;}
	.st7{clip-path:url(#SVGID_4_);fill:#F4F4F8;}
	.st8{clip-path:url(#SVGID_4_);fill:#F1F1F6;}
	.st9{clip-path:url(#SVGID_4_);fill:#F0EFF5;}
	.st10{clip-path:url(#SVGID_4_);fill:#EDECF3;}
	.st11{clip-path:url(#SVGID_4_);fill:#EBEAF2;}
	.st12{clip-path:url(#SVGID_4_);fill:#E8E7F0;}
	.st13{clip-path:url(#SVGID_4_);fill:#E5E4EE;}
	.st14{clip-path:url(#SVGID_4_);fill:#E3E3ED;}
	.st15{clip-path:url(#SVGID_4_);fill:#E0E0EB;}
	.st16{clip-path:url(#SVGID_4_);fill:#DEDEEA;}
	.st17{clip-path:url(#SVGID_4_);fill:#DCDBE8;}
	.st18{clip-path:url(#SVGID_4_);fill:#DAD9E7;}
	.st19{clip-path:url(#SVGID_4_);fill:#D7D6E5;}
	.st20{clip-path:url(#SVGID_4_);fill:#D5D4E4;}
	.st21{clip-path:url(#SVGID_4_);fill:#D2D1E2;}
	.st22{clip-path:url(#SVGID_4_);fill:#D0CFE1;}
	.st23{clip-path:url(#SVGID_4_);fill:#CDCDDF;}
	.st24{clip-path:url(#SVGID_4_);fill:#CBCADD;}
	.st25{clip-path:url(#SVGID_4_);fill:#C9C8DC;}
	.st26{clip-path:url(#SVGID_4_);fill:#C6C5DB;}
	.st27{clip-path:url(#SVGID_4_);fill:#C4C3D9;}
	.st28{clip-path:url(#SVGID_4_);fill:#C1C0D8;}
	.st29{clip-path:url(#SVGID_4_);fill:#BFBED6;}
	.st30{clip-path:url(#SVGID_4_);fill:#BDBCD5;}
	.st31{clip-path:url(#SVGID_4_);fill:#BBBAD3;}
	.st32{clip-path:url(#SVGID_4_);fill:#B8B7D2;}
	.st33{clip-path:url(#SVGID_4_);fill:#B5B4D0;}
	.st34{clip-path:url(#SVGID_4_);fill:#B3B2CF;}
	.st35{clip-path:url(#SVGID_4_);fill:#B1B0CD;}
	.st36{clip-path:url(#SVGID_4_);fill:#AFAECC;}
	.st37{clip-path:url(#SVGID_4_);fill:#ACABCA;}
	.st38{clip-path:url(#SVGID_4_);fill:#AAA9C9;}
	.st39{clip-path:url(#SVGID_4_);fill:#A7A6C7;}
	.st40{clip-path:url(#SVGID_4_);fill:#A6A5C6;}
	.st41{clip-path:url(#SVGID_4_);fill:#A3A2C4;}
	.st42{clip-path:url(#SVGID_4_);fill:#A1A0C3;}
	.st43{clip-path:url(#SVGID_4_);fill:#9E9DC1;}
	.st44{clip-path:url(#SVGID_4_);fill:#9C9BBF;}
	.st45{clip-path:url(#SVGID_4_);fill:#9A99BE;}
	.st46{clip-path:url(#SVGID_4_);fill:#9796BC;}
	.st47{clip-path:url(#SVGID_4_);fill:#9594BB;}
	.st48{clip-path:url(#SVGID_4_);fill:#9292B9;}
	.st49{clip-path:url(#SVGID_4_);fill:#9190B8;}
	.st50{clip-path:url(#SVGID_4_);fill:#8E8DB7;}
	.st51{clip-path:url(#SVGID_4_);fill:#8C8BB5;}
	.st52{clip-path:url(#SVGID_4_);fill:#8989B4;}
	.st53{clip-path:url(#SVGID_4_);fill:#8786B2;}
	.st54{clip-path:url(#SVGID_4_);fill:#8584B1;}
	.st55{clip-path:url(#SVGID_4_);fill:#8282AF;}
	.st56{clip-path:url(#SVGID_4_);fill:#8080AE;}
	.st57{clip-path:url(#SVGID_4_);fill:#7E7DAC;}
	.st58{clip-path:url(#SVGID_4_);fill:#7C7CAB;}
	.st59{clip-path:url(#SVGID_4_);fill:#7979A9;}
	.st60{clip-path:url(#SVGID_4_);fill:#7777A8;}
	.st61{clip-path:url(#SVGID_4_);fill:#7575A6;}
	.st62{clip-path:url(#SVGID_4_);fill:#7373A5;}
	.st63{clip-path:url(#SVGID_4_);fill:#7071A3;}
	.st64{clip-path:url(#SVGID_4_);fill:#6D6EA2;}
	.st65{clip-path:url(#SVGID_4_);fill:#6B6CA0;}
	.st66{clip-path:url(#SVGID_4_);fill:#696A9F;}
	.st67{clip-path:url(#SVGID_4_);fill:#67689E;}
	.st68{clip-path:url(#SVGID_4_);fill:#64669C;}
	.st69{clip-path:url(#SVGID_4_);fill:#62649B;}
	.st70{clip-path:url(#SVGID_4_);fill:#606299;}
	.st71{clip-path:url(#SVGID_4_);fill:#5E6098;}
	.st72{clip-path:url(#SVGID_4_);fill:#5B5D96;}
	.st73{clip-path:url(#SVGID_4_);fill:#595C95;}
	.st74{clip-path:url(#SVGID_4_);fill:#575993;}
	.st75{clip-path:url(#SVGID_4_);fill:#545791;}
	.st76{clip-path:url(#SVGID_4_);fill:#525590;}
	.st77{clip-path:url(#SVGID_4_);fill:#4F538F;}
	.st78{clip-path:url(#SVGID_4_);fill:#4D518D;}
	.st79{clip-path:url(#SVGID_4_);fill:#4B4F8C;}
	.st80{clip-path:url(#SVGID_4_);fill:#494D8B;}
	.st81{clip-path:url(#SVGID_4_);fill:#464B89;}
	.st82{clip-path:url(#SVGID_4_);fill:#444988;}
	.st83{clip-path:url(#SVGID_4_);fill:#414786;}
	.st84{clip-path:url(#SVGID_4_);fill:#3E4584;}
	.st85{clip-path:url(#SVGID_4_);fill:#3C4383;}
	.st86{clip-path:url(#SVGID_4_);fill:#394181;}
	.st87{clip-path:url(#SVGID_4_);fill:#373F80;}
	.st88{clip-path:url(#SVGID_4_);fill:#343D7F;}
	.st89{clip-path:url(#SVGID_4_);fill:#323B7D;}
	.st90{clip-path:url(#SVGID_4_);fill:#2F397C;}
	.st91{clip-path:url(#SVGID_4_);fill:#2D387B;}
	.st92{clip-path:url(#SVGID_4_);fill:#2A3579;}
	.st93{clip-path:url(#SVGID_4_);fill:#273478;}
	.st94{clip-path:url(#SVGID_4_);fill:#243276;}
	.st95{clip-path:url(#SVGID_4_);fill:#203074;}
	.st96{clip-path:url(#SVGID_4_);fill:#1E2E73;}
	.st97{clip-path:url(#SVGID_4_);fill:#1A2C72;}
	.st98{clip-path:url(#SVGID_4_);fill:#172B70;}
	.st99{clip-path:url(#SVGID_4_);fill:#12286F;}
	.st100{clip-path:url(#SVGID_4_);fill:#0E276E;}
	.st101{clip-path:url(#SVGID_4_);fill:#08256C;}
	.st102{clip-path:url(#SVGID_4_);fill:#03236B;}
	.st103{clip-path:url(#SVGID_4_);fill:#E6292E;}
	.st104{clip-path:url(#SVGID_4_);fill:#E73232;}
	.st105{clip-path:url(#SVGID_4_);fill:#E73735;}
	.st106{clip-path:url(#SVGID_4_);fill:#E83E3A;}
	.st107{clip-path:url(#SVGID_4_);fill:#E9453D;}
	.st108{clip-path:url(#SVGID_4_);fill:#E94C42;}
	.st109{clip-path:url(#SVGID_4_);fill:#EA5146;}
	.st110{clip-path:url(#SVGID_4_);fill:#EB594B;}
	.st111{clip-path:url(#SVGID_4_);fill:#EB5E4F;}
	.st112{clip-path:url(#SVGID_4_);fill:#EC6353;}
	.st113{clip-path:url(#SVGID_4_);fill:#ED6A59;}
	.st114{clip-path:url(#SVGID_4_);fill:#ED6F5D;}
	.st115{clip-path:url(#SVGID_4_);fill:#EE7663;}
	.st116{clip-path:url(#SVGID_4_);fill:#EF7B67;}
	.st117{clip-path:url(#SVGID_4_);fill:#F0816D;}
	.st118{clip-path:url(#SVGID_4_);fill:#F08571;}
	.st119{clip-path:url(#SVGID_4_);fill:#F18C77;}
	.st120{clip-path:url(#SVGID_4_);fill:#F2907B;}
	.st121{clip-path:url(#SVGID_4_);fill:#F29480;}
	.st122{clip-path:url(#SVGID_4_);fill:#F39B86;}
	.st123{clip-path:url(#SVGID_4_);fill:#F49F8B;}
	.st124{clip-path:url(#SVGID_4_);fill:#F5A692;}
	.st125{clip-path:url(#SVGID_4_);fill:#F5AA96;}
	.st126{clip-path:url(#SVGID_4_);fill:#F6AF9D;}
	.st127{clip-path:url(#SVGID_4_);fill:#F7B3A1;}
	.st128{clip-path:url(#SVGID_4_);fill:#F7B8A6;}
	.st129{clip-path:url(#SVGID_4_);fill:#F8BDAD;}
	.st130{clip-path:url(#SVGID_4_);fill:#F8C1B1;}
	.st131{clip-path:url(#SVGID_4_);fill:#F9C7B8;}
	.st132{clip-path:url(#SVGID_4_);fill:#FACBBD;}
	.st133{clip-path:url(#SVGID_4_);fill:#FAD1C4;}
	.st134{clip-path:url(#SVGID_4_);fill:#FBD5C9;}
	.st135{clip-path:url(#SVGID_4_);fill:#FBDACF;}
	.st136{clip-path:url(#SVGID_4_);fill:#FCDED4;}
	.st137{clip-path:url(#SVGID_4_);fill:#FCE2D9;}
	.st138{clip-path:url(#SVGID_4_);fill:#FDE7DF;}
	.st139{clip-path:url(#SVGID_4_);fill:#FDEAE4;}
	.st140{clip-path:url(#SVGID_4_);fill:#FEEFEB;}
	.st141{clip-path:url(#SVGID_4_);fill:#FEF3EF;}
	.st142{clip-path:url(#SVGID_4_);fill:#FFF8F6;}
	.st143{clip-path:url(#SVGID_4_);fill:#FFFCFB;}
</style>
<g>
	<g>
		<defs>
			<rect id="SVGID_1_" x="-12" y="-12" width="224" height="224"/>
		</defs>
		<clipPath id="SVGID_2_">
			<use xlink:href="#SVGID_1_"  style="overflow:visible;"/>
		</clipPath>
		<g class="st0">
			<defs>
				<rect id="SVGID_3_" x="-12" y="-12" width="224" height="224"/>
			</defs>
			<clipPath id="SVGID_4_">
				<use xlink:href="#SVGID_3_"  style="overflow:visible;"/>
			</clipPath>
			<path class="st1" d="M52.6,102.1l5.3-23.2H49l1-4.3h23.7L73,77.7c-0.2,0.9-0.6,1.2-1.5,1.2h-7.2L59,102.1H52.6z"/>
			<path class="st1" d="M75.4,82.9c0.2-0.9,0.8-1.4,1.8-1.4h4.7l-4.7,20.6H71L75.4,82.9z M82.8,77.6c-0.2,0.9-0.7,1.3-1.7,1.3h-4.8
				l0.7-3.1c0.2-0.8,0.7-1.2,1.6-1.2h4.8L82.8,77.6z"/>
			<path class="st1" d="M102.5,82.8c-0.5,2.1-1.6,2.7-3.5,2.7h-2.9c-2.8,0-4.8,0.7-5.8,2.9c-0.8,1.7-1.4,4.4-1.4,6
				c0,2.6,1.3,3.6,4.7,3.6h5.1l-0.9,4h-6c-6.4,0-9.7-2.8-9.2-8.3c0.2-2.3,0.7-3.9,1.3-5.5c1.8-4.7,5.8-6.8,12.9-6.8h6L102.5,82.8z"
				/>
			<path class="st1" d="M101,102.1l6.1-26.5c0.1-0.5,0.4-0.8,1-0.9l5.3-0.4l-3.2,14.1c4.5-1.3,7.2-3.4,9.1-6.9h6.9
				c-2.3,4.7-5.8,7.7-11.1,9.5c2.8,3,5.4,6.6,8.6,11.1h-7.6c-2.4-3.5-4.5-6.3-6.9-9l-2,9H101z"/>
			<path class="st1" d="M138.6,81.2c6.6,0,8.5,2.9,8.5,5.4c0,1.3-0.2,2.5-0.6,3.5c-1,3-3.5,4-7.6,4h-7.5c-0.3,3,1.2,4,4,4h8.2
				l-0.8,3.1c-0.1,0.5-0.4,0.9-1.1,0.9H134c-5.4,0-8.7-2.4-8.7-7.9c0-2.3,0.5-4,1.2-5.9c1.6-4.6,6.1-7.1,11.2-7.1H138.6z M138,90.2
				c1.4,0,2.3-0.4,2.7-1.5c0.2-0.6,0.3-0.9,0.3-1.7c0.1-0.9-0.4-2-2.8-2h-0.9c-3.2,0-4.7,1.9-5.3,5.1H138z"/>
			<path class="st1" d="M162.3,84.3c-0.2,0.9-0.7,1.2-1.6,1.2h-5.3l-2,9c-0.5,2.2,0.4,3.6,2.5,3.6h3.8l-0.9,4h-5.1
				c-5,0-7.5-2.9-6.3-8.1l3.6-15.8c0.1-0.5,0.4-0.9,1-0.9l5.3-0.4l-1.1,4.6h6.7L162.3,84.3z"/>
			<path class="st1" d="M47.6,124.7l3.9-17.2c0.2-0.8,0.8-1,1.4-1h7.4c3.6,0,5.9,2,5.4,5l-0.1,0.6c-0.4,2.3-1.9,3.6-4.2,4.3l3.6,8.3
				h-3.7c-0.8,0-1.1-0.1-1.5-0.8l-2.8-6.9h-3.3l-1.7,7.7H47.6z M57.6,114.1c2.1,0,3.2-0.7,3.5-2.3l0.1-0.4c0.2-1.1-0.1-2.2-1.9-2.2
				h-3.9l-1.1,4.8H57.6z"/>
			<path class="st1" d="M75,110.8c4.4,0,5.6,1.9,5.6,3.6c0,0.8-0.1,1.6-0.4,2.3c-0.7,2-2.3,2.6-5.1,2.6h-5c-0.2,2,0.8,2.6,2.6,2.6
				h5.4l-0.5,2.1c-0.1,0.3-0.3,0.6-0.7,0.6h-5c-3.6,0-5.8-1.6-5.8-5.3c0-1.5,0.3-2.6,0.8-3.9c1.1-3,4-4.7,7.4-4.7H75z M74.6,116.8
				c0.9,0,1.5-0.3,1.8-1c0.1-0.4,0.2-0.6,0.2-1.1c0-0.6-0.3-1.3-1.9-1.3h-0.6c-2.1,0-3.1,1.3-3.5,3.4H74.6z"/>
			<path class="st1" d="M94.5,112c-0.3,1.2-1.2,1.7-2.5,1.7h-3.4c-1.9,0-2.4,0.5-2.4,1c0,0.5,0.4,0.7,1.1,1l2.6,1.1
				c2.1,0.9,3.1,2,3.1,3.3c0,2.4-1.7,4.5-7,4.5h-6.5l0.2-0.9c0.2-1,1-1.9,2.9-1.9H86c2.3,0,2.5-0.6,2.5-1.2c0-0.4-0.4-0.7-0.9-0.9
				l-3.5-1.5c-1.3-0.5-2.4-1.4-2.3-3c0.1-2.9,3.3-4.2,7.2-4.2h5.7L94.5,112z"/>
			<path class="st1" d="M104.4,112.9c-0.1,0.6-0.4,0.8-1.1,0.8h-3.5l-1.3,5.9c-0.3,1.4,0.3,2.4,1.7,2.4h2.5l-0.6,2.7h-3.4
				c-3.3,0-5-1.9-4.2-5.4l2.4-10.5c0.1-0.4,0.3-0.6,0.7-0.6l3.5-0.3l-0.7,3.1h4.4L104.4,112.9z"/>
			<path class="st1" d="M112.3,111c6.1,0,6,2.5,5.1,6.4l-1.6,6.9c-1.8,0.3-3.8,0.5-5.9,0.5c-3.2,0-5.9-1-5.9-4.1
				c0-3.5,2.9-4.7,5.9-4.7h3.7l0.1-0.4c0.2-1,0.3-2-1.5-2H107c-0.3,0-0.5-0.2-0.4-0.5l0.5-2.2H112.3z M113.2,118.6h-3
				c-1.3,0-2.1,0.8-2.1,1.9c0,1.4,1.3,1.6,2.5,1.6c0.8,0,1.3-0.1,1.9-0.3L113.2,118.6z"/>
			<path class="st1" d="M135.5,111l-3,13.2c-2,0.3-5.1,0.6-7.8,0.6c-4.2,0-6.1-1.9-5.2-5.5l1.9-8.3h4l-1.9,8.2
				c-0.4,1.8-0.1,2.8,2.1,2.8c1.2,0,2.3-0.1,3.4-0.3l2.5-10.8H135.5z"/>
			<path class="st1" d="M135.4,124.7c0,0,2.6-11.5,2.9-12.8c2-0.6,4.3-1,6.8-1h2l-0.7,3.4c-0.7-0.2-1.3-0.4-2.2-0.4
				c-0.9,0-1.8,0.1-2.4,0.4l-2.4,10.4H135.4z"/>
			<path class="st1" d="M154.4,111c6.1,0,6,2.5,5.1,6.4l-1.6,6.9c-1.8,0.3-3.8,0.5-5.9,0.5c-3.2,0-5.9-1-5.9-4.1
				c0-3.5,2.9-4.7,5.9-4.7h3.7l0.1-0.4c0.2-1,0.3-2-1.5-2H149c-0.3,0-0.5-0.2-0.4-0.5l0.5-2.2H154.4z M155.2,118.6h-3
				c-1.3,0-2.1,0.8-2.1,1.9c0,1.4,1.3,1.6,2.5,1.6c0.8,0,1.3-0.1,1.9-0.3L155.2,118.6z"/>
			<path class="st1" d="M160.3,124.7l3-13.2c2-0.3,5.1-0.6,7.8-0.6c4.2,0,6.1,1.9,5.2,5.5l-1.9,8.3h-4l1.9-8.2
				c0.4-1.8,0.1-2.8-2.1-2.8c-1.2,0-2.3,0.1-3.4,0.3l-2.5,10.8H160.3z"/>
			<path class="st1" d="M188.1,112.9c-0.1,0.6-0.4,0.8-1.1,0.8h-3.5l-1.3,5.9c-0.3,1.4,0.3,2.4,1.7,2.4h2.5l-0.6,2.7h-3.4
				c-3.3,0-5-1.9-4.2-5.4l2.4-10.5c0.1-0.4,0.3-0.6,0.7-0.6l3.5-0.3l-0.7,3.1h4.4L188.1,112.9z"/>
			<path class="st1" d="M194.3,106.1c2.4,0,3.6,1.5,3.3,3.7c-0.4,2.2-1.7,3.7-4.4,3.7c-2.1,0-3.6-1.6-3.2-3.8
				C190.3,107.5,191.8,106.1,194.3,106.1 M193.3,112.8c2,0,3-0.9,3.4-3c0.3-1.8-0.6-2.9-2.5-2.9c-2,0-3.1,1.1-3.4,2.9
				C190.5,111.7,191.5,112.8,193.3,112.8 M191.6,111.7h1l0.4-1.6h0.7l0.6,1.4c0.1,0.1,0.2,0.2,0.4,0.2h0.8l-0.8-1.7
				c0.5-0.2,0.8-0.5,0.9-1l0.1-0.2c0.1-0.7-0.3-1.1-1.2-1.1h-1.2c-0.5,0-0.7,0.2-0.8,0.5L191.6,111.7z M193.8,109.5
				c0.5,0,0.7-0.2,0.8-0.6l0-0.2c0.1-0.3-0.1-0.5-0.5-0.5h-0.8l-0.3,1.2H193.8z"/>
			<path class="st2" d="M39.4,121.3c0,1.9-7.7,4.4-16.8,4.4c-9.1,0-16.8-2.5-16.8-4.4c0-1.9,7.7-3.7,16.8-3.7
				C31.7,117.6,39.4,119.4,39.4,121.3"/>
			<path class="st3" d="M39.3,121.3c0,1.9-7.7,4.4-16.7,4.4c-9,0-16.7-2.5-16.7-4.4c0-1.9,7.7-3.6,16.7-3.6
				C31.7,117.7,39.3,119.4,39.3,121.3"/>
			<path class="st4" d="M39.3,121.3c0,1.9-7.6,4.3-16.6,4.3c-9,0-16.6-2.4-16.6-4.3c0-1.9,7.6-3.6,16.6-3.6
				C31.6,117.7,39.3,119.4,39.3,121.3"/>
			<path class="st5" d="M39.2,121.3c0,1.9-7.6,4.3-16.5,4.3c-8.9,0-16.5-2.4-16.5-4.3c0-1.9,7.6-3.6,16.5-3.6
				C31.6,117.7,39.2,119.4,39.2,121.3"/>
			<path class="st5" d="M39.1,121.3c0,1.9-7.6,4.3-16.4,4.3c-8.9,0-16.4-2.4-16.4-4.3c0-1.9,7.6-3.6,16.4-3.6
				C31.5,117.7,39.1,119.4,39.1,121.3"/>
			<path class="st6" d="M39,121.3c0,1.9-7.5,4.2-16.3,4.2c-8.8,0-16.3-2.4-16.3-4.2c0-1.9,7.5-3.5,16.3-3.5
				C31.5,117.7,39,119.4,39,121.3"/>
			<path class="st7" d="M38.9,121.3c0,1.9-7.5,4.2-16.2,4.2c-8.8,0-16.2-2.4-16.2-4.2c0-1.9,7.5-3.5,16.2-3.5
				C31.4,117.8,38.9,119.4,38.9,121.3"/>
			<path class="st7" d="M38.8,121.3c0,1.8-7.4,4.2-16.2,4.2c-8.7,0-16.2-2.4-16.2-4.2c0-1.8,7.4-3.5,16.2-3.5
				C31.4,117.8,38.8,119.4,38.8,121.3"/>
			<path class="st8" d="M38.7,121.3c0,1.8-7.4,4.2-16.1,4.2c-8.7,0-16.1-2.3-16.1-4.2c0-1.8,7.4-3.5,16.1-3.5
				C31.3,117.8,38.7,119.4,38.7,121.3"/>
			<path class="st9" d="M38.6,121.3c0,1.8-7.4,4.1-16,4.1c-8.6,0-16-2.3-16-4.1c0-1.8,7.4-3.4,16-3.4
				C31.3,117.8,38.6,119.4,38.6,121.3"/>
			<path class="st10" d="M38.5,121.3c0,1.8-7.3,4.1-15.9,4.1c-8.6,0-15.9-2.3-15.9-4.1c0-1.8,7.3-3.4,15.9-3.4
				C31.2,117.8,38.5,119.4,38.5,121.3"/>
			<path class="st10" d="M38.5,121.3c0,1.8-7.3,4.1-15.8,4.1s-15.8-2.3-15.8-4.1c0-1.8,7.3-3.4,15.8-3.4S38.5,119.4,38.5,121.3"/>
			<path class="st11" d="M38.4,121.2c0,1.8-7.2,4.1-15.7,4.1c-8.5,0-15.7-2.3-15.7-4.1c0-1.8,7.2-3.4,15.7-3.4
				C31.1,117.9,38.4,119.5,38.4,121.2"/>
			<path class="st12" d="M38.3,121.2c0,1.8-7.2,4-15.6,4c-8.4,0-15.6-2.3-15.6-4c0-1.8,7.2-3.3,15.6-3.3
				C31.1,117.9,38.3,119.5,38.3,121.2"/>
			<path class="st12" d="M38.2,121.2c0,1.8-7.2,4-15.5,4c-8.4,0-15.5-2.2-15.5-4c0-1.8,7.2-3.3,15.5-3.3
				C31,117.9,38.2,119.5,38.2,121.2"/>
			<path class="st13" d="M38.1,121.2c0,1.8-7.1,4-15.4,4c-8.3,0-15.4-2.2-15.4-4c0-1.8,7.1-3.3,15.4-3.3
				C31,117.9,38.1,119.5,38.1,121.2"/>
			<path class="st14" d="M38,121.2c0,1.7-7.1,3.9-15.4,3.9c-8.3,0-15.4-2.2-15.4-3.9c0-1.8,7.1-3.3,15.4-3.3
				C30.9,118,38,119.5,38,121.2"/>
			<path class="st14" d="M37.9,121.2c0,1.7-7,3.9-15.3,3.9c-8.2,0-15.3-2.2-15.3-3.9c0-1.7,7-3.2,15.3-3.2
				C30.9,118,37.9,119.5,37.9,121.2"/>
			<path class="st15" d="M37.8,121.2c0,1.7-7,3.9-15.2,3.9c-8.2,0-15.2-2.2-15.2-3.9c0-1.7,7-3.2,15.2-3.2
				C30.8,118,37.8,119.5,37.8,121.2"/>
			<path class="st16" d="M37.7,121.2c0,1.7-7,3.9-15.1,3.9c-8.1,0-15.1-2.1-15.1-3.9c0-1.7,7-3.2,15.1-3.2
				C30.8,118,37.7,119.5,37.7,121.2"/>
			<path class="st17" d="M37.7,121.2c0,1.7-6.9,3.8-15,3.8c-8.1,0-15-2.1-15-3.8c0-1.7,6.9-3.2,15-3.2
				C30.7,118.1,37.7,119.5,37.7,121.2"/>
			<path class="st17" d="M37.6,121.2c0,1.7-6.9,3.8-14.9,3.8c-8,0-14.9-2.1-14.9-3.8c0-1.7,6.9-3.1,14.9-3.1
				C30.7,118.1,37.6,119.5,37.6,121.2"/>
			<path class="st18" d="M37.5,121.2c0,1.7-6.9,3.8-14.8,3.8c-8,0-14.8-2.1-14.8-3.8c0-1.7,6.9-3.1,14.8-3.1
				C30.6,118.1,37.5,119.5,37.5,121.2"/>
			<path class="st19" d="M37.4,121.2c0,1.7-6.8,3.8-14.7,3.8c-7.9,0-14.7-2.1-14.7-3.8c0-1.7,6.8-3.1,14.7-3.1
				C30.6,118.1,37.4,119.5,37.4,121.2"/>
			<path class="st19" d="M37.3,121.2c0,1.7-6.8,3.7-14.6,3.7c-7.9,0-14.6-2.1-14.6-3.7c0-1.7,6.8-3.1,14.6-3.1
				C30.5,118.1,37.3,119.5,37.3,121.2"/>
			<path class="st20" d="M37.2,121.2c0,1.6-6.7,3.7-14.6,3.7c-7.8,0-14.6-2-14.6-3.7c0-1.7,6.7-3,14.6-3
				C30.5,118.2,37.2,119.5,37.2,121.2"/>
			<path class="st21" d="M37.1,121.2c0,1.6-6.7,3.7-14.5,3.7c-7.8,0-14.5-2-14.5-3.7c0-1.6,6.7-3,14.5-3
				C30.4,118.2,37.1,119.5,37.1,121.2"/>
			<path class="st21" d="M37,121.2c0,1.6-6.7,3.6-14.4,3.6c-7.7,0-14.4-2-14.4-3.6c0-1.6,6.7-3,14.4-3C30.4,118.2,37,119.6,37,121.2
				"/>
			<path class="st22" d="M37,121.2c0,1.6-6.6,3.6-14.3,3.6c-7.7,0-14.3-2-14.3-3.6c0-1.6,6.6-3,14.3-3C30.3,118.2,37,119.6,37,121.2
				"/>
			<path class="st23" d="M36.9,121.2c0,1.6-6.6,3.6-14.2,3.6c-7.6,0-14.2-2-14.2-3.6c0-1.6,6.6-2.9,14.2-2.9
				C30.3,118.2,36.9,119.6,36.9,121.2"/>
			<path class="st24" d="M36.8,121.2c0,1.6-6.5,3.6-14.1,3.6c-7.6,0-14.1-2-14.1-3.6c0-1.6,6.5-2.9,14.1-2.9
				C30.2,118.3,36.8,119.6,36.8,121.2"/>
			<path class="st24" d="M36.7,121.2c0,1.6-6.5,3.5-14,3.5c-7.5,0-14-1.9-14-3.5c0-1.6,6.5-2.9,14-2.9
				C30.2,118.3,36.7,119.6,36.7,121.2"/>
			<path class="st25" d="M36.6,121.2c0,1.6-6.5,3.5-13.9,3.5c-7.5,0-13.9-1.9-13.9-3.5c0-1.6,6.5-2.9,13.9-2.9
				C30.1,118.3,36.6,119.6,36.6,121.2"/>
			<path class="st26" d="M36.5,121.2c0,1.6-6.4,3.5-13.8,3.5c-7.4,0-13.8-1.9-13.8-3.5c0-1.6,6.4-2.8,13.8-2.8
				C30.1,118.3,36.5,119.6,36.5,121.2"/>
			<path class="st26" d="M36.4,121.2c0,1.6-6.4,3.5-13.8,3.5c-7.4,0-13.8-1.9-13.8-3.5c0-1.6,6.4-2.8,13.8-2.8
				C30,118.3,36.4,119.6,36.4,121.2"/>
			<path class="st27" d="M36.3,121.2c0,1.5-6.3,3.4-13.7,3.4c-7.3,0-13.7-1.9-13.7-3.4c0-1.6,6.3-2.8,13.7-2.8
				C30,118.4,36.3,119.6,36.3,121.2"/>
			<path class="st28" d="M36.2,121.2c0,1.5-6.3,3.4-13.6,3.4c-7.3,0-13.6-1.9-13.6-3.4c0-1.5,6.3-2.8,13.6-2.8
				C29.9,118.4,36.2,119.6,36.2,121.2"/>
			<path class="st28" d="M36.2,121.2c0,1.5-6.3,3.4-13.5,3.4c-7.2,0-13.5-1.8-13.5-3.4c0-1.5,6.3-2.7,13.5-2.7
				C29.9,118.4,36.2,119.6,36.2,121.2"/>
			<path class="st29" d="M36.1,121.1c0,1.5-6.2,3.3-13.4,3.3c-7.2,0-13.4-1.8-13.4-3.3c0-1.5,6.2-2.7,13.4-2.7
				C29.8,118.4,36.1,119.6,36.1,121.1"/>
			<path class="st30" d="M36,121.1c0,1.5-6.2,3.3-13.3,3.3c-7.1,0-13.3-1.8-13.3-3.3c0-1.5,6.2-2.7,13.3-2.7
				C29.8,118.4,36,119.6,36,121.1"/>
			<path class="st31" d="M35.9,121.1c0,1.5-6.2,3.3-13.2,3.3c-7.1,0-13.2-1.8-13.2-3.3c0-1.5,6.2-2.7,13.2-2.7
				C29.7,118.5,35.9,119.6,35.9,121.1"/>
			<path class="st31" d="M35.8,121.1c0,1.5-6.1,3.3-13.1,3.3c-7,0-13.1-1.8-13.1-3.3c0-1.5,6.1-2.6,13.1-2.6
				C29.7,118.5,35.8,119.6,35.8,121.1"/>
			<path class="st32" d="M35.7,121.1c0,1.5-6.1,3.2-13.1,3.2c-7,0-13-1.8-13-3.2c0-1.5,6.1-2.6,13-2.6
				C29.6,118.5,35.7,119.6,35.7,121.1"/>
			<path class="st33" d="M35.6,121.1c0,1.5-6,3.2-13,3.2c-6.9,0-13-1.7-13-3.2c0-1.5,6-2.6,13-2.6C29.6,118.5,35.6,119.7,35.6,121.1
				"/>
			<path class="st33" d="M35.5,121.1c0,1.5-6,3.2-12.9,3.2c-6.9,0-12.9-1.7-12.9-3.2c0-1.5,6-2.6,12.9-2.6
				C29.5,118.6,35.5,119.7,35.5,121.1"/>
			<path class="st34" d="M35.4,121.1c0,1.4-6,3.2-12.8,3.2c-6.8,0-12.8-1.7-12.8-3.2c0-1.4,6-2.5,12.8-2.5
				C29.5,118.6,35.4,119.7,35.4,121.1"/>
			<path class="st35" d="M35.4,121.1c0,1.4-5.9,3.1-12.7,3.1c-6.8,0-12.7-1.7-12.7-3.1c0-1.4,5.9-2.5,12.7-2.5
				C29.4,118.6,35.4,119.7,35.4,121.1"/>
			<path class="st35" d="M35.3,121.1c0,1.4-5.9,3.1-12.6,3.1c-6.7,0-12.6-1.7-12.6-3.1c0-1.4,5.9-2.5,12.6-2.5
				C29.4,118.6,35.3,119.7,35.3,121.1"/>
			<path class="st36" d="M35.2,121.1c0,1.4-5.8,3.1-12.5,3.1c-6.7,0-12.5-1.7-12.5-3.1c0-1.4,5.8-2.5,12.5-2.5
				C29.3,118.6,35.2,119.7,35.2,121.1"/>
			<path class="st37" d="M35.1,121.1c0,1.4-5.8,3-12.4,3c-6.6,0-12.4-1.6-12.4-3c0-1.4,5.8-2.4,12.4-2.4
				C29.3,118.7,35.1,119.7,35.1,121.1"/>
			<path class="st38" d="M35,121.1c0,1.4-5.8,3-12.3,3c-6.6,0-12.3-1.6-12.3-3c0-1.4,5.8-2.4,12.3-2.4C29.2,118.7,35,119.7,35,121.1
				"/>
			<path class="st38" d="M34.9,121.1c0,1.4-5.7,3-12.3,3c-6.5,0-12.3-1.6-12.3-3c0-1.4,5.7-2.4,12.3-2.4
				C29.2,118.7,34.9,119.7,34.9,121.1"/>
			<path class="st39" d="M34.8,121.1c0,1.4-5.7,3-12.2,3c-6.5,0-12.2-1.6-12.2-3c0-1.4,5.7-2.4,12.2-2.4
				C29.1,118.7,34.8,119.7,34.8,121.1"/>
			<path class="st40" d="M34.7,121.1c0,1.4-5.6,2.9-12.1,2.9c-6.4,0-12.1-1.6-12.1-2.9c0-1.4,5.6-2.3,12.1-2.3
				C29.1,118.7,34.7,119.7,34.7,121.1"/>
			<path class="st40" d="M34.6,121.1c0,1.3-5.6,2.9-12,2.9c-6.4,0-12-1.6-12-2.9c0-1.4,5.6-2.3,12-2.3
				C29,118.8,34.6,119.7,34.6,121.1"/>
			<path class="st41" d="M34.6,121.1c0,1.3-5.6,2.9-11.9,2.9c-6.3,0-11.9-1.5-11.9-2.9c0-1.3,5.6-2.3,11.9-2.3
				C29,118.8,34.6,119.7,34.6,121.1"/>
			<path class="st42" d="M34.5,121.1c0,1.3-5.5,2.9-11.8,2.9c-6.3,0-11.8-1.5-11.8-2.9c0-1.3,5.5-2.3,11.8-2.3
				C28.9,118.8,34.5,119.7,34.5,121.1"/>
			<path class="st43" d="M34.4,121.1c0,1.3-5.5,2.8-11.7,2.8c-6.2,0-11.7-1.5-11.7-2.8c0-1.3,5.5-2.2,11.7-2.2
				C28.9,118.8,34.4,119.7,34.4,121.1"/>
			<path class="st43" d="M34.3,121.1c0,1.3-5.5,2.8-11.7,2.8c-6.2,0-11.7-1.5-11.7-2.8c0-1.3,5.5-2.2,11.7-2.2
				C28.9,118.8,34.3,119.8,34.3,121.1"/>
			<path class="st44" d="M34.3,121.1c0,1.3-5.4,2.8-11.6,2.8c-6.2,0-11.6-1.5-11.6-2.8c0-1.3,5.4-2.2,11.6-2.2
				C28.8,118.8,34.3,119.8,34.3,121.1"/>
			<path class="st44" d="M34.2,121.1c0,1.3-5.4,2.8-11.6,2.8c-6.1,0-11.6-1.5-11.6-2.8c0-1.3,5.4-2.2,11.6-2.2
				C28.8,118.9,34.2,119.8,34.2,121.1"/>
			<path class="st45" d="M34.2,121.1c0,1.3-5.4,2.8-11.5,2.8c-6.1,0-11.5-1.5-11.5-2.8c0-1.3,5.4-2.2,11.5-2.2
				C28.8,118.9,34.2,119.8,34.2,121.1"/>
			<path class="st45" d="M34.1,121.1c0,1.3-5.4,2.7-11.4,2.7c-6.1,0-11.4-1.5-11.4-2.7c0-1.3,5.3-2.2,11.5-2.2
				C28.8,118.9,34.1,119.8,34.1,121.1"/>
			<path class="st46" d="M34,121.1c0,1.3-5.3,2.7-11.4,2.7c-6,0-11.4-1.4-11.4-2.7c0-1.3,5.3-2.2,11.4-2.2
				C28.8,118.9,34,119.8,34,121.1"/>
			<path class="st46" d="M34,121.1c0,1.3-5.3,2.7-11.3,2.7c-6,0-11.3-1.4-11.3-2.7c0-1.3,5.3-2.2,11.3-2.2
				C28.7,118.9,34,119.8,34,121.1"/>
			<path class="st47" d="M33.9,121.1c0,1.3-5.3,2.7-11.3,2.7c-6,0-11.3-1.4-11.3-2.7c0-1.3,5.2-2.2,11.3-2.2
				C28.7,118.9,33.9,119.8,33.9,121.1"/>
			<path class="st47" d="M33.9,121.1c0,1.3-5.3,2.7-11.2,2.7c-5.9,0-11.2-1.4-11.2-2.7c0-1.3,5.2-2.1,11.2-2.1
				C28.7,118.9,33.9,119.8,33.9,121.1"/>
			<path class="st48" d="M33.8,121.1c0,1.3-5.3,2.7-11.2,2.7c-5.9,0-11.2-1.4-11.2-2.7c0-1.3,5.2-2.1,11.2-2.1
				C28.7,118.9,33.8,119.8,33.8,121.1"/>
			<path class="st48" d="M33.8,121.1c0,1.3-5.2,2.6-11.1,2.6c-5.9,0-11.1-1.4-11.1-2.6c0-1.3,5.1-2.1,11.1-2.1
				C28.7,119,33.8,119.8,33.8,121.1"/>
			<path class="st49" d="M33.7,121.1c0,1.3-5.2,2.6-11.1,2.6c-5.9,0-11.1-1.4-11.1-2.6c0-1.3,5.1-2.1,11.1-2.1
				C28.6,119,33.7,119.8,33.7,121.1"/>
			<path class="st49" d="M33.7,121.1c0,1.3-5.2,2.6-11,2.6c-5.8,0-11-1.4-11-2.6c0-1.3,5.1-2.1,11-2.1
				C28.6,119,33.7,119.8,33.7,121.1"/>
			<path class="st50" d="M33.6,121.1c0,1.2-5.2,2.6-10.9,2.6c-5.8,0-10.9-1.3-10.9-2.6c0-1.3,5-2.1,11-2.1
				C28.6,119,33.6,119.8,33.6,121.1"/>
			<path class="st50" d="M33.6,121.1c0,1.2-5.1,2.6-10.9,2.6c-5.8,0-10.9-1.3-10.9-2.6c0-1.3,5-2.1,10.9-2.1
				C28.6,119,33.6,119.8,33.6,121.1"/>
			<path class="st51" d="M33.5,121.1c0,1.2-5.1,2.6-10.8,2.6c-5.7,0-10.8-1.3-10.8-2.6c0-1.2,5-2.1,10.9-2.1
				C28.6,119,33.5,119.8,33.5,121.1"/>
			<path class="st51" d="M33.4,121.1c0,1.2-5.1,2.5-10.8,2.5c-5.7,0-10.8-1.3-10.8-2.5c0-1.2,5-2,10.8-2
				C28.5,119,33.4,119.8,33.4,121.1"/>
			<path class="st52" d="M33.4,121.1c0,1.2-5.1,2.5-10.7,2.5c-5.7,0-10.7-1.3-10.7-2.5c0-1.2,4.9-2,10.7-2
				C28.5,119,33.4,119.8,33.4,121.1"/>
			<path class="st53" d="M33.3,121.1c0,1.2-5,2.5-10.7,2.5c-5.6,0-10.7-1.3-10.7-2.5c0-1.2,4.9-2,10.7-2
				C28.5,119.1,33.3,119.8,33.3,121.1"/>
			<path class="st53" d="M33.3,121.1c0,1.2-5,2.5-10.6,2.5c-5.6,0-10.6-1.3-10.6-2.5c0-1.2,4.9-2,10.6-2
				C28.5,119.1,33.3,119.8,33.3,121.1"/>
			<path class="st54" d="M33.2,121.1c0,1.2-5,2.5-10.6,2.5c-5.6,0-10.6-1.3-10.6-2.5c0-1.2,4.8-2,10.6-2
				C28.4,119.1,33.2,119.8,33.2,121.1"/>
			<path class="st54" d="M33.2,121.1c0,1.2-5,2.5-10.5,2.5c-5.5,0-10.5-1.2-10.5-2.5c0-1.2,4.8-2,10.5-2S33.2,119.9,33.2,121.1"/>
			<path class="st55" d="M33.1,121.1c0,1.2-4.9,2.4-10.5,2.4c-5.5,0-10.4-1.2-10.4-2.4c0-1.2,4.8-2,10.5-2
				C28.4,119.1,33.1,119.9,33.1,121.1"/>
			<path class="st55" d="M33.1,121.1c0,1.2-4.9,2.4-10.4,2.4c-5.5,0-10.4-1.2-10.4-2.4c0-1.2,4.7-2,10.4-2
				C28.4,119.1,33.1,119.9,33.1,121.1"/>
			<path class="st56" d="M33,121.1c0,1.2-4.9,2.4-10.3,2.4c-5.5,0-10.3-1.2-10.3-2.4c0-1.2,4.7-1.9,10.4-1.9
				C28.4,119.1,33,119.9,33,121.1"/>
			<path class="st56" d="M32.9,121.1c0,1.2-4.9,2.4-10.3,2.4c-5.4,0-10.3-1.2-10.3-2.4c0-1.2,4.7-1.9,10.3-1.9
				C28.3,119.1,32.9,119.9,32.9,121.1"/>
			<path class="st57" d="M32.9,121.1c0,1.2-4.8,2.4-10.2,2.4c-5.4,0-10.2-1.2-10.2-2.4c0-1.2,4.6-1.9,10.3-1.9
				C28.3,119.1,32.9,119.9,32.9,121.1"/>
			<path class="st57" d="M32.8,121.1c0,1.2-4.8,2.4-10.2,2.4c-5.4,0-10.2-1.2-10.2-2.4c0-1.2,4.6-1.9,10.2-1.9
				C28.3,119.2,32.8,119.9,32.8,121.1"/>
			<path class="st58" d="M32.8,121.1c0,1.2-4.8,2.3-10.1,2.3c-5.3,0-10.1-1.2-10.1-2.3c0-1.2,4.6-1.9,10.2-1.9
				C28.3,119.2,32.8,119.9,32.8,121.1"/>
			<path class="st58" d="M32.7,121.1c0,1.2-4.8,2.3-10.1,2.3c-5.3,0-10.1-1.1-10.1-2.3c0-1.2,4.5-1.9,10.1-1.9
				C28.3,119.2,32.7,119.9,32.7,121.1"/>
			<path class="st59" d="M32.7,121.1c0,1.2-4.7,2.3-10,2.3c-5.3,0-10-1.1-10-2.3c0-1.2,4.5-1.9,10-1.9
				C28.2,119.2,32.7,119.9,32.7,121.1"/>
			<path class="st59" d="M32.6,121.1c0,1.2-4.7,2.3-10,2.3c-5.2,0-10-1.1-10-2.3c0-1.2,4.5-1.9,10-1.9
				C28.2,119.2,32.6,119.9,32.6,121.1"/>
			<path class="st60" d="M32.6,121.1c0,1.2-4.7,2.3-9.9,2.3c-5.2,0-9.9-1.1-9.9-2.3c0-1.2,4.4-1.9,9.9-1.9
				C28.2,119.2,32.6,119.9,32.6,121.1"/>
			<path class="st60" d="M32.5,121.1c0,1.2-4.7,2.3-9.8,2.3c-5.2,0-9.8-1.1-9.8-2.3c0-1.2,4.4-1.8,9.9-1.8
				C28.2,119.2,32.5,119.9,32.5,121.1"/>
			<path class="st61" d="M32.4,121.1c0,1.2-4.6,2.2-9.8,2.2c-5.1,0-9.8-1.1-9.8-2.2c0-1.2,4.4-1.8,9.8-1.8
				C28.2,119.2,32.4,119.9,32.4,121.1"/>
			<path class="st61" d="M32.4,121.1c0,1.1-4.6,2.2-9.7,2.2c-5.1,0-9.7-1.1-9.7-2.2c0-1.2,4.4-1.8,9.8-1.8
				C28.1,119.3,32.4,119.9,32.4,121.1"/>
			<path class="st62" d="M32.3,121.1c0,1.1-4.6,2.2-9.7,2.2c-5.1,0-9.7-1.1-9.7-2.2c0-1.1,4.3-1.8,9.7-1.8
				C28.1,119.3,32.3,119.9,32.3,121.1"/>
			<path class="st63" d="M32.3,121.1c0,1.1-4.6,2.2-9.6,2.2c-5,0-9.6-1.1-9.6-2.2c0-1.1,4.3-1.8,9.7-1.8
				C28.1,119.3,32.3,119.9,32.3,121.1"/>
			<path class="st63" d="M32.2,121.1c0,1.1-4.5,2.2-9.6,2.2c-5,0-9.6-1-9.6-2.2c0-1.1,4.3-1.8,9.6-1.8
				C28.1,119.3,32.2,119.9,32.2,121.1"/>
			<path class="st64" d="M32.2,121.1c0,1.1-4.5,2.2-9.5,2.2c-5,0-9.5-1-9.5-2.2c0-1.1,4.2-1.8,9.6-1.8
				C28,119.3,32.2,119.9,32.2,121.1"/>
			<path class="st64" d="M32.1,121.1c0,1.1-4.5,2.1-9.5,2.1c-5,0-9.5-1-9.5-2.1c0-1.1,4.2-1.8,9.5-1.8
				C28,119.3,32.1,119.9,32.1,121.1"/>
			<path class="st65" d="M32.1,121.1c0,1.1-4.5,2.1-9.4,2.1c-4.9,0-9.4-1-9.4-2.1c0-1.1,4.2-1.7,9.5-1.7
				C28,119.3,32.1,119.9,32.1,121.1"/>
			<path class="st65" d="M32,121.1c0,1.1-4.5,2.1-9.3,2.1c-4.9,0-9.3-1-9.3-2.1c0-1.1,4.1-1.7,9.4-1.7S32,120,32,121.1"/>
			<path class="st66" d="M32,121.1c0,1.1-4.4,2.1-9.3,2.1c-4.9,0-9.3-1-9.3-2.1c0-1.1,4.1-1.7,9.3-1.7S32,120,32,121.1"/>
			<path class="st66" d="M31.9,121.1c0,1.1-4.4,2.1-9.2,2.1c-4.8,0-9.2-1-9.2-2.1c0-1.1,4.1-1.7,9.3-1.7
				C27.9,119.4,31.9,120,31.9,121.1"/>
			<path class="st67" d="M31.8,121.1c0,1.1-4.4,2.1-9.2,2.1c-4.8,0-9.2-1-9.2-2.1c0-1.1,4-1.7,9.2-1.7
				C27.9,119.4,31.8,120,31.8,121.1"/>
			<path class="st67" d="M31.8,121.1c0,1.1-4.4,2-9.1,2c-4.8,0-9.1-0.9-9.1-2c0-1.1,4-1.7,9.2-1.7C27.9,119.4,31.8,120,31.8,121.1"
				/>
			<path class="st68" d="M31.7,121.1c0,1.1-4.3,2-9.1,2c-4.7,0-9.1-0.9-9.1-2c0-1.1,4-1.7,9.1-1.7C27.9,119.4,31.7,120,31.7,121.1"
				/>
			<path class="st68" d="M31.7,121.1c0,1.1-4.3,2-9,2c-4.7,0-9-0.9-9-2c0-1.1,3.9-1.7,9.1-1.7C27.9,119.4,31.7,120,31.7,121.1"/>
			<path class="st69" d="M31.6,121.1c0,1.1-4.3,2-9,2c-4.7,0-9-0.9-9-2c0-1.1,3.9-1.6,9-1.6C27.8,119.4,31.6,120,31.6,121.1"/>
			<path class="st69" d="M31.6,121.1c0,1.1-4.3,2-8.9,2c-4.6,0-8.9-0.9-8.9-2c0-1.1,3.9-1.6,9-1.6C27.8,119.4,31.6,120,31.6,121.1"
				/>
			<path class="st70" d="M31.5,121.1c0,1.1-4.2,2-8.9,2c-4.6,0-8.8-0.9-8.8-2c0-1.1,3.8-1.6,8.9-1.6C27.8,119.4,31.5,120,31.5,121.1
				"/>
			<path class="st70" d="M31.5,121.1c0,1.1-4.2,1.9-8.8,1.9c-4.6,0-8.8-0.9-8.8-1.9c0-1.1,3.8-1.6,8.9-1.6
				C27.8,119.5,31.5,120,31.5,121.1"/>
			<path class="st71" d="M31.4,121.1c0,1.1-4.2,1.9-8.7,1.9c-4.6,0-8.7-0.9-8.7-1.9c0-1.1,3.8-1.6,8.8-1.6
				C27.7,119.5,31.4,120,31.4,121.1"/>
			<path class="st71" d="M31.3,121.1c0,1.1-4.2,1.9-8.7,1.9c-4.5,0-8.7-0.8-8.7-1.9c0-1.1,3.8-1.6,8.8-1.6S31.3,120,31.3,121.1"/>
			<path class="st72" d="M31.3,121.1c0,1.1-4.1,1.9-8.6,1.9c-4.5,0-8.6-0.8-8.6-1.9c0-1.1,3.7-1.6,8.7-1.6
				C27.7,119.5,31.3,120,31.3,121.1"/>
			<path class="st73" d="M31.2,121.1c0,1-4.1,1.9-8.6,1.9c-4.5,0-8.6-0.8-8.6-1.9c0-1.1,3.7-1.6,8.6-1.6
				C27.7,119.5,31.2,120,31.2,121.1"/>
			<path class="st73" d="M31.1,121.1c0,1-4.1,1.8-8.5,1.8c-4.4,0-8.5-0.8-8.5-1.8c0-1,3.6-1.5,8.5-1.5
				C27.6,119.5,31.1,120,31.1,121.1"/>
			<path class="st74" d="M31,121.1c0,1-4,1.8-8.3,1.8c-4.3,0-8.3-0.8-8.3-1.8c0-1,3.6-1.5,8.4-1.5C27.6,119.5,31,120,31,121.1"/>
			<path class="st74" d="M30.9,121.1c0,1-4,1.8-8.2,1.8c-4.3,0-8.2-0.8-8.2-1.8c0-1,3.5-1.5,8.3-1.5
				C27.5,119.6,30.9,120.1,30.9,121.1"/>
			<path class="st75" d="M30.8,121.1c0,1-3.9,1.8-8.1,1.8c-4.2,0-8.1-0.8-8.1-1.8c0-1,3.5-1.5,8.2-1.5
				C27.4,119.6,30.8,120.1,30.8,121.1"/>
			<path class="st75" d="M30.7,121.1c0,1-3.8,1.7-8,1.7c-4.2,0-8-0.8-8-1.7c0-1,3.4-1.5,8.1-1.5C27.4,119.6,30.7,120.1,30.7,121.1"
				/>
			<path class="st76" d="M30.6,121.1c0,1-3.8,1.7-7.9,1.7c-4.1,0-7.9-0.7-7.9-1.7c0-1,3.4-1.4,8-1.4
				C27.3,119.6,30.6,120.1,30.6,121.1"/>
			<path class="st76" d="M30.4,121.1c0,0.9-3.7,1.7-7.8,1.7c-4,0-7.8-0.7-7.8-1.7c0-1,3.4-1.4,7.8-1.4
				C27.2,119.6,30.4,120.1,30.4,121.1"/>
			<path class="st77" d="M30.3,121.1c0,0.9-3.7,1.7-7.7,1.7c-4,0-7.7-0.7-7.7-1.7c0-0.9,3.3-1.4,7.7-1.4
				C27.2,119.7,30.3,120.1,30.3,121.1"/>
			<path class="st77" d="M30.2,121.1c0,0.9-3.6,1.6-7.6,1.6c-3.9,0-7.6-0.7-7.6-1.6c0-0.9,3.3-1.4,7.6-1.4
				C27.1,119.7,30.2,120.1,30.2,121.1"/>
			<path class="st78" d="M30.1,121.1c0,0.9-3.6,1.6-7.4,1.6c-3.9,0-7.4-0.7-7.4-1.6c0-0.9,3.2-1.4,7.5-1.4
				C27,119.7,30.1,120.2,30.1,121.1"/>
			<path class="st78" d="M30,121.1c0,0.9-3.5,1.6-7.3,1.6c-3.8,0-7.3-0.7-7.3-1.6c0-0.9,3.2-1.3,7.4-1.3C27,119.7,30,120.2,30,121.1
				"/>
			<path class="st79" d="M29.9,121.1c0,0.9-3.5,1.6-7.2,1.6c-3.8,0-7.2-0.7-7.2-1.6c0-0.9,3.1-1.3,7.3-1.3
				C26.9,119.7,29.9,120.2,29.9,121.1"/>
			<path class="st79" d="M29.8,121.1c0,0.9-3.4,1.5-7.1,1.5c-3.7,0-7.1-0.7-7.1-1.5c0-0.9,3.1-1.3,7.2-1.3
				C26.8,119.8,29.8,120.2,29.8,121.1"/>
			<path class="st80" d="M29.7,121.1c0,0.9-3.4,1.5-7,1.5c-3.6,0-7-0.7-7-1.5c0-0.9,3-1.3,7.1-1.3C26.8,119.8,29.7,120.2,29.7,121.1
				"/>
			<path class="st80" d="M29.5,121.1c0,0.8-3.3,1.5-6.9,1.5c-3.6,0-6.9-0.6-6.9-1.5c0-0.8,3-1.3,6.9-1.3
				C26.7,119.8,29.5,120.2,29.5,121.1"/>
			<path class="st81" d="M29.4,121.1c0,0.8-3.2,1.5-6.8,1.5c-3.5,0-6.8-0.6-6.8-1.5c0-0.8,2.9-1.2,6.8-1.2
				C26.6,119.8,29.4,120.2,29.4,121.1"/>
			<path class="st81" d="M29.3,121.1c0,0.8-3.2,1.4-6.7,1.4c-3.5,0-6.7-0.6-6.7-1.4c0-0.8,2.9-1.2,6.7-1.2
				C26.6,119.8,29.3,120.2,29.3,121.1"/>
			<path class="st82" d="M29.2,121.1c0,0.8-3.1,1.4-6.5,1.4c-3.4,0-6.5-0.6-6.5-1.4c0-0.8,2.8-1.2,6.6-1.2
				C26.5,119.9,29.2,120.3,29.2,121.1"/>
			<path class="st83" d="M29.1,121.1c0,0.8-3.1,1.4-6.4,1.4c-3.3,0-6.4-0.6-6.4-1.4c0-0.8,2.8-1.2,6.5-1.2
				C26.4,119.9,29.1,120.3,29.1,121.1"/>
			<path class="st83" d="M29,121.1c0,0.8-3,1.3-6.3,1.3c-3.3,0-6.3-0.6-6.3-1.3c0-0.8,2.7-1.2,6.4-1.2C26.4,119.9,29,120.3,29,121.1
				"/>
			<path class="st84" d="M28.9,121.1c0,0.8-3,1.3-6.2,1.3c-3.2,0-6.2-0.6-6.2-1.3c0-0.8,2.7-1.1,6.3-1.1
				C26.3,119.9,28.9,120.3,28.9,121.1"/>
			<path class="st84" d="M28.8,121.1c0,0.7-2.9,1.3-6.1,1.3c-3.2,0-6.1-0.6-6.1-1.3c0-0.7,2.6-1.1,6.1-1.1
				C26.2,119.9,28.8,120.3,28.8,121.1"/>
			<path class="st85" d="M28.6,121.1c0,0.7-2.9,1.3-6,1.3c-3.1,0-6-0.5-6-1.3c0-0.7,2.6-1.1,6-1.1C26.2,120,28.6,120.3,28.6,121.1"
				/>
			<path class="st85" d="M28.5,121.1c0,0.7-2.8,1.2-5.9,1.2c-3.1,0-5.9-0.5-5.9-1.2c0-0.7,2.5-1.1,5.9-1.1
				C26.1,120,28.5,120.3,28.5,121.1"/>
			<path class="st86" d="M28.4,121.1c0,0.7-2.8,1.2-5.8,1.2c-3,0-5.8-0.5-5.8-1.2c0-0.7,2.5-1.1,5.8-1.1
				C26,120,28.4,120.4,28.4,121.1"/>
			<path class="st86" d="M28.3,121.1c0,0.7-2.7,1.2-5.6,1.2c-2.9,0-5.6-0.5-5.6-1.2c0-0.7,2.4-1,5.7-1C26,120,28.3,120.4,28.3,121.1
				"/>
			<path class="st87" d="M28.2,121.1c0,0.7-2.7,1.2-5.5,1.2c-2.9,0-5.5-0.5-5.5-1.2c0-0.7,2.4-1,5.6-1
				C25.9,120,28.2,120.4,28.2,121.1"/>
			<path class="st87" d="M28.1,121.1c0,0.7-2.6,1.1-5.4,1.1c-2.8,0-5.4-0.5-5.4-1.1c0-0.7,2.3-1,5.5-1
				C25.8,120.1,28.1,120.4,28.1,121.1"/>
			<path class="st88" d="M28,121.1c0,0.6-2.5,1.1-5.3,1.1c-2.8,0-5.3-0.5-5.3-1.1c0-0.7,2.3-1,5.4-1S28,120.4,28,121.1"/>
			<path class="st88" d="M27.9,121.1c0,0.6-2.5,1.1-5.2,1.1c-2.7,0-5.2-0.5-5.2-1.1c0-0.6,2.2-0.9,5.2-0.9
				C25.7,120.1,27.9,120.4,27.9,121.1"/>
			<path class="st89" d="M27.7,121.1c0,0.6-2.4,1.1-5.1,1.1c-2.6,0-5.1-0.4-5.1-1.1c0-0.6,2.2-0.9,5.1-0.9
				C25.6,120.1,27.7,120.4,27.7,121.1"/>
			<path class="st89" d="M27.6,121.1c0,0.6-2.4,1-5,1c-2.6,0-5-0.4-5-1c0-0.6,2.1-0.9,5-0.9C25.6,120.1,27.6,120.4,27.6,121.1"/>
			<path class="st90" d="M27.5,121.1c0,0.6-2.3,1-4.9,1c-2.5,0-4.9-0.4-4.9-1c0-0.6,2.1-0.9,4.9-0.9
				C25.5,120.2,27.5,120.5,27.5,121.1"/>
			<path class="st90" d="M27.4,121.1c0,0.6-2.3,1-4.7,1c-2.5,0-4.7-0.4-4.7-1c0-0.6,2-0.9,4.8-0.9C25.4,120.2,27.4,120.5,27.4,121.1
				"/>
			<path class="st91" d="M27.3,121.1c0,0.6-2.2,1-4.6,1c-2.4,0-4.6-0.4-4.6-1c0-0.6,2-0.8,4.7-0.8C25.4,120.2,27.3,120.5,27.3,121.1
				"/>
			<path class="st91" d="M27.2,121.1c0,0.6-2.2,0.9-4.5,0.9c-2.3,0-4.5-0.4-4.5-0.9c0-0.6,1.9-0.8,4.6-0.8S27.2,120.5,27.2,121.1"/>
			<path class="st92" d="M27.1,121.1c0,0.5-2.1,0.9-4.4,0.9c-2.3,0-4.4-0.4-4.4-0.9c0-0.5,1.9-0.8,4.4-0.8
				C25.2,120.3,27.1,120.5,27.1,121.1"/>
			<path class="st93" d="M27,121.1c0,0.5-2.1,0.9-4.3,0.9c-2.2,0-4.3-0.4-4.3-0.9c0-0.5,1.8-0.8,4.3-0.8
				C25.2,120.3,27,120.5,27,121.1"/>
			<path class="st93" d="M26.8,121.1c0,0.5-2,0.9-4.2,0.9c-2.2,0-4.2-0.3-4.2-0.9c0-0.5,1.8-0.8,4.2-0.8
				C25.1,120.3,26.8,120.5,26.8,121.1"/>
			<path class="st94" d="M26.7,121.1c0,0.5-2,0.8-4.1,0.8c-2.1,0-4.1-0.3-4.1-0.8c0-0.5,1.8-0.7,4.1-0.7
				C25,120.3,26.7,120.6,26.7,121.1"/>
			<path class="st94" d="M26.6,121.1c0,0.5-1.9,0.8-4,0.8c-2.1,0-4-0.3-4-0.8c0-0.5,1.7-0.7,4-0.7C25,120.3,26.6,120.6,26.6,121.1"
				/>
			<path class="st95" d="M26.5,121.1c0,0.5-1.8,0.8-3.8,0.8c-2,0-3.8-0.3-3.8-0.8c0-0.5,1.7-0.7,3.9-0.7
				C24.9,120.4,26.5,120.6,26.5,121.1"/>
			<path class="st95" d="M26.4,121.1c0,0.5-1.8,0.8-3.7,0.8c-1.9,0-3.7-0.3-3.7-0.8c0-0.5,1.6-0.7,3.8-0.7
				C24.8,120.4,26.4,120.6,26.4,121.1"/>
			<path class="st96" d="M26.3,121.1c0,0.4-1.7,0.7-3.6,0.7c-1.9,0-3.6-0.3-3.6-0.7c0-0.4,1.6-0.7,3.6-0.7
				C24.8,120.4,26.3,120.6,26.3,121.1"/>
			<path class="st96" d="M26.2,121.1c0,0.4-1.7,0.7-3.5,0.7c-1.8,0-3.5-0.3-3.5-0.7c0-0.4,1.5-0.6,3.5-0.6
				C24.7,120.4,26.2,120.6,26.2,121.1"/>
			<path class="st97" d="M26.1,121.1c0,0.4-1.6,0.7-3.4,0.7c-1.8,0-3.4-0.3-3.4-0.7c0-0.4,1.5-0.6,3.4-0.6
				C24.6,120.4,26.1,120.6,26.1,121.1"/>
			<path class="st97" d="M25.9,121.1c0,0.4-1.6,0.6-3.3,0.6c-1.7,0-3.3-0.2-3.3-0.6c0-0.4,1.4-0.6,3.3-0.6
				C24.6,120.5,25.9,120.6,25.9,121.1"/>
			<path class="st98" d="M25.8,121.1c0,0.4-1.5,0.6-3.2,0.6c-1.6,0-3.2-0.2-3.2-0.6c0-0.4,1.4-0.6,3.2-0.6
				C24.5,120.5,25.8,120.7,25.8,121.1"/>
			<path class="st98" d="M25.7,121.1c0,0.4-1.5,0.6-3.1,0.6c-1.6,0-3.1-0.2-3.1-0.6c0-0.4,1.3-0.6,3.1-0.6
				C24.5,120.5,25.7,120.7,25.7,121.1"/>
			<path class="st99" d="M25.6,121c0,0.4-1.4,0.6-2.9,0.6c-1.5,0-2.9-0.2-2.9-0.6c0-0.4,1.3-0.5,3-0.5
				C24.4,120.5,25.6,120.7,25.6,121"/>
			<path class="st99" d="M25.5,121c0,0.3-1.4,0.5-2.8,0.5c-1.5,0-2.8-0.2-2.8-0.5c0-0.3,1.2-0.5,2.9-0.5
				C24.3,120.5,25.5,120.7,25.5,121"/>
			<path class="st100" d="M25.4,121c0,0.3-1.3,0.5-2.7,0.5c-1.4,0-2.7-0.2-2.7-0.5c0-0.3,1.2-0.5,2.7-0.5
				C24.3,120.6,25.4,120.7,25.4,121"/>
			<path class="st100" d="M25.3,121c0,0.3-1.2,0.5-2.6,0.5c-1.4,0-2.6-0.2-2.6-0.5c0-0.3,1.1-0.5,2.6-0.5
				C24.2,120.6,25.3,120.7,25.3,121"/>
			<path class="st101" d="M25.2,121c0,0.3-1.2,0.5-2.5,0.5c-1.3,0-2.5-0.2-2.5-0.5c0-0.3,1.1-0.5,2.5-0.5
				C24.1,120.6,25.2,120.7,25.2,121"/>
			<path class="st101" d="M25,121c0,0.3-1.1,0.4-2.4,0.4c-1.2,0-2.4-0.1-2.4-0.4c0-0.3,1-0.4,2.4-0.4C24.1,120.6,25,120.8,25,121"/>
			<path class="st102" d="M24.9,121c0,0.3-1.1,0.4-2.3,0.4c-1.2,0-2.3-0.1-2.3-0.4c0-0.3,1-0.4,2.3-0.4
				C24,120.6,24.9,120.8,24.9,121"/>
			<path class="st1" d="M24.8,121c0,0.3-1,0.4-2.2,0.4c-1.1,0-2.2-0.1-2.2-0.4c0-0.3,0.9-0.4,2.2-0.4
				C23.9,120.7,24.8,120.8,24.8,121"/>
			<path class="st103" d="M2.4,94.8c0-11.2,9.1-20.3,20.2-20.3c11.2,0,20.2,9.1,20.2,20.3c0,11.2-9.1,20.3-20.2,20.3
				C11.4,115.1,2.4,106,2.4,94.8"/>
			<path class="st103" d="M31.3,76.5c3.2,3.1,5.2,7.5,5.2,12.4c0,9.6-7.8,17.4-17.3,17.4c-7.9,0-14.6-5.4-16.7-12.7
				c0.7-10.6,9.5-19,20.2-19C25.7,74.5,28.6,75.2,31.3,76.5"/>
			<path class="st104" d="M30.2,76c3.6,3.1,5.8,7.7,5.8,12.8c0,9.4-7.6,17-16.9,17c-8.1,0-14.9-5.7-16.5-13.4
				c1.2-10,9.8-17.8,20.1-17.8C25.3,74.5,27.9,75.1,30.2,76"/>
			<path class="st105" d="M29.1,75.6c3.9,3,6.4,7.8,6.4,13.1c0,9.1-7.4,16.5-16.5,16.5c-8.3,0-15.1-6.1-16.3-14.1
				c1.7-9.5,10-16.6,19.9-16.6C24.9,74.5,27.1,74.9,29.1,75.6"/>
			<path class="st106" d="M28,75.3c4.3,2.9,7.1,7.8,7.1,13.4c0,8.9-7.2,16.1-16.1,16.1c-8.4,0-15.4-6.5-16-14.8
				c2.2-8.9,10.1-15.5,19.7-15.5C24.5,74.5,26.3,74.8,28,75.3"/>
			<path class="st107" d="M26.9,75c4.7,2.7,7.8,7.8,7.8,13.6c0,8.7-7,15.7-15.7,15.7c-8.6,0-15.6-6.9-15.7-15.5
				c2.5-8.3,10.2-14.3,19.4-14.3C24.1,74.5,25.5,74.7,26.9,75"/>
			<path class="st108" d="M3.6,88.5c0-0.3,0-0.5,0-0.8c2.9-7.7,10.3-13.2,19-13.2c1,0,2.1,0.1,3.1,0.2c5.1,2.5,8.5,7.7,8.5,13.7
				c0,8.5-6.8,15.3-15.3,15.3C10.5,103.8,3.6,97,3.6,88.5"/>
			<path class="st109" d="M4,88.5c0-0.6,0-1.3,0.1-1.9c3.2-7.1,10.3-12,18.5-12c0.6,0,1.2,0,1.9,0.1c5.4,2.2,9.3,7.6,9.3,13.8
				c0,8.2-6.7,14.9-14.9,14.9C10.7,103.4,4,96.7,4,88.5"/>
			<path class="st110" d="M4.4,88.4c0-1,0.1-2,0.3-3c3.4-6.5,10.1-10.9,17.9-10.9c0.2,0,0.4,0,0.6,0c5.9,1.9,10.1,7.3,10.1,13.8
				c0,8-6.5,14.5-14.5,14.5S4.4,96.4,4.4,88.4"/>
			<path class="st111" d="M4.8,88.3c0-1.4,0.2-2.8,0.6-4.1c3.4-5.6,9.5-9.4,16.5-9.7c6.3,1.4,11,7,11,13.8c0,7.8-6.3,14.1-14.1,14.1
				C11.1,102.4,4.8,96.1,4.8,88.3"/>
			<path class="st112" d="M5.1,88.2c0-1.9,0.4-3.6,1-5.2c3.3-4.6,8.4-7.7,14.2-8.3c6.8,0.8,12,6.6,12,13.6c0,7.6-6.1,13.7-13.7,13.7
				S5.1,95.8,5.1,88.2"/>
			<path class="st113" d="M5.5,88.2c0-2.3,0.6-4.6,1.7-6.5c2.9-3.5,7-5.9,11.6-6.8c7.3,0,13.2,6,13.2,13.3c0,7.3-5.9,13.3-13.2,13.3
				C11.4,101.4,5.5,95.5,5.5,88.2"/>
			<path class="st114" d="M5.9,88.1c0-3,1-5.7,2.7-7.9c2.3-2.2,5.1-3.9,8.3-4.8c0.6-0.1,1.2-0.1,1.9-0.1c7.1,0,12.8,5.8,12.8,12.9
				c0,7.1-5.7,12.9-12.8,12.9C11.6,101,5.9,95.2,5.9,88.1"/>
			<path class="st115" d="M6.3,88c0-4.2,2.1-7.9,5.2-10.1c0.6-0.4,1.3-0.8,1.9-1.1c1.6-0.8,3.4-1.2,5.3-1.2
				c6.9,0,12.4,5.6,12.4,12.4c0,6.9-5.6,12.4-12.4,12.4C11.8,100.5,6.3,94.9,6.3,88"/>
			<path class="st116" d="M6.6,88c0-6.6,5.4-12,12-12c6.6,0,12,5.4,12,12c0,6.6-5.4,12-12,12C12,100,6.6,94.6,6.6,88"/>
			<path class="st117" d="M7,87.9c0-6.4,5.2-11.6,11.6-11.6c6.4,0,11.6,5.2,11.6,11.6c0,6.4-5.2,11.6-11.6,11.6
				C12.2,99.5,7,94.3,7,87.9"/>
			<path class="st118" d="M7.4,87.8c0-6.2,5-11.2,11.2-11.2c6.2,0,11.2,5,11.2,11.2c0,6.2-5,11.2-11.2,11.2
				C12.4,99.1,7.4,94,7.4,87.8"/>
			<path class="st119" d="M7.7,87.8c0-6,4.8-10.8,10.8-10.8c6,0,10.8,4.8,10.8,10.8c0,6-4.8,10.8-10.8,10.8
				C12.6,98.6,7.7,93.7,7.7,87.8"/>
			<path class="st120" d="M8.1,87.7c0-5.7,4.6-10.4,10.4-10.4c5.7,0,10.4,4.7,10.4,10.4c0,5.7-4.6,10.4-10.4,10.4
				C12.8,98.1,8.1,93.4,8.1,87.7"/>
			<path class="st121" d="M8.5,87.6c0-5.5,4.5-10,10-10c5.5,0,10,4.5,10,10c0,5.5-4.5,10-10,10C13,97.6,8.5,93.2,8.5,87.6"/>
			<path class="st122" d="M8.9,87.6c0-5.3,4.3-9.6,9.6-9.6c5.3,0,9.6,4.3,9.6,9.6c0,5.3-4.3,9.6-9.6,9.6
				C13.1,97.1,8.9,92.9,8.9,87.6"/>
			<path class="st123" d="M9.2,87.5c0-5.1,4.1-9.2,9.2-9.2c5.1,0,9.1,4.1,9.1,9.2c0,5.1-4.1,9.2-9.1,9.2
				C13.3,96.7,9.2,92.6,9.2,87.5"/>
			<path class="st124" d="M9.6,87.4c0-4.8,3.9-8.8,8.7-8.8c4.8,0,8.7,3.9,8.7,8.8c0,4.8-3.9,8.8-8.7,8.8
				C13.5,96.2,9.6,92.3,9.6,87.4"/>
			<path class="st125" d="M10,87.4c0-4.6,3.7-8.3,8.3-8.3c4.6,0,8.3,3.7,8.3,8.3c0,4.6-3.7,8.3-8.3,8.3C13.7,95.7,10,92,10,87.4"/>
			<path class="st126" d="M10.4,87.3c0-4.4,3.5-7.9,7.9-7.9c4.4,0,7.9,3.6,7.9,7.9c0,4.4-3.5,7.9-7.9,7.9
				C13.9,95.2,10.4,91.7,10.4,87.3"/>
			<path class="st127" d="M10.7,87.2c0-4.2,3.4-7.5,7.5-7.5c4.1,0,7.5,3.4,7.5,7.5c0,4.2-3.4,7.5-7.5,7.5
				C14.1,94.8,10.7,91.4,10.7,87.2"/>
			<path class="st128" d="M11.1,87.2c0-3.9,3.2-7.1,7.1-7.1c3.9,0,7.1,3.2,7.1,7.1c0,3.9-3.2,7.1-7.1,7.1
				C14.3,94.3,11.1,91.1,11.1,87.2"/>
			<path class="st129" d="M11.5,87.1c0-3.7,3-6.7,6.7-6.7s6.7,3,6.7,6.7c0,3.7-3,6.7-6.7,6.7S11.5,90.8,11.5,87.1"/>
			<path class="st130" d="M11.9,87c0-3.5,2.8-6.3,6.3-6.3c3.5,0,6.3,2.8,6.3,6.3c0,3.5-2.8,6.3-6.3,6.3C14.7,93.3,11.9,90.5,11.9,87
				"/>
			<path class="st131" d="M12.2,87c0-3.3,2.6-5.9,5.9-5.9c3.2,0,5.9,2.6,5.9,5.9c0,3.3-2.6,5.9-5.9,5.9C14.9,92.8,12.2,90.2,12.2,87
				"/>
			<path class="st132" d="M12.6,86.9c0-3,2.4-5.5,5.5-5.5c3,0,5.5,2.5,5.5,5.5c0,3-2.4,5.5-5.5,5.5C15,92.4,12.6,89.9,12.6,86.9"/>
			<path class="st133" d="M13,86.8c0-2.8,2.3-5.1,5.1-5.1c2.8,0,5.1,2.3,5.1,5.1c0,2.8-2.3,5.1-5.1,5.1C15.2,91.9,13,89.6,13,86.8"
				/>
			<path class="st134" d="M13.3,86.7c0-2.6,2.1-4.7,4.6-4.7c2.6,0,4.6,2.1,4.6,4.7c0,2.6-2.1,4.7-4.6,4.7
				C15.4,91.4,13.3,89.3,13.3,86.7"/>
			<path class="st135" d="M13.7,86.7c0-2.3,1.9-4.2,4.2-4.2c2.3,0,4.2,1.9,4.2,4.2c0,2.3-1.9,4.2-4.2,4.2
				C15.6,90.9,13.7,89,13.7,86.7"/>
			<path class="st136" d="M14.1,86.6c0-2.1,1.7-3.8,3.8-3.8c2.1,0,3.8,1.7,3.8,3.8c0,2.1-1.7,3.8-3.8,3.8
				C15.8,90.4,14.1,88.7,14.1,86.6"/>
			<path class="st137" d="M14.5,86.5c0-1.9,1.5-3.4,3.4-3.4c1.9,0,3.4,1.5,3.4,3.4c0,1.9-1.5,3.4-3.4,3.4C16,90,14.5,88.4,14.5,86.5
				"/>
			<path class="st138" d="M14.8,86.5c0-1.7,1.3-3,3-3c1.7,0,3,1.4,3,3c0,1.7-1.3,3-3,3C16.2,89.5,14.8,88.1,14.8,86.5"/>
			<path class="st139" d="M15.2,86.4c0-1.4,1.2-2.6,2.6-2.6c1.4,0,2.6,1.2,2.6,2.6c0,1.4-1.2,2.6-2.6,2.6
				C16.4,89,15.2,87.8,15.2,86.4"/>
			<path class="st140" d="M15.6,86.3c0-1.2,1-2.2,2.2-2.2c1.2,0,2.2,1,2.2,2.2c0,1.2-1,2.2-2.2,2.2C16.6,88.5,15.6,87.6,15.6,86.3"
				/>
			<path class="st141" d="M16,86.3c0-1,0.8-1.8,1.8-1.8c1,0,1.8,0.8,1.8,1.8c0,1-0.8,1.8-1.8,1.8C16.8,88.1,16,87.3,16,86.3"/>
			<path class="st142" d="M16.3,86.2c0-0.8,0.6-1.4,1.4-1.4c0.8,0,1.4,0.6,1.4,1.4c0,0.8-0.6,1.4-1.4,1.4
				C16.9,87.6,16.3,87,16.3,86.2"/>
			<path class="st143" d="M16.7,86.1c0-0.5,0.4-1,1-1c0.5,0,1,0.4,1,1c0,0.5-0.4,1-1,1C17.1,87.1,16.7,86.7,16.7,86.1"/>
			<path class="st2" d="M17.1,86.1c0-0.3,0.2-0.6,0.6-0.6c0.3,0,0.6,0.3,0.6,0.6c0,0.3-0.2,0.6-0.6,0.6
				C17.3,86.6,17.1,86.4,17.1,86.1"/>
		</g>
	</g>
</g>
</svg>
