<?xml version="1.0" encoding="utf-8"?>
<!-- Generator: Adobe Illustrator 23.0.4, SVG Export Plug-In . SVG Version: 6.00 Build 0)  -->
<svg version="1.1" id="Calque_1" xmlns="http://www.w3.org/2000/svg" xmlns:xlink="http://www.w3.org/1999/xlink" x="0px" y="0px"
	 viewBox="0 0 200 200" style="enable-background:new 0 0 200 200;" xml:space="preserve">
<style type="text/css">
	.st0{fill:#2566AF;}
	.st1{fill:#E6A540;}
</style>
<g>
	<g>
		<path class="st0" d="M86.7,131.4H70.4l10.2-62.7h16.3L86.7,131.4z M56.7,68.7l-15.6,43.1l-1.8-9.3l0,0l-5.5-28.2
			c0,0-0.7-5.6-7.7-5.6H0.3L0,69.7c0,0,7.9,1.6,17.1,7.2l14.2,54.5h17l26-62.7L56.7,68.7L56.7,68.7z M185,131.4h15l-13.1-62.7h-13.1
			c-6.1,0-7.5,4.7-7.5,4.7l-24.3,58h17l3.4-9.3h20.7L185,131.4L185,131.4z M167.1,109.2l8.6-23.5l4.8,23.5H167.1z M143.2,83.8
			l2.3-13.5c0,0-7.2-2.7-14.7-2.7c-8.1,0-27.3,3.5-27.3,20.8c0,16.2,22.6,16.4,22.6,24.9s-20.2,7-26.9,1.6l-2.4,14.1
			c0,0,7.3,3.5,18.4,3.5c11.1,0,27.9-5.8,27.9-21.5c0-16.3-22.8-17.8-22.8-24.9C120.3,79,136.2,79.9,143.2,83.8L143.2,83.8z"/>
	</g>
	<path class="st1" d="M39.3,102.5l-5.5-28.2c0,0-0.7-5.6-7.7-5.6H0.3L0,69.7c0,0,12.4,2.6,24.2,12.2
		C35.6,91.1,39.3,102.5,39.3,102.5z"/>
</g>
</svg>
